<svg width="57" height="56" viewBox="0 0 57 56" fill="none" xmlns="http://www.w3.org/2000/svg">
    <mask id="path-2-outside-1_1516_6667" maskUnits="userSpaceOnUse" x="13" y="22" width="31"
        height="13" fill="black">
        <rect fill="white" x="13" y="22" width="31" height="13" />
        <path d="M26 24H30V32H26V24Z" />
    </mask>
    <path
        d="M18 24H18.75V22.3693L17.5119 23.4306L18 24ZM39.3333 24H40.0833V22.3693L38.8452 23.4306L39.3333 24ZM14.4881 27.998L18.4881 24.5694L17.5119 23.4306L13.5119 26.8591L14.4881 27.998ZM17.25 24V32H18.75V24H17.25ZM35.8214 27.998L39.8214 24.5694L38.8452 23.4306L34.8452 26.8591L35.8214 27.998ZM38.5833 24V32H40.0833V24H38.5833ZM14 34.0833H22V32.5833H14V34.0833ZM35.3333 34.0833H43.3333V32.5833H35.3333V34.0833ZM26 24V22.5L24.5 24H26ZM30 24H31.5L30 22.5V24ZM30 32V33.5L31.5 32H30ZM26 32H24.5L26 33.5V32ZM26 25.5H30V22.5H26V25.5ZM28.5 24V32H31.5V24H28.5ZM30 30.5H26V33.5H30V30.5ZM27.5 32V24H24.5V32H27.5Z"
        fill="#110F2A" mask="url(#path-2-outside-1_1516_6667)" />
    <rect x="1.66675" y="1" width="54" height="54" rx="27" stroke="#16A34A" stroke-width="2" />
</svg>
    