<svg width="251" height="250" viewBox="0 0 251 250" fill="none" xmlns="http://www.w3.org/2000/svg">
<rect x="1.53333" y="1.03333" width="247.933" height="247.933" rx="123.967" fill="#FAFAFA"/>
<path fill-rule="evenodd" clip-rule="evenodd" d="M98.8238 149.887V140.503L81.2092 140.519V149.887H98.8238ZM133.739 100.139L123.79 109.524H112.345V149.824L100.957 139.114V109.503L110.896 100.139H133.739ZM112.555 149.887L122.504 140.503H133.948V100.202L145.337 110.912V140.523L135.398 149.887H112.555ZM202.65 149.887V140.503L185.035 140.519V149.887H202.65ZM173.59 100.113L152.176 120.286L159.22 126.921L173.584 113.39V140.503H155.911V149.887H175.033L184.965 140.53L184.972 140.529V140.523L184.977 140.519V140.503H184.972V110.848L173.59 100.113ZM69.7636 100.113L48.35 120.286L55.3938 126.921L69.7574 113.39V140.503H52.0846V149.887H71.2068L81.1393 140.53L81.1462 140.529V140.523L81.1505 140.519V140.503H81.1462V110.848L69.7636 100.113Z" fill="black"/>
<rect x="1.53333" y="1.03333" width="247.933" height="247.933" rx="123.967" stroke="#8B5DF5" stroke-width="2.06667"/>
</svg>
