<svg width="24" height="24" viewBox="0 0 24 24" fill="none" xmlns="http://www.w3.org/2000/svg">
<path fill-rule="evenodd" clip-rule="evenodd" d="M1 4C1 2.34315 2.34315 1 4 1H20C21.6569 1 23 2.34315 23 4V20C23 21.6569 21.6569 23 20 23H4C2.34315 23 1 21.6569 1 20V4ZM4 3C3.44772 3 3 3.44772 3 4V20C3 20.5523 3.44772 21 4 21H20C20.5523 21 21 20.5523 21 20V4C21 3.44772 20.5523 3 20 3H4Z" fill="#110F2A"/>
<path fill-rule="evenodd" clip-rule="evenodd" d="M16.2093 7.00063C16.5944 7.01426 16.9373 7.24792 17.091 7.60128L18.9165 11.8H21C21.5523 11.8 22 12.2477 22 12.8C22 13.3523 21.5523 13.8 21 13.8H18.2609C17.8627 13.8 17.5025 13.5638 17.3438 13.1987L16.0918 10.3192L12.8866 16.4626C12.7241 16.7739 12.4103 16.9772 12.0597 16.9982C11.7092 17.0192 11.3733 16.8548 11.1749 16.565L8.01034 11.9437L6.76947 13.4387C6.57948 13.6676 6.29746 13.8 6 13.8H3C2.44772 13.8 2 13.3523 2 12.8C2 12.2477 2.44772 11.8 3 11.8H5.53044L7.31749 9.64703C7.51782 9.40568 7.81979 9.27231 8.13312 9.28678C8.44644 9.30126 8.73482 9.46191 8.91204 9.72071L11.8839 14.0606L15.2873 7.53744C15.4656 7.19582 15.8242 6.987 16.2093 7.00063Z" fill="#110F2A"/>
<path d="M6.62497 21.5C11.8709 19.9323 20.2928 16.9911 21.769 12L22.625 19.5L20.125 22.5C16.4076 22.2786 5.35155 21.8806 6.62497 21.5Z" fill="#110F2A"/>
</svg>
