<svg width="16" height="16" viewBox="0 0 16 16" fill="none" xmlns="http://www.w3.org/2000/svg">
<path d="M11.3333 6.11378C11.2084 5.98962 11.0395 5.91992 10.8633 5.91992C10.6872 5.91992 10.5182 5.98962 10.3933 6.11378L8.00001 8.47378L5.64001 6.11378C5.5151 5.98962 5.34613 5.91992 5.17001 5.91992C4.99388 5.91992 4.82491 5.98962 4.70001 6.11378C4.63752 6.17576 4.58792 6.24949 4.55408 6.33073C4.52023 6.41197 4.50281 6.49911 4.50281 6.58712C4.50281 6.67512 4.52023 6.76226 4.55408 6.8435C4.58792 6.92474 4.63752 6.99848 4.70001 7.06045L7.52667 9.88712C7.58865 9.9496 7.66238 9.9992 7.74362 10.033C7.82486 10.0669 7.912 10.0843 8.00001 10.0843C8.08801 10.0843 8.17515 10.0669 8.25639 10.033C8.33763 9.9992 8.41136 9.9496 8.47334 9.88712L11.3333 7.06045C11.3958 6.99848 11.4454 6.92474 11.4793 6.8435C11.5131 6.76226 11.5305 6.67512 11.5305 6.58712C11.5305 6.49911 11.5131 6.41197 11.4793 6.33073C11.4454 6.24949 11.3958 6.17576 11.3333 6.11378Z" fill="#110F2A"/>
</svg>
