<svg width="61" height="61" viewBox="0 0 61 61" fill="none" xmlns="http://www.w3.org/2000/svg">
<path fill-rule="evenodd" clip-rule="evenodd" d="M32.4928 1.76883C31.5419 0.352773 29.4588 0.352775 28.5079 1.76883L25.5395 6.1893C24.8704 7.18568 23.5681 7.53462 22.4905 7.00627L17.7095 4.66224C16.178 3.91135 14.374 4.9529 14.2585 6.65469L13.898 11.9671C13.8167 13.1646 12.8634 14.1179 11.666 14.1991L6.35354 14.5596C4.65175 14.6751 3.6102 16.4791 4.36109 18.0107L6.70512 22.7916C7.23347 23.8693 6.88453 25.1715 5.88815 25.8406L1.46768 28.809C0.0516259 29.7599 0.0516273 31.843 1.46768 32.7939L5.88815 35.7623C6.88453 36.4314 7.23347 37.7337 6.70512 38.8113L4.36109 43.5923C3.6102 45.1238 4.65175 46.9278 6.35354 47.0433L11.666 47.4038C12.8634 47.485 13.8167 48.4384 13.898 49.6358L14.2585 54.9482C14.374 56.65 16.178 57.6916 17.7095 56.9407L22.4905 54.5967C23.5681 54.0683 24.8704 54.4173 25.5395 55.4136L28.5079 59.8341C29.4588 61.2502 31.5419 61.2502 32.4928 59.8341L35.4612 55.4136C36.1303 54.4172 37.4325 54.0683 38.5102 54.5967L43.2911 56.9407C44.8227 57.6916 46.6267 56.65 46.7421 54.9482L47.1026 49.6358C47.1839 48.4384 48.1372 47.485 49.3346 47.4038L54.6471 47.0433C56.3489 46.9278 57.3904 45.1238 56.6395 43.5923L54.2955 38.8113C53.7672 37.7337 54.1161 36.4314 55.1125 35.7623L59.533 32.7939C60.949 31.843 60.949 29.7599 59.533 28.809L55.1125 25.8406C54.1161 25.1715 53.7672 23.8693 54.2955 22.7916L56.6395 18.0107C57.3904 16.4791 56.3489 14.6751 54.6471 14.5596L49.3346 14.1991C48.1372 14.1179 47.1839 13.1646 47.1026 11.9671L46.7421 6.65469C46.6267 4.9529 44.8227 3.91135 43.2911 4.66224L38.5102 7.00627C37.4325 7.53462 36.1303 7.18568 35.4612 6.1893L32.4928 1.76883ZM44.8504 24.686C45.8918 23.6446 45.8918 21.9562 44.8504 20.9148C43.809 19.8734 42.1206 19.8734 41.0792 20.9148L26.9648 35.0292L19.9207 27.9851C18.8793 26.9437 17.1909 26.9437 16.1495 27.9851C15.1081 29.0265 15.1081 30.715 16.1495 31.7564L25.0792 40.686C26.1206 41.7274 27.809 41.7274 28.8504 40.686L44.8504 24.686Z" fill="#14532D"/>
</svg>
