<svg width="16" height="16" viewBox="0 0 16 16" fill="none" xmlns="http://www.w3.org/2000/svg">
<path d="M7.52659 10.4733C7.58999 10.534 7.66475 10.5816 7.74659 10.6133C7.90889 10.68 8.09094 10.68 8.25325 10.6133C8.33509 10.5816 8.40985 10.534 8.47325 10.4733L10.4733 8.47335C10.5988 8.34781 10.6693 8.17755 10.6693 8.00001C10.6693 7.82248 10.5988 7.65222 10.4733 7.52668C10.3477 7.40114 10.1775 7.33062 9.99992 7.33062C9.82238 7.33062 9.65212 7.40114 9.52659 7.52668L8.66659 8.39335V6.00001C8.66659 5.8232 8.59635 5.65363 8.47132 5.52861C8.3463 5.40358 8.17673 5.33335 7.99992 5.33335C7.82311 5.33335 7.65354 5.40358 7.52851 5.52861C7.40349 5.65363 7.33325 5.8232 7.33325 6.00001V8.39335L6.47325 7.52668C6.41128 7.46419 6.33754 7.4146 6.2563 7.38075C6.17506 7.34691 6.08793 7.32948 5.99992 7.32948C5.91191 7.32948 5.82477 7.34691 5.74353 7.38075C5.66229 7.4146 5.58856 7.46419 5.52659 7.52668C5.4641 7.58865 5.4145 7.66239 5.38066 7.74363C5.34681 7.82487 5.32939 7.912 5.32939 8.00001C5.32939 8.08802 5.34681 8.17516 5.38066 8.2564C5.4145 8.33764 5.4641 8.41137 5.52659 8.47335L7.52659 10.4733ZM7.99992 14.6667C9.31846 14.6667 10.6074 14.2757 11.7037 13.5431C12.8 12.8106 13.6545 11.7694 14.1591 10.5512C14.6637 9.33306 14.7957 7.99262 14.5385 6.69941C14.2813 5.4062 13.6463 4.21832 12.714 3.28597C11.7816 2.35362 10.5937 1.71868 9.30052 1.46144C8.00731 1.20421 6.66687 1.33623 5.4487 1.84082C4.23052 2.3454 3.18933 3.19988 2.45679 4.29621C1.72425 5.39254 1.33325 6.68147 1.33325 8.00001C1.33325 9.76812 2.03563 11.4638 3.28587 12.7141C3.90493 13.3331 4.63986 13.8242 5.4487 14.1592C6.25753 14.4942 7.12444 14.6667 7.99992 14.6667ZM7.99992 2.66668C9.05475 2.66668 10.0859 2.97947 10.963 3.56551C11.84 4.15154 12.5236 4.9845 12.9273 5.95903C13.3309 6.93357 13.4366 8.00593 13.2308 9.04049C13.025 10.0751 12.517 11.0254 11.7712 11.7712C11.0253 12.5171 10.075 13.0251 9.0404 13.2309C8.00584 13.4367 6.93348 13.331 5.95894 12.9274C4.9844 12.5237 4.15145 11.8401 3.56541 10.9631C2.97938 10.086 2.66659 9.05485 2.66659 8.00001C2.66659 6.58553 3.22849 5.22897 4.22868 4.22878C5.22888 3.22858 6.58543 2.66668 7.99992 2.66668Z" fill="#474A69"/>
</svg>
