<svg width="16" height="16" viewBox="0 0 16 16" fill="none" xmlns="http://www.w3.org/2000/svg">
    <path d="M10.3602 7.52685L6.58682 3.76019C6.52484 3.6977 6.45111 3.64811 6.36987 3.61426C6.28863 3.58041 6.20149 3.56299 6.11348 3.56299C6.02548 3.56299 5.93834 3.58041 5.8571 3.61426C5.77586 3.64811 5.70213 3.6977 5.64015 3.76019C5.51598 3.8851 5.44629 4.05406 5.44629 4.23019C5.44629 4.40631 5.51598 4.57528 5.64015 4.70019L8.94015 8.03352L5.64015 11.3335C5.51598 11.4584 5.44629 11.6274 5.44629 11.8035C5.44629 11.9796 5.51598 12.1486 5.64015 12.2735C5.70189 12.3365 5.77552 12.3866 5.85677 12.421C5.93802 12.4553 6.02528 12.4732 6.11348 12.4735C6.20169 12.4732 6.28894 12.4553 6.37019 12.421C6.45144 12.3866 6.52507 12.3365 6.58682 12.2735L10.3602 8.50685C10.4278 8.44443 10.4818 8.36866 10.5188 8.28432C10.5557 8.19999 10.5748 8.10892 10.5748 8.01685C10.5748 7.92479 10.5557 7.83372 10.5188 7.74938C10.4818 7.66505 10.4278 7.58928 10.3602 7.52685Z" fill="#4F46E5" />
</svg>
    