<svg width="16" height="16" viewBox="0 0 16 16" fill="none" xmlns="http://www.w3.org/2000/svg">
<path d="M8.47325 5.52668C8.40985 5.46598 8.33509 5.41841 8.25325 5.38668C8.09095 5.32 7.9089 5.32 7.74659 5.38668C7.66475 5.41841 7.58999 5.46598 7.52659 5.52668L5.52659 7.52668C5.40105 7.65221 5.33053 7.82248 5.33053 8.00001C5.33053 8.17754 5.40105 8.34781 5.52659 8.47334C5.65212 8.59888 5.82239 8.6694 5.99992 8.6694C6.17746 8.6694 6.34772 8.59888 6.47325 8.47334L7.33325 7.60668V10C7.33325 10.1768 7.40349 10.3464 7.52852 10.4714C7.65354 10.5964 7.82311 10.6667 7.99992 10.6667C8.17673 10.6667 8.3463 10.5964 8.47133 10.4714C8.59635 10.3464 8.66659 10.1768 8.66659 10V7.60668L9.52659 8.47334C9.58856 8.53583 9.6623 8.58543 9.74354 8.61927C9.82478 8.65312 9.91191 8.67054 9.99992 8.67054C10.0879 8.67054 10.1751 8.65312 10.2563 8.61927C10.3375 8.58543 10.4113 8.53583 10.4733 8.47334C10.5357 8.41137 10.5853 8.33763 10.6192 8.25639C10.653 8.17516 10.6705 8.08802 10.6705 8.00001C10.6705 7.912 10.653 7.82487 10.6192 7.74363C10.5853 7.66239 10.5357 7.58865 10.4733 7.52668L8.47325 5.52668ZM7.99992 1.33334C6.68138 1.33334 5.39245 1.72434 4.29612 2.45688C3.19979 3.18942 2.34531 4.23061 1.84072 5.44879C1.33614 6.66696 1.20412 8.00741 1.46135 9.30061C1.71859 10.5938 2.35353 11.7817 3.28588 12.7141C4.21823 13.6464 5.40611 14.2813 6.69932 14.5386C7.99253 14.7958 9.33297 14.6638 10.5511 14.1592C11.7693 13.6546 12.8105 12.8001 13.5431 11.7038C14.2756 10.6075 14.6666 9.31855 14.6666 8.00001C14.6666 7.12453 14.4941 6.25762 14.1591 5.44879C13.8241 4.63995 13.333 3.90502 12.714 3.28596C12.0949 2.66691 11.36 2.17584 10.5511 1.84081C9.74231 1.50578 8.8754 1.33334 7.99992 1.33334ZM7.99992 13.3333C6.94509 13.3333 5.91394 13.0205 5.03688 12.4345C4.15982 11.8485 3.47623 11.0155 3.07256 10.041C2.6689 9.06645 2.56328 7.99409 2.76907 6.95953C2.97485 5.92496 3.48281 4.97465 4.22869 4.22877C4.97457 3.48289 5.92487 2.97494 6.95944 2.76916C7.99401 2.56337 9.06636 2.66899 10.0409 3.07265C11.0154 3.47632 11.8484 4.15991 12.4344 5.03697C13.0205 5.91403 13.3333 6.94518 13.3333 8.00001C13.3333 9.4145 12.7714 10.7711 11.7712 11.7712C10.771 12.7714 9.41441 13.3333 7.99992 13.3333Z" fill="#474A69"/>
</svg>
