<svg width="24" height="24" viewBox="0 0 24 24" fill="none" xmlns="http://www.w3.org/2000/svg">
<path d="M17.5142 9.42872C16.8279 8.23758 15.5782 7.4408 14.1503 7.4408C11.9835 7.4408 10.227 9.27568 10.227 11.5391C10.227 12.2327 10.3919 12.886 10.6831 13.4586C11.1706 13.6073 11.6862 13.687 12.2197 13.687C13.7691 13.687 15.1681 13.0147 16.164 11.9342C16.801 11.243 17.2732 10.3848 17.5142 9.42872Z" fill="#D946EF"/>
<path fill-rule="evenodd" clip-rule="evenodd" d="M11.9999 2.63086C9.12513 2.63086 6.79471 4.96128 6.79471 7.83601C6.79471 10.7107 9.12513 13.0412 11.9999 13.0412C14.8746 13.0412 17.205 10.7107 17.205 7.83601C17.205 4.96128 14.8746 2.63086 11.9999 2.63086ZM4.71265 7.83601C4.71265 3.81139 7.97524 0.548798 11.9999 0.548798C16.0245 0.548798 19.2871 3.81139 19.2871 7.83601C19.2871 11.8606 16.0245 15.1232 11.9999 15.1232C7.97524 15.1232 4.71265 11.8606 4.71265 7.83601Z" fill="#D946EF"/>
<path fill-rule="evenodd" clip-rule="evenodd" d="M9.08127 13.0729C9.64839 13.2147 9.9932 13.7893 9.85142 14.3565L8.34917 20.3654L11.4607 18.523C11.7933 18.3261 12.2067 18.3261 12.5393 18.523L15.6508 20.3654L14.1486 14.3565C14.0068 13.7893 14.3516 13.2147 14.9187 13.0729C15.4858 12.9311 16.0605 13.2759 16.2023 13.843L18.3193 22.3108C18.4228 22.725 18.2674 23.1609 17.925 23.4161C17.5827 23.6713 17.1205 23.6958 16.7531 23.4783L12 20.6639L7.24687 23.4783C6.87945 23.6958 6.4173 23.6713 6.07496 23.4161C5.73262 23.1609 5.57714 22.725 5.6807 22.3108L7.79767 13.843C7.93945 13.2759 8.51414 12.9311 9.08127 13.0729Z" fill="#D946EF"/>
</svg>
