<svg width="24" height="24" viewBox="0 0 24 24" fill="none" xmlns="http://www.w3.org/2000/svg">
<path fill-rule="evenodd" clip-rule="evenodd" d="M19.7527 3.11302C19.6949 2.56376 19.2029 2.1653 18.6536 2.22303L2.65196 3.90487C2.1027 3.9626 1.70424 4.45466 1.76197 5.00392L3.44381 21.0056C3.50154 21.5548 3.9936 21.9533 4.54286 21.8956L20.5445 20.2137C21.0938 20.156 21.4922 19.6639 21.4345 19.1147L19.7527 3.11302ZM11.1815 6.52258C10.8514 6.52258 10.5839 6.79016 10.5839 7.12024V14.1262C10.5839 14.4486 10.8452 14.7099 11.1675 14.7099H11.2735C11.5373 14.7099 11.7512 14.496 11.7512 14.2322V13.8173C11.7512 13.7826 11.7793 13.7544 11.814 13.7544V13.7544C11.8369 13.7544 11.8579 13.7669 11.8693 13.7867C11.94 13.9095 12.0366 14.048 12.159 14.2022C12.2922 14.3701 12.4761 14.5167 12.7106 14.6419C12.9478 14.7672 13.253 14.8298 13.6261 14.8298C14.1218 14.8298 14.5629 14.7032 14.9494 14.45C15.3358 14.1942 15.6396 13.8304 15.8608 13.3587C16.082 12.8843 16.1926 12.3153 16.1926 11.6516C16.1926 10.988 16.0807 10.4203 15.8568 9.94862C15.6356 9.47689 15.3305 9.11576 14.9414 8.86524C14.5523 8.61471 14.1098 8.48945 13.6141 8.48945C13.233 8.48945 12.9265 8.55341 12.6947 8.68134C12.4628 8.8066 12.2816 8.95319 12.151 9.12109C12.0283 9.2788 11.9327 9.41887 11.8641 9.54131C11.856 9.55575 11.8408 9.56484 11.8243 9.56484V9.56484C11.7994 9.56484 11.7792 9.54464 11.7792 9.51974V7.12024C11.7792 6.79016 11.5116 6.52258 11.1815 6.52258V6.52258ZM11.9431 12.775C11.8178 12.4498 11.7552 12.0714 11.7552 11.6396C11.7552 11.2132 11.8165 10.8401 11.9391 10.5203C12.0617 10.2005 12.2416 9.95128 12.4788 9.77272C12.7186 9.59415 13.0118 9.50487 13.3583 9.50487C13.7181 9.50487 14.0179 9.59815 14.2578 9.78471C14.5003 9.97127 14.6815 10.2258 14.8014 10.5483C14.924 10.8708 14.9853 11.2345 14.9853 11.6396C14.9853 12.0501 14.9227 12.4192 14.7974 12.747C14.6749 13.0748 14.4936 13.3347 14.2538 13.5266C14.0139 13.7158 13.7154 13.8104 13.3583 13.8104C13.0145 13.8104 12.724 13.7198 12.4868 13.5386C12.2496 13.3547 12.0683 13.1001 11.9431 12.775Z" fill="#A0A0A0"/>
<path fill-rule="evenodd" clip-rule="evenodd" d="M5.2525 2.00012C4.70022 2.00012 4.2525 2.44784 4.2525 3.00012V19.0899C4.2525 19.6422 4.70022 20.0899 5.2525 20.0899H21.3423C21.8946 20.0899 22.3423 19.6422 22.3423 19.0899V3.00012C22.3423 2.44784 21.8946 2.00012 21.3423 2.00012H5.2525ZM10.5839 6.52262V14.7099H11.7512V13.7545H11.8512C11.9231 13.8851 12.0257 14.0343 12.159 14.2022C12.2923 14.3701 12.4762 14.5167 12.7107 14.642C12.9479 14.7672 13.253 14.8299 13.6262 14.8299C14.1219 14.8299 14.563 14.7033 14.9494 14.4501C15.3358 14.1942 15.6397 13.8304 15.8609 13.3587C16.0821 12.8843 16.1927 12.3153 16.1927 11.6517C16.1927 10.9881 16.0808 10.4204 15.8569 9.94866C15.6357 9.47693 15.3305 9.1158 14.9414 8.86528C14.5523 8.61475 14.1099 8.48949 13.6142 8.48949C13.2331 8.48949 12.9266 8.55345 12.6947 8.68138C12.4628 8.80664 12.2816 8.95323 12.151 9.12113C12.0204 9.28903 11.9205 9.43695 11.8512 9.56488H11.7792V6.52262H10.5839ZM11.9431 12.775C11.8179 12.4499 11.7552 12.0714 11.7552 11.6397C11.7552 11.2133 11.8165 10.8401 11.9391 10.5203C12.0617 10.2005 12.2416 9.95132 12.4788 9.77276C12.7187 9.59419 13.0118 9.50491 13.3583 9.50491C13.7181 9.50491 14.0179 9.59819 14.2578 9.78475C14.5003 9.97131 14.6816 10.2258 14.8015 10.5483C14.9241 10.8708 14.9854 11.2346 14.9854 11.6397C14.9854 12.0501 14.9228 12.4192 14.7975 12.7471C14.6749 13.0749 14.4937 13.3347 14.2538 13.5266C14.0139 13.7158 13.7154 13.8104 13.3583 13.8104C13.0145 13.8104 12.724 13.7198 12.4868 13.5386C12.2496 13.3547 12.0684 13.1002 11.9431 12.775Z" fill="#1E69AF"/>
</svg>
