<svg xmlns="http://www.w3.org/2000/svg" width="112.545" height="108.61" viewBox="0 0 112.545 108.61">
  <g id="blockscan-logo-symbol-dark" transform="translate(-246.455 -232)">
    <rect id="box" width="98" height="97" transform="translate(246.455 244.333) rotate(-7)" fill="#1E69AF" opacity="0.4"/>
    <rect id="box-2" data-name="box" width="98" height="97" transform="translate(261 232)" fill="#1E69AF"/>
    <path id="b" d="M23.1-33.48a14.659,14.659,0,0,1,7.71,2.04,13.942,13.942,0,0,1,5.31,5.88,19.89,19.89,0,0,1,1.92,9A20.034,20.034,0,0,1,36.12-7.5a13.942,13.942,0,0,1-5.31,5.88A14.659,14.659,0,0,1,23.1.42,13.078,13.078,0,0,1,15.42-1.8a11.61,11.61,0,0,1-4.44-5.88V0H4.14V-44.4h6.84v19.02a11.61,11.61,0,0,1,4.44-5.88A13.078,13.078,0,0,1,23.1-33.48Zm-2.1,6a9.934,9.934,0,0,0-5.16,1.35,9.542,9.542,0,0,0-3.6,3.84,12.05,12.05,0,0,0-1.32,5.73,12,12,0,0,0,1.32,5.76,9.59,9.59,0,0,0,3.6,3.81A9.934,9.934,0,0,0,21-5.64a9.618,9.618,0,0,0,7.32-2.91q2.76-2.91,2.76-8.01a11.19,11.19,0,0,0-2.76-7.98A9.567,9.567,0,0,0,21-27.48Z" transform="translate(290 302)" fill="#fff"/>
  </g>
</svg>