<svg width="16" height="16" viewBox="0 0 16 16" fill="none" xmlns="http://www.w3.org/2000/svg">
<path d="M7.33331 2.66667H2.66665C2.31302 2.66667 1.97389 2.80715 1.72384 3.0572C1.47379 3.30724 1.33331 3.64638 1.33331 4.00001V13.3333C1.33331 13.687 1.47379 14.0261 1.72384 14.2761C1.97389 14.5262 2.31302 14.6667 2.66665 14.6667H12C12.3536 14.6667 12.6927 14.5262 12.9428 14.2761C13.1928 14.0261 13.3333 13.687 13.3333 13.3333V8.66667" stroke="black" stroke-width="1.33333" stroke-linecap="round" stroke-linejoin="round"/>
<path d="M12.3333 1.66667C12.5985 1.40145 12.9582 1.25246 13.3333 1.25246C13.7084 1.25246 14.0681 1.40145 14.3333 1.66667C14.5985 1.93189 14.7475 2.2916 14.7475 2.66667C14.7475 3.04174 14.5985 3.40145 14.3333 3.66667L7.99998 10L5.33331 10.6667L5.99998 8L12.3333 1.66667Z" stroke="black" stroke-width="1.33333" stroke-linecap="round" stroke-linejoin="round"/>
</svg>
