<svg width="48" height="49" viewBox="0 0 48 49" fill="none" xmlns="http://www.w3.org/2000/svg">
    <rect y="0.5" width="48" height="48" rx="6" fill="#F1F3F9" />
    <g clip-path="url(#clip0_3008_41949)">
        <path
            d="M31 21.5H26V16.5H17V24.357L18.5 25.75L22 22L25 27L27 24.5L30 27.5L27 27L25 29.5L22 25.5L19 29L17 27.75V32.5H31V21.5ZM33 20.5V33.493C33.0009 33.6243 32.976 33.7545 32.9266 33.8762C32.8772 33.9979 32.8043 34.1087 32.7121 34.2022C32.6199 34.2957 32.5101 34.3701 32.3892 34.4212C32.2682 34.4723 32.1383 34.4991 32.007 34.5H15.993C15.7298 34.5 15.4774 34.3955 15.2912 34.2095C15.105 34.0235 15.0003 33.7712 15 33.508V15.492C15 14.955 15.449 14.5 16.002 14.5H26.997L33 20.5Z"
            fill="#646B8B" />
    </g>
    <defs>
        <clipPath id="clip0_3008_41949">
            <rect width="24" height="24" fill="white" transform="translate(12 12.5)" />
        </clipPath>
    </defs>
</svg>
    