<svg width="16" height="17" viewBox="0 0 16 17" fill="none" xmlns="http://www.w3.org/2000/svg">
    <path d="M12.6666 5.16667H11.9999V4.5C11.9999 3.96957 11.7892 3.46086 11.4141 3.08579C11.0391 2.71071 10.5304 2.5 9.99992 2.5H3.33325C2.80282 2.5 2.29411 2.71071 1.91904 3.08579C1.54397 3.46086 1.33325 3.96957 1.33325 4.5V12.5C1.33325 13.0304 1.54397 13.5391 1.91904 13.9142C2.29411 14.2893 2.80282 14.5 3.33325 14.5H12.6666C13.197 14.5 13.7057 14.2893 14.0808 13.9142C14.4559 13.5391 14.6666 13.0304 14.6666 12.5V7.16667C14.6666 6.63623 14.4559 6.12753 14.0808 5.75245C13.7057 5.37738 13.197 5.16667 12.6666 5.16667ZM3.33325 3.83333H9.99992C10.1767 3.83333 10.3463 3.90357 10.4713 4.0286C10.5963 4.15362 10.6666 4.32319 10.6666 4.5V5.16667H3.33325C3.15644 5.16667 2.98687 5.09643 2.86185 4.9714C2.73682 4.84638 2.66659 4.67681 2.66659 4.5C2.66659 4.32319 2.73682 4.15362 2.86185 4.0286C2.98687 3.90357 3.15644 3.83333 3.33325 3.83333ZM13.3333 7.83333H12.6666C12.1362 7.83333 11.6274 8.04405 11.2524 8.41912C10.8773 8.79419 10.6666 9.3029 10.6666 9.83333C10.6666 10.3638 10.8773 10.8725 11.2524 11.2475C11.6274 11.6226 12.1362 11.8333 12.6666 11.8333H13.3333V12.5C13.3333 12.6768 13.263 12.8464 13.138 12.9714C13.013 13.0964 12.8434 13.1667 12.6666 13.1667H3.33325C3.15644 13.1667 2.98687 13.0964 2.86185 12.9714C2.73682 12.8464 2.66659 12.6768 2.66659 12.5V6.38667C2.88076 6.46201 3.10621 6.50034 3.33325 6.5H12.6666C12.8434 6.5 13.013 6.57024 13.138 6.69526C13.263 6.82029 13.3333 6.98986 13.3333 7.16667V7.83333Z" fill="#333655" />
</svg>
    