<svg width="24" height="25" viewBox="0 0 24 25" fill="none" xmlns="http://www.w3.org/2000/svg">
<path d="M0.707327 3.2918C0 4.44605 0 6.0173 0 9.15979V16.8398C0 19.9823 0 21.5535 0.707327 22.7078C1.10311 23.3536 1.64614 23.8967 2.29201 24.2925C3.44626 24.9998 5.01751 24.9998 8.16 24.9998H15.84C18.9825 24.9998 20.5537 24.9998 21.708 24.2925C22.3539 23.8967 22.8969 23.3536 23.2927 22.7078C24 21.5535 24 19.9823 24 16.8398V9.15979C24 8.6402 24 8.38041 23.9322 8.20581C23.7307 7.68659 23.106 7.42797 22.5964 7.65278C22.425 7.72837 22.2375 7.91607 21.8623 8.29147L11.4863 18.6751C11.3748 18.7876 11.242 18.8769 11.0958 18.9378C10.9496 18.9987 10.7927 19.0301 10.6343 19.0301C10.4759 19.0301 10.319 18.9987 10.1728 18.9378C10.0266 18.8769 9.89386 18.7876 9.78231 18.6751L5.17431 14.0671C5.05848 13.9552 4.96583 13.8216 4.90164 13.6739C4.83744 13.5262 4.80297 13.3673 4.80018 13.2063C4.7974 13.0453 4.82635 12.8853 4.8854 12.7355C4.94444 12.5857 5.03242 12.4489 5.14431 12.3331C5.25619 12.2173 5.3898 12.1246 5.53749 12.0604C5.68519 11.9963 5.84408 11.9618 6.00509 11.959C6.16611 11.9562 6.3261 11.9852 6.47593 12.0442C6.62575 12.1033 6.76248 12.1912 6.87831 12.3031L10.6343 16.0711L22.1469 4.53891C22.603 4.08196 22.8311 3.85348 22.897 3.58042C22.9337 3.42851 22.934 3.26733 22.898 3.11527C22.8333 2.84193 22.6079 2.61423 22.1571 2.15884C22.0093 2.00952 21.8575 1.85669 21.708 1.70712C20.9293 0.92792 18.9825 0.99979 15.84 0.99979H8.16C5.01751 0.99979 3.44626 0.99979 2.29201 1.70712C1.64614 2.1029 1.10311 2.64593 0.707327 3.2918Z" fill="#333655"/>
</svg>
