<svg width="16" height="17" viewBox="0 0 16 17" fill="none" xmlns="http://www.w3.org/2000/svg">
    <path d="M10.6667 3.16675H12.0001C12.3537 3.16675 12.6928 3.30722 12.9429 3.55727C13.1929 3.80732 13.3334 4.14646 13.3334 4.50008V13.8334C13.3334 14.187 13.1929 14.5262 12.9429 14.7762C12.6928 15.0263 12.3537 15.1667 12.0001 15.1667H4.00008C3.64646 15.1667 3.30732 15.0263 3.05727 14.7762C2.80722 14.5262 2.66675 14.187 2.66675 13.8334V4.50008C2.66675 4.14646 2.80722 3.80732 3.05727 3.55727C3.30732 3.30722 3.64646 3.16675 4.00008 3.16675H5.33341" stroke="#333655" stroke-width="1.33" stroke-linecap="round" stroke-linejoin="round" />
    <path d="M9.99992 1.83325H5.99992C5.63173 1.83325 5.33325 2.13173 5.33325 2.49992V3.83325C5.33325 4.20144 5.63173 4.49992 5.99992 4.49992H9.99992C10.3681 4.49992 10.6666 4.20144 10.6666 3.83325V2.49992C10.6666 2.13173 10.3681 1.83325 9.99992 1.83325Z" stroke="#333655" stroke-width="1.33" stroke-linecap="round" stroke-linejoin="round" />
</svg>
    