<svg width="24" height="24" viewBox="0 0 24 24" fill="none" xmlns="http://www.w3.org/2000/svg">
<path d="M19.1592 6.43221C19.5985 5.99287 19.5985 5.28056 19.1592 4.84122C18.7199 4.40188 18.0076 4.40188 17.5682 4.84122L11.9997 10.4097L6.43124 4.84128C5.9919 4.40194 5.27959 4.40194 4.84025 4.84128C4.40091 5.28062 4.40091 5.99293 4.84025 6.43227L10.4087 12.0007L4.84029 17.5691C4.40095 18.0085 4.40095 18.7208 4.84029 19.1601C5.27963 19.5995 5.99194 19.5995 6.43128 19.1601L11.9997 13.5917L17.5682 19.1602C18.0075 19.5995 18.7198 19.5995 19.1592 19.1602C19.5985 18.7209 19.5985 18.0085 19.1592 17.5692L13.5907 12.0007L19.1592 6.43221Z" fill="#110F2A"/>
</svg>
