<svg width="16" height="17" viewBox="0 0 16 17" fill="none" xmlns="http://www.w3.org/2000/svg">
    <path d="M11.6703 6.90544L11.7935 7.18842L12.0892 7.27693C12.7024 7.46047 13.2292 7.85831 13.5735 8.39788C13.9178 8.93745 14.0567 9.5828 13.9648 10.2162C13.8729 10.8497 13.5564 11.429 13.073 11.8485C12.5898 12.2678 11.9721 12.4995 11.3324 12.5015L3.99993 12.5015L3.99853 12.5015C3.50793 12.5026 3.03404 12.3234 2.66685 11.998C2.29966 11.6727 2.06474 11.2238 2.0067 10.7367C1.94866 10.2495 2.07155 9.75802 2.35202 9.3555C2.6325 8.95299 3.05103 8.6675 3.52813 8.55324L3.97412 8.44644L4.0328 7.99161C4.14482 7.12322 4.53857 6.31553 5.15367 5.6924C5.76878 5.06926 6.57128 4.66507 7.43815 4.54178C8.30501 4.4185 9.18838 4.58294 9.95282 5.00988C10.7173 5.43683 11.3206 6.10271 11.6703 6.90544ZM11.3333 12.4982V12.4982L11.3409 12.4981C12.003 12.4906 12.6385 12.2368 13.1237 11.7862C13.609 11.3357 13.9091 10.7206 13.9656 10.0609L13.303 10.0041L13.9656 10.0609C14.0222 9.4012 13.8311 8.74406 13.4296 8.21751C13.0282 7.69096 12.4451 7.33271 11.7939 7.21257L11.7939 7.21248L11.7832 7.21067L11.7824 7.2103L11.7819 7.20957C11.4751 6.31546 10.8615 5.55893 10.0499 5.07426C9.23792 4.58934 8.2803 4.40797 7.3472 4.56236C6.4141 4.71676 5.56595 5.19693 4.95341 5.91756C4.34088 6.6382 4.00364 7.55264 4.00159 8.49842V8.49986C4.00159 8.5003 4.00142 8.50072 4.00111 8.50104L4.47133 8.97126L4.00111 8.50104C4.00079 8.50135 4.00037 8.50153 3.99993 8.50153C3.46994 8.50153 2.96165 8.71206 2.58689 9.08682C2.21213 9.46158 2.00159 9.96987 2.00159 10.4999C2.00159 11.0299 2.21213 11.5381 2.58689 11.9129C2.96165 12.2877 3.46994 12.4982 3.99993 12.4982H11.3333Z" fill="#110F2A" stroke="#4338CA" stroke-width="1.33" />
</svg>
    