<svg width="24" height="24" viewBox="0 0 24 24" fill="none" xmlns="http://www.w3.org/2000/svg">
<path fill-rule="evenodd" clip-rule="evenodd" d="M10.5422 3C7.04302 3 4.28318 5.88642 4.04674 9.41508C2.22384 10.3039 1 12.2493 1 14.4535C1 17.4504 3.28304 19.9999 6.24242 19.9999H17.1281L17.1515 20C20.4456 20 23 17.1596 23 13.804C23 10.4484 20.4456 7.60806 17.1515 7.60806C16.9965 7.60806 16.8427 7.61447 16.6905 7.62707C15.8117 4.96625 13.4247 3 10.5422 3ZM6.0303 9.90696C6.0303 7.1306 8.11442 5 10.5422 5C12.6833 5 14.5489 6.6476 14.968 8.94761C14.9725 8.97238 14.978 8.99689 14.9843 9.02107C15.3198 10.8884 15.1084 13.1688 14.0952 15.0809C13.3394 16.5072 12.3421 17.5478 11.2361 17.9999H6.24242C4.51575 17.9999 3 16.4785 3 14.4535C3 12.8016 4.02227 11.4654 5.3362 11.0473C5.76144 10.912 6.04557 10.5114 6.0326 10.0653C6.03107 10.0128 6.0303 9.95998 6.0303 9.90696Z" fill="#4338CA"/>
</svg>
