<svg width="16" height="17" viewBox="0 0 16 17" fill="none" xmlns="http://www.w3.org/2000/svg">
    <path d="M11.6703 6.90568L11.7935 7.18866L12.0892 7.27718C12.7024 7.46072 13.2292 7.85855 13.5735 8.39812C13.9178 8.93769 14.0567 9.58304 13.9648 10.2165C13.8729 10.8499 13.5564 11.4292 13.073 11.8487C12.5898 12.268 11.9721 12.4998 11.3324 12.5018L3.99993 12.5018L3.99853 12.5018C3.50793 12.5028 3.03404 12.3236 2.66685 11.9983C2.29966 11.6729 2.06474 11.2241 2.0067 10.7369C1.94866 10.2498 2.07155 9.75826 2.35202 9.35575C2.6325 8.95323 3.05103 8.66774 3.52813 8.55348L3.97412 8.44668L4.0328 7.99185C4.14482 7.12346 4.53857 6.31578 5.15367 5.69264C5.76878 5.06951 6.57128 4.66531 7.43815 4.54203C8.30501 4.41875 9.18838 4.58318 9.95282 5.01013C10.7173 5.43707 11.3206 6.10296 11.6703 6.90568ZM11.3333 12.4984V12.4985L11.3409 12.4984C12.003 12.4908 12.6385 12.237 13.1237 11.7865C13.609 11.3359 13.9091 10.7209 13.9656 10.0612L13.303 10.0044L13.9656 10.0612C14.0222 9.40144 13.8311 8.7443 13.4296 8.21775C13.0282 7.6912 12.4451 7.33296 11.7939 7.21281L11.7939 7.21272L11.7832 7.21092L11.7824 7.21054L11.7819 7.20982C11.4751 6.3157 10.8615 5.55917 10.0499 5.0745C9.23792 4.58958 8.2803 4.40821 7.3472 4.56261C6.4141 4.717 5.56595 5.19717 4.95341 5.91781C4.34088 6.63844 4.00364 7.55288 4.00159 8.49867V8.5001C4.00159 8.50055 4.00142 8.50097 4.00111 8.50128L4.47133 8.97151L4.00111 8.50128C4.00079 8.50159 4.00037 8.50177 3.99993 8.50177C3.46994 8.50177 2.96165 8.71231 2.58689 9.08707C2.21213 9.46183 2.00159 9.97011 2.00159 10.5001C2.00159 11.0301 2.21213 11.5384 2.58689 11.9131C2.96165 12.2879 3.46994 12.4984 3.99993 12.4984H11.3333Z" fill="black" stroke="#000" stroke-width="1.33" />
</svg>
    