<svg width="16" height="16" viewBox="0 0 16 16" fill="none" xmlns="http://www.w3.org/2000/svg">
<path d="M12 5.33333H12.6667C13.3739 5.33333 14.0522 5.61428 14.5523 6.11438C15.0524 6.61447 15.3333 7.29275 15.3333 7.99999C15.3333 8.70724 15.0524 9.38552 14.5523 9.88561C14.0522 10.3857 13.3739 10.6667 12.6667 10.6667H12" stroke="black" stroke-width="1.33" stroke-linecap="round" stroke-linejoin="round"/>
<path d="M1.33337 5.33333H12V11.3333C12 12.0406 11.7191 12.7188 11.219 13.2189C10.7189 13.719 10.0406 14 9.33337 14H4.00004C3.2928 14 2.61452 13.719 2.11442 13.2189C1.61433 12.7188 1.33337 12.0406 1.33337 11.3333V5.33333Z" stroke="black" stroke-width="1.33" stroke-linecap="round" stroke-linejoin="round"/>
<path d="M4 0.666672V2.66667" stroke="black" stroke-width="1.33" stroke-linecap="round" stroke-linejoin="round"/>
<path d="M6.66663 0.666672V2.66667" stroke="black" stroke-width="1.33" stroke-linecap="round" stroke-linejoin="round"/>
<path d="M9.33337 0.666672V2.66667" stroke="black" stroke-width="1.33" stroke-linecap="round" stroke-linejoin="round"/>
</svg>
