<svg width="16" height="16" viewBox="0 0 16 16" fill="none" xmlns="http://www.w3.org/2000/svg">
<path d="M12.6666 1.33331H3.33325C2.80282 1.33331 2.29411 1.54403 1.91904 1.9191C1.54397 2.29417 1.33325 2.80288 1.33325 3.33331V9.99998C1.33325 10.5304 1.54397 11.0391 1.91904 11.4142C2.29411 11.7893 2.80282 12 3.33325 12H11.0599L13.5266 14.4733C13.5889 14.5351 13.6628 14.584 13.744 14.6172C13.8252 14.6503 13.9122 14.6672 13.9999 14.6666C14.0874 14.6689 14.1741 14.6506 14.2533 14.6133C14.375 14.5633 14.4792 14.4784 14.5528 14.3692C14.6263 14.2601 14.6659 14.1316 14.6666 14V3.33331C14.6666 2.80288 14.4559 2.29417 14.0808 1.9191C13.7057 1.54403 13.197 1.33331 12.6666 1.33331ZM13.3333 12.3933L11.8066 10.86C11.7443 10.7982 11.6704 10.7493 11.5892 10.7161C11.508 10.683 11.421 10.6661 11.3333 10.6666H3.33325C3.15644 10.6666 2.98687 10.5964 2.86185 10.4714C2.73682 10.3464 2.66659 10.1768 2.66659 9.99998V3.33331C2.66659 3.1565 2.73682 2.98693 2.86185 2.86191C2.98687 2.73688 3.15644 2.66665 3.33325 2.66665H12.6666C12.8434 2.66665 13.013 2.73688 13.138 2.86191C13.263 2.98693 13.3333 3.1565 13.3333 3.33331V12.3933Z" fill="#474A69"/>
</svg>
