<svg width="16" height="17" viewBox="0 0 16 17" fill="none" xmlns="http://www.w3.org/2000/svg">
<path fill-rule="evenodd" clip-rule="evenodd" d="M8.00008 2.49996C4.68637 2.49996 2.00008 5.18625 2.00008 8.49996C2.00008 11.8137 4.68637 14.5 8.00008 14.5C11.3138 14.5 14.0001 11.8137 14.0001 8.49996C14.0001 5.18625 11.3138 2.49996 8.00008 2.49996ZM0.666748 8.49996C0.666748 4.44987 3.94999 1.16663 8.00008 1.16663C12.0502 1.16663 15.3334 4.44987 15.3334 8.49996C15.3334 12.55 12.0502 15.8333 8.00008 15.8333C3.94999 15.8333 0.666748 12.55 0.666748 8.49996Z" fill="#949BB8"/>
<path fill-rule="evenodd" clip-rule="evenodd" d="M10.4713 6.02864C10.7317 6.28899 10.7317 6.7111 10.4713 6.97145L6.47132 10.9714C6.21097 11.2318 5.78886 11.2318 5.52851 10.9714C5.26816 10.7111 5.26816 10.289 5.52851 10.0286L9.52851 6.02864C9.78886 5.76829 10.211 5.76829 10.4713 6.02864Z" fill="#949BB8"/>
<path fill-rule="evenodd" clip-rule="evenodd" d="M5.52851 6.02864C5.78886 5.76829 6.21097 5.76829 6.47132 6.02864L10.4713 10.0286C10.7317 10.289 10.7317 10.7111 10.4713 10.9714C10.211 11.2318 9.78886 11.2318 9.52851 10.9714L5.52851 6.97145C5.26816 6.7111 5.26816 6.28899 5.52851 6.02864Z" fill="#949BB8"/>
</svg>
