<svg width="16" height="17" viewBox="0 0 16 17" fill="none" xmlns="http://www.w3.org/2000/svg">
    <path fill-rule="evenodd" clip-rule="evenodd"
        d="M15.1382 1.36177C15.3985 1.62212 15.3985 2.04423 15.1382 2.30458L7.80482 9.63791C7.54447 9.89826 7.12236 9.89826 6.86201 9.63791C6.60166 9.37756 6.60166 8.95545 6.86201 8.6951L14.1953 1.36177C14.4557 1.10142 14.8778 1.10142 15.1382 1.36177Z"
        fill="#F8F9FC" />
    <path fill-rule="evenodd" clip-rule="evenodd"
        d="M15.1382 1.36178C15.3192 1.54288 15.3806 1.8117 15.296 2.05342L10.6293 15.3868C10.539 15.6448 10.3004 15.8215 10.0273 15.8326C9.75414 15.8438 9.50189 15.6871 9.39088 15.4373L6.82835 9.67159L1.06266 7.10906C0.812872 6.99805 0.656163 6.7458 0.667306 6.47268C0.678448 6.19956 0.855184 5.96092 1.11318 5.87062L14.4465 1.20395C14.6882 1.11935 14.9571 1.18069 15.1382 1.36178ZM3.1408 6.57359L7.60418 8.55731C7.755 8.62435 7.87559 8.74494 7.94263 8.89576L9.92635 13.3591L13.5801 2.91984L3.1408 6.57359Z"
        fill="#F8F9FC" />
</svg>
    