<svg width="16" height="17" viewBox="0 0 16 17" fill="none" xmlns="http://www.w3.org/2000/svg">
<path fill-rule="evenodd" clip-rule="evenodd" d="M4.82675 2.5L11.1734 2.5C11.5455 2.5002 11.9105 2.60419 12.2267 2.80028C12.5427 2.9962 12.7977 3.27629 12.9633 3.60912C12.9635 3.60941 12.9636 3.60971 12.9638 3.61L15.2629 8.20151C15.3093 8.29417 15.3334 8.39637 15.3334 8.5V12.5C15.3334 13.0304 15.1227 13.5391 14.7476 13.9142C14.3726 14.2893 13.8638 14.5 13.3334 14.5H2.66675C2.13631 14.5 1.62761 14.2893 1.25253 13.9142C0.877462 13.5391 0.666748 13.0304 0.666748 12.5V8.5C0.666748 8.39637 0.690906 8.29417 0.737303 8.20151L3.03639 3.61C3.03656 3.60968 3.03672 3.60935 3.03688 3.60903C3.20247 3.27624 3.45753 2.99618 3.77344 2.80028C4.08966 2.60419 4.45466 2.5002 4.82675 2.5ZM4.82697 3.83333C4.70299 3.83342 4.58149 3.86808 4.47612 3.93343C4.37071 3.99879 4.28563 4.09226 4.23043 4.20333L4.22953 4.20516L2.4128 7.83333H5.33341C5.55632 7.83333 5.76447 7.94473 5.88811 8.1302L7.02354 9.83333H8.97662L10.112 8.1302C10.2357 7.94473 10.4438 7.83333 10.6667 7.83333H13.5874L11.7706 4.20516L11.7697 4.20333C11.7145 4.09226 11.6295 3.99879 11.524 3.93343C11.4187 3.86809 11.2972 3.83342 11.1732 3.83333H4.82697ZM14.0001 9.16667H11.0235L9.88811 10.8698C9.76447 11.0553 9.55632 11.1667 9.33341 11.1667H6.66675C6.44385 11.1667 6.23569 11.0553 6.11205 10.8698L4.97663 9.16667H2.00008V12.5C2.00008 12.6768 2.07032 12.8464 2.19534 12.9714C2.32037 13.0964 2.48994 13.1667 2.66675 13.1667H13.3334C13.5102 13.1667 13.6798 13.0964 13.8048 12.9714C13.9298 12.8464 14.0001 12.6768 14.0001 12.5V9.16667Z" fill="#949BB8"/>
</svg>
