<svg width="16" height="17" viewBox="0 0 16 17" fill="none" xmlns="http://www.w3.org/2000/svg">
<path fill-rule="evenodd" clip-rule="evenodd" d="M10.4421 3.01561C9.26024 2.48901 7.93984 2.35856 6.6778 2.6437C5.41575 2.92884 4.27969 3.6143 3.43905 4.59785C2.59841 5.58141 2.09822 6.81035 2.01309 8.1014C1.92796 9.39245 2.26244 10.6764 2.96666 11.7619C3.67088 12.8473 4.70709 13.676 5.92076 14.1244C7.13444 14.5728 8.46054 14.6168 9.7013 14.25C10.9421 13.8831 12.031 13.125 12.8057 12.0887C13.5804 11.0524 13.9993 9.79346 14.0001 8.49961V7.88666C14.0001 7.51847 14.2986 7.21999 14.6668 7.21999C15.0349 7.21999 15.3334 7.51847 15.3334 7.88666V8.49999C15.3325 10.0814 14.8204 11.6205 13.8736 12.887C12.9267 14.1536 11.5958 15.0802 10.0793 15.5286C8.56286 15.9769 6.94207 15.9231 5.45869 15.3751C3.97531 14.827 2.70883 13.8142 1.84812 12.4876C0.98741 11.1609 0.578595 9.59162 0.682644 8.01367C0.786694 6.43572 1.39803 4.93368 2.42549 3.73156C3.45294 2.52944 4.84146 1.69165 6.38395 1.34315C7.92645 0.99464 9.54028 1.15409 10.9848 1.79771C11.3211 1.94756 11.4722 2.34168 11.3224 2.67799C11.1725 3.01431 10.7784 3.16546 10.4421 3.01561Z" fill="#949BB8"/>
<path fill-rule="evenodd" clip-rule="evenodd" d="M15.1378 2.69503C15.3982 2.95525 15.3984 3.37736 15.1382 3.63784L8.47156 10.3112C8.34656 10.4363 8.17695 10.5066 8.00009 10.5067C7.82322 10.5067 7.65358 10.4365 7.52851 10.3114L5.52851 8.3114C5.26816 8.05106 5.26816 7.62895 5.52851 7.3686C5.78886 7.10825 6.21097 7.10825 6.47132 7.3686L7.99968 8.89696L14.1949 2.6955C14.4552 2.43502 14.8773 2.43481 15.1378 2.69503Z" fill="#949BB8"/>
</svg>
