<svg width="24" height="24" viewBox="0 0 24 24" fill="none" xmlns="http://www.w3.org/2000/svg">
    <path fill-rule="evenodd" clip-rule="evenodd"
        d="M2.09666 1.00468C2.14865 1.0097 2.20033 1.01878 2.25117 1.03192L16.7347 4.52794C17.1132 4.6193 17.4042 4.92208 17.4806 5.3039L18.6337 11.0693C18.9927 10.9282 19.4169 11.0027 19.7071 11.2929L22.7071 14.2929C23.0976 14.6834 23.0976 15.3166 22.7071 15.7071L15.7071 22.7071C15.3166 23.0977 14.6834 23.0977 14.2929 22.7071L11.2929 19.7071C11.0027 19.4169 10.9281 18.9927 11.0693 18.6337L5.3039 17.4806C4.92208 17.4042 4.6193 17.1132 4.52794 16.7347L1.03243 2.25328C0.945835 1.92115 1.03265 1.55316 1.29289 1.29292C1.46627 1.11955 1.68747 1.02314 1.91402 1.00371C1.97443 0.99849 2.03556 0.998745 2.09666 1.00468ZM8.29237 9.70661L3.80605 5.22029L6.32228 15.6447L12.6713 16.9145L16.9145 12.6713L15.6447 6.32228L5.22021 3.80603L9.70658 8.2924C10.0982 8.10498 10.5369 8.00003 11 8.00003C12.6569 8.00003 14 9.34318 14 11C14 12.6569 12.6569 14 11 14C9.34315 14 8 12.6569 8 11C8 10.5369 8.10495 10.0982 8.29237 9.70661ZM10.2806 10.3054C10.1069 10.4853 10 10.7302 10 11C10 11.5523 10.4477 12 11 12C11.5523 12 12 11.5523 12 11C12 10.4477 11.5523 10 11 10C10.7302 10 10.4853 10.1069 10.3054 10.2806C10.3013 10.2848 10.2972 10.289 10.2931 10.2931C10.289 10.2973 10.2848 10.3014 10.2806 10.3054ZM18.71 13.7043L18.7071 13.7071L14.209 18.2052C15.7172 17.8088 17.3325 16.8485 18.7946 15.9793C19.3949 15.6225 19.9694 15.281 20.5 15.0001C20.5456 14.976 20.571 14.9795 20.5782 15.0076L20.5858 15L19 13.4142L18.71 13.7043Z"
        fill="currentColor" />
</svg>