<svg width="24" height="24" viewBox="0 0 24 24" fill="none" xmlns="http://www.w3.org/2000/svg">
    <rect width="24" height="24" rx="12" fill="#EEF2FF" />
    <path fill-rule="evenodd" clip-rule="evenodd" d="M10 4.66699C9.26362 4.66699 8.66667 5.26395 8.66667 6.00033L8 6.00033C7.46957 6.00033 6.96086 6.21104 6.58579 6.58611C6.21071 6.96118 6 7.46989 6 8.00033V17.3337C6 17.8641 6.21071 18.3728 6.58579 18.7479C6.96086 19.1229 7.46957 19.3337 8 19.3337H16C16.5304 19.3337 17.0391 19.1229 17.4142 18.7479C17.7893 18.3728 18 17.8641 18 17.3337V8.00033C18 7.46989 17.7893 6.96118 17.4142 6.58611C17.0391 6.21104 16.5304 6.00033 16 6.00033L15.3333 6.00033C15.3333 5.26395 14.7364 4.66699 14 4.66699H10ZM8.66667 7.33366C8.66667 8.07004 9.26362 8.66699 10 8.66699H14C14.7364 8.66699 15.3333 8.07004 15.3333 7.33366L16 7.33366C16.1768 7.33366 16.3464 7.4039 16.4714 7.52892C16.5964 7.65395 16.6667 7.82351 16.6667 8.00033V17.3337C16.6667 17.5105 16.5964 17.68 16.4714 17.8051C16.3464 17.9301 16.1768 18.0003 16 18.0003H8C7.82319 18.0003 7.65362 17.9301 7.5286 17.8051C7.40357 17.68 7.33333 17.5105 7.33333 17.3337V8.00033C7.33333 7.82351 7.40357 7.65394 7.5286 7.52892C7.65362 7.4039 7.82319 7.33366 8 7.33366L8.66667 7.33366Z" fill="#4F46E5" />
</svg>
    