<svg width="16" height="17" viewBox="0 0 16 17" fill="none" xmlns="http://www.w3.org/2000/svg">
    <g clip-path="url(#clip0_1522_8283)">
        <path
            d="M11.6763 6.78622C11.2187 5.99212 10.3856 5.46094 9.43369 5.46094C7.98915 5.46094 6.81813 6.68419 6.81813 8.19315C6.81813 8.65553 6.92808 9.09107 7.12216 9.47282C7.44717 9.57192 7.79096 9.62506 8.14662 9.62506C9.1795 9.62506 10.1122 9.17687 10.7761 8.45651C11.2008 7.99574 11.5156 7.42363 11.6763 6.78622Z"
            fill="#646B8B" />
        <path fill-rule="evenodd" clip-rule="evenodd"
            d="M7.99974 2.25425C6.08326 2.25425 4.52964 3.80787 4.52964 5.72435C4.52964 7.64084 6.08326 9.19445 7.99974 9.19445C9.91623 9.19445 11.4698 7.64084 11.4698 5.72435C11.4698 3.80787 9.91623 2.25425 7.99974 2.25425ZM3.1416 5.72435C3.1416 3.04127 5.31667 0.866211 7.99974 0.866211C10.6828 0.866211 12.8579 3.04127 12.8579 5.72435C12.8579 8.40743 10.6828 10.5825 7.99974 10.5825C5.31667 10.5825 3.1416 8.40743 3.1416 5.72435Z"
            fill="#646B8B" />
        <path fill-rule="evenodd" clip-rule="evenodd"
            d="M6.05426 9.21557C6.43234 9.3101 6.66222 9.69322 6.56769 10.0713L5.5662 14.0772L7.64055 12.849C7.86226 12.7177 8.13789 12.7177 8.3596 12.849L10.434 14.0772L9.43245 10.0713C9.33793 9.69322 9.5678 9.3101 9.94589 9.21557C10.324 9.12105 10.7071 9.35092 10.8016 9.72901L12.2129 15.3742C12.282 15.6503 12.1783 15.9409 11.9501 16.1111C11.7219 16.2812 11.4138 16.2976 11.1688 16.1525L8.00007 14.2763L4.83133 16.1525C4.58638 16.2976 4.27828 16.2812 4.05005 16.1111C3.82183 15.9409 3.71817 15.6503 3.78722 15.3742L5.19853 9.72901C5.29305 9.35092 5.67617 9.12105 6.05426 9.21557Z"
            fill="#646B8B" />
    </g>
    <defs>
        <clipPath id="clip0_1522_8283">
            <rect width="16" height="16" fill="white" transform="translate(0 0.5)" />
        </clipPath>
    </defs>
</svg>
    