<svg width="171" height="104" viewBox="0 0 171 104" fill="none" xmlns="http://www.w3.org/2000/svg">
    <circle cx="150.251" cy="36.6048" r="18.1614" transform="rotate(2.46332 150.251 36.6048)"
        stroke="#01501F" stroke-width="2.27017" />
    <circle cx="150.251" cy="36.6053" r="14.0102" transform="rotate(2.46332 150.251 36.6053)"
        fill="#01501F" fill-opacity="0.2" />
    <path
        d="M150.768 39.177C150.588 39.177 146.32 39.1397 143.055 35.8748C142.986 35.8057 142.919 35.7366 142.853 35.6662C142.169 34.9444 141.845 34.0867 141.914 33.1856C141.974 32.391 142.34 31.6202 142.945 31.0158C143.549 30.4114 144.319 30.0456 145.114 29.985C145.947 29.9214 146.743 30.1942 147.429 30.7754C147.503 29.8798 147.873 29.1243 148.506 28.5804C149.111 28.0611 149.915 27.7754 150.769 27.7754C151.623 27.7754 152.427 28.0611 153.032 28.5804C153.665 29.1243 154.035 29.8798 154.109 30.7754C154.795 30.1942 155.591 29.9214 156.424 29.985C157.218 30.0456 157.989 30.4114 158.593 31.0158C159.197 31.6202 159.563 32.3903 159.624 33.1856C159.692 34.0867 159.367 34.9444 158.685 35.6662C158.619 35.7359 158.551 35.8057 158.482 35.8748C155.217 39.1397 150.949 39.177 150.768 39.177ZM145.349 30.6548C144.609 30.6548 143.914 30.9986 143.42 31.4929C142.531 32.3818 142.128 33.9221 143.342 35.205C143.403 35.2704 143.466 35.3353 143.531 35.4001C146.601 38.4698 150.727 38.5053 150.769 38.5053C150.81 38.5053 154.944 38.4618 158.006 35.4001C158.071 35.3353 158.134 35.2704 158.196 35.205C159.41 33.9228 159.006 32.3818 158.117 31.4935C157.228 30.6047 155.688 30.2015 154.406 31.4146C154.34 31.4764 154.275 31.5394 154.21 31.6043C154.16 31.6544 154.113 31.7052 154.065 31.756L153.424 32.4319L153.449 31.5033C153.451 31.433 153.453 31.362 153.453 31.2904C153.453 31.1993 153.452 31.1088 153.449 31.0182C153.4 29.2534 152.026 28.4489 150.769 28.4489C149.513 28.4489 148.138 29.2527 148.089 31.0182C148.087 31.1081 148.086 31.1987 148.086 31.2904C148.086 31.3602 148.087 31.4293 148.089 31.4978L148.114 32.4319L147.475 31.7578C147.427 31.7064 147.378 31.655 147.328 31.6043C147.263 31.5394 147.198 31.4764 147.133 31.4146C146.562 30.8745 145.941 30.6548 145.349 30.6548Z"
        fill="#01501F" />
    <path
        d="M159.511 44.1307C158.308 44.6837 156.933 44.8281 155.633 44.5357C154.371 44.2519 153.265 43.5949 152.416 42.6301C152.499 42.6876 152.584 42.7433 152.672 42.7965C153.399 43.2345 154.207 43.4548 155.014 43.4548C155.732 43.4548 156.45 43.281 157.112 42.9311C157.159 42.9066 157.205 42.881 157.252 42.8546L156.919 42.2698C156.879 42.2931 156.838 42.3151 156.797 42.3365C155.601 42.9684 154.19 42.9256 153.02 42.2209C151.823 41.4996 151.108 40.2376 151.108 38.8453V38.5859H151.102H150.435H150.429V38.8453C150.429 40.2376 149.713 41.4996 148.516 42.2209C147.347 42.9256 145.935 42.969 144.739 42.3365C144.698 42.3151 144.657 42.2931 144.617 42.2698L144.284 42.8546C144.331 42.881 144.377 42.9066 144.424 42.9311C145.086 43.281 145.804 43.4548 146.522 43.4548C147.33 43.4548 148.136 43.2345 148.864 42.7965C148.952 42.7439 149.038 42.6883 149.121 42.6301C148.271 43.5949 147.165 44.2519 145.904 44.5357C144.603 44.8287 143.228 44.6844 142.025 44.1307L141.687 44.7168C142.586 45.1401 143.573 45.3567 144.565 45.3567C145.063 45.3567 145.562 45.3022 146.051 45.1921C147.56 44.8526 148.869 44.0329 149.837 42.8228C150.063 42.5402 150.26 42.2368 150.428 41.9193V45.3567H151.101V41.9077C151.27 42.2295 151.469 42.5372 151.698 42.8228C152.666 44.0329 153.975 44.852 155.484 45.1921C155.973 45.3022 156.472 45.3567 156.97 45.3567C157.962 45.3567 158.949 45.1401 159.848 44.7168L159.511 44.1307Z"
        fill="#01501F" />
    <path
        d="M150.331 35.6141H149.841C149.841 34.8855 149.132 34.2921 148.261 34.2921C147.389 34.2921 146.68 34.8849 146.68 35.6141H146.19C146.19 34.6157 147.119 33.8027 148.261 33.8027C149.402 33.8027 150.331 34.6151 150.331 35.6141Z"
        fill="#01501F" />
    <path
        d="M148.823 35.625C149.212 35.625 149.528 35.3098 149.528 34.9209C149.528 34.532 149.212 34.2168 148.823 34.2168C148.435 34.2168 148.119 34.532 148.119 34.9209C148.119 35.3098 148.435 35.625 148.823 35.625Z"
        fill="#01501F" />
    <path
        d="M155.351 35.6141H154.861C154.861 34.8855 154.152 34.2921 153.281 34.2921C152.409 34.2921 151.7 34.8849 151.7 35.6141H151.21C151.21 34.6157 152.139 33.8027 153.281 33.8027C154.422 33.8027 155.351 34.6151 155.351 35.6141Z"
        fill="#01501F" />
    <path
        d="M153.844 35.625C154.233 35.625 154.548 35.3098 154.548 34.9209C154.548 34.532 154.233 34.2168 153.844 34.2168C153.455 34.2168 153.14 34.532 153.14 34.9209C153.14 35.3098 153.455 35.625 153.844 35.625Z"
        fill="#01501F" />
    <path
        d="M150.76 37.413C150.183 37.413 149.649 37.1163 149.399 36.6581L149.829 36.4238C149.995 36.7273 150.36 36.9236 150.761 36.9236C151.161 36.9236 151.527 36.7273 151.692 36.4238L152.122 36.6581C151.872 37.1163 151.337 37.413 150.76 37.413Z"
        fill="#01501F" />
    <circle cx="20.9964" cy="55.2123" r="18.1614" transform="rotate(2.46332 20.9964 55.2123)"
        stroke="#0284C7" stroke-width="2.27017" />
    <circle cx="20.9964" cy="55.2107" r="14.0102" transform="rotate(2.46332 20.9964 55.2107)"
        fill="#BAE6FD" />
    <path
        d="M25.5297 52.6232V61.3256H17.2057V52.6232C17.2057 50.3246 19.0691 48.4613 21.3677 48.4613C23.6663 48.4613 25.5297 50.3246 25.5297 52.6232Z"
        fill="#0284C7" stroke="#0284C7" stroke-width="2.27017" />
    <g filter="url(#filter0_dd_3511_38156)">
        <rect x="37.2589" y="17.1016" width="99.8875" height="54.4841" rx="9.08068"
            transform="rotate(2.46332 37.2589 17.1016)" fill="white" fill-opacity="0.8" />
        <circle cx="85.9857" cy="46.4642" r="18.1614" transform="rotate(2.46332 85.9857 46.4642)"
            stroke="#C026D3" stroke-width="2.27017" />
        <circle cx="85.9856" cy="46.4627" r="14.0102" transform="rotate(2.46332 85.9856 46.4627)"
            fill="#FAE8FF" />
        <g clip-path="url(#clip0_3511_38156)">
            <path fill-rule="evenodd" clip-rule="evenodd"
                d="M79.0084 37.8219C79.0477 37.8257 79.0868 37.8326 79.1253 37.8425L90.0853 40.488C90.3717 40.5572 90.592 40.7863 90.6498 41.0752L91.5223 45.438C91.794 45.3312 92.115 45.3877 92.3346 45.6073L94.6048 47.8774C94.9003 48.1729 94.9003 48.6521 94.6048 48.9476L89.3077 54.2447C89.0122 54.5402 88.5331 54.5402 88.2376 54.2447L85.9674 51.9745C85.7478 51.7549 85.6914 51.4339 85.7982 51.1622L81.4354 50.2896C81.1465 50.2318 80.9173 50.0116 80.8482 49.7251L78.2031 38.7667C78.1375 38.5154 78.2032 38.237 78.4002 38.04C78.5314 37.9088 78.6987 37.8359 78.8702 37.8212C78.9159 37.8172 78.9622 37.8174 79.0084 37.8219ZM83.6968 44.4069L80.3019 41.012L82.206 48.9003L87.0105 49.8612L90.2214 46.6503L89.2605 41.8459L81.3721 39.9417L84.767 43.3367C85.0634 43.1949 85.3953 43.1154 85.7458 43.1154C86.9995 43.1154 88.0159 44.1318 88.0159 45.3856C88.0159 46.6394 86.9995 47.6558 85.7458 47.6558C84.492 47.6558 83.4756 46.6394 83.4756 45.3856C83.4756 45.0351 83.555 44.7032 83.6968 44.4069ZM85.2014 44.86C85.0699 44.9961 84.989 45.1814 84.989 45.3856C84.989 45.8035 85.3278 46.1423 85.7458 46.1423C86.1637 46.1423 86.5025 45.8035 86.5025 45.3856C86.5025 44.9677 86.1637 44.6289 85.7458 44.6289C85.5416 44.6289 85.3563 44.7098 85.2201 44.8412C85.2171 44.8444 85.214 44.8476 85.2108 44.8507C85.2077 44.8538 85.2046 44.8569 85.2014 44.86ZM91.5801 47.432L91.5779 47.4341L88.1741 50.8379C89.3154 50.5379 90.5377 49.8113 91.6441 49.1536C92.0984 48.8835 92.5331 48.6251 92.9346 48.4126C92.9691 48.3943 92.9883 48.397 92.9938 48.4182L92.9996 48.4125L91.7996 47.2125L91.5801 47.432Z"
                fill="#C026D3" />
        </g>
    </g>
    <defs>
        <filter id="filter0_dd_3511_38156" x="17.8909" y="11.4261" width="136.189" height="92.7791"
            filterUnits="userSpaceOnUse" color-interpolation-filters="sRGB">
            <feFlood flood-opacity="0" result="BackgroundImageFix" />
            <feColorMatrix in="SourceAlpha" type="matrix"
                values="0 0 0 0 0 0 0 0 0 0 0 0 0 0 0 0 0 0 127 0" result="hardAlpha" />
            <feOffset dy="4.54034" />
            <feGaussianBlur stdDeviation="3.40526" />
            <feColorMatrix type="matrix" values="0 0 0 0 0 0 0 0 0 0 0 0 0 0 0 0 0 0 0.05 0" />
            <feBlend mode="normal" in2="BackgroundImageFix" result="effect1_dropShadow_3511_38156" />
            <feColorMatrix in="SourceAlpha" type="matrix"
                values="0 0 0 0 0 0 0 0 0 0 0 0 0 0 0 0 0 0 127 0" result="hardAlpha" />
            <feOffset dy="11.3509" />
            <feGaussianBlur stdDeviation="8.51314" />
            <feColorMatrix type="matrix" values="0 0 0 0 0 0 0 0 0 0 0 0 0 0 0 0 0 0 0.1 0" />
            <feBlend mode="normal" in2="effect1_dropShadow_3511_38156"
                result="effect2_dropShadow_3511_38156" />
            <feBlend mode="normal" in="SourceGraphic" in2="effect2_dropShadow_3511_38156"
                result="shape" />
        </filter>
        <clipPath id="clip0_3511_38156">
            <rect width="18.1614" height="18.1614" fill="white"
                transform="translate(77.4218 37.0625)" />
        </clipPath>
    </defs>
</svg>
    