<svg width="149" height="81" viewBox="0 0 149 81" fill="none" xmlns="http://www.w3.org/2000/svg">
    <circle cx="131.545" cy="21.7803" r="16" transform="rotate(2.46332 131.545 21.7803)"
        stroke="#01501F" stroke-width="2" />
    <circle cx="131.545" cy="21.7799" r="12.3429" transform="rotate(2.46332 131.545 21.7799)"
        fill="#01501F" fill-opacity="0.2" />
    <path
        d="M132.001 24.0457C131.842 24.0457 128.081 24.0128 125.206 21.1365C125.145 21.0756 125.085 21.0147 125.027 20.9527C124.425 20.3168 124.139 19.5612 124.2 18.7673C124.253 18.0673 124.576 17.3882 125.108 16.8557C125.641 16.3233 126.319 16.001 127.02 15.9476C127.753 15.8916 128.454 16.1319 129.058 16.6439C129.124 15.8549 129.45 15.1893 130.008 14.7102C130.541 14.2527 131.249 14.001 132.001 14.001C132.753 14.001 133.462 14.2527 133.995 14.7102C134.553 15.1893 134.878 15.8549 134.944 16.6439C135.548 16.1319 136.25 15.8916 136.983 15.9476C137.683 16.001 138.362 16.3233 138.894 16.8557C139.427 17.3882 139.749 18.0667 139.802 18.7673C139.863 19.5612 139.576 20.3168 138.975 20.9527C138.917 21.0142 138.857 21.0756 138.797 21.1365C135.92 24.0128 132.16 24.0457 132.001 24.0457ZM127.227 16.5377C126.574 16.5377 125.962 16.8406 125.527 17.2761C124.744 18.0592 124.389 19.4162 125.458 20.5464C125.512 20.604 125.568 20.6611 125.625 20.7183C128.329 23.4227 131.964 23.4539 132.001 23.4539C132.037 23.4539 135.679 23.4157 138.377 20.7183C138.434 20.6611 138.49 20.604 138.544 20.5464C139.614 19.4167 139.258 18.0592 138.475 17.2766C137.692 16.4936 136.335 16.1384 135.205 17.2071C135.147 17.2615 135.09 17.3171 135.033 17.3742C134.989 17.4184 134.947 17.4631 134.905 17.5078L134.34 18.1034L134.362 17.2853C134.364 17.2233 134.366 17.1608 134.366 17.0977C134.366 17.0174 134.365 16.9376 134.363 16.8579C134.32 15.303 133.109 14.5943 132.002 14.5943C130.895 14.5943 129.683 15.3025 129.641 16.8579C129.638 16.9371 129.637 17.0169 129.637 17.0977C129.637 17.1591 129.639 17.22 129.641 17.2804L129.662 18.1034L129.099 17.5095C129.057 17.4642 129.014 17.4189 128.97 17.3742C128.912 17.3171 128.855 17.2615 128.798 17.2071C128.295 16.7312 127.748 16.5377 127.227 16.5377Z"
        fill="#01501F" />
    <path
        d="M139.703 28.4103C138.643 28.8975 137.432 29.0247 136.286 28.7671C135.175 28.517 134.2 27.9382 133.452 27.0883C133.525 27.139 133.601 27.188 133.678 27.2349C134.319 27.6208 135.03 27.8148 135.741 27.8148C136.373 27.8148 137.006 27.6617 137.589 27.3535C137.631 27.3319 137.672 27.3093 137.713 27.2861L137.42 26.7709C137.384 26.7913 137.348 26.8107 137.312 26.8296C136.259 27.3863 135.015 27.3486 133.984 26.7277C132.93 26.0923 132.3 24.9805 132.3 23.7539V23.5254H132.294H131.707H131.701V23.7539C131.701 24.9805 131.071 26.0923 130.017 26.7277C128.986 27.3486 127.742 27.3869 126.689 26.8296C126.653 26.8107 126.617 26.7913 126.582 26.7709L126.288 27.2861C126.329 27.3093 126.37 27.3319 126.412 27.3535C126.995 27.6617 127.627 27.8148 128.26 27.8148C128.971 27.8148 129.682 27.6208 130.323 27.2349C130.4 27.1885 130.476 27.1395 130.549 27.0883C129.801 27.9382 128.826 28.517 127.715 28.7671C126.569 29.0252 125.358 28.898 124.298 28.4103L124 28.9266C124.792 29.2996 125.662 29.4903 126.536 29.4903C126.974 29.4903 127.414 29.4424 127.845 29.3454C129.174 29.0463 130.328 28.3241 131.18 27.2581C131.38 27.0091 131.553 26.7418 131.701 26.4621V29.4903H132.294V26.4518C132.443 26.7353 132.618 27.0064 132.82 27.2581C133.673 28.3241 134.826 29.0457 136.155 29.3454C136.586 29.4424 137.026 29.4903 137.464 29.4903C138.338 29.4903 139.208 29.2996 140 28.9266L139.703 28.4103Z"
        fill="#01501F" />
    <path
        d="M131.615 20.9063H131.184C131.184 20.2645 130.56 19.7417 129.792 19.7417C129.024 19.7417 128.399 20.2639 128.399 20.9063H127.968C127.968 20.0268 128.786 19.3105 129.792 19.3105C130.797 19.3105 131.615 20.0263 131.615 20.9063Z"
        fill="#01501F" />
    <path
        d="M130.287 20.9154C130.63 20.9154 130.908 20.6377 130.908 20.2951C130.908 19.9525 130.63 19.6748 130.287 19.6748C129.945 19.6748 129.667 19.9525 129.667 20.2951C129.667 20.6377 129.945 20.9154 130.287 20.9154Z"
        fill="#01501F" />
    <path
        d="M136.038 20.9063H135.607C135.607 20.2645 134.982 19.7417 134.214 19.7417C133.446 19.7417 132.821 20.2639 132.821 20.9063H132.39C132.39 20.0268 133.208 19.3105 134.214 19.3105C135.22 19.3105 136.038 20.0263 136.038 20.9063Z"
        fill="#01501F" />
    <path
        d="M134.71 20.9154C135.053 20.9154 135.331 20.6377 135.331 20.2951C135.331 19.9525 135.053 19.6748 134.71 19.6748C134.368 19.6748 134.09 19.9525 134.09 20.2951C134.09 20.6377 134.368 20.9154 134.71 20.9154Z"
        fill="#01501F" />
    <path
        d="M131.994 22.4916C131.485 22.4916 131.014 22.2302 130.794 21.8265L131.173 21.6201C131.319 21.8874 131.641 22.0604 131.994 22.0604C132.347 22.0604 132.669 21.8874 132.815 21.6201L133.193 21.8265C132.973 22.2302 132.502 22.4916 131.994 22.4916Z"
        fill="#01501F" />
    <circle cx="17.673" cy="38.1729" r="16" transform="rotate(2.46332 17.673 38.1729)"
        stroke="#0284C7" stroke-width="2" />
    <circle cx="17.673" cy="38.1725" r="12.3429" transform="rotate(2.46332 17.673 38.1725)"
        fill="#BAE6FD" />
    <path
        d="M14.3335 35.8932C14.3335 33.8682 15.9751 32.2266 18.0002 32.2266C20.0252 32.2266 21.6668 33.8682 21.6668 35.8932V43.5599H14.3335V35.8932Z"
        fill="#0284C7" stroke="#0284C7" stroke-width="2" />
    <g filter="url(#filter0_dd_1659_10214)">
        <rect x="32" y="4.59863" width="88" height="48" rx="8"
            transform="rotate(2.46332 32 4.59863)" fill="white" fill-opacity="0.8" />
        <circle cx="74.9279" cy="30.4678" r="16" transform="rotate(2.46332 74.9279 30.4678)"
            stroke="#C026D3" stroke-width="2" />
        <circle cx="74.9279" cy="30.4674" r="12.3429" transform="rotate(2.46332 74.9279 30.4674)"
            fill="#FAE8FF" />
        <g clip-path="url(#clip0_1659_10214)">
            <path fill-rule="evenodd" clip-rule="evenodd"
                d="M68.7812 22.8576C68.8158 22.861 68.8503 22.867 68.8842 22.8758L78.5398 25.2065C78.7922 25.2674 78.9862 25.4692 79.0371 25.7238L79.8058 29.5673C80.0452 29.4733 80.328 29.523 80.5215 29.7164L82.5215 31.7164C82.7818 31.9768 82.7818 32.3989 82.5215 32.6593L77.8548 37.3259C77.5944 37.5863 77.1723 37.5863 76.912 37.3259L74.912 35.3259C74.7185 35.1324 74.6688 34.8496 74.7629 34.6103L70.9193 33.8416C70.6648 33.7906 70.4629 33.5966 70.402 33.3443L68.0717 23.69C68.0139 23.4686 68.0718 23.2233 68.2453 23.0498C68.3609 22.9342 68.5084 22.8699 68.6594 22.857C68.6997 22.8535 68.7404 22.8537 68.7812 22.8576ZM72.9116 28.6589L69.9207 25.668L71.5982 32.6176L75.8309 33.4641L78.6597 30.6354L77.8132 26.4027L70.8635 24.7252L73.8544 27.7161C74.1155 27.5911 74.408 27.5212 74.7167 27.5212C75.8213 27.5212 76.7167 28.4166 76.7167 29.5212C76.7167 30.6257 75.8213 31.5212 74.7167 31.5212C73.6121 31.5212 72.7167 30.6257 72.7167 29.5212C72.7167 29.2124 72.7867 28.92 72.9116 28.6589ZM74.2371 29.0581C74.1213 29.178 74.05 29.3413 74.05 29.5212C74.05 29.8894 74.3485 30.1878 74.7167 30.1878C75.0849 30.1878 75.3834 29.8894 75.3834 29.5212C75.3834 29.153 75.0849 28.8545 74.7167 28.8545C74.5368 28.8545 74.3736 28.9258 74.2536 29.0416C74.2509 29.0444 74.2482 29.0472 74.2455 29.0499C74.2427 29.0527 74.2399 29.0554 74.2371 29.0581ZM79.8567 31.324L79.8548 31.3259L76.8561 34.3246C77.8615 34.0603 78.9384 33.4202 79.9131 32.8407C80.3133 32.6028 80.6963 32.3751 81.05 32.1879C81.0804 32.1718 81.0974 32.1742 81.1022 32.1929L81.1072 32.1878L80.05 31.1307L79.8567 31.324Z"
                fill="#C026D3" />
        </g>
    </g>
    <defs>
        <filter id="filter0_dd_1659_10214" x="14.937" y="-0.401367" width="119.982" height="81.7378"
            filterUnits="userSpaceOnUse" color-interpolation-filters="sRGB">
            <feFlood flood-opacity="0" result="BackgroundImageFix" />
            <feColorMatrix in="SourceAlpha" type="matrix"
                values="0 0 0 0 0 0 0 0 0 0 0 0 0 0 0 0 0 0 127 0" result="hardAlpha" />
            <feOffset dy="4" />
            <feGaussianBlur stdDeviation="3" />
            <feColorMatrix type="matrix" values="0 0 0 0 0 0 0 0 0 0 0 0 0 0 0 0 0 0 0.05 0" />
            <feBlend mode="normal" in2="BackgroundImageFix" result="effect1_dropShadow_1659_10214" />
            <feColorMatrix in="SourceAlpha" type="matrix"
                values="0 0 0 0 0 0 0 0 0 0 0 0 0 0 0 0 0 0 127 0" result="hardAlpha" />
            <feOffset dy="10" />
            <feGaussianBlur stdDeviation="7.5" />
            <feColorMatrix type="matrix" values="0 0 0 0 0 0 0 0 0 0 0 0 0 0 0 0 0 0 0.1 0" />
            <feBlend mode="normal" in2="effect1_dropShadow_1659_10214"
                result="effect2_dropShadow_1659_10214" />
            <feBlend mode="normal" in="SourceGraphic" in2="effect2_dropShadow_1659_10214"
                result="shape" />
        </filter>
        <clipPath id="clip0_1659_10214">
            <rect width="16" height="16" fill="white" transform="translate(67.3833 22.1875)" />
        </clipPath>
    </defs>
</svg>
    