<svg width="16" height="17" viewBox="0 0 16 17" fill="none" xmlns="http://www.w3.org/2000/svg">
    <g clip-path="url(#clip0_2149_13272)">
        <path d="M11.676 6.78582C11.2185 5.99173 10.3853 5.46054 9.43344 5.46054C7.98891 5.46054 6.81788 6.6838 6.81788 8.19276C6.81788 8.65513 6.92784 9.09068 7.12191 9.47242C7.44693 9.57152 7.79071 9.62466 8.14637 9.62466C9.17925 9.62466 10.1119 9.17647 10.7759 8.45611C11.2006 7.99535 11.5153 7.42323 11.676 6.78582Z" fill="#F8F9FC" />
        <path fill-rule="evenodd" clip-rule="evenodd" d="M7.99999 2.25392C6.0835 2.25392 4.52989 3.80753 4.52989 5.72402C4.52989 7.6405 6.0835 9.19412 7.99999 9.19412C9.91647 9.19412 11.4701 7.6405 11.4701 5.72402C11.4701 3.80753 9.91647 2.25392 7.99999 2.25392ZM3.14185 5.72402C3.14185 3.04094 5.31691 0.865875 7.99999 0.865875C10.6831 0.865875 12.8581 3.04094 12.8581 5.72402C12.8581 8.40709 10.6831 10.5822 7.99999 10.5822C5.31691 10.5822 3.14185 8.40709 3.14185 5.72402Z" fill="#F8F9FC" />
        <path fill-rule="evenodd" clip-rule="evenodd" d="M6.05426 9.21524C6.43234 9.30976 6.66222 9.69288 6.56769 10.071L5.5662 14.0769L7.64055 12.8487C7.86226 12.7174 8.13789 12.7174 8.3596 12.8487L10.434 14.0769L9.43245 10.071C9.33793 9.69288 9.5678 9.30976 9.94589 9.21524C10.324 9.12071 10.7071 9.35059 10.8016 9.72867L12.2129 15.3738C12.282 15.65 12.1783 15.9406 11.9501 16.1107C11.7219 16.2809 11.4138 16.2972 11.1688 16.1522L8.00007 14.2759L4.83133 16.1522C4.58638 16.2972 4.27828 16.2809 4.05005 16.1107C3.82183 15.9406 3.71817 15.65 3.78722 15.3738L5.19853 9.72867C5.29305 9.35059 5.67617 9.12071 6.05426 9.21524Z" fill="#F8F9FC" />
    </g>
    <defs>
        <clipPath id="clip0_2149_13272">
            <rect width="16" height="16" fill="white" transform="translate(0 0.5)" />
        </clipPath>
    </defs>
</svg>
    