<svg width="16" height="17" viewBox="0 0 16 17" fill="none" xmlns="http://www.w3.org/2000/svg">
    <path d="M6 1.83301C4.15905 1.83301 2.66667 3.32539 2.66667 5.16634C2.66667 7.00729 4.15905 8.49967 6 8.49967C7.84095 8.49967 9.33333 7.00729 9.33333 5.16634C9.33333 3.32539 7.84095 1.83301 6 1.83301Z" fill="#110F2A" />
    <path d="M0.976311 10.8093C1.60143 10.1842 2.44928 9.83301 3.33333 9.83301H8.66667C9.55072 9.83301 10.3986 10.1842 11.0237 10.8093C11.6488 11.4344 12 12.2823 12 13.1663V14.4997C12 14.8679 11.7015 15.1663 11.3333 15.1663C10.9651 15.1663 10.6667 14.8679 10.6667 14.4997V13.1663C10.6667 12.6359 10.456 12.1272 10.0809 11.7521C9.70581 11.3771 9.1971 11.1663 8.66667 11.1663H3.33333C2.8029 11.1663 2.29419 11.3771 1.91912 11.7521C1.54405 12.1272 1.33333 12.6359 1.33333 13.1663V14.4997C1.33333 14.8679 1.03486 15.1663 0.666667 15.1663C0.298477 15.1663 0 14.8679 0 14.4997V13.1663C0 12.2823 0.35119 11.4344 0.976311 10.8093Z" fill="#110F2A" />
    <path d="M12.6878 10.4197C12.7799 10.0632 13.1435 9.8488 13.5 9.94085C14.2151 10.1255 14.8486 10.5424 15.3011 11.1261C15.7536 11.7098 15.9994 12.4273 16 13.1658V14.4997C16 14.8679 15.7015 15.1663 15.3333 15.1663C14.9651 15.1663 14.6667 14.8679 14.6667 14.4997V13.1668C14.6663 12.7238 14.5188 12.2932 14.2473 11.943C13.9759 11.5928 13.5957 11.3426 13.1667 11.2318C12.8102 11.1398 12.5958 10.7762 12.6878 10.4197Z" fill="#110F2A" />
    <path d="M10.832 1.94051C10.4753 1.84918 10.1122 2.0643 10.0208 2.42098C9.92951 2.77767 10.1446 3.14085 10.5013 3.23218C10.9315 3.34233 11.3128 3.59253 11.5851 3.94333C11.8574 4.29414 12.0052 4.72559 12.0052 5.16968C12.0052 5.61376 11.8574 6.04522 11.5851 6.39602C11.3128 6.74683 10.9315 6.99703 10.5013 7.10718C10.1446 7.1985 9.92951 7.56168 10.0208 7.91837C10.1122 8.27505 10.4753 8.49017 10.832 8.39884C11.549 8.21526 12.1846 7.79826 12.6384 7.21358C13.0922 6.62891 13.3386 5.90982 13.3386 5.16968C13.3386 4.42953 13.0922 3.71044 12.6384 3.12577C12.1846 2.54109 11.549 2.12409 10.832 1.94051Z" fill="#110F2A" />
</svg>
    