<svg width="16" height="16" viewBox="0 0 16 16" fill="none" xmlns="http://www.w3.org/2000/svg">
    <path fill-rule="evenodd" clip-rule="evenodd"
        d="M8.36629 0.795162C8.12762 0.613323 7.79689 0.613323 7.55823 0.795162L1.71796 5.24489C1.55246 5.37099 1.45532 5.56712 1.45532 5.77518V13.4033C1.45532 13.9218 1.66571 14.4162 2.0356 14.7785C2.40502 15.1404 2.90319 15.3413 3.41983 15.3413H12.5047C13.0213 15.3413 13.5195 15.1404 13.8889 14.7785C14.2588 14.4162 14.4692 13.9218 14.4692 13.4033V5.77518C14.4692 5.56712 14.3721 5.37099 14.2066 5.24489L8.36629 0.795162ZM2.78866 13.4033V6.10536L7.96226 2.16357L13.1359 6.10536V6.12289C11.908 10.1046 9.65336 12.7016 5.47767 14.008H3.41983C3.24805 14.008 3.086 13.941 2.96864 13.826C2.85174 13.7115 2.78866 13.5592 2.78866 13.4033Z"
        fill="currentColor" />
</svg>
    