<svg width="16" height="16" viewBox="0 0 16 16" fill="none" xmlns="http://www.w3.org/2000/svg">
    <path fill-rule="evenodd" clip-rule="evenodd"
        d="M1.25229 1.91911C1.62736 1.54404 2.13607 1.33333 2.6665 1.33333H5.99984C6.22274 1.33333 6.43089 1.44473 6.55454 1.63019L7.68996 3.33333H13.3332C13.8636 3.33333 14.3723 3.54404 14.7474 3.91911C15.1225 4.29419 15.3332 4.80289 15.3332 5.33333V12.6667C15.3332 13.1971 15.1225 13.7058 14.7474 14.0809C14.3723 14.4559 13.8636 14.6667 13.3332 14.6667H2.6665C2.13607 14.6667 1.62736 14.4559 1.25229 14.0809C0.877218 13.7058 0.666504 13.1971 0.666504 12.6667V3.33333C0.666504 2.8029 0.877217 2.29419 1.25229 1.91911ZM2.6665 2.66666C2.48969 2.66666 2.32012 2.7369 2.1951 2.86192C2.07008 2.98695 1.99984 3.15652 1.99984 3.33333V12.6667C1.99984 12.8435 2.07008 13.013 2.1951 13.1381C2.32012 13.2631 2.48969 13.3333 2.6665 13.3333H5.96953C6.13959 13.2905 6.36032 13.2452 6.62974 13.1963C8.29264 12.8939 9.89459 11.9415 11.2616 10.8427C12.3885 9.93686 13.335 8.94843 13.9998 8.18826V5.33333C13.9998 5.15652 13.9296 4.98695 13.8046 4.86192C13.6796 4.7369 13.51 4.66666 13.3332 4.66666H7.33317C7.11027 4.66666 6.90211 4.55526 6.77847 4.36979L5.64305 2.66666H2.6665Z"
        fill="currentColor" />
</svg>