<svg width="24" height="25" viewBox="0 0 24 25" fill="none" xmlns="http://www.w3.org/2000/svg">
<path d="M10.076 11.5C10.676 11.5 11.162 11.95 11.151 12.5C11.151 13.05 10.677 13.5 10.076 13.5C9.486 13.5 9 13.05 9 12.5C9 11.95 9.475 11.5 10.076 11.5ZM13.924 11.5C14.525 11.5 15 11.95 15 12.5C15 13.05 14.525 13.5 13.924 13.5C13.334 13.5 12.849 13.05 12.849 12.5C12.849 11.95 13.323 11.5 13.924 11.5ZM18.891 2.5C20.054 2.5 21 3.466 21 4.663V23.5L18.789 21.505L17.544 20.329L16.227 19.079L16.773 21.022H5.109C3.946 21.022 3 20.056 3 18.859V4.663C3 3.466 3.946 2.5 5.109 2.5H18.89H18.891ZM14.921 16.213C17.194 16.14 18.069 14.617 18.069 14.617C18.069 11.236 16.587 8.495 16.587 8.495C15.107 7.362 13.697 7.393 13.697 7.393L13.553 7.561C15.302 8.107 16.114 8.895 16.114 8.895C15.1591 8.35699 14.1066 8.01434 13.018 7.887C12.3274 7.809 11.6299 7.81572 10.941 7.907C10.879 7.907 10.827 7.918 10.766 7.928C10.406 7.96 9.531 8.096 8.431 8.59C8.051 8.768 7.824 8.895 7.824 8.895C7.824 8.895 8.678 8.065 10.529 7.519L10.426 7.393C10.426 7.393 9.017 7.362 7.536 8.496C7.536 8.496 6.055 11.236 6.055 14.617C6.055 14.617 6.919 16.139 9.192 16.213C9.192 16.213 9.572 15.741 9.882 15.342C8.575 14.942 8.082 14.102 8.082 14.102C8.082 14.102 8.184 14.176 8.369 14.281C8.379 14.291 8.389 14.302 8.41 14.312C8.441 14.334 8.472 14.344 8.503 14.365C8.76 14.512 9.017 14.627 9.253 14.722C9.675 14.89 10.179 15.058 10.766 15.174C11.6453 15.3464 12.5494 15.3498 13.43 15.184C13.9429 15.0925 14.4433 14.9411 14.921 14.733C15.281 14.596 15.682 14.396 16.104 14.113C16.104 14.113 15.59 14.974 14.242 15.363C14.551 15.762 14.922 16.213 14.922 16.213H14.921Z" fill="#F8F9FC"/>
</svg>
