<svg width="16" height="16" viewBox="0 0 16 16" fill="none" xmlns="http://www.w3.org/2000/svg">
<path d="M7.33337 2.66667H2.66671C2.31309 2.66667 1.97395 2.80715 1.7239 3.0572C1.47385 3.30724 1.33337 3.64638 1.33337 4.00001V13.3333C1.33337 13.687 1.47385 14.0261 1.7239 14.2761C1.97395 14.5262 2.31309 14.6667 2.66671 14.6667H12C12.3537 14.6667 12.6928 14.5262 12.9428 14.2761C13.1929 14.0261 13.3334 13.687 13.3334 13.3333V8.66667" stroke="#610303" stroke-width="1.33333" stroke-linecap="round" stroke-linejoin="round"/>
<path d="M12.3334 1.66667C12.5986 1.40145 12.9583 1.25246 13.3334 1.25246C13.7084 1.25246 14.0682 1.40145 14.3334 1.66667C14.5986 1.93189 14.7476 2.2916 14.7476 2.66667C14.7476 3.04174 14.5986 3.40145 14.3334 3.66667L8.00004 10L5.33337 10.6667L6.00004 8L12.3334 1.66667Z" stroke="#610303" stroke-width="1.33333" stroke-linecap="round" stroke-linejoin="round"/>
</svg>
