<svg width="16" height="17" viewBox="0 0 16 17" fill="none" xmlns="http://www.w3.org/2000/svg">
    <path fill-rule="evenodd" clip-rule="evenodd" d="M9.99992 3.16659C9.63173 3.16659 9.33325 2.86811 9.33325 2.49992C9.33325 2.13173 9.63173 1.83325 9.99992 1.83325H13.9999C14.3681 1.83325 14.6666 2.13173 14.6666 2.49992V6.49992C14.6666 6.86811 14.3681 7.16659 13.9999 7.16659C13.6317 7.16659 13.3333 6.86811 13.3333 6.49992V4.10939L7.13799 10.3047C6.87764 10.565 6.45553 10.565 6.19518 10.3047C5.93483 10.0443 5.93483 9.6222 6.19518 9.36185L12.3904 3.16659H9.99992ZM3.33325 5.16659C3.15644 5.16659 2.98687 5.23682 2.86185 5.36185C2.73682 5.48687 2.66659 5.65644 2.66659 5.83325V13.1666C2.66659 13.3434 2.73682 13.513 2.86185 13.638C2.98687 13.763 3.15644 13.8333 3.33325 13.8333H10.6666C10.8434 13.8333 11.013 13.763 11.138 13.638C11.263 13.513 11.3333 13.3434 11.3333 13.1666V9.16659C11.3333 8.7984 11.6317 8.49992 11.9999 8.49992C12.3681 8.49992 12.6666 8.7984 12.6666 9.16659V13.1666C12.6666 13.697 12.4559 14.2057 12.0808 14.5808C11.7057 14.9559 11.197 15.1666 10.6666 15.1666H3.33325C2.80282 15.1666 2.29411 14.9559 1.91904 14.5808C1.54397 14.2057 1.33325 13.697 1.33325 13.1666V5.83325C1.33325 5.30282 1.54397 4.79411 1.91904 4.41904C2.29411 4.04397 2.80282 3.83325 3.33325 3.83325H7.33325C7.70144 3.83325 7.99992 4.13173 7.99992 4.49992C7.99992 4.86811 7.70144 5.16659 7.33325 5.16659H3.33325Z" fill="#333655" />
</svg>
    