<svg width="16" height="16" viewBox="0 0 16 16" fill="none" xmlns="http://www.w3.org/2000/svg">
    <path fill-rule="evenodd" clip-rule="evenodd" d="M9.99992 2.66659C9.63173 2.66659 9.33325 2.36811 9.33325 1.99992C9.33325 1.63173 9.63173 1.33325 9.99992 1.33325H13.9999C14.3681 1.33325 14.6666 1.63173 14.6666 1.99992V5.99992C14.6666 6.36811 14.3681 6.66659 13.9999 6.66659C13.6317 6.66659 13.3333 6.36811 13.3333 5.99992V3.60939L7.13799 9.80466C6.87764 10.065 6.45553 10.065 6.19518 9.80466C5.93483 9.54431 5.93483 9.1222 6.19518 8.86185L12.3904 2.66659H9.99992ZM3.33325 4.66659C3.15644 4.66659 2.98687 4.73682 2.86185 4.86185C2.73682 4.98687 2.66659 5.15644 2.66659 5.33325V12.6666C2.66659 12.8434 2.73682 13.013 2.86185 13.138C2.98687 13.263 3.15644 13.3333 3.33325 13.3333H10.6666C10.8434 13.3333 11.013 13.263 11.138 13.138C11.263 13.013 11.3333 12.8434 11.3333 12.6666V8.66659C11.3333 8.2984 11.6317 7.99992 11.9999 7.99992C12.3681 7.99992 12.6666 8.2984 12.6666 8.66659V12.6666C12.6666 13.197 12.4559 13.7057 12.0808 14.0808C11.7057 14.4559 11.197 14.6666 10.6666 14.6666H3.33325C2.80282 14.6666 2.29411 14.4559 1.91904 14.0808C1.54397 13.7057 1.33325 13.197 1.33325 12.6666V5.33325C1.33325 4.80282 1.54397 4.29411 1.91904 3.91904C2.29411 3.54397 2.80282 3.33325 3.33325 3.33325H7.33325C7.70144 3.33325 7.99992 3.63173 7.99992 3.99992C7.99992 4.36811 7.70144 4.66659 7.33325 4.66659H3.33325Z" fill="#333655" />
</svg>
    