<svg width="24" height="24" viewBox="0 0 24 24" fill="none" xmlns="http://www.w3.org/2000/svg">
    <path fill-rule="evenodd" clip-rule="evenodd" d="M3.70711 2.29289C3.31658 1.90237 2.68342 1.90237 2.29289 2.29289C1.90237 2.68342 1.90237 3.31658 2.29289 3.70711L5.12176 6.53597C4.09042 7.46997 3.36742 8.5191 2.88356 9.42765C2.58339 9.9913 2.37001 10.5106 2.22956 10.9306C2.10427 11.3054 2 11.7087 2 12C2 12.2371 2.06712 12.5272 2.13818 12.7756C2.21913 13.0585 2.33939 13.4021 2.50354 13.783C2.83143 14.5438 3.34676 15.4818 4.10433 16.3981C5.63571 18.2503 8.1529 20 12 20C14.1275 20 15.8593 19.4637 17.245 18.6592L20.2929 21.7071C20.6834 22.0976 21.3166 22.0976 21.7071 21.7071C22.0976 21.3166 22.0976 20.6834 21.7071 20.2929L3.70711 2.29289ZM4.64884 10.3678C5.06124 9.59337 5.67438 8.71525 6.53817 7.95238L8.55427 9.96849C8.19444 10.5788 8 11.2794 8 12C8 13.0609 8.42143 14.0783 9.17157 14.8284C9.92172 15.5786 10.9391 16 12 16C12.7206 16 13.4212 15.8056 14.0315 15.4457L15.7678 17.182C14.7574 17.6756 13.5183 18 12 18C8.84717 18 6.86435 16.5976 5.64571 15.1237C5.02827 14.3769 4.60609 13.6083 4.34023 12.9915C4.20749 12.6835 4.11682 12.4204 4.06104 12.2255C4.02679 12.1057 4.01167 12.0324 4.00503 11.9986L4.00708 11.9891C4.01858 11.936 4.04858 11.7974 4.12635 11.5648C4.23223 11.2481 4.40195 10.8314 4.64884 10.3678Z" fill="#110F2A" />
    <path d="M9.95714 6.21673C10.5711 6.07916 11.2499 6 11.9999 6C15.1528 6 17.1356 7.40242 18.3542 8.87634C18.9716 9.62311 19.3938 10.3917 19.6597 11.0085C19.7924 11.3165 19.8831 11.5796 19.9389 11.7745C19.9726 11.8924 19.9878 11.9654 19.9946 11.9999C19.9905 12.0209 19.984 12.0525 19.9733 12.096C19.9453 12.2109 19.8985 12.3702 19.8285 12.565C19.6887 12.9543 19.4654 13.46 19.1405 14.0059C18.8581 14.4805 19.0139 15.0942 19.4885 15.3766C19.9631 15.6591 20.5768 15.5033 20.8593 15.0286C21.2536 14.3659 21.5304 13.7432 21.7107 13.2412C21.8008 12.9903 21.8692 12.7633 21.9162 12.5706C21.9574 12.4019 21.9999 12.1909 21.9999 12C21.9999 11.7629 21.9328 11.4728 21.8617 11.2245C21.7808 10.9415 21.6605 10.5979 21.4964 10.217C21.1685 9.45617 20.6532 8.51819 19.8956 7.60192C18.3642 5.74975 15.847 4 11.9999 4C11.108 4 10.2824 4.09427 9.51986 4.26512C8.98093 4.38588 8.64194 4.92065 8.76269 5.45957C8.88344 5.99849 9.41822 6.33749 9.95714 6.21673Z" fill="#110F2A" />
</svg>
    