<svg width="16" height="16" viewBox="0 0 16 16" fill="none" xmlns="http://www.w3.org/2000/svg">
    <mask id="path-1-inside-1_3068_16976" fill="white">
        <path
            d="M7.29337 4.05329C7.52721 4.01745 7.76346 3.99962 8.00004 3.99996C10.12 3.99996 12.1134 5.52663 13.2734 7.99996C13.096 8.37636 12.8956 8.74149 12.6734 9.0933C12.6028 9.2025 12.5657 9.32995 12.5667 9.45996C12.5682 9.60545 12.6172 9.74646 12.7063 9.86148C12.7955 9.97649 12.9198 10.0592 13.0603 10.097C13.2008 10.1347 13.3498 10.1255 13.4846 10.0707C13.6193 10.0158 13.7325 9.91843 13.8067 9.79329C14.1173 9.30525 14.3871 8.7924 14.6134 8.25996C14.6491 8.17678 14.6676 8.08718 14.6676 7.99663C14.6676 7.90608 14.6491 7.81648 14.6134 7.73329C13.2667 4.60663 10.7334 2.66663 8.00004 2.66663C7.68715 2.66505 7.37476 2.69183 7.0667 2.74663C6.97916 2.76151 6.8954 2.79349 6.82021 2.84075C6.74502 2.888 6.67988 2.9496 6.62849 3.02203C6.57711 3.09446 6.5405 3.1763 6.52075 3.26288C6.50099 3.34946 6.49849 3.43908 6.51337 3.52663C6.52825 3.61418 6.56024 3.69793 6.60749 3.77312C6.65474 3.84831 6.71634 3.91346 6.78877 3.96484C6.8612 4.01622 6.94304 4.05283 7.02962 4.07259C7.1162 4.09234 7.20582 4.09484 7.29337 4.07996V4.05329ZM2.47337 1.52663C2.41121 1.46447 2.33742 1.41516 2.2562 1.38152C2.17499 1.34788 2.08794 1.33057 2.00004 1.33057C1.91213 1.33057 1.82509 1.34788 1.74387 1.38152C1.66266 1.41516 1.58886 1.46447 1.5267 1.52663C1.40117 1.65216 1.33064 1.82243 1.33064 1.99996C1.33064 2.1775 1.40117 2.34776 1.5267 2.47329L3.59337 4.53329C2.65042 5.44098 1.89994 6.52929 1.3867 7.73329C1.34999 7.81741 1.33105 7.90819 1.33105 7.99996C1.33105 8.09173 1.34999 8.18252 1.3867 8.26663C2.73337 11.3933 5.2667 13.3333 8.00004 13.3333C9.19811 13.325 10.3679 12.9683 11.3667 12.3066L13.5267 14.4733C13.5887 14.5358 13.6624 14.5854 13.7437 14.6192C13.8249 14.6531 13.912 14.6705 14 14.6705C14.088 14.6705 14.1752 14.6531 14.2564 14.6192C14.3377 14.5854 14.4114 14.5358 14.4734 14.4733C14.5359 14.4113 14.5855 14.3376 14.6193 14.2563C14.6531 14.1751 14.6706 14.088 14.6706 14C14.6706 13.912 14.6531 13.8248 14.6193 13.7436C14.5855 13.6623 14.5359 13.5886 14.4734 13.5266L2.47337 1.52663ZM8.00004 12C5.88004 12 3.8867 10.4733 2.73337 7.99996C3.1641 7.04913 3.77542 6.19101 4.53337 5.47329L5.71337 6.66663C5.4362 7.17249 5.33053 7.75459 5.41221 8.3256C5.49389 8.89661 5.75851 9.42574 6.16639 9.83361C6.57426 10.2415 7.10339 10.5061 7.6744 10.5878C8.24541 10.6695 8.82751 10.5638 9.33337 10.2866L10.3934 11.3333C9.66743 11.7605 8.84232 11.9904 8.00004 12Z" />
    </mask>
    <path
        d="M7.29337 4.05329C7.52721 4.01745 7.76346 3.99962 8.00004 3.99996C10.12 3.99996 12.1134 5.52663 13.2734 7.99996C13.096 8.37636 12.8956 8.74149 12.6734 9.0933C12.6028 9.2025 12.5657 9.32995 12.5667 9.45996C12.5682 9.60545 12.6172 9.74646 12.7063 9.86148C12.7955 9.97649 12.9198 10.0592 13.0603 10.097C13.2008 10.1347 13.3498 10.1255 13.4846 10.0707C13.6193 10.0158 13.7325 9.91843 13.8067 9.79329C14.1173 9.30525 14.3871 8.7924 14.6134 8.25996C14.6491 8.17678 14.6676 8.08718 14.6676 7.99663C14.6676 7.90608 14.6491 7.81648 14.6134 7.73329C13.2667 4.60663 10.7334 2.66663 8.00004 2.66663C7.68715 2.66505 7.37476 2.69183 7.0667 2.74663C6.97916 2.76151 6.8954 2.79349 6.82021 2.84075C6.74502 2.888 6.67988 2.9496 6.62849 3.02203C6.57711 3.09446 6.5405 3.1763 6.52075 3.26288C6.50099 3.34946 6.49849 3.43908 6.51337 3.52663C6.52825 3.61418 6.56024 3.69793 6.60749 3.77312C6.65474 3.84831 6.71634 3.91346 6.78877 3.96484C6.8612 4.01622 6.94304 4.05283 7.02962 4.07259C7.1162 4.09234 7.20582 4.09484 7.29337 4.07996V4.05329ZM2.47337 1.52663C2.41121 1.46447 2.33742 1.41516 2.2562 1.38152C2.17499 1.34788 2.08794 1.33057 2.00004 1.33057C1.91213 1.33057 1.82509 1.34788 1.74387 1.38152C1.66266 1.41516 1.58886 1.46447 1.5267 1.52663C1.40117 1.65216 1.33064 1.82243 1.33064 1.99996C1.33064 2.1775 1.40117 2.34776 1.5267 2.47329L3.59337 4.53329C2.65042 5.44098 1.89994 6.52929 1.3867 7.73329C1.34999 7.81741 1.33105 7.90819 1.33105 7.99996C1.33105 8.09173 1.34999 8.18252 1.3867 8.26663C2.73337 11.3933 5.2667 13.3333 8.00004 13.3333C9.19811 13.325 10.3679 12.9683 11.3667 12.3066L13.5267 14.4733C13.5887 14.5358 13.6624 14.5854 13.7437 14.6192C13.8249 14.6531 13.912 14.6705 14 14.6705C14.088 14.6705 14.1752 14.6531 14.2564 14.6192C14.3377 14.5854 14.4114 14.5358 14.4734 14.4733C14.5359 14.4113 14.5855 14.3376 14.6193 14.2563C14.6531 14.1751 14.6706 14.088 14.6706 14C14.6706 13.912 14.6531 13.8248 14.6193 13.7436C14.5855 13.6623 14.5359 13.5886 14.4734 13.5266L2.47337 1.52663ZM8.00004 12C5.88004 12 3.8867 10.4733 2.73337 7.99996C3.1641 7.04913 3.77542 6.19101 4.53337 5.47329L5.71337 6.66663C5.4362 7.17249 5.33053 7.75459 5.41221 8.3256C5.49389 8.89661 5.75851 9.42574 6.16639 9.83361C6.57426 10.2415 7.10339 10.5061 7.6744 10.5878C8.24541 10.6695 8.82751 10.5638 9.33337 10.2866L10.3934 11.3333C9.66743 11.7605 8.84232 11.9904 8.00004 12Z"
        fill="#F8F9FC" />
    <path
        d="M7.29337 4.05329L6.99034 2.07638L5.29337 2.3365V4.05329H7.29337ZM8.00004 3.99996L7.99715 5.99996H8.00004V3.99996ZM13.2734 7.99996L15.0825 8.85266L15.4834 8.00207L15.0841 7.15072L13.2734 7.99996ZM12.6734 9.0933L14.3533 10.1786L14.3589 10.17L14.3643 10.1614L12.6734 9.0933ZM12.5667 9.45996L10.5668 9.4747L10.5668 9.48037L12.5667 9.45996ZM13.8067 9.79329L12.1194 8.71944L12.1026 8.7459L12.0866 8.77288L13.8067 9.79329ZM14.6134 8.25996L12.776 7.46995L12.7727 7.4778L14.6134 8.25996ZM14.6134 7.73329L16.4507 6.94329L16.4502 6.94215L14.6134 7.73329ZM8.00004 2.66663L7.98996 4.66663H8.00004V2.66663ZM7.0667 2.74663L7.4019 4.71834L7.40945 4.71706L7.41699 4.71571L7.0667 2.74663ZM7.29337 4.07996L7.62856 6.05167L9.29337 5.76866V4.07996H7.29337ZM2.47337 1.52663L3.88758 0.112414V0.112414L2.47337 1.52663ZM1.33064 1.99996H-0.669357H1.33064ZM1.5267 2.47329L0.112488 3.88751L0.114777 3.88979L1.5267 2.47329ZM3.59337 4.53329L4.98038 5.9742L6.45138 4.55821L5.0053 3.1168L3.59337 4.53329ZM1.3867 7.73329L3.21973 8.53329L3.22316 8.52544L3.22652 8.51756L1.3867 7.73329ZM1.33105 7.99996H3.33105H1.33105ZM1.3867 8.26663L3.22359 7.47547L3.21973 7.46663L1.3867 8.26663ZM8.00004 13.3333V15.3333L8.01385 15.3332L8.00004 13.3333ZM11.3667 12.3066L12.7831 10.8946L11.6271 9.73507L10.2622 10.6393L11.3667 12.3066ZM13.5267 14.4733L14.9467 13.0649L14.9431 13.0613L13.5267 14.4733ZM14.4734 14.4733L13.065 13.0533L13.0591 13.0591L13.0534 13.0649L14.4734 14.4733ZM14.4734 13.5266L13.0591 14.9409L13.065 14.9466L14.4734 13.5266ZM8.00004 12V14H8.01141L8.02277 13.9998L8.00004 12ZM2.73337 7.99996L0.911577 7.17469L0.532254 8.01205L0.920755 8.8452L2.73337 7.99996ZM4.53337 5.47329L5.95551 4.06705L4.57937 2.67536L3.15823 4.02106L4.53337 5.47329ZM5.71337 6.66663L7.46735 7.62765L8.18363 6.32035L7.13551 5.26038L5.71337 6.66663ZM9.33337 10.2866L10.7386 8.86349L9.67868 7.8169L8.37235 8.53265L9.33337 10.2866ZM10.3934 11.3333L11.4078 13.0569L13.6494 11.7376L11.7986 9.91016L10.3934 11.3333ZM7.5964 6.0302C7.72901 6.00988 7.86299 5.99977 7.99715 5.99996L8.00292 1.99996C7.66394 1.99947 7.32541 2.02502 6.99034 2.07638L7.5964 6.0302ZM8.00004 5.99996C9.09656 5.99996 10.5118 6.82195 11.4626 8.8492L15.0841 7.15072C13.7149 4.2313 11.1435 1.99996 8.00004 1.99996V5.99996ZM11.4643 7.14726C11.3218 7.44952 11.1609 7.74273 10.9824 8.02523L14.3643 10.1614C14.6303 9.74025 14.8701 9.30319 15.0825 8.85266L11.4643 7.14726ZM10.9934 8.00804C10.7112 8.44486 10.5629 8.95467 10.5668 9.4747L14.5667 9.44522C14.5686 9.70524 14.4944 9.96014 14.3533 10.1786L10.9934 8.00804ZM10.5668 9.48037C10.5727 10.0623 10.7689 10.6264 11.1254 11.0864L14.2873 8.63651C14.4655 8.86655 14.5636 9.14857 14.5666 9.43955L10.5668 9.48037ZM11.1254 11.0864C11.4818 11.5465 11.979 11.8773 12.5411 12.0284L13.5795 8.16554C13.8605 8.24108 14.1091 8.40648 14.2873 8.63651L11.1254 11.0864ZM12.5411 12.0284C13.1031 12.1795 13.6992 12.1426 14.2382 11.9232L12.7309 8.21812C13.0004 8.10846 13.2984 8.08999 13.5795 8.16554L12.5411 12.0284ZM14.2382 11.9232C14.7773 11.7039 15.2299 11.3142 15.5268 10.8137L12.0866 8.77288C12.2351 8.52262 12.4613 8.32778 12.7309 8.21812L14.2382 11.9232ZM15.494 10.8672C15.8637 10.2863 16.1848 9.67585 16.4541 9.04212L12.7727 7.4778C12.5895 7.90894 12.371 8.32423 12.1194 8.71944L15.494 10.8672ZM16.4507 9.04996C16.5938 8.71721 16.6676 8.35881 16.6676 7.99663H12.6676C12.6676 7.81554 12.7045 7.63634 12.776 7.46996L16.4507 9.04996ZM16.6676 7.99663C16.6676 7.63444 16.5938 7.27604 16.4507 6.9433L12.776 8.52329C12.7045 8.35692 12.6676 8.17772 12.6676 7.99663H16.6676ZM16.4502 6.94215C14.8829 3.30315 11.7482 0.666628 8.00004 0.666628V4.66663C9.71858 4.66663 11.6505 5.9101 12.7765 8.52444L16.4502 6.94215ZM8.01012 0.666653C7.57642 0.664468 7.14342 0.701582 6.71642 0.777541L7.41699 4.71571C7.6061 4.68207 7.79788 4.66563 7.98996 4.6666L8.01012 0.666653ZM6.73151 0.774916C6.38504 0.833817 6.05355 0.960385 5.75599 1.14739L7.88443 4.5341C7.73724 4.6266 7.57328 4.6892 7.4019 4.71834L6.73151 0.774916ZM5.75599 1.14739C5.45842 1.3344 5.20061 1.57819 4.99727 1.86483L8.25972 4.17922C8.15914 4.32101 8.03162 4.44159 7.88443 4.5341L5.75599 1.14739ZM4.99727 1.86483C4.79392 2.15148 4.64903 2.47537 4.57085 2.81801L8.47064 3.70774C8.43197 3.87723 8.3603 4.03744 8.25972 4.17922L4.99727 1.86483ZM4.57085 2.81801C4.49268 3.16065 4.48276 3.51534 4.54166 3.86182L8.48508 3.19144C8.51422 3.36282 8.50931 3.53826 8.47064 3.70774L4.57085 2.81801ZM4.54166 3.86182C4.60056 4.2083 4.72713 4.53978 4.91414 4.83734L8.30084 2.70891C8.39334 2.85609 8.45595 3.02005 8.48508 3.19144L4.54166 3.86182ZM4.91414 4.83734C5.10114 5.1349 5.34493 5.39272 5.63158 5.59606L7.94597 2.33361C8.08775 2.4342 8.20834 2.56172 8.30084 2.70891L4.91414 4.83734ZM5.63158 5.59606C5.91822 5.79941 6.24211 5.94431 6.58476 6.02248L7.47449 2.12269C7.64397 2.16136 7.80418 2.23303 7.94597 2.33361L5.63158 5.59606ZM6.58476 6.02248C6.9274 6.10066 7.28209 6.11057 7.62856 6.05167L6.95818 2.10825C7.12956 2.07912 7.305 2.08402 7.47449 2.12269L6.58476 6.02248ZM9.29337 4.07996V4.05329H5.29337V4.07996H9.29337ZM3.88758 0.112414C3.63971 -0.135463 3.34544 -0.332089 3.02157 -0.466238L1.49084 3.22928C1.3294 3.16241 1.18272 3.0644 1.05916 2.94084L3.88758 0.112414ZM3.02157 -0.466238C2.6977 -0.600388 2.35059 -0.669434 2.00004 -0.669434V3.33057C1.8253 3.33057 1.65227 3.29615 1.49084 3.22928L3.02157 -0.466238ZM2.00004 -0.669434C1.64949 -0.669434 1.30237 -0.600388 0.978504 -0.466238L2.50924 3.22928C2.3478 3.29615 2.17477 3.33057 2.00004 3.33057V-0.669434ZM0.978504 -0.466238C0.654639 -0.332089 0.360367 -0.135463 0.11249 0.112414L2.94092 2.94084C2.81736 3.0644 2.67067 3.16241 2.50924 3.22928L0.978504 -0.466238ZM0.11249 0.112414C-0.388119 0.613023 -0.669357 1.29199 -0.669357 1.99996H3.33064C3.33064 2.35286 3.19045 2.6913 2.94092 2.94084L0.11249 0.112414ZM-0.669357 1.99996C-0.669357 2.70793 -0.388119 3.3869 0.11249 3.88751L2.94092 1.05908C3.19045 1.30862 3.33064 1.64706 3.33064 1.99996H-0.669357ZM0.114777 3.88979L2.18144 5.94979L5.0053 3.1168L2.93863 1.0568L0.114777 3.88979ZM2.20636 3.09239C1.06991 4.18633 0.16544 5.49796 -0.453113 6.94903L3.22652 8.51756C3.63444 7.56061 4.23092 6.69563 4.98038 5.9742L2.20636 3.09239ZM-0.446327 6.93329C-0.593162 7.26974 -0.668953 7.63287 -0.668953 7.99996H3.33105C3.33105 8.18351 3.29315 8.36507 3.21973 8.53329L-0.446327 6.93329ZM-0.668953 7.99996C-0.668953 8.36705 -0.593162 8.73019 -0.446327 9.06663L3.21973 7.46663C3.29315 7.63485 3.33105 7.81642 3.33105 7.99996H-0.668953ZM-0.450165 9.05777C1.11716 12.6968 4.25192 15.3333 8.00004 15.3333V11.3333C6.28149 11.3333 4.34958 10.0898 3.22357 7.47548L-0.450165 9.05777ZM8.01385 15.3332C9.60007 15.3223 11.1488 14.85 12.4712 13.974L10.2622 10.6393C9.58695 11.0866 8.79615 11.3277 7.98622 11.3333L8.01385 15.3332ZM9.95031 13.7187L12.1103 15.8853L14.9431 13.0613L12.7831 10.8946L9.95031 13.7187ZM12.1067 15.8817C12.3546 16.1316 12.6495 16.33 12.9745 16.4654L14.5128 12.773C14.6753 12.8407 14.8228 12.9399 14.9467 13.0649L12.1067 15.8817ZM12.9745 16.4654C13.2995 16.6008 13.648 16.6705 14 16.6705V12.6705C14.176 12.6705 14.3503 12.7053 14.5128 12.773L12.9745 16.4654ZM14 16.6705C14.3521 16.6705 14.7006 16.6008 15.0256 16.4654L13.4873 12.773C13.6498 12.7053 13.824 12.6705 14 12.6705V16.6705ZM15.0256 16.4654C15.3506 16.33 15.6455 16.1316 15.8934 15.8817L13.0534 13.0649C13.1773 12.9399 13.3248 12.8407 13.4873 12.773L15.0256 16.4654ZM15.8818 15.8933C16.1317 15.6454 16.3301 15.3505 16.4655 15.0255L12.7731 13.4872C12.8408 13.3247 12.94 13.1772 13.065 13.0533L15.8818 15.8933ZM16.4655 15.0255C16.6009 14.7005 16.6706 14.352 16.6706 14H12.6706C12.6706 13.824 12.7054 13.6497 12.7731 13.4872L16.4655 15.0255ZM16.6706 14C16.6706 13.6479 16.6009 13.2994 16.4655 12.9744L12.7731 14.5127C12.7054 14.3502 12.6706 14.176 12.6706 14H16.6706ZM16.4655 12.9744C16.3301 12.6494 16.1317 12.3545 15.8818 12.1066L13.065 14.9466C12.94 14.8227 12.8408 14.6752 12.7731 14.5127L16.4655 12.9744ZM15.8876 12.1124L3.88758 0.112414L1.05916 2.94084L13.0592 14.9408L15.8876 12.1124ZM8.00004 9.99996C6.90352 9.99996 5.48948 9.17806 4.54599 7.15473L0.920755 8.8452C2.28392 11.7685 4.85655 14 8.00004 14V9.99996ZM4.55516 8.82523C4.87901 8.11033 5.33864 7.46515 5.90851 6.92553L3.15823 4.02106C2.2122 4.91687 1.44918 5.98792 0.911577 7.17469L4.55516 8.82523ZM3.11123 6.87954L4.29123 8.07287L7.13551 5.26038L5.95551 4.06705L3.11123 6.87954ZM3.95939 5.7056C3.47435 6.59087 3.28942 7.60954 3.43236 8.6088L7.39206 8.04239C7.37164 7.89964 7.39806 7.75412 7.46735 7.62765L3.95939 5.7056ZM3.43236 8.6088C3.5753 9.60807 4.0384 10.534 4.75217 11.2478L7.5806 8.4194C7.47863 8.31743 7.41248 8.18515 7.39206 8.04239L3.43236 8.6088ZM4.75217 11.2478C5.46595 11.9616 6.39193 12.4247 7.39119 12.5676L7.9576 8.60794C7.81485 8.58752 7.68257 8.52137 7.5806 8.4194L4.75217 11.2478ZM7.39119 12.5676C8.39046 12.7106 9.40913 12.5257 10.2944 12.0406L8.37235 8.53265C8.24588 8.60194 8.10036 8.62836 7.9576 8.60794L7.39119 12.5676ZM7.92814 11.7098L8.98814 12.7564L11.7986 9.91016L10.7386 8.86349L7.92814 11.7098ZM9.37892 9.60967C8.95379 9.85988 8.47057 9.99448 7.9773 10.0001L8.02277 13.9998C9.21407 13.9863 10.3811 13.6612 11.4078 13.0569L9.37892 9.60967Z"
        fill="#F8F9FC" mask="url(#path-1-inside-1_3068_16976)" />
</svg>
    