<svg width="17" height="17" viewBox="0 0 17 17" fill="none" xmlns="http://www.w3.org/2000/svg">
    <path d="M15.4996 8.23366C14.1529 5.10699 11.6196 3.16699 8.88628 3.16699C6.15294 3.16699 3.61961 5.10699 2.27294 8.23366C2.23623 8.31777 2.21729 8.40855 2.21729 8.50033C2.21729 8.5921 2.23623 8.68288 2.27294 8.76699C3.61961 11.8937 6.15294 13.8337 8.88628 13.8337C11.6196 13.8337 14.1529 11.8937 15.4996 8.76699C15.5363 8.68288 15.5553 8.5921 15.5553 8.50033C15.5553 8.40855 15.5363 8.31777 15.4996 8.23366ZM8.88628 12.5003C6.77294 12.5003 4.77294 10.9737 3.61961 8.50033C4.77294 6.02699 6.77294 4.50033 8.88628 4.50033C10.9996 4.50033 12.9996 6.02699 14.1529 8.50033C12.9996 10.9737 10.9996 12.5003 8.88628 12.5003ZM8.88628 5.83366C8.35886 5.83366 7.84329 5.99006 7.40475 6.28307C6.96622 6.57609 6.62443 6.99257 6.4226 7.47984C6.22076 7.96711 6.16795 8.50328 6.27085 9.02057C6.37374 9.53785 6.62772 10.013 7.00066 10.3859C7.3736 10.7589 7.84875 11.0129 8.36603 11.1158C8.88332 11.2186 9.4195 11.1658 9.90676 10.964C10.394 10.7622 10.8105 10.4204 11.1035 9.98185C11.3965 9.54331 11.5529 9.02774 11.5529 8.50033C11.5529 7.79308 11.272 7.1148 10.7719 6.61471C10.2718 6.11461 9.59352 5.83366 8.88628 5.83366ZM8.88628 9.83366C8.62257 9.83366 8.36478 9.75546 8.14551 9.60895C7.92625 9.46244 7.75535 9.2542 7.65444 9.01057C7.55352 8.76693 7.52711 8.49885 7.57856 8.2402C7.63001 7.98156 7.757 7.74399 7.94347 7.55752C8.12994 7.37105 8.36751 7.24406 8.62615 7.19261C8.8848 7.14116 9.15288 7.16757 9.39652 7.26849C9.64015 7.3694 9.84839 7.5403 9.9949 7.75956C10.1414 7.97883 10.2196 8.23662 10.2196 8.50033C10.2196 8.85395 10.0791 9.19309 9.82908 9.44313C9.57904 9.69318 9.2399 9.83366 8.88628 9.83366Z" fill="black" />
</svg>
    