<svg width="16" height="16" viewBox="0 0 16 16" fill="none" xmlns="http://www.w3.org/2000/svg">
    <path d="M8.00039 3.49996C7.73832 3.4996 7.47661 3.51936 7.21757 3.55907L7.1109 3.57542C7.09934 3.57049 7.08832 3.56433 7.07802 3.55703C7.05915 3.54364 7.0431 3.52666 7.03078 3.50707L6.8611 3.61371L7.03078 3.50707C7.01847 3.48747 7.01013 3.46564 7.00625 3.44283C7.00237 3.42001 7.00303 3.39666 7.00817 3.3741C7.01332 3.35153 7.02286 3.3302 7.03625 3.31133L6.62845 3.02203L7.03626 3.31133C7.04965 3.29245 7.06662 3.2764 7.08622 3.26408C7.10581 3.25177 7.12764 3.24343 7.15046 3.23956L7.15046 3.23957L7.15423 3.2389C7.43255 3.18939 7.71478 3.1652 7.99747 3.16662V3.16663H7.99999C10.4795 3.16663 12.8625 4.93238 14.154 7.93079C14.1629 7.95159 14.1675 7.97399 14.1675 7.99663C14.1675 8.01927 14.1629 8.04167 14.154 8.06246L14.1531 8.06442C13.9377 8.57153 13.6807 9.05999 13.3848 9.52483L13.3806 9.53145L13.3766 9.53819C13.3581 9.56948 13.3298 9.59383 13.2961 9.60754C13.2624 9.62124 13.2252 9.62355 13.19 9.61411C13.1549 9.60467 13.1238 9.58399 13.1015 9.55524C13.0794 9.52667 13.0672 9.49168 13.0666 9.45556C13.0665 9.42331 13.0758 9.39171 13.0933 9.36461L13.0933 9.36462L13.0961 9.36031C13.3292 8.99118 13.5395 8.60807 13.7256 8.21314L13.8258 8.00049L13.726 7.78765C12.5138 5.20294 10.3761 3.50015 8.00039 3.49996ZM8.00039 3.49996C8.00025 3.49996 8.00012 3.49996 7.99999 3.49996V3.99996L8.00071 3.49996C8.0006 3.49996 8.00049 3.49996 8.00039 3.49996ZM3.94008 4.89352L4.30783 4.53952L3.94631 4.17917L1.88021 2.11974C1.88015 2.11968 1.88009 2.11962 1.88003 2.11955C1.84837 2.0878 1.8306 2.0448 1.8306 1.99996C1.8306 1.95503 1.84844 1.91195 1.88021 1.88018C1.89594 1.86445 1.91461 1.85197 1.93517 1.84346C1.95572 1.83495 1.97775 1.83057 1.99999 1.83057C2.02224 1.83057 2.04426 1.83495 2.06482 1.84346C2.08537 1.85197 2.10404 1.86445 2.11977 1.88018L14.1198 13.8802L14.1212 13.8816C14.1368 13.8971 14.1492 13.9156 14.1577 13.9359C14.1662 13.9562 14.1705 13.978 14.1705 14C14.1705 14.022 14.1662 14.0438 14.1577 14.0641C14.1492 14.0844 14.1368 14.1028 14.1212 14.1183L14.1183 14.1212C14.1028 14.1368 14.0844 14.1492 14.0641 14.1577C14.0438 14.1661 14.022 14.1705 14 14.1705C13.978 14.1705 13.9562 14.1661 13.9359 14.1577C13.9156 14.1492 13.8972 14.1368 13.8817 14.1212L13.8808 14.1203L11.7208 11.9536L11.4318 11.6637L11.0905 11.8898C10.1731 12.4975 9.09874 12.8253 7.99833 12.8333C5.51929 12.8325 3.13709 11.0668 1.84588 8.06884L1.84588 8.06884L1.84492 8.06663C1.83574 8.0456 1.831 8.0229 1.831 7.99996C1.831 7.97702 1.83574 7.95432 1.84492 7.9333L1.84493 7.9333L1.84661 7.92936C2.33352 6.78712 3.0455 5.75464 3.94008 4.89352ZM7.06688 7.29974L6.46667 6.69954L6.2327 7.51547C6.18726 7.6739 6.16502 7.83806 6.16666 8.00285C6.16743 8.48804 6.3605 8.95319 6.70363 9.29632C7.04678 9.63947 7.51195 9.83254 7.99715 9.83329C8.16193 9.83492 8.32607 9.81268 8.48448 9.76726L9.30042 9.53328L8.70021 8.93307L7.06688 7.29974ZM7.99999 12.5V12.5L8.00568 12.4999C8.93521 12.4894 9.8458 12.2357 10.6469 11.7642L11.2073 11.4344L10.7446 10.9775L9.68463 9.93084L9.41965 9.6692L9.09307 9.84813C8.68205 10.0733 8.2091 10.1592 7.74515 10.0928C7.28121 10.0265 6.85129 9.81145 6.5199 9.48006C6.1885 9.14866 5.97349 8.71874 5.90713 8.2548C5.84076 7.79085 5.92662 7.3179 6.15182 6.90688L6.33089 6.58006L6.06886 6.31507L4.88886 5.12173L4.54482 4.77381L4.18954 5.11024C3.38457 5.87248 2.73532 6.78382 2.27788 7.79364L2.18305 8.00298L2.28017 8.21127C3.48596 10.7971 5.62412 12.5 7.99999 12.5Z" fill="#2595EB" stroke="#110F2A" />
</svg>
    