<svg width="16" height="17" viewBox="0 0 16 17" fill="none" xmlns="http://www.w3.org/2000/svg">
    <path d="M12.6666 1.83301H3.33325C2.80282 1.83301 2.29411 2.04372 1.91904 2.41879C1.54397 2.79387 1.33325 3.30257 1.33325 3.83301V4.61301C1.33316 4.8883 1.3899 5.16065 1.49992 5.41301V5.45301C1.59411 5.66699 1.72751 5.86145 1.89325 6.02634L5.99992 10.1063V14.4997C5.99969 14.613 6.02834 14.7245 6.08317 14.8236C6.13799 14.9228 6.21718 15.0063 6.31325 15.0663C6.41935 15.1321 6.54177 15.1667 6.66658 15.1663C6.77095 15.1657 6.8737 15.1406 6.96658 15.093L9.63325 13.7597C9.74319 13.7043 9.83565 13.6195 9.90037 13.5148C9.96509 13.4101 9.99954 13.2895 9.99992 13.1663V10.1063L14.0799 6.02634C14.2457 5.86145 14.3791 5.66699 14.4733 5.45301V5.41301C14.5925 5.16263 14.6583 4.89019 14.6666 4.61301V3.83301C14.6666 3.30257 14.4559 2.79387 14.0808 2.41879C13.7057 2.04372 13.197 1.83301 12.6666 1.83301ZM8.85992 9.35967C8.79813 9.42197 8.74925 9.49585 8.71607 9.57707C8.68289 9.6583 8.66608 9.74527 8.66658 9.83301V12.753L7.33325 13.4197V9.83301C7.33376 9.74527 7.31694 9.6583 7.28377 9.57707C7.25059 9.49585 7.20171 9.42197 7.13992 9.35967L3.60659 5.83301H12.3933L8.85992 9.35967ZM13.3333 4.49967H2.66659V3.83301C2.66659 3.6562 2.73682 3.48663 2.86185 3.3616C2.98687 3.23658 3.15644 3.16634 3.33325 3.16634H12.6666C12.8434 3.16634 13.013 3.23658 13.138 3.3616C13.263 3.48663 13.3333 3.6562 13.3333 3.83301V4.49967Z" fill="#110F2A" />
</svg>
    