<svg width="16" height="16" viewBox="0 0 16 16" fill="none" xmlns="http://www.w3.org/2000/svg">
<path d="M5.6452 5.5963L5.6437 5.59752L5.64227 5.59891L5.6452 5.5963ZM12.2813 5.47195C12.2349 5.42725 12.1834 5.38813 12.1279 5.35541C12.0494 5.30918 11.9622 5.27956 11.8718 5.26837C11.7813 5.25718 11.6895 5.26466 11.6021 5.29035C11.5147 5.31604 11.4334 5.35939 11.3634 5.41773C11.2934 5.47606 11.2361 5.54814 11.195 5.6295C10.9654 6.08196 10.6486 6.48463 10.263 6.8144C10.322 6.48213 10.3517 6.14534 10.3519 5.80788C10.3531 4.78128 10.0823 3.77269 9.56697 2.88479C9.05166 1.99689 8.31027 1.26141 7.41827 0.753215C7.32001 0.697513 7.20921 0.667688 7.09626 0.666538C6.98332 0.665389 6.87193 0.692952 6.77256 0.746643C6.67318 0.800333 6.58908 0.87839 6.52813 0.973489C6.46719 1.06859 6.4314 1.17761 6.42413 1.29033C6.38683 1.92244 6.22158 2.54041 5.93839 3.10677C5.65521 3.67314 5.25999 4.17612 4.77669 4.58524L4.62304 4.71024C4.11765 5.05029 3.6703 5.4695 3.29817 5.95177C2.71972 6.68051 2.319 7.534 2.12781 8.44455C1.93662 9.35511 1.96021 10.2977 2.1967 11.1975C2.4332 12.0974 2.8761 12.9298 3.49029 13.6287C4.10447 14.3276 4.87304 14.8737 5.73505 15.2239C5.83626 15.2653 5.94609 15.2811 6.05486 15.27C6.16363 15.2588 6.26799 15.2211 6.35873 15.1601C6.44948 15.0991 6.52382 15.0168 6.5752 14.9202C6.62658 14.8237 6.65342 14.7161 6.65335 14.6067C6.65288 14.536 6.64168 14.4658 6.62015 14.3984C6.471 13.8377 6.42805 13.2541 6.49352 12.6777C7.12435 13.8675 8.13695 14.8106 9.36852 15.3554C9.51885 15.4227 9.68879 15.4317 9.84541 15.3808C10.8185 15.0667 11.695 14.5091 12.3918 13.7608C13.0887 13.0126 13.5826 12.0986 13.8267 11.1057C14.0707 10.1128 14.0569 9.07394 13.7864 8.0879C13.5159 7.10185 12.9978 6.20135 12.2813 5.47195ZM9.67808 14.026C9.09696 13.7315 8.58433 13.3179 8.17352 12.8123C7.76271 12.3067 7.46292 11.7202 7.29364 11.0911C7.24194 10.8793 7.20195 10.6647 7.17385 10.4485C7.15481 10.3108 7.09321 10.1825 6.99766 10.0815C6.90212 9.98057 6.77741 9.91198 6.64097 9.88536C6.59894 9.87707 6.5562 9.87293 6.51335 9.873C6.39618 9.87295 6.28107 9.90381 6.17963 9.96245C6.07818 10.0211 5.994 10.1054 5.93555 10.207C5.3824 11.1611 5.10422 12.2497 5.13184 13.3522C4.64533 12.9739 4.23874 12.5029 3.93563 11.9663C3.63251 11.4297 3.4389 10.8384 3.36602 10.2264C3.29314 9.61451 3.34244 8.9942 3.51106 8.40146C3.67967 7.80872 3.96426 7.25535 4.34831 6.7734C4.63992 6.39463 4.99171 6.06626 5.38965 5.8014C5.40688 5.79028 5.4234 5.7781 5.43913 5.76494C5.43913 5.76494 5.63692 5.60129 5.64368 5.59754C6.59348 4.79418 7.26902 3.71455 7.57617 2.50908C8.30255 3.18057 8.7869 4.0731 8.95401 5.04809C9.12112 6.02307 8.96164 7.02596 8.50033 7.90101C8.43938 8.01778 8.41438 8.14998 8.42848 8.28094C8.44257 8.41189 8.49514 8.53575 8.57954 8.63687C8.66395 8.73798 8.77641 8.81184 8.90274 8.84912C9.02907 8.8864 9.16361 8.88544 9.28939 8.84634C10.3106 8.52623 11.2092 7.90095 11.8643 7.05468C12.258 7.6362 12.5154 8.29908 12.6173 8.99391C12.7192 9.68875 12.663 10.3976 12.4528 11.0677C12.2427 11.7378 11.884 12.3518 11.4036 12.864C10.9232 13.3762 10.3333 13.7734 9.67806 14.026L9.67808 14.026Z" fill="#818CF8"/>
</svg>
