<svg width="25" height="24" viewBox="0 0 25 24" fill="none" xmlns="http://www.w3.org/2000/svg">
<path d="M8.96555 8.39653L8.9678 8.3947L8.96341 8.39861L8.96555 8.39653Z" fill="#818CF8"/>
<path fill-rule="evenodd" clip-rule="evenodd" d="M18.6919 8.03336C18.7751 8.08244 18.8523 8.14111 18.9219 8.20817C19.9967 9.30227 20.7739 10.653 21.1796 12.1321C21.5853 13.6112 21.6061 15.1694 21.24 16.6588C20.8739 18.1481 20.133 19.5191 19.0878 20.6415C18.0425 21.7639 16.7277 22.6004 15.2681 23.0715C15.0332 23.1478 14.7783 23.1342 14.5528 23.0334C12.7054 22.2162 11.1865 20.8015 10.2403 19.0168C10.1421 19.8814 10.2065 20.7568 10.4302 21.5978C10.4625 21.6989 10.4793 21.8042 10.48 21.9103C10.4801 22.0743 10.4399 22.2358 10.3628 22.3806C10.2857 22.5254 10.1742 22.6489 10.0381 22.7404C9.90198 22.8319 9.74545 22.8885 9.58229 22.9052C9.41914 22.9219 9.25439 22.8981 9.10257 22.8361C7.80956 22.3109 6.6567 21.4916 5.73543 20.4433C4.81415 19.3949 4.1498 18.1464 3.79506 16.7966C3.44031 15.4468 3.40493 14.0329 3.69172 12.6671C3.97851 11.3012 4.57958 10.021 5.44726 8.9279C6.00546 8.2045 6.67647 7.57569 7.43456 7.0656L7.66503 6.8781C8.38999 6.26442 8.98282 5.50995 9.40759 4.6604C9.83236 3.81085 10.0802 2.88391 10.1362 1.93574C10.1471 1.76666 10.2008 1.60313 10.2922 1.46048C10.3836 1.31783 10.5098 1.20074 10.6588 1.12021C10.8079 1.03967 10.975 0.998327 11.1444 1.00005C11.3138 1.00178 11.48 1.04651 11.6274 1.13007C12.9654 1.89235 14.0775 2.99558 14.8505 4.32743C15.6234 5.65928 16.0297 7.17217 16.0278 8.71207C16.0276 9.21825 15.983 9.72344 15.8945 10.2218C16.4729 9.72719 16.948 9.12319 17.2925 8.4445C17.3541 8.32245 17.4401 8.21434 17.5451 8.12683C17.6501 8.03933 17.772 7.9743 17.9031 7.93577C18.0343 7.89723 18.172 7.88601 18.3076 7.9028C18.4433 7.91958 18.5741 7.96402 18.6919 8.03336ZM12.462 18.8236C11.9975 18.1608 11.6514 17.4209 11.4405 16.6369C11.3629 16.3191 11.3029 15.9974 11.2608 15.673C11.2322 15.4665 11.1398 15.274 10.9965 15.1226C10.8532 14.9711 10.6661 14.8682 10.4615 14.8283C10.3984 14.8159 10.3343 14.8096 10.27 14.8097C10.0943 14.8097 9.92161 14.856 9.76944 14.9439C9.61728 15.0319 9.491 15.1584 9.40333 15.3107C8.5736 16.7419 8.15633 18.3748 8.19776 20.0285C7.468 19.4611 6.85811 18.7545 6.40344 17.9497C5.94876 17.1449 5.65835 16.2578 5.54903 15.3399C5.43971 14.422 5.51366 13.4915 5.76658 12.6024C6.01951 11.7133 6.44639 10.8833 7.02247 10.1603C7.45989 9.59218 7.98756 9.09964 8.58447 8.70235C8.61032 8.68567 8.6351 8.6674 8.65869 8.64766C8.65869 8.64766 8.95541 8.40215 8.96555 8.39653C10.3902 7.19149 11.4035 5.57207 11.8643 3.76387C12.9538 4.7711 13.6804 6.1099 13.931 7.57238C14.1817 9.03485 13.9425 10.5392 13.2505 11.8518C13.1591 12.0269 13.1216 12.2252 13.1427 12.4216C13.1639 12.6181 13.2427 12.8039 13.3693 12.9555C13.4959 13.1072 13.6646 13.218 13.8541 13.2739C14.0436 13.3298 14.2454 13.3284 14.4341 13.2698C15.9659 12.7896 17.3138 11.8517 18.2964 10.5823C18.8869 11.4546 19.273 12.4489 19.4259 13.4911C19.5787 14.5334 19.4944 15.5967 19.1792 16.6018C19.0563 16.9937 18.8996 17.3728 18.7113 17.7351C18.5715 16.8671 18.2613 15.9512 17.6538 15.4058C17.3688 15.1499 16.945 15.2854 16.6957 15.5761C15.7793 16.6443 13.8693 18.3834 12.462 18.8236Z" fill="#818CF8"/>
</svg>
