<svg width="17" height="17" viewBox="0 0 17 17" fill="none" xmlns="http://www.w3.org/2000/svg">
    <g clip-path="url(#clip0_741_19164)">
        <path fill-rule="evenodd" clip-rule="evenodd"
            d="M3.4082 3.14095C3.23139 3.14095 3.06182 3.21119 2.9368 3.33621C2.81177 3.46124 2.74154 3.63081 2.74154 3.80762V13.141C2.74154 13.3178 2.81177 13.4873 2.9368 13.6124C3.06182 13.7374 3.23139 13.8076 3.4082 13.8076H14.0749C14.2517 13.8076 14.4212 13.7374 14.5463 13.6124C14.6713 13.4873 14.7415 13.3178 14.7415 13.141V5.80762C14.7415 5.63081 14.6713 5.46124 14.5463 5.33621C14.4212 5.21119 14.2517 5.14095 14.0749 5.14095H8.07487C7.85197 5.14095 7.64381 5.02955 7.52017 4.84408L6.38475 3.14095H3.4082ZM1.99399 2.3934C2.36906 2.01833 2.87777 1.80762 3.4082 1.80762H6.74154C6.96444 1.80762 7.17259 1.91902 7.29624 2.10448L8.43166 3.80762H14.0749C14.6053 3.80762 15.114 4.01833 15.4891 4.3934C15.8642 4.76848 16.0749 5.27718 16.0749 5.80762V13.141C16.0749 13.6714 15.8642 14.1801 15.4891 14.5552C15.114 14.9302 14.6053 15.1409 14.0749 15.1409H3.4082C2.87777 15.1409 2.36906 14.9302 1.99399 14.5552C1.61892 14.1801 1.4082 13.6714 1.4082 13.141V3.80762C1.4082 3.27718 1.61892 2.76848 1.99399 2.3934Z"
            fill="#F8F9FC" />
        <path fill-rule="evenodd" clip-rule="evenodd"
            d="M8.74284 7.1416C9.11103 7.1416 9.40951 7.44008 9.40951 7.80827V11.8083C9.40951 12.1765 9.11103 12.4749 8.74284 12.4749C8.37465 12.4749 8.07617 12.1765 8.07617 11.8083V7.80827C8.07617 7.44008 8.37465 7.1416 8.74284 7.1416Z"
            fill="#F8F9FC" />
        <path fill-rule="evenodd" clip-rule="evenodd"
            d="M6.07617 9.80827C6.07617 9.44008 6.37465 9.1416 6.74284 9.1416H10.7428C11.111 9.1416 11.4095 9.44008 11.4095 9.80827C11.4095 10.1765 11.111 10.4749 10.7428 10.4749H6.74284C6.37465 10.4749 6.07617 10.1765 6.07617 9.80827Z"
            fill="#F8F9FC" />
    </g>
    <defs>
        <clipPath id="clip0_741_19164">
            <rect width="16" height="16" fill="white" transform="translate(0.742188 0.474609)" />
        </clipPath>
    </defs>
</svg>
    