<svg width="17" height="17" viewBox="0 0 17 17" fill="none" xmlns="http://www.w3.org/2000/svg">
<rect width="17" height="17" fill="#1E1E1E"/>
<rect x="-5697" y="-1261" width="10157" height="10117" stroke="#8B5DF5" stroke-width="6" stroke-dasharray="12 12"/>
<rect width="1280" height="1042" transform="translate(-604 -454)" fill="white"/>
<g filter="url(#filter0_dd_0_1)">
<rect x="-229" y="-14" width="530" height="45" rx="8" fill="#262626"/>
<mask id="path-4-inside-1_0_1" fill="white">
<path d="M8.50006 1.9978C6.91704 1.99787 5.3857 2.56121 4.18004 3.58703C2.97437 4.61286 2.17306 6.03422 1.91948 7.59679C1.6659 9.15936 1.9766 10.7612 2.79599 12.1156C3.61538 13.4701 4.88998 14.4888 6.39174 14.9895C6.72507 15.0478 6.85007 14.8478 6.85007 14.6728C6.85007 14.5145 6.84173 13.9895 6.84173 13.4311C5.16673 13.7395 4.73339 13.0228 4.60006 12.6478C4.45211 12.2831 4.21758 11.9599 3.91673 11.7061C3.68339 11.5811 3.35006 11.2728 3.90839 11.2645C4.12158 11.2876 4.32605 11.3618 4.50448 11.4807C4.68291 11.5997 4.83004 11.7599 4.93339 11.9478C5.02457 12.1116 5.14718 12.2558 5.29419 12.3721C5.44119 12.4885 5.60971 12.5746 5.79008 12.6257C5.97045 12.6768 6.15913 12.6918 6.34531 12.6699C6.53149 12.6479 6.71151 12.5894 6.87505 12.4978C6.90391 12.1589 7.05495 11.842 7.30006 11.6062C5.81673 11.4395 4.26673 10.8645 4.26673 8.31449C4.25736 7.65192 4.50185 7.01087 4.95006 6.52282C4.74625 5.94697 4.77009 5.31501 5.01673 4.75616C5.01673 4.75616 5.57504 4.58115 6.85006 5.43949C7.94092 5.13947 9.09253 5.13947 10.1834 5.43949C11.4584 4.57282 12.0167 4.75616 12.0167 4.75616C12.2634 5.315 12.2872 5.94697 12.0834 6.52282C12.533 7.01004 12.7777 7.65164 12.7667 8.31449C12.7667 10.8728 11.2084 11.4395 9.72506 11.6062C9.88416 11.7674 10.0067 11.961 10.0843 12.1738C10.162 12.3866 10.1929 12.6137 10.1751 12.8395C10.1751 13.7312 10.1667 14.4478 10.1667 14.6728C10.1667 14.8478 10.2917 15.0562 10.6251 14.9895C12.1242 14.4847 13.3951 13.4636 14.211 12.1085C15.0269 10.7534 15.3346 9.15235 15.0793 7.59129C14.824 6.03023 14.0222 4.61072 12.817 3.58614C11.6119 2.56157 10.0819 1.99863 8.50006 1.9978Z"/>
</mask>
<path d="M8.50006 1.9978C6.91704 1.99787 5.3857 2.56121 4.18004 3.58703C2.97437 4.61286 2.17306 6.03422 1.91948 7.59679C1.6659 9.15936 1.9766 10.7612 2.79599 12.1156C3.61538 13.4701 4.88998 14.4888 6.39174 14.9895C6.72507 15.0478 6.85007 14.8478 6.85007 14.6728C6.85007 14.5145 6.84173 13.9895 6.84173 13.4311C5.16673 13.7395 4.73339 13.0228 4.60006 12.6478C4.45211 12.2831 4.21758 11.9599 3.91673 11.7061C3.68339 11.5811 3.35006 11.2728 3.90839 11.2645C4.12158 11.2876 4.32605 11.3618 4.50448 11.4807C4.68291 11.5997 4.83004 11.7599 4.93339 11.9478C5.02457 12.1116 5.14718 12.2558 5.29419 12.3721C5.44119 12.4885 5.60971 12.5746 5.79008 12.6257C5.97045 12.6768 6.15913 12.6918 6.34531 12.6699C6.53149 12.6479 6.71151 12.5894 6.87505 12.4978C6.90391 12.1589 7.05495 11.842 7.30006 11.6062C5.81673 11.4395 4.26673 10.8645 4.26673 8.31449C4.25736 7.65192 4.50185 7.01087 4.95006 6.52282C4.74625 5.94697 4.77009 5.31501 5.01673 4.75616C5.01673 4.75616 5.57504 4.58115 6.85006 5.43949C7.94092 5.13947 9.09253 5.13947 10.1834 5.43949C11.4584 4.57282 12.0167 4.75616 12.0167 4.75616C12.2634 5.315 12.2872 5.94697 12.0834 6.52282C12.533 7.01004 12.7777 7.65164 12.7667 8.31449C12.7667 10.8728 11.2084 11.4395 9.72506 11.6062C9.88416 11.7674 10.0067 11.961 10.0843 12.1738C10.162 12.3866 10.1929 12.6137 10.1751 12.8395C10.1751 13.7312 10.1667 14.4478 10.1667 14.6728C10.1667 14.8478 10.2917 15.0562 10.6251 14.9895C12.1242 14.4847 13.3951 13.4636 14.211 12.1085C15.0269 10.7534 15.3346 9.15235 15.0793 7.59129C14.824 6.03023 14.0222 4.61072 12.817 3.58614C11.6119 2.56157 10.0819 1.99863 8.50006 1.9978Z" fill="#F8F9FC" stroke="#F8F9FC" stroke-width="2.66" mask="url(#path-4-inside-1_0_1)"/>
</g>
<rect x="-1941" y="-598" width="2733" height="1306" rx="40" stroke="#8B5DF5" stroke-width="3" stroke-dasharray="6 6"/>
<defs>
<filter id="filter0_dd_0_1" x="-232" y="-16" width="536" height="51" filterUnits="userSpaceOnUse" color-interpolation-filters="sRGB">
<feFlood flood-opacity="0" result="BackgroundImageFix"/>
<feColorMatrix in="SourceAlpha" type="matrix" values="0 0 0 0 0 0 0 0 0 0 0 0 0 0 0 0 0 0 127 0" result="hardAlpha"/>
<feOffset dy="1"/>
<feGaussianBlur stdDeviation="1.5"/>
<feColorMatrix type="matrix" values="0 0 0 0 0 0 0 0 0 0 0 0 0 0 0 0 0 0 0.1 0"/>
<feBlend mode="normal" in2="BackgroundImageFix" result="effect1_dropShadow_0_1"/>
<feColorMatrix in="SourceAlpha" type="matrix" values="0 0 0 0 0 0 0 0 0 0 0 0 0 0 0 0 0 0 127 0" result="hardAlpha"/>
<feOffset dy="1"/>
<feGaussianBlur stdDeviation="1"/>
<feColorMatrix type="matrix" values="0 0 0 0 0 0 0 0 0 0 0 0 0 0 0 0 0 0 0.06 0"/>
<feBlend mode="normal" in2="effect1_dropShadow_0_1" result="effect2_dropShadow_0_1"/>
<feBlend mode="normal" in="SourceGraphic" in2="effect2_dropShadow_0_1" result="shape"/>
</filter>
</defs>
</svg>
