<svg width="25" height="25" viewBox="0 0 25 25" fill="none" xmlns="http://www.w3.org/2000/svg">
<path d="M15.4509 17.6542C16.3007 17.4708 17.1623 17.1476 17.8805 16.5452C18.9279 15.6666 19.5639 14.2883 19.565 12.2269C19.5808 11.1942 19.2436 10.1912 18.6156 9.3808C18.8482 8.46267 18.7689 7.4889 18.3834 6.61559L18.2638 6.34468L17.9825 6.2523L17.775 6.88411C17.9825 6.2523 17.9818 6.25209 17.9812 6.25188L17.9799 6.25145L17.9772 6.25058L17.9716 6.24881L17.9593 6.24511C17.9506 6.24259 17.9411 6.23996 17.9307 6.23728C17.9099 6.23192 17.8855 6.22639 17.8575 6.22116C17.8015 6.2107 17.7317 6.20154 17.6478 6.1973C17.4795 6.18881 17.258 6.2003 16.9811 6.25818C16.4758 6.36383 15.791 6.62278 14.9052 7.19127C13.3406 6.81157 11.7077 6.8117 10.1432 7.19167C9.25781 6.62842 8.57428 6.37028 8.07108 6.26333C7.79547 6.20475 7.5753 6.19186 7.40822 6.19878C7.32489 6.20224 7.25559 6.21059 7.20006 6.22031C7.17233 6.22517 7.14815 6.23034 7.12747 6.23538C7.11714 6.2379 7.10769 6.24038 7.09913 6.24276L7.08696 6.24626L7.08137 6.24793L7.07871 6.24875L7.0774 6.24916C7.07676 6.24936 7.07612 6.24956 7.27503 6.88411L7.07612 6.24956L6.78838 6.33975L6.66664 6.61562C6.28111 7.4892 6.20183 8.46327 6.43468 9.38163C5.80855 10.1925 5.47153 11.1944 5.48503 12.2262C5.48597 14.2812 6.11852 15.6591 7.16185 16.5393C7.87743 17.1429 8.73641 17.4684 9.58545 17.6531C9.53625 17.7769 9.49594 17.9045 9.46497 18.0348C9.37564 18.0633 9.28359 18.0832 9.19003 18.0943C8.99765 18.117 8.80268 18.1015 8.6163 18.0487C8.42992 17.9959 8.25579 17.9068 8.10388 17.7866C7.95236 17.6667 7.82592 17.5181 7.73177 17.3494C7.52526 16.9746 7.23158 16.655 6.87552 16.4177C6.51894 16.18 6.11031 16.0317 5.68426 15.9855L5.64355 15.9811L5.60261 15.9817C5.37667 15.985 5.06405 16.0126 4.81834 16.193C4.66881 16.3028 4.54052 16.4731 4.50117 16.6973C4.46498 16.9034 4.51788 17.0772 4.5683 17.1879C4.6624 17.3945 4.82315 17.5475 4.92922 17.6368C5.02808 17.7201 5.13679 17.7951 5.24145 17.8563C5.58532 18.1584 5.85492 18.536 6.02896 18.9597C6.16432 19.3333 6.45965 19.8927 7.13885 20.2735C7.6802 20.5771 8.39959 20.7302 9.35045 20.6553C9.35146 20.7985 9.35264 20.9342 9.35382 21.0591C9.35481 21.1635 9.35578 21.2595 9.35666 21.3457C9.35737 21.4166 9.35803 21.481 9.35856 21.5378C7.338 20.8157 5.62567 19.4185 4.51291 17.5791C3.36556 15.6825 2.9305 13.4396 3.28557 11.2516C3.64065 9.06359 4.76269 7.07332 6.45092 5.63691C8.13907 4.20058 10.2832 3.41176 12.4997 3.41158L15.4509 17.6542ZM15.4509 17.6542C15.4686 17.6966 15.4854 17.7394 15.5012 17.7827C15.6472 18.1828 15.7072 18.6091 15.6775 19.0338C15.6775 19.6947 15.6744 20.2905 15.6713 20.7635C15.6702 20.9245 15.6692 21.0707 15.6682 21.2C15.6673 21.33 15.6665 21.4431 15.6659 21.5374C17.6822 20.8097 19.389 19.4095 20.4967 17.5696C21.6392 15.672 22.0702 13.4301 21.7126 11.2442C21.3551 9.05821 20.2323 7.07045 18.5448 5.63574C16.8573 4.20111 14.7149 3.41282 12.5001 3.41158L15.4509 17.6542Z" fill="white" stroke="#F8F9FC" stroke-width="1.33"/>
</svg>
