<svg width="16" height="17" viewBox="0 0 16 17" fill="none" xmlns="http://www.w3.org/2000/svg">
    <path d="M10.2574 12.0944C10.7693 11.9592 11.2854 11.7388 11.7294 11.3664C12.4892 10.7291 12.9305 9.74142 12.9316 8.31954C12.942 7.61717 12.7242 6.93405 12.3164 6.37032C12.4524 5.74147 12.3874 5.08203 12.125 4.48739L12.0054 4.21648L11.7241 4.1241L11.5166 4.75591C11.7241 4.1241 11.7234 4.12389 11.7228 4.12368L11.7215 4.12325L11.7188 4.1224L11.7133 4.12068L11.7017 4.11716C11.6936 4.1148 11.6849 4.1124 11.6756 4.11C11.6569 4.10521 11.6359 4.10045 11.6123 4.09606C11.5652 4.08725 11.5088 4.07998 11.4429 4.07665C11.3108 4.06998 11.1441 4.07939 10.942 4.12165C10.5896 4.19531 10.1342 4.36764 9.56354 4.72358C8.54484 4.49099 7.4867 4.49112 6.46804 4.72395C5.89785 4.37128 5.44369 4.19968 5.09339 4.12523C4.89252 4.08254 4.72716 4.07212 4.59622 4.07755C4.53095 4.08025 4.47505 4.08686 4.4284 4.09503C4.40511 4.09911 4.38423 4.10356 4.36576 4.10806C4.35652 4.11031 4.3479 4.11257 4.33989 4.1148L4.32833 4.11812L4.3229 4.11975L4.32027 4.12056L4.31898 4.12096C4.31834 4.12116 4.3177 4.12136 4.5166 4.75591L4.3177 4.12136L4.02996 4.21155L3.90821 4.48742C3.64568 5.08231 3.58074 5.74203 3.717 6.37111C3.31044 6.93491 3.09273 7.61714 3.10161 8.3188C3.10224 9.27929 3.3039 10.0422 3.66927 10.6329C3.60684 10.62 3.54368 10.61 3.48 10.6031L3.4393 10.5987L3.39836 10.5993C3.24221 10.6016 2.97152 10.6188 2.74762 10.7832C2.65133 10.8539 2.56286 10.9531 2.50523 11.0788C2.04162 10.0236 1.88939 8.85156 2.07577 7.70307C2.30406 6.29636 3.02544 5.01677 4.11085 4.09327C5.19616 3.16985 6.57461 2.66271 7.99959 2.66256L10.2574 12.0944ZM10.2574 12.0944C10.3291 12.3437 10.3571 12.6038 10.3399 12.8632C10.3399 13.3015 10.3378 13.6965 10.3358 14.0103C10.3353 14.0773 10.3349 14.1403 10.3345 14.1991C11.5002 13.7064 12.4844 12.8561 13.1412 11.7652C13.8757 10.5452 14.1528 9.10382 13.9229 7.69839C13.693 6.29297 12.9712 5.01497 11.8862 4.09255C10.8013 3.1702 9.42394 2.66339 7.99996 2.66256L10.2574 12.0944ZM5.68074 14.2002C5.65774 14.1905 5.63481 14.1807 5.61195 14.1708C5.6346 14.1707 5.65744 14.1704 5.68045 14.1699C5.68055 14.1801 5.68064 14.1902 5.68074 14.2002ZM3.65584 11.0666C3.65604 11.0665 3.65836 11.0686 3.66223 11.0728C3.65758 11.0687 3.65565 11.0666 3.65584 11.0666Z" fill="#F8F9FC" stroke="#F8F9FC" stroke-width="1.33"/>
    </svg>
    