<svg width="17" height="17" viewBox="0 0 17 17" fill="none" xmlns="http://www.w3.org/2000/svg">
<rect width="17" height="17" fill="#1E1E1E"/>
<rect x="-7061" y="-2169" width="10488" height="6949" stroke="#8B5DF5" stroke-width="6" stroke-dasharray="12 12"/>
<rect width="375" height="812" transform="translate(-104 -434)" fill="white"/>
<g filter="url(#filter0_dd_0_1)">
<rect x="-88" y="-14" width="343" height="45" rx="8" fill="#F1F3F9"/>
<mask id="path-5-inside-1_0_1" fill="white">
<path d="M8.49994 1.99756C6.91692 1.99762 5.38558 2.56097 4.17991 3.58679C2.97425 4.61261 2.17294 6.03397 1.91936 7.59655C1.66578 9.15912 1.97648 10.7609 2.79587 12.1154C3.61526 13.4698 4.88986 14.4885 6.39162 14.9892C6.72495 15.0476 6.84995 14.8476 6.84995 14.6726C6.84995 14.5142 6.84161 13.9892 6.84161 13.4309C5.1666 13.7392 4.73327 13.0226 4.59994 12.6476C4.45199 12.2829 4.21745 11.9597 3.9166 11.7059C3.68327 11.5809 3.34994 11.2726 3.90826 11.2642C4.12145 11.2874 4.32593 11.3616 4.50436 11.4805C4.68279 11.5995 4.82991 11.7597 4.93327 11.9476C5.02445 12.1114 5.14706 12.2555 5.29406 12.3719C5.44107 12.4882 5.60959 12.5744 5.78996 12.6255C5.97033 12.6766 6.15901 12.6916 6.34519 12.6696C6.53137 12.6477 6.71138 12.5892 6.87492 12.4976C6.90378 12.1586 7.05483 11.8418 7.29994 11.6059C5.8166 11.4392 4.2666 10.8642 4.2666 8.31424C4.25724 7.65168 4.50173 7.01063 4.94994 6.52258C4.74612 5.94672 4.76997 5.31477 5.0166 4.75591C5.0166 4.75591 5.57492 4.5809 6.84994 5.43924C7.9408 5.13923 9.09241 5.13923 10.1833 5.43924C11.4583 4.57258 12.0166 4.75591 12.0166 4.75591C12.2633 5.31476 12.2871 5.94673 12.0833 6.52258C12.5328 7.00979 12.7775 7.6514 12.7666 8.31424C12.7666 10.8726 11.2083 11.4392 9.72494 11.6059C9.88404 11.7672 10.0066 11.9608 10.0842 12.1736C10.1619 12.3864 10.1928 12.6134 10.1749 12.8392C10.1749 13.7309 10.1666 14.4476 10.1666 14.6726C10.1666 14.8476 10.2916 15.0559 10.6249 14.9892C12.124 14.4845 13.395 13.4634 14.2109 12.1083C15.0268 10.7531 15.3345 9.15211 15.0792 7.59105C14.8239 6.02999 14.0221 4.61047 12.8169 3.5859C11.6118 2.56133 10.0817 1.99838 8.49994 1.99756Z"/>
</mask>
<path d="M8.49994 1.99756C6.91692 1.99762 5.38558 2.56097 4.17991 3.58679C2.97425 4.61261 2.17294 6.03397 1.91936 7.59655C1.66578 9.15912 1.97648 10.7609 2.79587 12.1154C3.61526 13.4698 4.88986 14.4885 6.39162 14.9892C6.72495 15.0476 6.84995 14.8476 6.84995 14.6726C6.84995 14.5142 6.84161 13.9892 6.84161 13.4309C5.1666 13.7392 4.73327 13.0226 4.59994 12.6476C4.45199 12.2829 4.21745 11.9597 3.9166 11.7059C3.68327 11.5809 3.34994 11.2726 3.90826 11.2642C4.12145 11.2874 4.32593 11.3616 4.50436 11.4805C4.68279 11.5995 4.82991 11.7597 4.93327 11.9476C5.02445 12.1114 5.14706 12.2555 5.29406 12.3719C5.44107 12.4882 5.60959 12.5744 5.78996 12.6255C5.97033 12.6766 6.15901 12.6916 6.34519 12.6696C6.53137 12.6477 6.71138 12.5892 6.87492 12.4976C6.90378 12.1586 7.05483 11.8418 7.29994 11.6059C5.8166 11.4392 4.2666 10.8642 4.2666 8.31424C4.25724 7.65168 4.50173 7.01063 4.94994 6.52258C4.74612 5.94672 4.76997 5.31477 5.0166 4.75591C5.0166 4.75591 5.57492 4.5809 6.84994 5.43924C7.9408 5.13923 9.09241 5.13923 10.1833 5.43924C11.4583 4.57258 12.0166 4.75591 12.0166 4.75591C12.2633 5.31476 12.2871 5.94673 12.0833 6.52258C12.5328 7.00979 12.7775 7.6514 12.7666 8.31424C12.7666 10.8726 11.2083 11.4392 9.72494 11.6059C9.88404 11.7672 10.0066 11.9608 10.0842 12.1736C10.1619 12.3864 10.1928 12.6134 10.1749 12.8392C10.1749 13.7309 10.1666 14.4476 10.1666 14.6726C10.1666 14.8476 10.2916 15.0559 10.6249 14.9892C12.124 14.4845 13.395 13.4634 14.2109 12.1083C15.0268 10.7531 15.3345 9.15211 15.0792 7.59105C14.8239 6.02999 14.0221 4.61047 12.8169 3.5859C11.6118 2.56133 10.0817 1.99838 8.49994 1.99756Z" fill="#110F2A" stroke="#110F2A" stroke-width="2.66" mask="url(#path-5-inside-1_0_1)"/>
<rect x="-87.5" y="-13.5" width="342" height="44" rx="7.5" stroke="#E2E6F0"/>
</g>
<defs>
<filter id="filter0_dd_0_1" x="-91" y="-16" width="349" height="51" filterUnits="userSpaceOnUse" color-interpolation-filters="sRGB">
<feFlood flood-opacity="0" result="BackgroundImageFix"/>
<feColorMatrix in="SourceAlpha" type="matrix" values="0 0 0 0 0 0 0 0 0 0 0 0 0 0 0 0 0 0 127 0" result="hardAlpha"/>
<feOffset dy="1"/>
<feGaussianBlur stdDeviation="1.5"/>
<feColorMatrix type="matrix" values="0 0 0 0 0 0 0 0 0 0 0 0 0 0 0 0 0 0 0.1 0"/>
<feBlend mode="normal" in2="BackgroundImageFix" result="effect1_dropShadow_0_1"/>
<feColorMatrix in="SourceAlpha" type="matrix" values="0 0 0 0 0 0 0 0 0 0 0 0 0 0 0 0 0 0 127 0" result="hardAlpha"/>
<feOffset dy="1"/>
<feGaussianBlur stdDeviation="1"/>
<feColorMatrix type="matrix" values="0 0 0 0 0 0 0 0 0 0 0 0 0 0 0 0 0 0 0.06 0"/>
<feBlend mode="normal" in2="effect1_dropShadow_0_1" result="effect2_dropShadow_0_1"/>
<feBlend mode="normal" in="SourceGraphic" in2="effect2_dropShadow_0_1" result="shape"/>
</filter>
</defs>
</svg>
