<svg width="251" height="250" viewBox="0 0 251 250" fill="none" xmlns="http://www.w3.org/2000/svg">
<rect x="1.53333" y="1.03333" width="247.933" height="247.933" rx="123.967" fill="#FAFAFA"/>
<path fill-rule="evenodd" clip-rule="evenodd" d="M67.6918 132.381L72.4157 141.012C72.9061 141.827 72.4157 142.396 71.2751 142.396L67.1223 142.559C66.2269 142.559 65.0847 143.374 64.7604 144.107L62.5614 148.18C62.4961 148.343 62.3836 148.482 62.2384 148.58C62.0932 148.679 61.9219 148.731 61.7467 148.731C61.5714 148.731 61.4002 148.679 61.255 148.58C61.1098 148.482 60.9973 148.343 60.9319 148.18C60.9319 148.18 58.0005 142.805 56.2097 139.302C56.6716 139.171 57.026 138.986 57.3171 138.832L57.5116 138.731L67.6918 132.381ZM34.6279 141.012L39.3502 132.379L49.4482 138.731C49.6 138.793 49.7408 138.864 49.8864 138.938C50.1316 139.065 50.3926 139.199 50.7517 139.302C48.9609 142.805 46.0295 148.18 46.0295 148.18C45.9641 148.343 45.8516 148.482 45.7064 148.58C45.5612 148.679 45.39 148.731 45.2147 148.731C45.0395 148.731 44.8682 148.679 44.723 148.58C44.5778 148.482 44.4653 148.343 44.4 148.18L42.201 144.107C41.8751 143.292 40.7345 142.559 39.8375 142.559L35.6847 142.396C34.4634 142.396 34.302 141.745 34.6264 141.012H34.6279ZM70.3797 124.805C70.3797 127.086 68.9938 129.448 66.9594 130.588L56.9421 136.127C55.8779 136.654 54.7079 136.933 53.5202 136.942C52.3812 136.942 51.1583 136.777 50.0999 136.127L40.0827 130.508C38.0467 129.369 36.6624 127.005 36.6624 124.725V113.485C36.6624 111.207 38.0467 108.844 40.0827 107.703L50.0999 102.082C51.1639 101.556 52.3333 101.278 53.5202 101.269C54.6609 101.269 55.7192 101.432 56.9421 102.082L66.9594 107.703C69.1584 108.842 70.3797 111.041 70.3797 113.484V124.805ZM50.9954 131.485C51.8101 131.973 52.6248 132.055 53.5187 132.055C54.4157 132.055 55.3111 131.892 56.0435 131.485L63.2923 127.413C64.8395 126.518 65.8172 124.888 65.8172 123.178V115.032C65.8172 113.159 64.9218 111.612 63.2923 110.797L56.0435 106.725C55.1481 106.235 54.4141 106.156 53.5187 106.156C52.6232 106.156 51.7278 106.401 50.9954 106.725L43.7466 110.797C42.1978 111.693 41.2202 113.322 41.2202 115.032V123.177C41.2202 124.885 42.2785 126.597 43.745 127.412L50.9938 131.484L50.9954 131.485ZM49.5573 115.586C49.554 115.385 49.4913 115.19 49.3772 115.024C49.263 114.859 49.1025 114.731 48.9158 114.657C48.7291 114.582 48.5246 114.565 48.328 114.606C48.1314 114.648 47.9514 114.747 47.8108 114.89L44.8809 117.904C44.6977 118.093 44.5946 118.345 44.5931 118.608C44.5916 118.871 44.6919 119.124 44.873 119.315L47.8029 122.409C47.8949 122.506 48.0052 122.584 48.1273 122.639C48.2495 122.693 48.3811 122.723 48.5148 122.727C48.6485 122.73 48.7816 122.707 48.9064 122.659C49.0313 122.611 49.1455 122.539 49.2425 122.447C49.3395 122.355 49.4175 122.245 49.4719 122.123C49.5263 122.001 49.5561 121.869 49.5596 121.735C49.5632 121.602 49.5403 121.469 49.4924 121.344C49.4445 121.219 49.3725 121.105 49.2805 121.008L47.0214 118.624L49.2726 116.311C49.4604 116.117 49.564 115.857 49.5605 115.588L49.5573 115.586ZM58.0796 114.661C57.9244 114.724 57.7875 114.826 57.681 114.955C57.5744 115.085 57.5016 115.238 57.469 115.403C57.4364 115.567 57.4451 115.737 57.4942 115.898C57.5433 116.058 57.6314 116.204 57.7505 116.322L60.0508 118.624L57.741 120.997C57.5522 121.19 57.4479 121.45 57.451 121.72C57.4541 121.99 57.5644 122.248 57.7576 122.437C57.9509 122.626 58.2112 122.73 58.4813 122.727C58.7514 122.724 59.0092 122.614 59.1981 122.42L62.2086 119.324C62.3958 119.133 62.4999 118.875 62.4984 118.608C62.4969 118.34 62.39 118.084 62.2007 117.894L59.1886 114.881C59.0465 114.738 58.8655 114.641 58.6684 114.602C58.4713 114.563 58.267 114.583 58.0812 114.659L58.0796 114.661ZM55.9281 114.794C55.809 114.676 55.6627 114.589 55.5021 114.542C55.3416 114.494 55.1718 114.487 55.0079 114.521C54.8439 114.555 54.6909 114.629 54.5625 114.737C54.4341 114.844 54.3342 114.982 54.2717 115.137L51.6661 121.571C51.5648 121.821 51.567 122.101 51.6724 122.35C51.7777 122.599 51.9775 122.795 52.2277 122.897C52.478 122.998 52.7583 122.996 53.0069 122.89C53.2555 122.785 53.4521 122.585 53.5535 122.335L56.1574 115.903C56.2329 115.716 56.2513 115.511 56.2105 115.314C56.1697 115.117 56.0714 114.936 55.9281 114.795V114.794ZM116.707 110.081C115.517 110.266 114.793 111.096 114.793 112.267C114.79 113.109 115.114 113.789 115.873 114.175C116.284 114.387 116.736 114.507 117.198 114.526C117.66 114.545 118.12 114.463 118.547 114.286C118.912 114.162 119.231 113.933 119.467 113.629C119.702 113.324 119.842 112.956 119.87 112.572C119.968 111.679 119.699 110.91 118.89 110.421C118.216 110.014 117.462 109.962 116.707 110.081ZM163.207 121.527C163.212 122.091 163.216 122.658 163.216 123.223H163.153C163.166 123.857 163.171 124.493 163.175 125.129C163.186 126.568 163.197 128.011 163.318 129.443C163.506 131.653 164.683 133.311 166.714 134.265C168.67 135.182 170.723 135.232 172.786 134.711C174.12 134.372 175.276 133.683 176.132 132.566C177.02 131.408 177.492 129.986 177.473 128.527C177.48 126.355 177.477 124.183 177.475 122.011V118.747C177.476 118.222 177.451 117.698 177.399 117.176C177.151 114.798 175.708 112.789 173.329 111.96C171.657 111.381 169.852 111.3 168.135 111.728C165.085 112.451 163.334 114.702 163.231 117.72C163.185 118.986 163.196 120.256 163.207 121.525V121.527ZM167.065 123.223H167.094V123.218C167.094 122.669 167.091 122.121 167.088 121.572C167.081 120.307 167.073 119.043 167.103 117.782C167.13 116.73 167.546 115.827 168.527 115.286C169.571 114.708 171.743 114.726 172.677 115.662C173.295 116.284 173.511 117.043 173.579 117.875C173.591 118.041 173.591 118.209 173.591 118.378V128.127C173.593 128.771 173.533 129.407 173.259 129.997C172.777 131.038 171.897 131.509 170.807 131.576C170.243 131.614 169.677 131.567 169.127 131.436C167.994 131.152 167.38 130.337 167.168 129.22C167.096 128.797 167.061 128.368 167.065 127.938C167.059 126.891 167.061 125.842 167.064 124.795V123.223H167.065ZM102.662 118.223H106.543C106.553 118.142 106.56 118.059 106.562 117.977C106.558 117.915 106.554 117.854 106.551 117.793V117.792C106.538 117.592 106.525 117.393 106.503 117.195C106.294 115.523 105.581 114.121 104.265 113.05C103.239 112.226 101.998 111.713 100.689 111.573C98.9459 111.357 97.2437 111.484 95.6285 112.239C94.2138 112.867 93.1026 114.026 92.5341 115.466C92.1275 116.456 92.0294 117.493 92.0294 118.545C92.0193 121.5 92.0193 124.456 92.0294 127.412C92.0199 128.071 92.0516 128.731 92.1243 129.388C92.417 131.658 93.5845 133.324 95.6807 134.279C97.5902 135.149 99.5914 135.214 101.604 134.751C103.022 134.446 104.289 133.657 105.187 132.518C106.133 131.318 106.551 129.918 106.557 128.396V122.832C106.557 122.768 106.551 122.704 106.544 122.639C106.541 122.612 106.539 122.586 106.536 122.56H98.7766V125.921H102.6C102.6 126.239 102.607 126.554 102.611 126.871C102.623 127.579 102.634 128.279 102.586 128.972C102.515 129.997 101.979 130.792 101.052 131.265C100.346 131.629 99.5756 131.677 98.7893 131.61C97.125 131.471 95.9733 130.3 95.9385 128.635C95.9037 127.053 95.9037 125.471 95.9037 123.887V123.037C95.9037 121.297 95.9037 119.557 95.9433 117.818C95.9686 116.67 96.4859 115.763 97.549 115.241C98.2562 114.896 99.0219 114.846 99.7891 114.914C101.279 115.048 102.361 115.922 102.566 117.385C102.591 117.565 102.61 117.746 102.629 117.928L102.66 118.225L102.662 118.223ZM197.234 134.708H193.271L192.893 133.11L192.76 132.515H192.759V132.512C192.525 131.477 192.292 130.441 192.067 129.405C192.02 129.187 191.925 129.125 191.707 129.125C189.853 129.134 187.999 129.134 186.144 129.125C185.918 129.125 185.844 129.201 185.796 129.411C185.513 130.697 185.224 131.974 184.931 133.262L184.605 134.695H180.645C180.729 134.374 180.808 134.056 180.886 133.737L181.005 133.257L186.347 112.047L186.353 112.011C186.385 111.884 186.41 111.775 186.606 111.775C187.665 111.781 188.722 111.78 189.793 111.778L191.427 111.775L197.233 134.706L197.234 134.708ZM187.494 121.903L187.491 121.913L186.597 125.959H191.265L189.791 119.204L188.945 115.336L187.521 121.775L187.507 121.841L187.494 121.905V121.903ZM145.327 111.781H145.004V134.689H148.888V125.901L150.083 125.904C150.866 125.906 151.638 125.909 152.408 125.901C153.524 125.888 154.625 125.789 155.68 125.398C157.8 124.623 159.23 123.178 159.888 120.995C160.23 119.824 160.29 118.59 160.062 117.393C159.728 115.487 158.763 113.992 157.115 112.963C155.688 112.074 154.107 111.781 152.46 111.781H145.326H145.327ZM148.895 122.346V115.29L149.818 115.287C150.562 115.284 151.294 115.282 152.027 115.294C152.538 115.29 153.049 115.33 153.554 115.412C155.077 115.699 156.085 116.822 156.218 118.371C156.313 119.468 156.123 120.49 155.322 121.335C154.761 121.927 154.065 122.292 153.281 122.329C152.258 122.373 151.231 122.363 150.197 122.354C149.763 122.349 149.329 122.347 148.895 122.346ZM205.2 125.915V134.698H201.34V111.781H208.77C210.406 111.788 211.977 112.066 213.396 112.938C215.073 113.969 216.052 115.477 216.386 117.405C216.638 118.858 216.549 120.285 215.984 121.661C215.383 123.166 214.236 124.389 212.773 125.085C211.515 125.713 210.167 125.891 208.786 125.907C208.073 125.914 207.359 125.91 206.647 125.909H206.646L205.579 125.907L205.2 125.915ZM205.208 122.379C205.259 122.391 205.31 122.399 205.363 122.403L206.468 122.408C207.315 122.413 208.161 122.416 209.011 122.397C210.017 122.373 210.942 122.098 211.669 121.327C212.448 120.498 212.634 119.498 212.556 118.418C212.431 116.73 211.158 115.431 209.468 115.352C208.511 115.305 207.549 115.305 206.589 115.305C206.188 115.305 205.79 115.303 205.39 115.3C205.329 115.306 205.27 115.319 205.212 115.339L205.208 122.379ZM133.657 117.439V112.603C133.601 112.599 133.545 112.595 133.489 112.59C133.437 112.585 133.385 112.582 133.332 112.58L132.253 112.584C131.534 112.588 130.814 112.591 130.096 112.58C129.82 112.576 129.741 112.653 129.741 112.932C129.746 113.846 129.744 114.762 129.741 115.678V117.051C129.741 117.138 129.73 117.225 129.719 117.317C129.714 117.362 129.709 117.408 129.705 117.453H125.077V120.952H129.744V121.387L129.741 123.928V123.934C129.738 125.632 129.736 127.331 129.743 129.028C129.736 129.573 129.768 130.115 129.841 130.655C130.047 132.022 130.671 133.145 131.866 133.901C132.858 134.529 133.967 134.7 135.109 134.711C136.115 134.719 137.121 134.716 138.127 134.714L139.637 134.711H139.947L139.956 134.597C139.963 134.528 139.969 134.471 139.969 134.417V133.218C139.967 132.653 139.966 132.088 139.974 131.525C139.98 131.248 139.879 131.199 139.626 131.199C138.233 131.212 136.841 131.22 135.446 131.199C135.09 131.211 134.735 131.149 134.403 131.019C133.786 130.728 133.649 130.137 133.649 129.509V121.27C133.649 121.21 133.654 121.149 133.66 121.077C133.664 121.037 133.668 120.997 133.671 120.957H134.047C134.706 120.957 135.364 120.957 136.02 120.954C137.333 120.954 138.646 120.951 139.959 120.957C140.208 120.957 140.282 120.889 140.282 120.638V117.744C140.282 117.689 140.276 117.633 140.266 117.568C140.261 117.525 140.257 117.482 140.254 117.439H133.657ZM119.503 131.15H124.824V134.694H109.776V131.172H115.761V120.959H110.556V117.462H119.499L119.503 131.15Z" fill="black"/>
<rect x="1.53333" y="1.03333" width="247.933" height="247.933" rx="123.967" stroke="#8B5DF5" stroke-width="2.06667"/>
</svg>
