<svg width="16" height="16" viewBox="0 0 16 16" fill="none" xmlns="http://www.w3.org/2000/svg">
    <path fill-rule="evenodd" clip-rule="evenodd"
        d="M9.64127 1.6622C10.1672 1.44431 10.7308 1.33215 11.3 1.33215C11.8693 1.33215 12.4329 1.44431 12.9588 1.6622C13.4846 1.88006 13.9623 2.19936 14.3647 2.60186C14.7672 3.00422 15.0867 3.48216 15.3045 4.00794C15.5224 4.53382 15.6346 5.09747 15.6346 5.6667C15.6346 6.23594 15.5224 6.79959 15.3045 7.32547C15.0867 7.8513 14.7673 8.32905 14.3648 8.73144V8.73144L8.47144 14.6248C8.21109 14.8851 7.78898 14.8851 7.52863 14.6248L1.6353 8.73144C0.822482 7.91862 0.365845 6.8162 0.365845 5.6667C0.365845 4.5172 0.822482 3.41478 1.6353 2.60197C2.44812 1.78915 3.55054 1.33251 4.70004 1.33251C5.84954 1.33251 6.95196 1.78915 7.76478 2.60197L8.00004 2.83723L8.23519 2.60208V2.60208C8.63758 2.19953 9.11544 1.88008 9.64127 1.6622ZM11.3 2.66549C10.906 2.66549 10.5157 2.74313 10.1517 2.89398C9.78759 3.04483 9.45681 3.26594 9.17822 3.54466L8.47144 4.25144C8.21109 4.51179 7.78898 4.51179 7.52863 4.25144L6.82197 3.54478C6.2592 2.982 5.49592 2.66584 4.70004 2.66584C3.90416 2.66584 3.14088 2.982 2.57811 3.54478C2.01534 4.10755 1.69918 4.87083 1.69918 5.6667C1.69918 6.46258 2.01534 7.22586 2.57811 7.78863L8.00004 13.2106L13.422 7.78863C13.7007 7.51004 13.9219 7.17915 14.0728 6.81508C14.2236 6.45101 14.3013 6.06079 14.3013 5.6667C14.3013 5.27262 14.2236 4.8824 14.0728 4.51833C13.9219 4.15426 13.7008 3.82348 13.4221 3.54489C13.1435 3.26616 12.8125 3.04484 12.4484 2.89398C12.0843 2.74313 11.6941 2.66549 11.3 2.66549Z"
        fill="#4F46E5" />
</svg>
    