<svg width="16" height="17" viewBox="0 0 16 17" fill="none" xmlns="http://www.w3.org/2000/svg">
    <path fill-rule="evenodd" clip-rule="evenodd"
        d="M9.64121 2.16208C10.1671 1.94418 10.7307 1.83203 11.3 1.83203C11.8692 1.83203 12.4329 1.94418 12.9587 2.16208C13.4845 2.37994 13.9622 2.69923 14.3646 3.10173C14.7671 3.5041 15.0866 3.98204 15.3045 4.50782C15.5224 5.03369 15.6345 5.59735 15.6345 6.16658C15.6345 6.73582 15.5224 7.29947 15.3045 7.82535C15.0866 8.35117 14.7673 8.82893 14.3647 9.23132L8.47138 15.1247C8.21103 15.385 7.78892 15.385 7.52857 15.1247L1.63524 9.23132C0.822421 8.4185 0.365784 7.31608 0.365784 6.16658C0.365784 5.01708 0.822421 3.91466 1.63524 3.10184C2.44806 2.28902 3.55048 1.83239 4.69998 1.83239C5.84948 1.83239 6.9519 2.28902 7.76471 3.10184L7.99998 3.33711L8.23513 3.10195C8.63752 2.6994 9.11538 2.37996 9.64121 2.16208ZM11.3 3.16536C10.9059 3.16536 10.5157 3.24301 10.1516 3.39386C9.78753 3.54471 9.45675 3.76582 9.17816 4.04454L8.47138 4.75132C8.21103 5.01167 7.78892 5.01167 7.52857 4.75132L6.82191 4.04465C6.25914 3.48188 5.49585 3.16572 4.69998 3.16572C3.9041 3.16572 3.14082 3.48188 2.57805 4.04465C2.01528 4.60742 1.69912 5.3707 1.69912 6.16658C1.69912 6.96246 2.01528 7.72574 2.57805 8.28851L7.99998 13.7104L13.4219 8.28851C13.7006 8.00992 13.9218 7.67903 14.0727 7.31496C14.2235 6.95089 14.3012 6.56067 14.3012 6.16658C14.3012 5.7725 14.2235 5.38228 14.0727 5.01821C13.9218 4.65414 13.7007 4.32336 13.422 4.04476C13.1434 3.76604 12.8124 3.54471 12.4484 3.39386C12.0843 3.24301 11.6941 3.16536 11.3 3.16536Z"
        fill="black" />
</svg>
    