<svg width="24" height="24" viewBox="0 0 24 24" fill="none" xmlns="http://www.w3.org/2000/svg">
<path d="M11.9951 4.9997C11.8584 4.999 11.7217 5.00245 11.5853 5.01003C11.7218 5.00306 11.8584 4.99961 11.9951 4.9997ZM11.9951 4.9997C11.9968 4.9997 11.9985 4.9997 12.0002 4.9997M11.9951 4.9997H12.0002M12.0002 4.9997V5.9997M12.0002 4.9997C12.0004 4.9997 12.0006 4.9997 12.0008 4.9997C12.0008 4.9997 12.0009 4.9997 12.0009 4.9997C12.0011 4.9997 12.0014 4.9997 12.0016 4.9997L12.0002 5.9997M12.0002 5.9997C15.1802 5.9997 18.1702 8.2897 19.9102 11.9997L10.9402 6.0797C11.2909 6.02593 11.6453 5.99919 12.0002 5.9997ZM20.4916 10.9252C18.6044 7.35918 15.4942 5.00688 12.0161 4.99971C15.3035 5.00664 18.5109 7.15799 20.4916 10.9252ZM3.57718 10.8018C3.43934 11.0588 3.30995 11.3207 3.18929 11.5871L2.99963 12.0057L3.19388 12.4223C4.23884 14.6633 5.75236 16.485 7.54371 17.6382C5.69632 16.4555 4.08856 14.5347 2.99862 12.0041L2.99863 12.0041L2.9967 11.9997L2.99673 11.9997L3.00009 11.9918C3.17339 11.5853 3.36605 11.1882 3.57718 10.8018ZM12.0368 18.9993C13.466 18.9787 14.8653 18.5866 16.0974 17.8615L16.5012 17.6239L16.4979 17.626C15.1736 18.5033 13.6246 18.98 12.0368 18.9993ZM17.7584 17.7537L17.2491 17.2428L21.0031 20.9968L21.006 20.9997L21.0002 21.0055L20.9984 21.0037L17.7584 17.7537ZM7.37011 7.36383L16.4199 16.4136L16.2928 16.2881L14.7028 14.7181L14.1728 14.1948L13.5197 14.5527C12.9506 14.8645 12.2957 14.9834 11.6533 14.8915C11.0109 14.7996 10.4157 14.5019 9.95682 14.0431C9.49796 13.5842 9.20026 12.9889 9.10837 12.3466C9.01648 11.7042 9.13536 11.0493 9.44717 10.4802L9.80532 9.82656L9.28125 9.29657L7.51125 7.50658L7.37011 7.36383ZM6.8188 6.81253L6.82001 6.81374L6.66897 6.95676L6.8188 6.81253ZM6.58419 6.57791L6.09615 6.09145L2.99729 3.00259C2.99727 3.00257 2.99725 3.00255 2.99723 3.00252C2.9965 3.00176 2.99609 3.00075 2.99609 2.9997C2.99609 2.99861 2.99652 2.99757 2.99729 2.9968C2.99767 2.99642 2.99812 2.99612 2.99862 2.99592C2.99912 2.99571 2.99965 2.99561 3.00019 2.99561C3.00072 2.99561 3.00126 2.99571 3.00175 2.99592C3.00225 2.99612 3.0027 2.99642 3.00308 2.9968L6.58419 6.57791Z" fill="#110F2A" stroke="#110F2A" stroke-width="2"/>
</svg>
