<svg width="16" height="16" viewBox="0 0 16 16" fill="none" xmlns="http://www.w3.org/2000/svg">
<path d="M7.62679 1.33331C5.91771 1.33819 4.27578 1.99926 3.04012 3.17998V1.99998C3.04012 1.82317 2.96988 1.6536 2.84486 1.52858C2.71983 1.40355 2.55026 1.33331 2.37345 1.33331C2.19664 1.33331 2.02707 1.40355 1.90205 1.52858C1.77702 1.6536 1.70679 1.82317 1.70679 1.99998V4.99998C1.70679 5.17679 1.77702 5.34636 1.90205 5.47138C2.02707 5.59641 2.19664 5.66665 2.37345 5.66665H5.37345C5.55027 5.66665 5.71983 5.59641 5.84486 5.47138C5.96988 5.34636 6.04012 5.17679 6.04012 4.99998C6.04012 4.82317 5.96988 4.6536 5.84486 4.52858C5.71983 4.40355 5.55027 4.33331 5.37345 4.33331H3.77345C4.38126 3.69132 5.13912 3.21049 5.97887 2.93407C6.81862 2.65766 7.71391 2.59433 8.58421 2.74978C9.45451 2.90524 10.2725 3.2746 10.9646 3.82464C11.6568 4.37468 12.2013 5.08815 12.5493 5.90087C12.8972 6.71358 13.0377 7.60005 12.958 8.48053C12.8784 9.361 12.5811 10.2079 12.093 10.9449C11.6048 11.682 10.9411 12.2862 10.1615 12.7031C9.38186 13.12 8.51085 13.3366 7.62679 13.3333C7.44998 13.3333 7.28041 13.4036 7.15538 13.5286C7.03036 13.6536 6.96012 13.8232 6.96012 14C6.96012 14.1768 7.03036 14.3464 7.15538 14.4714C7.28041 14.5964 7.44998 14.6666 7.62679 14.6666C9.3949 14.6666 11.0906 13.9643 12.3408 12.714C13.5911 11.4638 14.2935 9.76809 14.2935 7.99998C14.2935 6.23187 13.5911 4.53618 12.3408 3.28593C11.0906 2.03569 9.3949 1.33331 7.62679 1.33331ZM7.62679 5.33331C7.44998 5.33331 7.28041 5.40355 7.15538 5.52858C7.03036 5.6536 6.96012 5.82317 6.96012 5.99998V7.99998C6.96012 8.17679 7.03036 8.34636 7.15538 8.47138C7.28041 8.59641 7.44998 8.66665 7.62679 8.66665H8.96012C9.13693 8.66665 9.3065 8.59641 9.43153 8.47138C9.55655 8.34636 9.62679 8.17679 9.62679 7.99998C9.62679 7.82317 9.55655 7.6536 9.43153 7.52858C9.3065 7.40355 9.13693 7.33331 8.96012 7.33331H8.29345V5.99998C8.29345 5.82317 8.22322 5.6536 8.09819 5.52858C7.97317 5.40355 7.8036 5.33331 7.62679 5.33331Z" fill="#646B8B"/>
</svg>
