<svg width="16" height="16" viewBox="0 0 16 16" fill="none" xmlns="http://www.w3.org/2000/svg">
    <path
        d="M7.62703 1.33301C5.91795 1.33788 4.27602 1.99895 3.04036 3.17967V1.99967C3.04036 1.82286 2.97013 1.65329 2.8451 1.52827C2.72008 1.40325 2.55051 1.33301 2.3737 1.33301C2.19689 1.33301 2.02732 1.40325 1.90229 1.52827C1.77727 1.65329 1.70703 1.82286 1.70703 1.99967V4.99967C1.70703 5.17649 1.77727 5.34605 1.90229 5.47108C2.02732 5.5961 2.19689 5.66634 2.3737 5.66634H5.3737C5.55051 5.66634 5.72008 5.5961 5.8451 5.47108C5.97013 5.34605 6.04036 5.17649 6.04036 4.99967C6.04036 4.82286 5.97013 4.65329 5.8451 4.52827C5.72008 4.40325 5.55051 4.33301 5.3737 4.33301H3.7737C4.3815 3.69101 5.13937 3.21018 5.97912 2.93377C6.81887 2.65735 7.71416 2.59402 8.58445 2.74948C9.45475 2.90493 10.2728 3.27429 10.9649 3.82433C11.657 4.37438 12.2015 5.08785 12.5495 5.90056C12.8975 6.71328 13.0379 7.59974 12.9583 8.48022C12.8786 9.3607 12.5814 10.2076 12.0932 10.9446C11.605 11.6817 10.9413 12.2859 10.1617 12.7028C9.38211 13.1197 8.5111 13.3363 7.62703 13.333C7.45022 13.333 7.28065 13.4032 7.15563 13.5283C7.0306 13.6533 6.96036 13.8229 6.96036 13.9997C6.96036 14.1765 7.0306 14.3461 7.15563 14.4711C7.28065 14.5961 7.45022 14.6663 7.62703 14.6663C9.39514 14.6663 11.0908 13.964 12.3411 12.7137C13.5913 11.4635 14.2937 9.76779 14.2937 7.99967C14.2937 6.23156 13.5913 4.53587 12.3411 3.28563C11.0908 2.03539 9.39514 1.33301 7.62703 1.33301ZM7.62703 5.33301C7.45022 5.33301 7.28065 5.40325 7.15563 5.52827C7.0306 5.65329 6.96036 5.82286 6.96036 5.99967V7.99967C6.96036 8.17649 7.0306 8.34606 7.15563 8.47108C7.28065 8.5961 7.45022 8.66634 7.62703 8.66634H8.96036C9.13717 8.66634 9.30674 8.5961 9.43177 8.47108C9.55679 8.34606 9.62703 8.17649 9.62703 7.99967C9.62703 7.82286 9.55679 7.65329 9.43177 7.52827C9.30674 7.40325 9.13717 7.33301 8.96036 7.33301H8.2937V5.99967C8.2937 5.82286 8.22346 5.65329 8.09844 5.52827C7.97341 5.40325 7.80384 5.33301 7.62703 5.33301Z"
        fill="#949BB8" />
</svg>
    