<svg width="24" height="24" viewBox="0 0 24 24" fill="none" xmlns="http://www.w3.org/2000/svg">
<path fill-rule="evenodd" clip-rule="evenodd" d="M12.5494 1.19273C12.1914 0.91997 11.6953 0.91997 11.3373 1.19273L2.57694 7.86732C2.32869 8.05646 2.18298 8.35066 2.18298 8.66275V20.1049C2.18298 20.8826 2.49856 21.6242 3.0534 22.1677C3.60753 22.7106 4.35479 23.0119 5.12974 23.0119H18.757C19.532 23.0119 20.2792 22.7106 20.8334 22.1677C21.3882 21.6242 21.7038 20.8826 21.7038 20.1049V8.66275C21.7038 8.35066 21.5581 8.05646 21.3098 7.86732L12.5494 1.19273ZM4.18298 20.1049V9.15803L11.9434 3.24534L19.7038 9.15803V9.18431C17.8621 15.1569 14.48 19.0524 8.2165 21.0119H5.12974C4.87207 21.0119 4.629 20.9115 4.45295 20.739C4.27761 20.5673 4.18298 20.3387 4.18298 20.1049Z" fill="#110F2A"/>
</svg>
