<svg width="24" height="24" viewBox="0 0 24 24" fill="none" xmlns="http://www.w3.org/2000/svg">
<path fill-rule="evenodd" clip-rule="evenodd" d="M22 12C22 17.5228 17.5228 22 12 22C6.47715 22 2 17.5228 2 12C2 6.47715 6.47715 2 12 2C17.5228 2 22 6.47715 22 12ZM12 18.5556C11.4477 18.5556 11 18.1078 11 17.5556V10.8889C11 10.3366 11.4477 9.88889 12 9.88889C12.5523 9.88889 13 10.3366 13 10.8889V17.5556C13 18.1078 12.5523 18.5556 12 18.5556ZM12 8.66667C12.6137 8.66667 13.1111 8.16921 13.1111 7.55556C13.1111 6.94191 12.6137 6.44444 12 6.44444C11.3864 6.44444 10.8889 6.94191 10.8889 7.55556C10.8889 8.16921 11.3864 8.66667 12 8.66667Z" fill="#110F2A"/>
</svg>
