<svg width="24" height="24" viewBox="0 0 24 24" fill="none" xmlns="http://www.w3.org/2000/svg">
    <path d="M18.85 15.69C18.6626 15.5037 18.4092 15.3992 18.145 15.3992C17.8808 15.3992 17.6274 15.5037 17.44 15.69L15.38 17.75C15.2567 17.8743 15.1681 18.0288 15.1232 18.1981C15.0784 18.3674 15.0787 18.5454 15.1243 18.7145C15.1699 18.8836 15.259 19.0378 15.3829 19.1616C15.5067 19.2854 15.6609 19.3745 15.83 19.42L16.09 19.49L15.29 20.29C15.1963 20.383 15.1219 20.4936 15.0711 20.6154C15.0203 20.7373 14.9942 20.868 14.9942 21C14.9942 21.132 15.0203 21.2627 15.0711 21.3846C15.1219 21.5064 15.1963 21.617 15.29 21.71C15.383 21.8037 15.4936 21.8781 15.6154 21.9289C15.7373 21.9797 15.868 22.0058 16 22.0058C16.132 22.0058 16.2627 21.9797 16.3846 21.9289C16.5064 21.8781 16.617 21.8037 16.71 21.71L18.71 19.71C18.8403 19.5828 18.9333 19.4224 18.9792 19.2462C19.025 19.07 19.0218 18.8846 18.97 18.71C18.9248 18.5396 18.8353 18.3841 18.7106 18.2594C18.5859 18.1347 18.4304 18.0452 18.26 18L18 17.94L18.83 17.1C19.0189 16.9153 19.1271 16.6633 19.1308 16.3991C19.1346 16.1349 19.0336 15.88 18.85 15.69ZM7.91 19.49L8.17 19.42C8.3391 19.3745 8.49329 19.2854 8.61714 19.1616C8.74098 19.0378 8.83015 18.8836 8.87571 18.7145C8.92127 18.5454 8.92163 18.3674 8.87676 18.1981C8.83188 18.0288 8.74334 17.8743 8.62 17.75L6.56 15.69C6.3687 15.5262 6.12262 15.4406 5.87095 15.4503C5.61927 15.46 5.38053 15.5643 5.20244 15.7424C5.02434 15.9205 4.92001 16.1593 4.91029 16.4109C4.90057 16.6626 4.98617 16.9087 5.15 17.1L5.98 17.94L5.72 18C5.54956 18.0452 5.39412 18.1347 5.26943 18.2594C5.14474 18.3841 5.05524 18.5396 5.01 18.71C4.95819 18.8846 4.95502 19.07 5.00084 19.2462C5.04666 19.4224 5.13973 19.5828 5.27 19.71L7.27 21.71C7.36296 21.8037 7.47356 21.8781 7.59542 21.9289C7.71728 21.9797 7.84799 22.0058 7.98 22.0058C8.11201 22.0058 8.24272 21.9797 8.36458 21.9289C8.48644 21.8781 8.59704 21.8037 8.69 21.71C8.78373 21.617 8.85812 21.5064 8.90889 21.3846C8.95966 21.2627 8.9858 21.132 8.9858 21C8.9858 20.868 8.95966 20.7373 8.90889 20.6154C8.85812 20.4936 8.78373 20.383 8.69 20.29L7.91 19.49ZM21 4C20.7348 4 20.4804 4.10536 20.2929 4.29289C20.1054 4.48043 20 4.73478 20 5H17C17 4.20435 16.6839 3.44129 16.1213 2.87868C15.5587 2.31607 14.7956 2 14 2H10C9.20435 2 8.44129 2.31607 7.87868 2.87868C7.31607 3.44129 7 4.20435 7 5H4C4 4.73478 3.89464 4.48043 3.70711 4.29289C3.51957 4.10536 3.26522 4 3 4C2.73478 4 2.48043 4.10536 2.29289 4.29289C2.10536 4.48043 2 4.73478 2 5V7C2 7.26522 2.10536 7.51957 2.29289 7.70711C2.48043 7.89464 2.73478 8 3 8C3.26522 8 3.51957 7.89464 3.70711 7.70711C3.89464 7.51957 4 7.26522 4 7H7V9C6.99967 9.62065 7.19186 10.2261 7.55006 10.733C7.90826 11.2398 8.41484 11.6231 9 11.83V13C9 13.5304 9.21071 14.0391 9.58579 14.4142C9.96086 14.7893 10.4696 15 11 15V21C11 21.2652 11.1054 21.5196 11.2929 21.7071C11.4804 21.8946 11.7348 22 12 22C12.2652 22 12.5196 21.8946 12.7071 21.7071C12.8946 21.5196 13 21.2652 13 21V15C13.5304 15 14.0391 14.7893 14.4142 14.4142C14.7893 14.0391 15 13.5304 15 13V11.83C15.5852 11.6231 16.0917 11.2398 16.4499 10.733C16.8081 10.2261 17.0003 9.62065 17 9V7H20C20 7.26522 20.1054 7.51957 20.2929 7.70711C20.4804 7.89464 20.7348 8 21 8C21.2652 8 21.5196 7.89464 21.7071 7.70711C21.8946 7.51957 22 7.26522 22 7V5C22 4.73478 21.8946 4.48043 21.7071 4.29289C21.5196 4.10536 21.2652 4 21 4ZM15 9C15 9.26522 14.8946 9.51957 14.7071 9.70711C14.5196 9.89464 14.2652 10 14 10C13.7348 10 13.4804 10.1054 13.2929 10.2929C13.1054 10.4804 13 10.7348 13 11V13H11V11C11 10.7348 10.8946 10.4804 10.7071 10.2929C10.5196 10.1054 10.2652 10 10 10C9.73478 10 9.48043 9.89464 9.29289 9.70711C9.10536 9.51957 9 9.26522 9 9V5C9 4.73478 9.10536 4.48043 9.29289 4.29289C9.48043 4.10536 9.73478 4 10 4H14C14.2652 4 14.5196 4.10536 14.7071 4.29289C14.8946 4.48043 15 4.73478 15 5V9ZM12 6C11.7348 6 11.4804 6.10536 11.2929 6.29289C11.1054 6.48043 11 6.73478 11 7V8C11 8.26522 11.1054 8.51957 11.2929 8.70711C11.4804 8.89464 11.7348 9 12 9C12.2652 9 12.5196 8.89464 12.7071 8.70711C12.8946 8.51957 13 8.26522 13 8V7C13 6.73478 12.8946 6.48043 12.7071 6.29289C12.5196 6.10536 12.2652 6 12 6Z" fill="#949BB8" />
</svg>
    