<svg width="17" height="16" viewBox="0 0 17 16" fill="none" xmlns="http://www.w3.org/2000/svg">
    <g clip-path="url(#clip0_752_11635)">
        <path fill-rule="evenodd" clip-rule="evenodd"
            d="M4.01497 3.99967V2.99967C4.01497 2.0792 4.76117 1.33301 5.68164 1.33301H10.3483C11.2688 1.33301 12.015 2.0792 12.015 2.99967V3.99967H13.3483C14.4529 3.99967 15.3483 4.8951 15.3483 5.99967V12.3374C15.3483 13.442 14.4529 14.3374 13.3483 14.3374H2.68164C1.57707 14.3374 0.681641 13.442 0.681641 12.3374V5.99967C0.681641 4.8951 1.57707 3.99967 2.68164 3.99967H4.01497ZM5.68164 2.66634H10.3483C10.5324 2.66634 10.6816 2.81558 10.6816 2.99967V3.99967H5.34831V2.99967C5.34831 2.81558 5.49755 2.66634 5.68164 2.66634ZM2.01497 7.99967V12.3374C2.01497 12.7056 2.31345 13.0041 2.68164 13.0041H8.23208C10.7261 11.9813 12.3465 10.3243 13.4033 7.99967H2.01497Z"
            fill="#110F2A" />
    </g>
    <defs>
        <clipPath id="clip0_752_11635">
            <rect width="16" height="16" fill="white" transform="translate(0.015625)" />
        </clipPath>
    </defs>
</svg>
    