<svg width="16" height="16" viewBox="0 0 16 16" fill="none" xmlns="http://www.w3.org/2000/svg">
    <g clip-path="url(#clip0_3132_15140)">
        <path
            d="M6.94214 7.38014C6.73665 7.72565 3.53124 7.7837 1.78254 6.80368C0.0338295 5.82366 0.883418 2.82716 2.65713 2.04031C4.43084 1.25347 7.14762 7.03468 6.94214 7.38014Z"
            fill="#8B5DF5" />
        <path
            d="M6.91788 8.57931C7.12336 8.92482 5.57251 11.6484 3.82378 12.6284C2.07507 13.6084 -0.173542 11.396 0.0113079 9.51156C0.196158 7.62708 6.71239 8.2338 6.91788 8.57931Z"
            fill="#8B5DF5" />
        <path
            d="M7.97577 9.19922C8.38678 9.19922 10.0412 11.8648 10.0412 13.8248C10.0412 15.7848 6.94304 16.5689 5.35419 15.4713C3.76533 14.3737 7.56479 9.19917 7.97577 9.19922Z"
            fill="#8B5DF5" />
        <path
            d="M9.05789 8.62024C9.26337 8.27469 12.4688 8.21668 14.2175 9.1967C15.9662 10.1767 15.1166 13.1732 13.3429 13.96C11.5692 14.7469 8.8524 8.9657 9.05789 8.62024Z"
            fill="#8B5DF5" />
        <path
            d="M9.08208 7.4208C8.87659 7.07529 10.4274 4.35171 12.1762 3.37167C13.9249 2.39165 16.1735 4.60412 15.9887 6.48855C15.8038 8.37303 9.28756 7.76631 9.08208 7.4208Z"
            fill="#8B5DF5" />
        <path
            d="M8.0242 6.80069C7.61319 6.80069 5.95874 4.13514 5.95874 2.17509C5.95874 0.215051 9.05693 -0.569001 10.6458 0.528626C12.2347 1.62625 8.43517 6.80073 8.0242 6.80069Z"
            fill="#8B5DF5" />
    </g>
    <defs>
        <clipPath id="clip0_3132_15140">
            <rect width="16" height="16" fill="white" />
        </clipPath>
    </defs>
</svg>
    