<svg width="24" height="24" viewBox="0 0 24 24" fill="none" xmlns="http://www.w3.org/2000/svg">
    <rect width="24" height="24" rx="12" fill="#EEF2FF" />
    <g clip-path="url(#clip0_2149_11480)">
        <path d="M10.9423 11.3801C10.7368 11.7256 7.53137 11.7837 5.78266 10.8037C4.03395 9.82366 4.88354 6.82716 6.65725 6.04031C8.43096 5.25347 11.1477 11.0347 10.9423 11.3801Z" fill="#4F46E5" />
        <path d="M10.918 12.5793C11.1235 12.9248 9.57263 15.6484 7.82391 16.6284C6.0752 17.6084 3.82658 15.396 4.01143 13.5116C4.19628 11.6271 10.7125 12.2338 10.918 12.5793Z" fill="#4F46E5" />
        <path d="M11.9756 13.1992C12.3867 13.1992 14.0411 15.8648 14.0411 17.8248C14.0411 19.7848 10.9429 20.5689 9.35407 19.4713C7.7652 18.3737 11.5647 13.1992 11.9756 13.1992Z" fill="#4F46E5" />
        <path d="M13.0579 12.6202C13.2634 12.2747 16.4688 12.2167 18.2175 13.1967C19.9662 14.1767 19.1166 17.1732 17.3429 17.96C15.5692 18.7469 12.8524 12.9657 13.0579 12.6202Z" fill="#4F46E5" />
        <path d="M13.0821 11.4208C12.8766 11.0753 14.4274 8.35171 16.1762 7.37167C17.9249 6.39165 20.1735 8.60412 19.9887 10.4886C19.8038 12.373 13.2876 11.7663 13.0821 11.4208Z" fill="#4F46E5" />
        <path d="M12.0242 10.8007C11.6132 10.8007 9.95874 8.13514 9.95874 6.17509C9.95874 4.21505 13.0569 3.431 14.6458 4.52863C16.2347 5.62625 12.4352 10.8007 12.0242 10.8007Z" fill="#4F46E5" />
    </g>
    <defs>
        <clipPath id="clip0_2149_11480">
            <rect width="16" height="16" fill="white" transform="translate(4 4)" />
        </clipPath>
    </defs>
</svg>
    