<svg width="17" height="16" viewBox="0 0 17 16" fill="none" xmlns="http://www.w3.org/2000/svg">
    <path
        d="M8.50052 10.0447C8.34208 10.0447 4.58136 10.0118 1.70559 7.13552C1.64469 7.07462 1.58541 7.01372 1.5272 6.95174C0.925206 6.31579 0.63903 5.56021 0.69993 4.76635C0.753285 4.06627 1.07557 3.38721 1.60804 2.85475C2.14051 2.32228 2.81904 1.99999 3.51966 1.94664C4.25315 1.89059 4.95431 2.13095 5.55846 2.64294C5.62367 1.85394 5.94973 1.18835 6.50753 0.70924C7.04054 0.251683 7.74871 0 8.50106 0C9.25342 0 9.96212 0.251683 10.4946 0.70924C11.0529 1.18835 11.3785 1.85394 11.4442 2.64294C12.0484 2.13095 12.7495 1.89059 13.483 1.94664C14.1831 1.99999 14.8622 2.32228 15.3941 2.85475C15.9266 3.38721 16.2488 4.06574 16.3022 4.76635C16.3626 5.56021 16.0764 6.31579 15.4749 6.95174C15.4167 7.01318 15.3569 7.07462 15.2965 7.13552C12.4197 10.0118 8.65951 10.0447 8.50052 10.0447ZM3.72661 2.53677C3.07449 2.53677 2.46226 2.83966 2.0268 3.27512C1.24372 4.05819 0.888559 5.41523 1.95781 6.54538C2.01225 6.60305 2.06776 6.66017 2.12488 6.7173C4.82928 9.42168 8.46442 9.45294 8.50106 9.45294C8.53717 9.45294 12.1793 9.41468 14.8772 6.7173C14.9344 6.66017 14.9899 6.60305 15.0443 6.54538C16.1136 5.41577 15.7579 4.05819 14.9748 3.27565C14.1917 2.49258 12.8347 2.13742 11.7051 3.20613C11.6474 3.26056 11.5903 3.31607 11.5331 3.3732C11.4889 3.41739 11.4469 3.46213 11.4049 3.50686L10.8401 4.10238L10.8622 3.28428C10.8638 3.2223 10.8659 3.15978 10.8659 3.09673C10.8659 3.01643 10.8648 2.93666 10.8627 2.8569C10.8196 1.30207 9.60858 0.593369 8.5016 0.593369C7.39462 0.593369 6.18309 1.30153 6.14051 2.8569C6.13836 2.93612 6.13728 3.01589 6.13728 3.09673C6.13728 3.15817 6.1389 3.21907 6.14051 3.27943L6.16207 4.10238L5.59942 3.50848C5.55684 3.4632 5.51373 3.41793 5.46953 3.3732C5.41241 3.31607 5.35528 3.26056 5.29761 3.20613C4.79478 2.73025 4.24776 2.53677 3.72661 2.53677Z"
        fill="#01501F" />
    <path
        d="M16.203 14.4088C15.143 14.896 13.932 15.0232 12.7862 14.7656C11.6749 14.5156 10.7005 13.9367 9.9519 13.0868C10.0252 13.1375 10.1006 13.1865 10.1783 13.2334C10.8185 13.6193 11.5299 13.8133 12.2413 13.8133C12.8735 13.8133 13.5062 13.6603 14.0893 13.352C14.1308 13.3304 14.1718 13.3078 14.2127 13.2846L13.9196 12.7694C13.884 12.7899 13.8484 12.8093 13.8123 12.8281C12.7587 13.3849 11.5148 13.3471 10.4844 12.7263C9.42967 12.0909 8.79965 10.9791 8.79965 9.75243V9.52393H8.79426H8.20682H8.20143V9.75243C8.20143 10.9791 7.57141 12.0909 6.51671 12.7263C5.48626 13.3471 4.24239 13.3854 3.18876 12.8281C3.15265 12.8093 3.11708 12.7899 3.08151 12.7694L2.78833 13.2846C2.82929 13.3078 2.87025 13.3304 2.91175 13.352C3.49488 13.6603 4.12705 13.8133 4.75977 13.8133C5.47117 13.8133 6.18203 13.6193 6.82282 13.2334C6.90043 13.1871 6.97588 13.138 7.04918 13.0868C6.30059 13.9367 5.32619 14.5156 4.2149 14.7656C3.06912 15.0238 1.85812 14.8966 0.798033 14.4088L0.5 14.9251C1.29224 15.2981 2.16209 15.4889 3.0357 15.4889C3.4744 15.4889 3.91364 15.4409 4.34479 15.3439C5.67381 15.0448 6.82767 14.3226 7.68027 13.2566C7.87968 13.0076 8.05322 12.7403 8.20089 12.4606V15.4889H8.79372V12.4503C8.94301 12.7338 9.11816 13.0049 9.31972 13.2566C10.1729 14.3226 11.3262 15.0443 12.6552 15.3439C13.0864 15.4409 13.5256 15.4889 13.9643 15.4889C14.8379 15.4889 15.7078 15.2981 16.5 14.9251L16.203 14.4088Z"
        fill="#01501F" />
    <path
        d="M8.11519 6.90487H7.68404C7.68404 6.263 7.05941 5.74023 6.29142 5.74023C5.52343 5.74023 4.8988 6.26246 4.8988 6.90487H4.46765C4.46765 6.02533 5.28576 5.30908 6.29142 5.30908C7.29708 5.30908 8.11519 6.02479 8.11519 6.90487Z"
        fill="#01501F" />
    <path
        d="M6.78731 6.91397C7.1299 6.91397 7.40763 6.63625 7.40763 6.29366C7.40763 5.95106 7.1299 5.67334 6.78731 5.67334C6.44472 5.67334 6.16699 5.95106 6.16699 6.29366C6.16699 6.63625 6.44472 6.91397 6.78731 6.91397Z"
        fill="#01501F" />
    <path
        d="M12.5377 6.90487H12.1065C12.1065 6.263 11.4819 5.74023 10.7139 5.74023C9.94592 5.74023 9.32129 6.26246 9.32129 6.90487H8.89014C8.89014 6.02533 9.70824 5.30908 10.7139 5.30908C11.7196 5.30908 12.5377 6.02479 12.5377 6.90487Z"
        fill="#01501F" />
    <path
        d="M11.2103 6.91397C11.5529 6.91397 11.8306 6.63625 11.8306 6.29366C11.8306 5.95106 11.5529 5.67334 11.2103 5.67334C10.8677 5.67334 10.59 5.95106 10.59 6.29366C10.59 6.63625 10.8677 6.91397 11.2103 6.91397Z"
        fill="#01501F" />
    <path
        d="M8.49357 8.49011C7.98535 8.49011 7.51432 8.22873 7.29443 7.82506L7.67331 7.61865C7.81936 7.88596 8.14111 8.05896 8.49411 8.05896C8.84711 8.05896 9.16886 7.88596 9.31491 7.61865L9.69325 7.82506C9.47282 8.22873 9.00179 8.49011 8.49357 8.49011Z"
        fill="#110F2A" />
</svg>
    