<svg width="16" height="17" viewBox="0 0 16 17" fill="none" xmlns="http://www.w3.org/2000/svg">
    <path d="M8.00052 10.5447C7.84208 10.5447 4.08136 10.5118 1.20559 7.63552C1.14469 7.57462 1.08541 7.51372 1.0272 7.45174C0.425206 6.81579 0.13903 6.06021 0.19993 5.26635C0.253285 4.56627 0.57557 3.88721 1.10804 3.35475C1.64051 2.82228 2.31904 2.49999 3.01966 2.44664C3.75315 2.39059 4.45431 2.63095 5.05846 3.14294C5.12367 2.35394 5.44973 1.68835 6.00753 1.20924C6.54054 0.751683 7.24871 0.5 8.00106 0.5C8.75342 0.5 9.46212 0.751683 9.9946 1.20924C10.5529 1.68835 10.8785 2.35394 10.9442 3.14294C11.5484 2.63095 12.2495 2.39059 12.983 2.44664C13.6831 2.49999 14.3622 2.82228 14.8941 3.35475C15.4266 3.88721 15.7488 4.56574 15.8022 5.26635C15.8626 6.06021 15.5764 6.81579 14.9749 7.45174C14.9167 7.51318 14.8569 7.57462 14.7965 7.63552C11.9197 10.5118 8.15951 10.5447 8.00052 10.5447ZM3.22661 3.03677C2.57449 3.03677 1.96226 3.33966 1.5268 3.77512C0.743719 4.55819 0.388559 5.91523 1.45781 7.04538C1.51225 7.10305 1.56776 7.16017 1.62488 7.2173C4.32928 9.92168 7.96442 9.95294 8.00106 9.95294C8.03717 9.95294 11.6793 9.91468 14.3772 7.2173C14.4344 7.16017 14.4899 7.10305 14.5443 7.04538C15.6136 5.91577 15.2579 4.55819 14.4748 3.77565C13.6917 2.99258 12.3347 2.63742 11.2051 3.70613C11.1474 3.76056 11.0903 3.81607 11.0331 3.8732C10.9889 3.91739 10.9469 3.96213 10.9049 4.00686L10.3401 4.60238L10.3622 3.78428C10.3638 3.7223 10.3659 3.65978 10.3659 3.59673C10.3659 3.51643 10.3648 3.43666 10.3627 3.3569C10.3196 1.80207 9.10858 1.09337 8.0016 1.09337C6.89462 1.09337 5.68309 1.80153 5.64051 3.3569C5.63836 3.43612 5.63728 3.51589 5.63728 3.59673C5.63728 3.65817 5.6389 3.71907 5.64051 3.77943L5.66207 4.60238L5.09942 4.00848C5.05684 3.9632 5.01373 3.91793 4.96953 3.8732C4.91241 3.81607 4.85528 3.76056 4.79761 3.70613C4.29478 3.23025 3.74776 3.03677 3.22661 3.03677Z" fill="#333655" />
    <path d="M15.703 14.9091C14.643 15.3963 13.432 15.5235 12.2862 15.2659C11.1749 15.0158 10.2005 14.437 9.4519 13.5871C9.5252 13.6377 9.60065 13.6868 9.67825 13.7337C10.3185 14.1195 11.0299 14.3136 11.7413 14.3136C12.3735 14.3136 13.0062 14.1605 13.5893 13.8522C13.6308 13.8307 13.6718 13.808 13.7127 13.7849L13.4196 13.2696C13.384 13.2901 13.3484 13.3095 13.3123 13.3284C12.2587 13.8851 11.0148 13.8474 9.98437 13.2265C8.92967 12.5911 8.29965 11.4793 8.29965 10.2527V10.0242H8.29426H7.70682H7.70143V10.2527C7.70143 11.4793 7.07141 12.5911 6.01671 13.2265C4.98626 13.8474 3.74239 13.8856 2.68876 13.3284C2.65265 13.3095 2.61708 13.2901 2.58151 13.2696L2.28833 13.7849C2.32929 13.808 2.37025 13.8307 2.41175 13.8522C2.99488 14.1605 3.62705 14.3136 4.25977 14.3136C4.97117 14.3136 5.68203 14.1195 6.32282 13.7337C6.40043 13.6873 6.47588 13.6383 6.54918 13.5871C5.80059 14.437 4.82619 15.0158 3.7149 15.2659C2.56912 15.524 1.35812 15.3968 0.298033 14.9091L0 15.4254C0.792239 15.7983 1.66209 15.9891 2.5357 15.9891C2.9744 15.9891 3.41364 15.9412 3.84479 15.8441C5.17381 15.545 6.32767 14.8229 7.18027 13.7568C7.37968 13.5079 7.55322 13.2405 7.70089 12.9608V15.9891H8.29372V12.9506C8.44301 13.2341 8.61816 13.5052 8.81972 13.7568C9.67286 14.8229 10.8262 15.5445 12.1552 15.8441C12.5864 15.9412 13.0256 15.9891 13.4643 15.9891C14.3379 15.9891 15.2078 15.7983 16 15.4254L15.703 14.9091Z" fill="#333655" />
    <path d="M7.61531 7.40487H7.18416C7.18416 6.763 6.55953 6.24023 5.79154 6.24023C5.02355 6.24023 4.39892 6.76246 4.39892 7.40487H3.96777C3.96777 6.52533 4.78588 5.80908 5.79154 5.80908C6.7972 5.80908 7.61531 6.52479 7.61531 7.40487Z" fill="#333655" />
    <path d="M6.28731 7.41397C6.6299 7.41397 6.90763 7.13625 6.90763 6.79366C6.90763 6.45106 6.6299 6.17334 6.28731 6.17334C5.94472 6.17334 5.66699 6.45106 5.66699 6.79366C5.66699 7.13625 5.94472 7.41397 6.28731 7.41397Z" fill="#333655" />
    <path d="M12.0377 7.40487H11.6065C11.6065 6.763 10.9819 6.24023 10.2139 6.24023C9.44592 6.24023 8.82129 6.76246 8.82129 7.40487H8.39014C8.39014 6.52533 9.20824 5.80908 10.2139 5.80908C11.2196 5.80908 12.0377 6.52479 12.0377 7.40487Z" fill="#333655" />
    <path d="M10.7104 7.41397C11.053 7.41397 11.3307 7.13625 11.3307 6.79366C11.3307 6.45106 11.053 6.17334 10.7104 6.17334C10.3678 6.17334 10.0901 6.45106 10.0901 6.79366C10.0901 7.13625 10.3678 7.41397 10.7104 7.41397Z" fill="#333655" />
    <path d="M7.99357 8.98987C7.48535 8.98987 7.01432 8.72848 6.79443 8.32482L7.17331 8.11841C7.31936 8.38572 7.64111 8.55872 7.99411 8.55872C8.34711 8.55872 8.66886 8.38572 8.81491 8.11841L9.19325 8.32482C8.97282 8.72848 8.50179 8.98987 7.99357 8.98987Z" fill="#333655" />
</svg>
    