<svg width="16" height="16" viewBox="0 0 16 16" fill="none" xmlns="http://www.w3.org/2000/svg">
    <path d="M8.00052 10.0447C7.84208 10.0447 4.08136 10.0118 1.20559 7.13552C1.14469 7.07462 1.08541 7.01372 1.0272 6.95174C0.425206 6.31579 0.13903 5.56021 0.19993 4.76635C0.253285 4.06627 0.57557 3.38721 1.10804 2.85475C1.64051 2.32228 2.31904 1.99999 3.01966 1.94664C3.75315 1.89059 4.45431 2.13095 5.05846 2.64294C5.12367 1.85394 5.44973 1.18835 6.00753 0.70924C6.54054 0.251683 7.24871 0 8.00106 0C8.75342 0 9.46212 0.251683 9.9946 0.70924C10.5529 1.18835 10.8785 1.85394 10.9442 2.64294C11.5484 2.13095 12.2495 1.89059 12.983 1.94664C13.6831 1.99999 14.3622 2.32228 14.8941 2.85475C15.4266 3.38721 15.7488 4.06574 15.8022 4.76635C15.8626 5.56021 15.5764 6.31579 14.9749 6.95174C14.9167 7.01318 14.8569 7.07462 14.7965 7.13552C11.9197 10.0118 8.15951 10.0447 8.00052 10.0447ZM3.22661 2.53677C2.57449 2.53677 1.96226 2.83966 1.5268 3.27512C0.743719 4.05819 0.388559 5.41523 1.45781 6.54538C1.51225 6.60305 1.56776 6.66017 1.62488 6.7173C4.32928 9.42168 7.96442 9.45294 8.00106 9.45294C8.03717 9.45294 11.6793 9.41468 14.3772 6.7173C14.4344 6.66017 14.4899 6.60305 14.5443 6.54538C15.6136 5.41577 15.2579 4.05819 14.4748 3.27565C13.6917 2.49258 12.3347 2.13742 11.2051 3.20613C11.1474 3.26056 11.0903 3.31607 11.0331 3.3732C10.9889 3.41739 10.9469 3.46213 10.9049 3.50686L10.3401 4.10238L10.3622 3.28428C10.3638 3.2223 10.3659 3.15978 10.3659 3.09673C10.3659 3.01643 10.3648 2.93666 10.3627 2.8569C10.3196 1.30207 9.10858 0.593369 8.0016 0.593369C6.89462 0.593369 5.68309 1.30153 5.64051 2.8569C5.63836 2.93612 5.63728 3.01589 5.63728 3.09673C5.63728 3.15817 5.6389 3.21907 5.64051 3.27943L5.66207 4.10238L5.09942 3.50848C5.05684 3.4632 5.01373 3.41793 4.96953 3.3732C4.91241 3.31607 4.85528 3.26056 4.79761 3.20613C4.29478 2.73025 3.74776 2.53677 3.22661 2.53677Z" fill="#110F2A"/>
    <path d="M15.703 14.4091C14.643 14.8963 13.432 15.0235 12.2862 14.7659C11.1749 14.5158 10.2005 13.937 9.4519 13.0871C9.5252 13.1377 9.60065 13.1868 9.67825 13.2337C10.3185 13.6195 11.0299 13.8136 11.7413 13.8136C12.3735 13.8136 13.0062 13.6605 13.5893 13.3522C13.6308 13.3307 13.6718 13.308 13.7127 13.2849L13.4196 12.7696C13.384 12.7901 13.3484 12.8095 13.3123 12.8284C12.2587 13.3851 11.0148 13.3474 9.98437 12.7265C8.92967 12.0911 8.29965 10.9793 8.29965 9.75268V9.52417H8.29426H7.70682H7.70143V9.75268C7.70143 10.9793 7.07141 12.0911 6.01671 12.7265C4.98626 13.3474 3.74239 13.3856 2.68876 12.8284C2.65265 12.8095 2.61708 12.7901 2.58151 12.7696L2.28833 13.2849C2.32929 13.308 2.37025 13.3307 2.41175 13.3522C2.99488 13.6605 3.62705 13.8136 4.25977 13.8136C4.97117 13.8136 5.68203 13.6195 6.32282 13.2337C6.40043 13.1873 6.47588 13.1383 6.54918 13.0871C5.80059 13.937 4.82619 14.5158 3.7149 14.7659C2.56912 15.024 1.35812 14.8968 0.298033 14.4091L0 14.9254C0.792239 15.2983 1.66209 15.4891 2.5357 15.4891C2.9744 15.4891 3.41364 15.4412 3.84479 15.3441C5.17381 15.045 6.32767 14.3229 7.18027 13.2568C7.37968 13.0079 7.55322 12.7405 7.70089 12.4608V15.4891H8.29372V12.4506C8.44301 12.7341 8.61816 13.0052 8.81972 13.2568C9.67286 14.3229 10.8262 15.0445 12.1552 15.3441C12.5864 15.4412 13.0256 15.4891 13.4643 15.4891C14.3379 15.4891 15.2078 15.2983 16 14.9254L15.703 14.4091Z" fill="#110F2A"/>
    <path d="M7.61531 6.90487H7.18416C7.18416 6.263 6.55953 5.74023 5.79154 5.74023C5.02355 5.74023 4.39892 6.26246 4.39892 6.90487H3.96777C3.96777 6.02533 4.78588 5.30908 5.79154 5.30908C6.7972 5.30908 7.61531 6.02479 7.61531 6.90487Z" fill="#110F2A"/>
    <path d="M6.28731 6.91397C6.6299 6.91397 6.90763 6.63625 6.90763 6.29366C6.90763 5.95106 6.6299 5.67334 6.28731 5.67334C5.94472 5.67334 5.66699 5.95106 5.66699 6.29366C5.66699 6.63625 5.94472 6.91397 6.28731 6.91397Z" fill="#110F2A"/>
    <path d="M12.0377 6.90487H11.6065C11.6065 6.263 10.9819 5.74023 10.2139 5.74023C9.44592 5.74023 8.82129 6.26246 8.82129 6.90487H8.39014C8.39014 6.02533 9.20824 5.30908 10.2139 5.30908C11.2196 5.30908 12.0377 6.02479 12.0377 6.90487Z" fill="#110F2A"/>
    <path d="M10.7104 6.91397C11.053 6.91397 11.3307 6.63625 11.3307 6.29366C11.3307 5.95106 11.053 5.67334 10.7104 5.67334C10.3678 5.67334 10.0901 5.95106 10.0901 6.29366C10.0901 6.63625 10.3678 6.91397 10.7104 6.91397Z" fill="#110F2A"/>
    <path d="M7.99357 8.48987C7.48535 8.48987 7.01432 8.22848 6.79443 7.82482L7.17331 7.61841C7.31936 7.88572 7.64111 8.05872 7.99411 8.05872C8.34711 8.05872 8.66886 7.88572 8.81491 7.61841L9.19325 7.82482C8.97282 8.22848 8.50179 8.48987 7.99357 8.48987Z" fill="#110F2A"/>
    </svg>
    