<svg width="17" height="17" viewBox="0 0 17 17" fill="none" xmlns="http://www.w3.org/2000/svg">
<path d="M7.55295 12.1999L6.37295 13.3466C6.06353 13.656 5.64387 13.8298 5.20628 13.8298C4.7687 13.8298 4.34904 13.656 4.03962 13.3466C3.7302 13.0371 3.55637 12.6175 3.55637 12.1799C3.55637 11.7423 3.7302 11.3227 4.03962 11.0132L7.06628 7.9799C7.36336 7.68186 7.76363 7.50942 8.18429 7.49825C8.60495 7.48708 9.01381 7.63804 9.32628 7.9199L9.40628 7.98657C9.5327 8.11033 9.70311 8.17881 9.88002 8.17694C10.0569 8.17506 10.2258 8.10299 10.3496 7.97657C10.4734 7.85015 10.5419 7.67974 10.54 7.50283C10.5381 7.32592 10.466 7.157 10.3396 7.03323C10.302 6.98458 10.2619 6.93786 10.2196 6.89323C9.65052 6.39811 8.91451 6.1378 8.16066 6.16503C7.40682 6.19226 6.69151 6.505 6.15962 7.0399L3.09295 10.0732C2.57186 10.6404 2.29003 11.387 2.30633 12.1571C2.32264 12.9271 2.63581 13.6611 3.18044 14.2057C3.72507 14.7504 4.45906 15.0635 5.22912 15.0798C5.99917 15.0962 6.74575 14.8143 7.31295 14.2932L8.46628 13.1666C8.58016 13.0423 8.64276 12.8796 8.64149 12.7111C8.64022 12.5425 8.57517 12.3807 8.45942 12.2582C8.34368 12.1357 8.18584 12.0616 8.01766 12.0508C7.84948 12.04 7.68344 12.0932 7.55295 12.1999V12.1999ZM14.6796 2.70657C14.1188 2.14924 13.3603 1.83643 12.5696 1.83643C11.779 1.83643 11.0204 2.14924 10.4596 2.70657L9.30628 3.83323C9.19241 3.95747 9.12981 4.12022 9.13108 4.28874C9.13235 4.45727 9.1974 4.61906 9.31314 4.74156C9.42888 4.86406 9.58673 4.93818 9.75491 4.949C9.92309 4.95983 10.0891 4.90655 10.2196 4.7999L11.373 3.65323C11.6824 3.34381 12.102 3.16998 12.5396 3.16998C12.9772 3.16998 13.3969 3.34381 13.7063 3.65323C14.0157 3.96265 14.1895 4.38232 14.1895 4.8199C14.1895 5.25749 14.0157 5.67715 13.7063 5.98657L10.6796 9.0199C10.3825 9.31794 9.98227 9.49038 9.56161 9.50155C9.14095 9.51272 8.73209 9.36176 8.41962 9.0799L8.33962 9.01323C8.2132 8.88947 8.04279 8.82099 7.86588 8.82286C7.68897 8.82474 7.52005 8.89681 7.39628 9.02323C7.27252 9.14965 7.20404 9.32006 7.20591 9.49697C7.20779 9.67388 7.27986 9.8428 7.40628 9.96657C7.45471 10.0161 7.5059 10.0628 7.55962 10.1066C8.1294 10.6002 8.8651 10.8595 9.61848 10.8323C10.3719 10.8051 11.0869 10.4934 11.6196 9.9599L14.6529 6.92657C15.2138 6.36928 15.5315 5.61272 15.5364 4.82207C15.5414 4.03141 15.2334 3.27089 14.6796 2.70657V2.70657Z" fill="black"/>
</svg>
