<svg width="16" height="17" viewBox="0 0 16 17" fill="none" xmlns="http://www.w3.org/2000/svg">
    <path d="M6.66666 12.1994L5.48666 13.3461C5.17724 13.6555 4.75758 13.8293 4.31999 13.8293C3.88241 13.8293 3.46275 13.6555 3.15333 13.3461C2.84391 13.0367 2.67008 12.617 2.67008 12.1794C2.67008 11.7418 2.84391 11.3222 3.15333 11.0127L6.17999 7.97941C6.47707 7.68137 6.87734 7.50893 7.298 7.49776C7.71866 7.48659 8.12752 7.63755 8.43999 7.91941L8.51999 7.98608C8.64641 8.10985 8.81682 8.17832 8.99373 8.17645C9.17064 8.17457 9.33956 8.1025 9.46333 7.97608C9.58709 7.84966 9.65557 7.67925 9.6537 7.50234C9.65182 7.32543 9.57975 7.15651 9.45333 7.03274C9.4157 6.9841 9.37565 6.93737 9.33333 6.89275C8.76423 6.39762 8.02821 6.13731 7.27437 6.16454C6.52053 6.19177 5.80521 6.50451 5.27333 7.03941L2.20666 10.0727C1.68556 10.6399 1.40374 11.3865 1.42004 12.1566C1.43635 12.9266 1.74951 13.6606 2.29415 14.2053C2.83878 14.7499 3.57277 15.0631 4.34282 15.0794C5.11288 15.0957 5.85946 14.8138 6.42666 14.2927L7.57999 13.1661C7.69387 13.0418 7.75647 12.8791 7.7552 12.7106C7.75393 12.542 7.68887 12.3803 7.57313 12.2578C7.45739 12.1353 7.29955 12.0611 7.13137 12.0503C6.96319 12.0395 6.79715 12.0928 6.66666 12.1994ZM13.7933 2.70608C13.2325 2.14875 12.474 1.83594 11.6833 1.83594C10.8927 1.83594 10.1341 2.14875 9.57333 2.70608L8.41999 3.83275C8.30612 3.95698 8.24351 4.11973 8.24479 4.28826C8.24606 4.45678 8.31111 4.61857 8.42685 4.74107C8.54259 4.86357 8.70043 4.93769 8.86862 4.94851C9.0368 4.95934 9.20284 4.90606 9.33333 4.79941L10.4867 3.65275C10.7961 3.34333 11.2157 3.1695 11.6533 3.1695C12.0909 3.1695 12.5106 3.34333 12.82 3.65275C13.1294 3.96216 13.3032 4.38183 13.3032 4.81941C13.3032 5.257 13.1294 5.67666 12.82 5.98608L9.79333 9.01941C9.49625 9.31745 9.09598 9.48989 8.67532 9.50106C8.25465 9.51223 7.8458 9.36127 7.53333 9.07941L7.45333 9.01274C7.32691 8.88898 7.1565 8.8205 6.97959 8.82237C6.80268 8.82425 6.63376 8.89632 6.50999 9.02274C6.38622 9.14916 6.31775 9.31957 6.31962 9.49648C6.3215 9.67339 6.39357 9.84231 6.51999 9.96608C6.56842 10.0156 6.61961 10.0623 6.67333 10.1061C7.24311 10.5997 7.97881 10.859 8.73219 10.8318C9.48558 10.8046 10.2006 10.4929 10.7333 9.95941L13.7667 6.92608C14.3275 6.36879 14.6452 5.61223 14.6502 4.82158C14.6552 4.03092 14.3471 3.27041 13.7933 2.70608Z" fill="#0D9488" />
</svg>
    