<svg width="17" height="17" viewBox="0 0 17 17" fill="none" xmlns="http://www.w3.org/2000/svg">
    <path d="M14.721 1.70622V1.70628L14.7286 1.70617C14.7961 1.70523 14.8632 1.71761 14.9259 1.74258L15.1296 1.23079L14.9259 1.74258C14.9886 1.76755 15.0458 1.80464 15.0942 1.85173C15.1427 1.89881 15.1813 1.95497 15.208 2.01699C15.2343 2.07807 15.2485 2.14366 15.2498 2.21012V14.7899C15.2485 14.8564 15.2343 14.922 15.208 14.9831C15.1813 15.0451 15.1427 15.1012 15.0942 15.1483C15.0458 15.1954 14.9886 15.2325 14.9259 15.2575C14.8632 15.2824 14.7961 15.2948 14.7286 15.2939L14.7286 15.2938H14.721H2.27913V15.2938L2.27148 15.2939C2.20396 15.2948 2.13692 15.2824 2.07418 15.2575C2.01145 15.2325 1.95425 15.1954 1.90584 15.1483C1.85744 15.1012 1.81879 15.0451 1.7921 14.9831C1.76581 14.922 1.75162 14.8564 1.75031 14.7899V2.21011C1.75162 2.14365 1.76581 2.07807 1.7921 2.01699C1.81879 1.95497 1.85744 1.89881 1.90584 1.85173C1.95424 1.80464 2.01145 1.76755 2.07418 1.74258C2.13692 1.71761 2.20396 1.70523 2.27148 1.70617L2.27148 1.70622H2.27913H14.721ZM5.62829 14.0012H6.17914V13.4503V6.84014V6.28929H5.62829H5.42597C5.55779 6.22257 5.68072 6.13882 5.7915 6.0399L5.43804 5.64409L5.7915 6.0399C5.97049 5.88006 6.1137 5.68422 6.21175 5.4652C6.3098 5.24618 6.36049 5.00891 6.36049 4.76894C6.36049 4.52898 6.3098 4.29171 6.21175 4.07269C6.1137 3.85367 5.97049 3.65783 5.7915 3.49799C5.61251 3.33815 5.40177 3.21792 5.1731 3.14517C4.95431 3.07557 4.72381 3.05093 4.49546 3.07262C4.05676 3.08066 3.63773 3.25842 3.3269 3.56926C3.00873 3.88743 2.82998 4.31897 2.82998 4.76894C2.82998 5.21891 3.00873 5.65045 3.3269 5.96863C3.45861 6.10034 3.60974 6.20815 3.77355 6.28929H3.42489H2.87404V6.84014V13.4503V14.0012H3.42489H5.62829ZM13.5752 14.0012H14.126V13.4503V9.64579C14.126 8.53654 13.8351 7.64191 13.2653 7.01985C12.6928 6.3948 11.9032 6.11519 11.0513 6.11303C10.554 6.09653 10.0615 6.21503 9.62616 6.45602C9.61799 6.46054 9.60986 6.4651 9.60174 6.4697V6.28194H9.0509H6.8475H6.29665V6.83279V6.83638V6.8401V6.84393V6.84789V6.85197V6.85617V6.8605V6.86494V6.8695V6.87418V6.87898V6.8839V6.88893V6.89409V6.89936V6.90474V6.91024V6.91586V6.92159V6.92743V6.93339V6.93946V6.94565V6.95194V6.95835V6.96487V6.9715V6.97823V6.98508V6.99204V6.9991V7.00628V7.01356V7.02094V7.02844V7.03604V7.04374V7.05155V7.05947V7.06748V7.07561V7.08383V7.09216V7.10058V7.10911V7.11774V7.12647V7.1353V7.14423V7.15326V7.16239V7.17161V7.18093V7.19035V7.19987V7.20948V7.21918V7.22898V7.23887V7.24886V7.25894V7.26912V7.27938V7.28974V7.30019V7.31072V7.32135V7.33207V7.34288V7.35377V7.36476V7.37583V7.38699V7.39823V7.40956V7.42098V7.43248V7.44406V7.45573V7.46748V7.47932V7.49124V7.50324V7.51532V7.52748V7.53972V7.55205V7.56445V7.57693V7.58949V7.60212V7.61484V7.62763V7.64049V7.65344V7.66646V7.67955V7.69272V7.70596V7.71927V7.73266V7.74612V7.75965V7.77325V7.78692V7.80066V7.81447V7.82836V7.84231V7.85632V7.87041V7.88456V7.89878V7.91307V7.92742V7.94183V7.95631V7.97086V7.98547V8.00014V8.01487V8.02967V8.04452V8.05944V8.07442V8.08946V8.10456V8.11971V8.13493V8.1502V8.16553V8.18092V8.19636V8.21186V8.22742V8.24303V8.25869V8.27441V8.29018V8.306V8.32188V8.33781V8.35379V8.36982V8.3859V8.40203V8.41821V8.43443V8.45071V8.46703V8.48341V8.49982V8.51629V8.5328V8.54935V8.56595V8.5826V8.59928V8.61601V8.63279V8.6496V8.66646V8.68336V8.70029V8.71727V8.73429V8.75135V8.76844V8.78558V8.80275V8.81995V8.8372V8.85448V8.8718V8.88915V8.90653V8.92395V8.9414V8.95889V8.97641V8.99396V9.01154V9.02915V9.04679V9.06446V9.08216V9.0999V9.11765V9.13544V9.15325V9.17109V9.18896V9.20685V9.22477V9.24271V9.26068V9.27867V9.29668V9.31472V9.33278V9.35086V9.36896V9.38708V9.40523V9.42339V9.44157V9.45977V9.47799V9.49622V9.51447V9.53274V9.55103V9.56933V9.58764V9.60597V9.62432V9.64268V9.66105V9.67943V9.69783V9.71623V9.73465V9.75308V9.77152V9.78996V9.80842V9.82688V9.84536V9.86384V9.88232V9.90082V9.91932V9.93782V9.95633V9.97484V9.99336V10.0119V10.0304V10.0489V10.0675V10.086V10.1045V10.123V10.1416V10.1601V10.1786V10.1972V10.2157V10.2342V10.2527V10.2712V10.2897V10.3083V10.3268V10.3452V10.3637V10.3822V10.4007V10.4191V10.4376V10.4561V10.4745V10.4929V10.5113V10.5297V10.5481V10.5665V10.5849V10.6032V10.6216V10.6399V10.6582V10.6765V10.6948V10.7131V10.7313V10.7496V10.7678V10.786V10.8042V10.8223V10.8405V10.8586V10.8767V10.8948V10.9128V10.9309V10.9489V10.9669V10.9848V11.0028V11.0207V11.0386V11.0565V11.0743V11.0921V11.1099V11.1277V11.1454V11.1631V11.1808V11.1984V11.216V11.2336V11.2511V11.2687V11.2861V11.3036V11.321V11.3384V11.3558V11.3731V11.3904V11.4076V11.4248V11.442V11.4591V11.4762V11.4933V11.5103V11.5273V11.5442V11.5611V11.5779V11.5948V11.6115V11.6283V11.6449V11.6616V11.6782V11.6947V11.7112V11.7277V11.7441V11.7605V11.7768V11.7931V11.8093V11.8255V11.8416V11.8577V11.8737V11.8897V11.9056V11.9215V11.9373V11.9531V11.9688V11.9845V12.0001V12.0157V12.0312V12.0466V12.062V12.0773V12.0926V12.1078V12.123V12.1381V12.1531V12.1681V12.183V12.1978V12.2126V12.2274V12.242V12.2566V12.2712V12.2857V12.3001V12.3144V12.3287V12.3429V12.3571V12.3712V12.3852V12.3991V12.413V12.4268V12.4406V12.4542V12.4678V12.4814V12.4948V12.5082V12.5215V12.5348V12.5479V12.561V12.574V12.587V12.5998V12.6126V12.6253V12.638V12.6505V12.663V12.6754V12.6877V12.7V12.7121V12.7242V12.7362V12.7481V12.76V12.7717V12.7834V12.795V12.8065V12.8179V12.8292V12.8405V12.8516V12.8627V12.8737V12.8846V12.8954V12.9061V12.9167V12.9273V12.9377V12.9481V12.9583V12.9685V12.9786V12.9886V12.9984V13.0082V13.0179V13.0276V13.0371V13.0465V13.0558V13.065V13.0742V13.0832V13.0921V13.1009V13.1097V13.1183V13.1268V13.1352V13.1436V13.1518V13.1599V13.1679V13.1758V13.1836V13.1914V13.1989V13.2064V13.2138V13.2211V13.2283V13.2353V13.2423V13.2491V13.2559V13.2625V13.269V13.2754V13.2817V13.2879V13.294V13.2999V13.3058V13.3115V13.3171V13.3226V13.328V13.3333V13.3384V13.3434V13.3484V13.3532V13.3578V13.3624V13.3668V13.3712V13.3754V13.3794V13.3834V13.3872V13.3909V13.3945V13.398V13.4013V13.4045V13.4076V13.4106V13.4134V13.4162V13.4187V13.4212V13.4235V13.4257V13.4278V13.4297V13.4315V13.4332V13.4348V13.4362V13.4375V13.4386V13.4396V13.4405V13.4413V13.4419V13.4424V13.4427V13.4429L6.8475 13.443H6.29665V13.9938H6.8475H9.0509H9.60174V13.443V9.77065V9.75712L9.60108 9.7436C9.59561 9.63238 9.61043 9.52111 9.64478 9.41522C9.69111 9.29072 9.7739 9.18302 9.8824 9.10622C9.9922 9.0285 10.1231 8.98615 10.2575 8.98478C10.5043 8.98522 10.6015 9.06374 10.6623 9.15069C10.7478 9.27296 10.821 9.50741 10.821 9.90286V13.4503V14.0012H11.3718H13.5752Z" fill="#F8F9FC" stroke="#F8F9FC" stroke-width="1.1017" />
</svg>
    