<svg width="16" height="16" viewBox="0 0 16 16" fill="none" xmlns="http://www.w3.org/2000/svg">
    <path d="M10.9134 8.52621C10.8319 8.49381 10.7449 8.47778 10.6573 8.47901C10.5697 8.48024 10.4832 8.49871 10.4027 8.53338C10.3222 8.56805 10.2494 8.61823 10.1883 8.68105C10.1272 8.74388 10.0791 8.81812 10.0467 8.89954C10.0143 8.98096 9.99825 9.06796 9.99949 9.15558C10.0007 9.2432 10.0192 9.32972 10.0539 9.41019C10.0885 9.49067 10.1387 9.56353 10.2015 9.62462C10.2644 9.6857 10.3386 9.73382 10.42 9.76621C11.3934 10.1529 12 10.7529 12 11.3329C12 12.2795 10.36 13.3329 8.00002 13.3329C5.64002 13.3329 4.00002 12.2795 4.00002 11.3329C4.00002 10.7529 4.60669 10.1529 5.58002 9.76621C5.74445 9.70079 5.87617 9.57273 5.94618 9.41019C6.01619 9.24766 6.01877 9.06398 5.95335 8.89954C5.88793 8.73511 5.75987 8.6034 5.59734 8.53338C5.43481 8.46337 5.25112 8.46079 5.08669 8.52621C3.57335 9.12621 2.66669 10.1729 2.66669 11.3329C2.66669 13.1995 5.00669 14.6662 8.00002 14.6662C10.9934 14.6662 13.3334 13.1995 13.3334 11.3329C13.3334 10.1729 12.4267 9.12621 10.9134 8.52621ZM7.33335 6.57287V11.3329C7.33335 11.5097 7.40359 11.6793 7.52862 11.8043C7.65364 11.9293 7.82321 11.9995 8.00002 11.9995C8.17683 11.9995 8.3464 11.9293 8.47142 11.8043C8.59645 11.6793 8.66669 11.5097 8.66669 11.3329V6.57287C9.29513 6.41061 9.84281 6.02472 10.2071 5.48754C10.5714 4.95035 10.7272 4.29875 10.6454 3.65487C10.5636 3.011 10.2498 2.41905 9.76284 1.98999C9.27584 1.56093 8.64907 1.32422 8.00002 1.32422C7.35097 1.32422 6.7242 1.56093 6.2372 1.98999C5.75019 2.41905 5.43639 3.011 5.35461 3.65487C5.27282 4.29875 5.42868 4.95035 5.79295 5.48754C6.15723 6.02472 6.70491 6.41061 7.33335 6.57287Z" fill="#949BB8" />
</svg>
    