<svg width="16" height="16" viewBox="0 0 16 16" fill="none" xmlns="http://www.w3.org/2000/svg">
    <path d="M10.9134 8.5267C10.832 8.4943 10.745 8.47826 10.6574 8.4795C10.5698 8.48073 10.4832 8.4992 10.4028 8.53387C10.3223 8.56854 10.2494 8.61872 10.1883 8.68154C10.1273 8.74437 10.0791 8.81861 10.0467 8.90003C10.0144 8.98145 9.99832 9.06845 9.99955 9.15607C10.0008 9.24369 10.0193 9.33021 10.0539 9.41068C10.0886 9.49116 10.1388 9.56402 10.2016 9.62511C10.2644 9.68619 10.3387 9.7343 10.4201 9.7667C11.3934 10.1534 12.0001 10.7534 12.0001 11.3334C12.0001 12.28 10.3601 13.3334 8.00008 13.3334C5.64008 13.3334 4.00008 12.28 4.00008 11.3334C4.00008 10.7534 4.60675 10.1534 5.58008 9.7667C5.74452 9.70128 5.87623 9.57321 5.94624 9.41068C6.01625 9.24815 6.01883 9.06446 5.95341 8.90003C5.88799 8.7356 5.75993 8.60388 5.5974 8.53387C5.43487 8.46386 5.25118 8.46128 5.08675 8.5267C3.57341 9.1267 2.66675 10.1734 2.66675 11.3334C2.66675 13.2 5.00675 14.6667 8.00008 14.6667C10.9934 14.6667 13.3334 13.2 13.3334 11.3334C13.3334 10.1734 12.4267 9.1267 10.9134 8.5267ZM7.33341 6.57336V11.3334C7.33341 11.5102 7.40365 11.6797 7.52868 11.8048C7.6537 11.9298 7.82327 12 8.00008 12C8.17689 12 8.34646 11.9298 8.47149 11.8048C8.59651 11.6797 8.66675 11.5102 8.66675 11.3334V6.57336C9.29519 6.4111 9.84287 6.02521 10.2071 5.48802C10.5714 4.95084 10.7273 4.29924 10.6455 3.65536C10.5637 3.01149 10.2499 2.41954 9.7629 1.99048C9.2759 1.56142 8.64913 1.32471 8.00008 1.32471C7.35103 1.32471 6.72426 1.56142 6.23726 1.99048C5.75026 2.41954 5.43645 3.01149 5.35467 3.65536C5.27289 4.29924 5.42874 4.95084 5.79301 5.48802C6.15729 6.02521 6.70498 6.4111 7.33341 6.57336ZM8.00008 2.6667C8.26379 2.6667 8.52158 2.74489 8.74084 2.8914C8.96011 3.03791 9.131 3.24615 9.23192 3.48978C9.33284 3.73342 9.35924 4.00151 9.3078 4.26015C9.25635 4.51879 9.12936 4.75637 8.94289 4.94284C8.75642 5.12931 8.51884 5.2563 8.2602 5.30774C8.00156 5.35919 7.73347 5.33279 7.48984 5.23187C7.2462 5.13095 7.03796 4.96006 6.89146 4.74079C6.74495 4.52152 6.66675 4.26374 6.66675 4.00003C6.66675 3.64641 6.80722 3.30727 7.05727 3.05722C7.30732 2.80717 7.64646 2.6667 8.00008 2.6667Z" fill="#333655" />
</svg>
    