<svg width="24" height="24" viewBox="0 0 24 24" fill="none" xmlns="http://www.w3.org/2000/svg">
<path d="M20.3137 5C20.3137 4.44772 19.866 4 19.3137 4H15.3137C14.7614 4 14.3137 3.55228 14.3137 3C14.3137 2.44772 14.7614 2 15.3137 2H19.3137C20.9706 2 22.3137 3.34315 22.3137 5V19C22.3137 20.6569 20.9706 22 19.3137 22H15.3137C14.7614 22 14.3137 21.5523 14.3137 21C14.3137 20.4477 14.7614 20 15.3137 20H19.3137C19.866 20 20.3137 19.5523 20.3137 19V5Z" fill="#110F2A"/>
<path d="M7.94975 5.63615C8.34028 5.24563 8.97344 5.24563 9.36397 5.63615L15.0208 11.293C15.4113 11.6835 15.4113 12.3167 15.0208 12.7072L9.36397 18.3641C8.97344 18.7546 8.34028 18.7546 7.94975 18.3641C7.55923 17.9736 7.55923 17.3404 7.94975 16.9499L11.8996 13L3 13C2.44772 13 2 12.5523 2 12C2 11.4477 2.44772 11 3 11L11.8994 11L7.94975 7.05037C7.55923 6.65984 7.55923 6.02668 7.94975 5.63615Z" fill="#110F2A"/>
</svg>
