<svg width="33" height="32" viewBox="0 0 33 32" fill="none" xmlns="http://www.w3.org/2000/svg">
    <g clip-path="url(#clip0_1910_37103)">
    <path d="M15.4778 0.0325699C12.3756 0.231089 9.41853 1.32146 6.91482 3.19109C5.75927 4.05331 4.55334 5.25924 3.69112 6.41479C2.13557 8.49479 1.11631 10.8918 0.710382 13.4222C-0.10147 18.4533 1.48964 23.5052 5.03334 27.1526C8.68075 30.9066 13.8926 32.6252 19.0778 31.7896C23.4422 31.0874 27.3563 28.5629 29.8245 24.8592C31.3089 22.6311 32.1948 20.0948 32.4467 17.3481C32.4941 16.8089 32.4941 15.1911 32.4467 14.6518C32.0615 10.4741 30.18 6.73775 27.0778 3.99701C23.8985 1.19109 19.7237 -0.237061 15.4778 0.0325699ZM17.4541 1.06664C20.0526 1.24146 22.5119 2.05924 24.663 3.46072C25.2111 3.81627 26.1237 4.50368 26.0496 4.50368C23.2852 4.55405 22.4645 4.58368 21.6556 4.66961C20.2333 4.81775 18.58 5.09924 17.6704 5.34813C16.817 5.5822 15.1696 6.15998 14.3667 6.50961C14.1622 6.5985 13.7711 6.78813 13.4926 6.93331C12.6393 7.37479 11.6585 7.73035 10.8259 7.9022C10.3282 8.00294 9.55186 8.01776 9.24371 7.93183C8.54445 7.73924 7.99038 7.16739 7.80371 6.44442C7.74149 6.1985 7.74742 5.77776 7.81557 5.50516C8.02001 4.70516 8.68964 3.89331 9.88371 2.99553C10.5919 2.46516 11.297 2.0622 12.1148 1.72738C12.8378 1.43109 14.2452 1.15553 15.463 1.06961C15.9993 1.03405 16.9296 1.03109 17.4541 1.06664ZM26.737 5.56146L27.2348 5.57924L27.4333 5.78961C27.7237 6.09479 28.0793 6.51257 28.3785 6.90368C28.6482 7.25331 29.0689 7.85479 29.057 7.86961C29.0511 7.87257 28.8793 7.85183 28.6719 7.8222C27.5074 7.65035 25.9519 7.65331 24.2333 7.82516C21.9252 8.05628 20.2482 8.49479 18.3815 9.35405C17.1578 9.91702 16.337 10.4385 14.737 11.6711C13.1519 12.8889 12.5059 13.3155 11.537 13.7807C9.87779 14.5778 8.15927 14.7318 6.63038 14.2222C6.02297 14.0207 5.69705 13.8222 5.31186 13.4163C4.55631 12.6192 4.15927 11.4103 4.2126 10.0592C4.2452 9.22665 4.39334 8.63109 4.73705 7.94072C4.98001 7.45479 5.40371 6.86813 5.87483 6.35553L6.04075 6.17776L5.89557 6.48887C5.60223 7.12294 5.47779 7.60591 5.47779 8.10961C5.47779 8.69035 5.65557 9.12294 6.05557 9.52591C6.39927 9.87257 6.79038 10.1096 7.34445 10.3052C8.28668 10.6341 9.1726 10.6548 10.1119 10.3674C10.8585 10.1363 12.18 9.48442 13.4185 8.73183C14.7785 7.90516 15.5459 7.51998 16.9089 6.98072C19.3504 6.01183 20.9445 5.71553 24.5 5.56146C24.9267 5.54072 26.2689 5.54072 26.737 5.56146ZM4.02594 7.81331C3.99631 7.89331 3.84816 8.2459 3.70001 8.60442C3.35038 9.44591 3.15483 10.0355 3.04816 10.5748C2.49408 13.3689 3.0926 15.3807 4.78149 16.3911C5.4452 16.7881 6.32816 17.0637 7.2526 17.1585C8.71334 17.3096 10.6185 16.8178 12.2215 15.8785C13.0956 15.3659 13.7474 14.8533 15.3148 13.4518C16.9 12.0326 17.7059 11.4103 18.8852 10.7052C20.7667 9.57627 22.3607 9.07553 25.0037 8.77924C25.3652 8.73776 25.7267 8.7259 26.6926 8.7259C28.0052 8.7259 28.4022 8.74961 29.137 8.87702C29.7682 8.98368 29.6941 8.93331 29.9282 9.40146C30.1356 9.81627 30.4111 10.4592 30.5711 10.9007L30.663 11.1496L30.417 11.1289C28.823 11.0044 27.5133 10.9985 26.4556 11.1141C25.2615 11.2415 23.5193 11.6859 22.5593 12.1066C22.18 12.2726 21.5963 12.6192 21.1696 12.9303C19.4896 14.157 18.4319 15.7422 17.9104 17.8222C17.7652 18.4029 17.7296 18.6074 17.5963 19.6563C17.2407 22.4207 16.9919 23.1763 16.1978 23.9289C15.9222 24.1896 15.7622 24.2992 15.4511 24.4474C15.0985 24.6103 14.8615 24.6607 14.4556 24.6578C13.7919 24.6548 13.057 24.3852 12.4111 23.9081C12.1563 23.7215 11.6793 23.2266 11.4156 22.8741C11.3 22.72 10.9889 22.2755 10.7282 21.8874C10.1859 21.0844 9.94297 20.7792 9.63186 20.5155C9.16371 20.1155 8.54149 19.7689 8.05557 19.6385C7.70001 19.5437 7.13408 19.5437 6.80223 19.6385C6.01112 19.8637 5.31779 20.48 5.00371 21.2326C4.71038 21.9348 4.71631 22.8622 5.01557 23.9022C5.35927 25.0963 5.83927 25.9437 6.96816 27.3481C7.19927 27.6326 7.35927 27.8459 7.32668 27.8222C7.29705 27.7985 7.1252 27.6592 6.94445 27.5081C5.79186 26.557 4.77853 25.4192 3.96075 24.1629C2.62742 22.1185 1.83631 19.8311 1.59038 17.3185C1.54297 16.8178 1.54297 15.1822 1.59038 14.6815C1.82742 12.2429 2.57408 10.0385 3.84223 8.02072C3.96075 7.83109 4.06446 7.67405 4.07334 7.67405C4.07927 7.67405 4.05853 7.73627 4.02594 7.81331ZM29.937 12.1659C30.2304 12.1896 30.5889 12.2252 30.737 12.2459L31.0037 12.2815L31.0837 12.637C31.1756 13.0341 31.3296 13.92 31.3593 14.2341L31.383 14.4355L31.2378 14.4178C30.2837 14.2933 28.9178 14.2518 28.2452 14.3229C26.8941 14.4681 25.297 14.9155 24.4882 15.3778C23.9252 15.7007 23.137 16.3941 22.6541 16.9926C22.3133 17.4133 21.9193 18.0266 21.7 18.4741C21.303 19.2829 20.9889 20.4385 20.8407 21.6592C20.7726 22.1926 20.7489 23.6444 20.7933 24.2281C20.8496 24.9452 20.8941 25.1911 21.14 26.2133C21.2437 26.6459 21.2674 27.2207 21.1993 27.5318C21.1015 27.9674 20.8733 28.3378 20.3993 28.8266C19.4037 29.8518 17.9963 30.5333 16.3815 30.7674C15.8807 30.8415 15.2348 30.8829 14.8852 30.8652C14.5148 30.8474 13.7 30.7141 13.1341 30.5807C11.8304 30.2726 11.4037 30.0652 10.3163 29.2089C9.10149 28.2548 8.95927 28.1333 8.48816 27.6741C7.63779 26.8385 7.21408 26.3081 6.89112 25.6592C6.55038 24.9807 6.43779 24.557 6.46149 24.0563C6.47334 23.8044 6.48816 23.7392 6.57112 23.5703C6.80223 23.0992 7.29112 22.7852 7.79186 22.7792C8.39631 22.7763 8.88223 23.0874 10.26 24.3674C10.817 24.8829 11.0215 25.0518 11.4511 25.3333C12.7933 26.2192 14.3193 26.4415 15.7474 25.9585C16.6837 25.6444 17.383 24.9659 17.9726 23.8074C18.4022 22.96 18.5622 22.3318 18.7074 20.9185C18.897 19.0785 19.1222 17.8666 19.4067 17.1437C19.86 16.0029 20.7282 14.8029 21.6111 14.1037C22.577 13.3363 24.0645 12.64 25.2407 12.4059C26.66 12.1185 28.3489 12.0326 29.937 12.1659ZM30.3222 15.3037C30.583 15.3333 30.9445 15.3778 31.1222 15.4044L31.4482 15.4518L31.457 15.8815C31.4689 16.4118 31.4185 17.2918 31.3444 17.8815C30.8348 21.8755 28.7548 25.4755 25.54 27.9229C24.9089 28.4029 24.0289 28.96 23.4156 29.2681L23.1756 29.3896L23.2615 29.1526C23.4304 28.6726 23.4748 28.3703 23.4778 27.7037C23.4778 26.8681 23.4156 26.5985 22.9741 25.5703C22.4526 24.3526 22.2837 23.6089 22.257 22.3911C22.2393 21.6089 22.2689 21.1585 22.3845 20.5452C22.6926 18.8592 23.7 17.2296 24.9415 16.4118C25.7119 15.9022 26.8911 15.4607 27.8926 15.3066C28.0556 15.28 28.2215 15.2533 28.263 15.2474C28.4348 15.2178 29.8778 15.2563 30.3222 15.3037Z" fill="black"/>
    </g>
    <defs>
    <clipPath id="clip0_1910_37103">
    <rect width="32" height="32" fill="white" transform="translate(0.5)"/>
    </clipPath>
    </defs>
    </svg>
    