<svg width="17" height="16" viewBox="0 0 17 16" fill="none" xmlns="http://www.w3.org/2000/svg">
<path d="M11.3194 8.52667C11.238 8.49427 11.151 8.47823 11.0634 8.47947C10.9758 8.4807 10.8892 8.49917 10.8088 8.53384C10.7283 8.56851 10.6554 8.61869 10.5943 8.68151C10.5333 8.74434 10.4851 8.81858 10.4528 8.9C10.4204 8.98142 10.4043 9.06842 10.4056 9.15604C10.4068 9.24366 10.4253 9.33018 10.4599 9.41065C10.4946 9.49113 10.5448 9.56399 10.6076 9.62508C10.6704 9.68616 10.7447 9.73427 10.8261 9.76667C11.7994 10.1533 12.4061 10.7533 12.4061 11.3333C12.4061 12.28 10.7661 13.3333 8.40609 13.3333C6.04609 13.3333 4.40609 12.28 4.40609 11.3333C4.40609 10.7533 5.01275 10.1533 5.98609 9.76667C6.15052 9.70125 6.28223 9.57318 6.35225 9.41065C6.42226 9.24812 6.42484 9.06443 6.35942 8.9C6.294 8.73557 6.16594 8.60385 6.00341 8.53384C5.84088 8.46383 5.65719 8.46125 5.49275 8.52667C3.97942 9.12667 3.07275 10.1733 3.07275 11.3333C3.07275 13.2 5.41275 14.6667 8.40609 14.6667C11.3994 14.6667 13.7394 13.2 13.7394 11.3333C13.7394 10.1733 12.8328 9.12667 11.3194 8.52667ZM7.73942 6.57333V11.3333C7.73942 11.5101 7.80966 11.6797 7.93468 11.8047C8.05971 11.9298 8.22928 12 8.40609 12C8.5829 12 8.75247 11.9298 8.87749 11.8047C9.00252 11.6797 9.07275 11.5101 9.07275 11.3333V6.57333C9.70119 6.41107 10.2489 6.02518 10.6132 5.48799C10.9774 4.95081 11.1333 4.29921 11.0515 3.65533C10.9697 3.01146 10.6559 2.41951 10.1689 1.99045C9.6819 1.56139 9.05514 1.32468 8.40609 1.32468C7.75704 1.32468 7.13027 1.56139 6.64327 1.99045C6.15626 2.41951 5.84246 3.01146 5.76067 3.65533C5.67889 4.29921 5.83474 4.95081 6.19902 5.48799C6.56329 6.02518 7.11098 6.41107 7.73942 6.57333ZM8.40609 2.66667C8.6698 2.66667 8.92758 2.74486 9.14685 2.89137C9.36611 3.03788 9.53701 3.24612 9.63793 3.48975C9.73884 3.73339 9.76525 4.00148 9.7138 4.26012C9.66235 4.51876 9.53537 4.75634 9.3489 4.94281C9.16243 5.12928 8.92485 5.25627 8.66621 5.30771C8.40757 5.35916 8.13948 5.33276 7.89584 5.23184C7.65221 5.13092 7.44397 4.96002 7.29746 4.74076C7.15095 4.52149 7.07275 4.26371 7.07275 4C7.07275 3.64638 7.21323 3.30724 7.46328 3.05719C7.71333 2.80714 8.05246 2.66667 8.40609 2.66667Z" fill="#110F2A"/>
</svg>
