<svg width="16" height="16" viewBox="0 0 16 16" fill="none" xmlns="http://www.w3.org/2000/svg">
    <g clip-path="url(#clip0_2613_12451)">
        <path fill-rule="evenodd" clip-rule="evenodd"
            d="M10.4421 2.51585C9.26024 1.98926 7.93984 1.8588 6.6778 2.14394C5.41575 2.42908 4.27969 3.11455 3.43905 4.0981C2.59841 5.08165 2.09822 6.31059 2.01309 7.60164C1.92796 8.89269 2.26244 10.1767 2.96666 11.2621C3.67088 12.3475 4.70709 13.1762 5.92076 13.6246C7.13444 14.073 8.46054 14.117 9.7013 13.7502C10.9421 13.3833 12.031 12.6252 12.8057 11.589C13.5804 10.5527 13.9993 9.29371 14.0001 7.99985V7.3869C14.0001 7.01871 14.2986 6.72024 14.6668 6.72024C15.0349 6.72024 15.3334 7.01871 15.3334 7.3869V8.00024C15.3325 9.58161 14.8204 11.1207 13.8736 12.3873C12.9267 13.6539 11.5958 14.5804 10.0793 15.0288C8.56286 15.4772 6.94207 15.4233 5.45869 14.8753C3.97531 14.3273 2.70883 13.3144 1.84812 11.9878C0.98741 10.6612 0.578595 9.09186 0.682644 7.51391C0.786694 5.93596 1.39803 4.43392 2.42549 3.2318C3.45294 2.02968 4.84146 1.1919 6.38395 0.84339C7.92645 0.494884 9.54028 0.65433 10.9848 1.29795C11.3211 1.4478 11.4722 1.84192 11.3224 2.17824C11.1725 2.51455 10.7784 2.66571 10.4421 2.51585Z"
            fill="#ECFDF5" />
        <path fill-rule="evenodd" clip-rule="evenodd"
            d="M15.1378 2.19503C15.3982 2.45525 15.3984 2.87736 15.1382 3.13784L8.47156 9.81117C8.34656 9.9363 8.17695 10.0066 8.00009 10.0067C7.82322 10.0067 7.65358 9.93647 7.52851 9.8114L5.52851 7.8114C5.26816 7.55106 5.26816 7.12895 5.52851 6.8686C5.78886 6.60825 6.21097 6.60825 6.47132 6.8686L7.99968 8.39696L14.1949 2.1955C14.4552 1.93502 14.8773 1.93481 15.1378 2.19503Z"
            fill="#ECFDF5" />
    </g>
    <defs>
        <clipPath id="clip0_2613_12451">
            <rect width="16" height="16" fill="white" />
        </clipPath>
    </defs>
</svg>
    