<svg width="40" height="40" viewBox="0 0 40 40" fill="none" xmlns="http://www.w3.org/2000/svg">
    <path d="M18.7222 0.0407448C14.8445 0.288891 11.1482 1.65186 8.01853 3.98889C6.57409 5.06667 5.06668 6.57408 3.9889 8.01852C2.04446 10.6185 0.770384 13.6148 0.262977 16.7778C-0.751838 23.0667 1.23705 29.3815 5.66668 33.9407C10.2259 38.6333 16.7408 40.7815 23.2222 39.737C28.6778 38.8593 33.5704 35.7037 36.6556 31.0741C38.5111 28.2889 39.6185 25.1185 39.9333 21.6852C39.9926 21.0111 39.9926 18.9889 39.9333 18.3148C39.4519 13.0926 37.1 8.42223 33.2222 4.9963C29.2482 1.48889 24.0296 -0.296291 18.7222 0.0407448ZM21.1926 1.33334C24.4408 1.55186 27.5148 2.57408 30.2037 4.32593C30.8889 4.77037 32.0296 5.62963 31.937 5.62963C28.4815 5.6926 27.4556 5.72963 26.4445 5.83704C24.6667 6.02222 22.6 6.37408 21.463 6.68519C20.3963 6.97778 18.337 7.7 17.3333 8.13704C17.0778 8.24815 16.5889 8.48519 16.2408 8.66667C15.1741 9.21852 13.9482 9.66297 12.9074 9.87778C12.2852 10.0037 11.3148 10.0222 10.9296 9.91482C10.0556 9.67408 9.36298 8.95926 9.12964 8.05556C9.05186 7.74815 9.05927 7.22223 9.14446 6.88148C9.40001 5.88148 10.2371 4.86667 11.7296 3.74445C12.6148 3.08149 13.4963 2.57778 14.5185 2.15926C15.4222 1.78889 17.1815 1.44445 18.7037 1.33704C19.3741 1.29259 20.537 1.28889 21.1926 1.33334ZM32.7963 6.95185L33.4185 6.97408L33.6667 7.23704C34.0296 7.61852 34.4741 8.14074 34.8482 8.62963C35.1852 9.06667 35.7111 9.81852 35.6963 9.83704C35.6889 9.84075 35.4741 9.81482 35.2148 9.77778C33.7593 9.56297 31.8148 9.56667 29.6667 9.78149C26.7815 10.0704 24.6852 10.6185 22.3519 11.6926C20.8222 12.3963 19.7963 13.0482 17.7963 14.5889C15.8148 16.1111 15.0074 16.6444 13.7963 17.2259C11.7222 18.2222 9.57409 18.4148 7.66298 17.7778C6.90372 17.5259 6.49631 17.2778 6.01483 16.7704C5.07038 15.7741 4.57409 14.263 4.64075 12.5741C4.6815 11.5333 4.86668 10.7889 5.29631 9.92593C5.60001 9.31852 6.12964 8.58519 6.71853 7.94445L6.92594 7.72223L6.74446 8.11111C6.37779 8.90371 6.22224 9.50741 6.22224 10.137C6.22224 10.863 6.44446 11.4037 6.94446 11.9074C7.37409 12.3407 7.86298 12.637 8.55557 12.8815C9.73335 13.2926 10.8408 13.3185 12.0148 12.9593C12.9482 12.6704 14.6 11.8556 16.1482 10.9148C17.8482 9.88149 18.8074 9.4 20.5111 8.72593C23.563 7.51482 25.5556 7.14445 30 6.95185C30.5333 6.92593 32.2111 6.92593 32.7963 6.95185ZM4.40742 9.76667C4.37038 9.86667 4.1852 10.3074 4.00001 10.7556C3.56298 11.8074 3.31853 12.5444 3.1852 13.2185C2.49261 16.7111 3.24075 19.2259 5.35187 20.4889C6.1815 20.9852 7.2852 21.3296 8.44075 21.4482C10.2667 21.637 12.6482 21.0222 14.6519 19.8482C15.7445 19.2074 16.5593 18.5667 18.5185 16.8148C20.5 15.0407 21.5074 14.263 22.9815 13.3815C25.3333 11.9704 27.3259 11.3444 30.6296 10.9741C31.0815 10.9222 31.5333 10.9074 32.7408 10.9074C34.3815 10.9074 34.8778 10.937 35.7963 11.0963C36.5852 11.2296 36.4926 11.1667 36.7852 11.7519C37.0445 12.2704 37.3889 13.0741 37.5889 13.6259L37.7037 13.937L37.3963 13.9111C35.4037 13.7556 33.7667 13.7482 32.4445 13.8926C30.9519 14.0519 28.7741 14.6074 27.5741 15.1333C27.1 15.3407 26.3704 15.7741 25.837 16.163C23.737 17.6963 22.4148 19.6778 21.763 22.2778C21.5815 23.0037 21.537 23.2593 21.3704 24.5704C20.9259 28.0259 20.6148 28.9704 19.6222 29.9111C19.2778 30.237 19.0778 30.3741 18.6889 30.5593C18.2482 30.763 17.9519 30.8259 17.4445 30.8222C16.6148 30.8185 15.6963 30.4815 14.8889 29.8852C14.5704 29.6519 13.9741 29.0333 13.6445 28.5926C13.5 28.4 13.1111 27.8444 12.7852 27.3593C12.1074 26.3556 11.8037 25.9741 11.4148 25.6444C10.8296 25.1444 10.0519 24.7111 9.44446 24.5482C9.00001 24.4296 8.29261 24.4296 7.87779 24.5482C6.8889 24.8296 6.02224 25.6 5.62964 26.5407C5.26298 27.4185 5.27038 28.5778 5.64446 29.8778C6.07409 31.3704 6.67409 32.4296 8.0852 34.1852C8.37409 34.5407 8.57409 34.8074 8.53335 34.7778C8.49631 34.7482 8.28149 34.5741 8.05557 34.3852C6.61483 33.1963 5.34816 31.7741 4.32594 30.2037C2.65927 27.6482 1.67038 24.7889 1.36298 21.6482C1.30372 21.0222 1.30372 18.9778 1.36298 18.3519C1.65927 15.3037 2.59261 12.5482 4.17779 10.0259C4.32594 9.78889 4.45557 9.5926 4.46668 9.5926C4.47409 9.5926 4.44816 9.67038 4.40742 9.76667ZM36.7963 15.2074C37.163 15.237 37.6111 15.2815 37.7963 15.3074L38.1296 15.3519L38.2296 15.7963C38.3445 16.2926 38.537 17.4 38.5741 17.7926L38.6037 18.0444L38.4222 18.0222C37.2296 17.8667 35.5222 17.8148 34.6815 17.9037C32.9926 18.0852 30.9963 18.6444 29.9852 19.2222C29.2815 19.6259 28.2963 20.4926 27.6926 21.2407C27.2667 21.7667 26.7741 22.5333 26.5 23.0926C26.0037 24.1037 25.6111 25.5482 25.4259 27.0741C25.3408 27.7407 25.3111 29.5556 25.3667 30.2852C25.437 31.1815 25.4926 31.4889 25.8 32.7667C25.9296 33.3074 25.9593 34.0259 25.8741 34.4148C25.7519 34.9593 25.4667 35.4222 24.8741 36.0333C23.6296 37.3148 21.8704 38.1667 19.8519 38.4593C19.2259 38.5519 18.4185 38.6037 17.9815 38.5815C17.5185 38.5593 16.5 38.3926 15.7926 38.2259C14.163 37.8407 13.6296 37.5815 12.2704 36.5111C10.7519 35.3185 10.5741 35.1667 9.9852 34.5926C8.92224 33.5482 8.39261 32.8852 7.9889 32.0741C7.56298 31.2259 7.42224 30.6963 7.45187 30.0704C7.46668 29.7556 7.4852 29.6741 7.5889 29.463C7.87779 28.8741 8.4889 28.4815 9.11483 28.4741C9.87038 28.4704 10.4778 28.8593 12.2 30.4593C12.8963 31.1037 13.1519 31.3148 13.6889 31.6667C15.3667 32.7741 17.2741 33.0519 19.0593 32.4482C20.2296 32.0556 21.1037 31.2074 21.8408 29.7593C22.3778 28.7 22.5778 27.9148 22.7593 26.1482C22.9963 23.8482 23.2778 22.3333 23.6333 21.4296C24.2 20.0037 25.2852 18.5037 26.3889 17.6296C27.5963 16.6704 29.4556 15.8 30.9259 15.5074C32.7 15.1482 34.8111 15.0407 36.7963 15.2074ZM37.2778 19.1296C37.6037 19.1667 38.0556 19.2222 38.2778 19.2556L38.6852 19.3148L38.6963 19.8519C38.7111 20.5148 38.6482 21.6148 38.5556 22.3519C37.9185 27.3444 35.3185 31.8444 31.3 34.9037C30.5111 35.5037 29.4111 36.2 28.6445 36.5852L28.3445 36.737L28.4519 36.4407C28.663 35.8407 28.7185 35.463 28.7222 34.6296C28.7222 33.5852 28.6445 33.2482 28.0926 31.963C27.4408 30.4407 27.2296 29.5111 27.1963 27.9889C27.1741 27.0111 27.2111 26.4482 27.3556 25.6815C27.7408 23.5741 29 21.537 30.5519 20.5148C31.5148 19.8778 32.9889 19.3259 34.2408 19.1333C34.4445 19.1 34.6519 19.0667 34.7037 19.0593C34.9185 19.0222 36.7222 19.0704 37.2778 19.1296Z" fill="black" />
</svg>
    