<svg width="16" height="17" viewBox="0 0 16 17" fill="none" xmlns="http://www.w3.org/2000/svg">
    <path fill-rule="evenodd" clip-rule="evenodd"
        d="M3.3335 3.16634C3.15668 3.16634 2.98712 3.23658 2.86209 3.3616C2.73707 3.48663 2.66683 3.6562 2.66683 3.83301V12.8902L4.19542 11.3616C4.32045 11.2366 4.49002 11.1663 4.66683 11.1663H12.6668C12.8436 11.1663 13.0132 11.0961 13.1382 10.9711C13.2633 10.8461 13.3335 10.6765 13.3335 10.4997V3.83301C13.3335 3.6562 13.2633 3.48663 13.1382 3.3616C13.0132 3.23658 12.8436 3.16634 12.6668 3.16634H3.3335ZM1.91928 2.41879C2.29436 2.04372 2.80306 1.83301 3.3335 1.83301H12.6668C13.1973 1.83301 13.706 2.04372 14.081 2.41879C14.4561 2.79387 14.6668 3.30257 14.6668 3.83301V10.4997C14.6668 11.0301 14.4561 11.5388 14.081 11.9139C13.706 12.289 13.1973 12.4997 12.6668 12.4997H4.94297L2.47157 14.9711C2.2809 15.1617 1.99416 15.2188 1.74504 15.1156C1.49592 15.0124 1.3335 14.7693 1.3335 14.4997V3.83301C1.3335 3.30257 1.54421 2.79387 1.91928 2.41879Z"
        fill="currentColor" />
</svg>
    