<svg width="16" height="16" viewBox="0 0 16 16" fill="none" xmlns="http://www.w3.org/2000/svg">
    <path
        d="M14.0001 7.66669C14.0024 8.5466 13.7968 9.41461 13.4001 10.2C12.9297 11.1412 12.2066 11.9328 11.3118 12.4862C10.4169 13.0396 9.38562 13.3329 8.33346 13.3334C7.45354 13.3356 6.58553 13.1301 5.80012 12.7334L2.00012 14L3.26679 10.2C2.87008 9.41461 2.66449 8.5466 2.66679 7.66669C2.6672 6.61452 2.96053 5.58325 3.51393 4.68839C4.06734 3.79352 4.85896 3.0704 5.80012 2.60002C6.58553 2.20331 7.45354 1.99772 8.33346 2.00002H8.66679C10.0564 2.07668 11.3688 2.66319 12.3529 3.64726C13.3369 4.63132 13.9235 5.94379 14.0001 7.33335V7.66669Z"
        stroke="black" stroke-width="1.33333" stroke-linecap="round" stroke-linejoin="round" />
</svg>
    