<svg width="24" height="24" viewBox="0 0 24 24" fill="none" xmlns="http://www.w3.org/2000/svg">
<path fill-rule="evenodd" clip-rule="evenodd" d="M12.7473 1.11315C12.3907 0.582134 11.6095 0.582135 11.2529 1.11315L10.1398 2.77083C9.88887 3.14447 9.40052 3.27533 8.99641 3.0772L7.20355 2.19818C6.62923 1.9166 5.95272 2.30718 5.90942 2.94535L5.77423 4.93752C5.74376 5.38656 5.38627 5.74405 4.93723 5.77452L2.94506 5.90971C2.30689 5.95301 1.91631 6.62952 2.19789 7.20384L3.07691 8.9967C3.27504 9.40082 3.14418 9.88916 2.77054 10.1401L1.11286 11.2532C0.581845 11.6098 0.581845 12.391 1.11286 12.7476L2.77054 13.8607C3.14418 14.1116 3.27504 14.6 3.07691 15.0041L2.19789 16.7969C1.91631 17.3713 2.30689 18.0478 2.94506 18.0911L4.93723 18.2263C5.38627 18.2567 5.74376 18.6142 5.77423 19.0633L5.90942 21.0554C5.95272 21.6936 6.62923 22.0842 7.20355 21.8026L8.99641 20.9236C9.40053 20.7255 9.88887 20.8563 10.1398 21.23L11.2529 22.8876C11.6095 23.4187 12.3907 23.4187 12.7473 22.8876L13.8604 21.23C14.1113 20.8563 14.5997 20.7255 15.0038 20.9236L16.7967 21.8026C17.371 22.0842 18.0475 21.6936 18.0908 21.0554L18.226 19.0633C18.2564 18.6142 18.6139 18.2567 19.063 18.2263L21.0551 18.0911C21.6933 18.0478 22.0839 17.3713 21.8023 16.7969L20.9233 15.0041C20.7252 14.6 20.856 14.1116 21.2297 13.8607L22.8873 12.7476C23.4184 12.391 23.4184 11.6098 22.8873 11.2532L21.2297 10.1401C20.856 9.88916 20.7252 9.40082 20.9233 8.9967L21.8023 7.20384C22.0839 6.62952 21.6933 5.95301 21.0551 5.90971L19.063 5.77452C18.6139 5.74405 18.2564 5.38656 18.226 4.93752L18.0908 2.94535C18.0475 2.30718 17.371 1.9166 16.7967 2.19818L15.0038 3.0772C14.5997 3.27533 14.1113 3.14447 13.8604 2.77083L12.7473 1.11315ZM17.3814 9.70711C17.7719 9.31659 17.7719 8.68342 17.3814 8.2929C16.9909 7.90237 16.3577 7.90237 15.9672 8.2929L10.6743 13.5858L8.03275 10.9443C7.64222 10.5537 7.00906 10.5537 6.61854 10.9443C6.22801 11.3348 6.22801 11.968 6.61854 12.3585L9.96717 15.7071C10.3577 16.0976 10.9909 16.0976 11.3814 15.7071L17.3814 9.70711Z" fill="#064E3B"/>
</svg>
