<svg width="16" height="17" viewBox="0 0 16 17" fill="none" xmlns="http://www.w3.org/2000/svg">
    <mask id="path-1-inside-1_1062_3211" fill="white">
        <path d="M12.5667 10.9597C12.4418 10.8355 12.2728 10.7658 12.0967 10.7658C11.9206 10.7658 11.7516 10.8355 11.6267 10.9597L10.2534 12.333C10.1711 12.4159 10.1121 12.5189 10.0822 12.6317C10.0523 12.7446 10.0525 12.8633 10.0829 12.976C10.1133 13.0888 10.1727 13.1915 10.2553 13.2741C10.3378 13.3566 10.4406 13.416 10.5534 13.4463L10.7267 13.493L10.1934 14.0263C10.1309 14.0883 10.0813 14.1621 10.0474 14.2433C10.0136 14.3245 9.99618 14.4117 9.99618 14.4997C9.99618 14.5877 10.0136 14.6748 10.0474 14.7561C10.0813 14.8373 10.1309 14.911 10.1934 14.973C10.2553 15.0355 10.3291 15.0851 10.4103 15.1189C10.4916 15.1528 10.5787 15.1702 10.6667 15.1702C10.7547 15.1702 10.8419 15.1528 10.9231 15.1189C11.0043 15.0851 11.0781 15.0355 11.14 14.973L12.4734 13.6397C12.5602 13.5549 12.6223 13.4479 12.6528 13.3305C12.6834 13.213 12.6812 13.0894 12.6467 12.973C12.6165 12.8594 12.5569 12.7558 12.4738 12.6726C12.3906 12.5895 12.287 12.5298 12.1734 12.4997L12 12.4597L12.5534 11.8997C12.6793 11.7765 12.7514 11.6086 12.7539 11.4324C12.7564 11.2563 12.6891 11.0863 12.5667 10.9597ZM5.27337 13.493L5.44671 13.4463C5.55944 13.416 5.66223 13.3566 5.7448 13.2741C5.82736 13.1915 5.88681 13.0888 5.91718 12.976C5.94755 12.8633 5.9478 12.7446 5.91788 12.6317C5.88796 12.5189 5.82894 12.4159 5.74671 12.333L4.37337 10.9597C4.24584 10.8505 4.08179 10.7934 3.91401 10.7999C3.74622 10.8063 3.58706 10.8759 3.46833 10.9946C3.3496 11.1134 3.28005 11.2725 3.27357 11.4403C3.26709 11.6081 3.32416 11.7721 3.43337 11.8997L3.98671 12.4597L3.81337 12.4997C3.69975 12.5298 3.59612 12.5895 3.51299 12.6726C3.42987 12.7558 3.3702 12.8594 3.34004 12.973C3.3055 13.0894 3.30339 13.213 3.33393 13.3305C3.36448 13.4479 3.42652 13.5549 3.51337 13.6397L4.84671 14.973C4.90868 15.0355 4.98242 15.0851 5.06366 15.1189C5.1449 15.1528 5.23203 15.1702 5.32004 15.1702C5.40805 15.1702 5.49519 15.1528 5.57643 15.1189C5.65766 15.0851 5.7314 15.0355 5.79337 14.973C5.85586 14.911 5.90546 14.8373 5.9393 14.7561C5.97315 14.6748 5.99057 14.5877 5.99057 14.4997C5.99057 14.4117 5.97315 14.3245 5.9393 14.2433C5.90546 14.1621 5.85586 14.0883 5.79337 14.0263L5.27337 13.493ZM14 3.16634C13.8232 3.16634 13.6537 3.23658 13.5286 3.3616C13.4036 3.48663 13.3334 3.6562 13.3334 3.83301H11.3334C11.3334 3.30257 11.1227 2.79387 10.7476 2.41879C10.3725 2.04372 9.86381 1.83301 9.33337 1.83301H6.66671C6.13627 1.83301 5.62757 2.04372 5.25249 2.41879C4.87742 2.79387 4.66671 3.30257 4.66671 3.83301H2.66671C2.66671 3.6562 2.59647 3.48663 2.47145 3.3616C2.34642 3.23658 2.17685 3.16634 2.00004 3.16634C1.82323 3.16634 1.65366 3.23658 1.52864 3.3616C1.40361 3.48663 1.33337 3.6562 1.33337 3.83301V5.16634C1.33337 5.34315 1.40361 5.51272 1.52864 5.63775C1.65366 5.76277 1.82323 5.83301 2.00004 5.83301C2.17685 5.83301 2.34642 5.76277 2.47145 5.63775C2.59647 5.51272 2.66671 5.34315 2.66671 5.16634H4.66671V6.49967C4.66649 6.91344 4.79461 7.31709 5.03341 7.655C5.27221 7.9929 5.60994 8.24842 6.00004 8.38634V9.16634C6.00004 9.51996 6.14052 9.8591 6.39057 10.1091C6.64061 10.3592 6.97975 10.4997 7.33337 10.4997V14.4997C7.33337 14.6765 7.40361 14.8461 7.52864 14.9711C7.65366 15.0961 7.82323 15.1663 8.00004 15.1663C8.17685 15.1663 8.34642 15.0961 8.47145 14.9711C8.59647 14.8461 8.66671 14.6765 8.66671 14.4997V10.4997C9.02033 10.4997 9.35947 10.3592 9.60952 10.1091C9.85956 9.8591 10 9.51996 10 9.16634V8.38634C10.3901 8.24842 10.7279 7.9929 10.9667 7.655C11.2055 7.31709 11.3336 6.91344 11.3334 6.49967V5.16634H13.3334C13.3334 5.34315 13.4036 5.51272 13.5286 5.63775C13.6537 5.76277 13.8232 5.83301 14 5.83301C14.1769 5.83301 14.3464 5.76277 14.4714 5.63775C14.5965 5.51272 14.6667 5.34315 14.6667 5.16634V3.83301C14.6667 3.6562 14.5965 3.48663 14.4714 3.3616C14.3464 3.23658 14.1769 3.16634 14 3.16634ZM10 6.49967C10 6.67649 9.9298 6.84605 9.80478 6.97108C9.67975 7.0961 9.51019 7.16634 9.33337 7.16634C9.15656 7.16634 8.98699 7.23658 8.86197 7.3616C8.73695 7.48663 8.66671 7.6562 8.66671 7.83301V9.16634H7.33337V7.83301C7.33337 7.6562 7.26314 7.48663 7.13811 7.3616C7.01309 7.23658 6.84352 7.16634 6.66671 7.16634C6.4899 7.16634 6.32033 7.0961 6.1953 6.97108C6.07028 6.84605 6.00004 6.67649 6.00004 6.49967V3.83301C6.00004 3.6562 6.07028 3.48663 6.1953 3.3616C6.32033 3.23658 6.4899 3.16634 6.66671 3.16634H9.33337C9.51019 3.16634 9.67975 3.23658 9.80478 3.3616C9.9298 3.48663 10 3.6562 10 3.83301V6.49967ZM8.00004 4.49967C7.82323 4.49967 7.65366 4.56991 7.52864 4.69494C7.40361 4.81996 7.33337 4.98953 7.33337 5.16634V5.83301C7.33337 6.00982 7.40361 6.17939 7.52864 6.30441C7.65366 6.42944 7.82323 6.49967 8.00004 6.49967C8.17685 6.49967 8.34642 6.42944 8.47145 6.30441C8.59647 6.17939 8.66671 6.00982 8.66671 5.83301V5.16634C8.66671 4.98953 8.59647 4.81996 8.47145 4.69494C8.34642 4.56991 8.17685 4.49967 8.00004 4.49967Z" />
    </mask>
    <path d="M12.5667 10.9597C12.4418 10.8355 12.2728 10.7658 12.0967 10.7658C11.9206 10.7658 11.7516 10.8355 11.6267 10.9597L10.2534 12.333C10.1711 12.4159 10.1121 12.5189 10.0822 12.6317C10.0523 12.7446 10.0525 12.8633 10.0829 12.976C10.1133 13.0888 10.1727 13.1915 10.2553 13.2741C10.3378 13.3566 10.4406 13.416 10.5534 13.4463L10.7267 13.493L10.1934 14.0263C10.1309 14.0883 10.0813 14.1621 10.0474 14.2433C10.0136 14.3245 9.99618 14.4117 9.99618 14.4997C9.99618 14.5877 10.0136 14.6748 10.0474 14.7561C10.0813 14.8373 10.1309 14.911 10.1934 14.973C10.2553 15.0355 10.3291 15.0851 10.4103 15.1189C10.4916 15.1528 10.5787 15.1702 10.6667 15.1702C10.7547 15.1702 10.8419 15.1528 10.9231 15.1189C11.0043 15.0851 11.0781 15.0355 11.14 14.973L12.4734 13.6397C12.5602 13.5549 12.6223 13.4479 12.6528 13.3305C12.6834 13.213 12.6812 13.0894 12.6467 12.973C12.6165 12.8594 12.5569 12.7558 12.4738 12.6726C12.3906 12.5895 12.287 12.5298 12.1734 12.4997L12 12.4597L12.5534 11.8997C12.6793 11.7765 12.7514 11.6086 12.7539 11.4324C12.7564 11.2563 12.6891 11.0863 12.5667 10.9597ZM5.27337 13.493L5.44671 13.4463C5.55944 13.416 5.66223 13.3566 5.7448 13.2741C5.82736 13.1915 5.88681 13.0888 5.91718 12.976C5.94755 12.8633 5.9478 12.7446 5.91788 12.6317C5.88796 12.5189 5.82894 12.4159 5.74671 12.333L4.37337 10.9597C4.24584 10.8505 4.08179 10.7934 3.91401 10.7999C3.74622 10.8063 3.58706 10.8759 3.46833 10.9946C3.3496 11.1134 3.28005 11.2725 3.27357 11.4403C3.26709 11.6081 3.32416 11.7721 3.43337 11.8997L3.98671 12.4597L3.81337 12.4997C3.69975 12.5298 3.59612 12.5895 3.51299 12.6726C3.42987 12.7558 3.3702 12.8594 3.34004 12.973C3.3055 13.0894 3.30339 13.213 3.33393 13.3305C3.36448 13.4479 3.42652 13.5549 3.51337 13.6397L4.84671 14.973C4.90868 15.0355 4.98242 15.0851 5.06366 15.1189C5.1449 15.1528 5.23203 15.1702 5.32004 15.1702C5.40805 15.1702 5.49519 15.1528 5.57643 15.1189C5.65766 15.0851 5.7314 15.0355 5.79337 14.973C5.85586 14.911 5.90546 14.8373 5.9393 14.7561C5.97315 14.6748 5.99057 14.5877 5.99057 14.4997C5.99057 14.4117 5.97315 14.3245 5.9393 14.2433C5.90546 14.1621 5.85586 14.0883 5.79337 14.0263L5.27337 13.493ZM14 3.16634C13.8232 3.16634 13.6537 3.23658 13.5286 3.3616C13.4036 3.48663 13.3334 3.6562 13.3334 3.83301H11.3334C11.3334 3.30257 11.1227 2.79387 10.7476 2.41879C10.3725 2.04372 9.86381 1.83301 9.33337 1.83301H6.66671C6.13627 1.83301 5.62757 2.04372 5.25249 2.41879C4.87742 2.79387 4.66671 3.30257 4.66671 3.83301H2.66671C2.66671 3.6562 2.59647 3.48663 2.47145 3.3616C2.34642 3.23658 2.17685 3.16634 2.00004 3.16634C1.82323 3.16634 1.65366 3.23658 1.52864 3.3616C1.40361 3.48663 1.33337 3.6562 1.33337 3.83301V5.16634C1.33337 5.34315 1.40361 5.51272 1.52864 5.63775C1.65366 5.76277 1.82323 5.83301 2.00004 5.83301C2.17685 5.83301 2.34642 5.76277 2.47145 5.63775C2.59647 5.51272 2.66671 5.34315 2.66671 5.16634H4.66671V6.49967C4.66649 6.91344 4.79461 7.31709 5.03341 7.655C5.27221 7.9929 5.60994 8.24842 6.00004 8.38634V9.16634C6.00004 9.51996 6.14052 9.8591 6.39057 10.1091C6.64061 10.3592 6.97975 10.4997 7.33337 10.4997V14.4997C7.33337 14.6765 7.40361 14.8461 7.52864 14.9711C7.65366 15.0961 7.82323 15.1663 8.00004 15.1663C8.17685 15.1663 8.34642 15.0961 8.47145 14.9711C8.59647 14.8461 8.66671 14.6765 8.66671 14.4997V10.4997C9.02033 10.4997 9.35947 10.3592 9.60952 10.1091C9.85956 9.8591 10 9.51996 10 9.16634V8.38634C10.3901 8.24842 10.7279 7.9929 10.9667 7.655C11.2055 7.31709 11.3336 6.91344 11.3334 6.49967V5.16634H13.3334C13.3334 5.34315 13.4036 5.51272 13.5286 5.63775C13.6537 5.76277 13.8232 5.83301 14 5.83301C14.1769 5.83301 14.3464 5.76277 14.4714 5.63775C14.5965 5.51272 14.6667 5.34315 14.6667 5.16634V3.83301C14.6667 3.6562 14.5965 3.48663 14.4714 3.3616C14.3464 3.23658 14.1769 3.16634 14 3.16634ZM10 6.49967C10 6.67649 9.9298 6.84605 9.80478 6.97108C9.67975 7.0961 9.51019 7.16634 9.33337 7.16634C9.15656 7.16634 8.98699 7.23658 8.86197 7.3616C8.73695 7.48663 8.66671 7.6562 8.66671 7.83301V9.16634H7.33337V7.83301C7.33337 7.6562 7.26314 7.48663 7.13811 7.3616C7.01309 7.23658 6.84352 7.16634 6.66671 7.16634C6.4899 7.16634 6.32033 7.0961 6.1953 6.97108C6.07028 6.84605 6.00004 6.67649 6.00004 6.49967V3.83301C6.00004 3.6562 6.07028 3.48663 6.1953 3.3616C6.32033 3.23658 6.4899 3.16634 6.66671 3.16634H9.33337C9.51019 3.16634 9.67975 3.23658 9.80478 3.3616C9.9298 3.48663 10 3.6562 10 3.83301V6.49967ZM8.00004 4.49967C7.82323 4.49967 7.65366 4.56991 7.52864 4.69494C7.40361 4.81996 7.33337 4.98953 7.33337 5.16634V5.83301C7.33337 6.00982 7.40361 6.17939 7.52864 6.30441C7.65366 6.42944 7.82323 6.49967 8.00004 6.49967C8.17685 6.49967 8.34642 6.42944 8.47145 6.30441C8.59647 6.17939 8.66671 6.00982 8.66671 5.83301V5.16634C8.66671 4.98953 8.59647 4.81996 8.47145 4.69494C8.34642 4.56991 8.17685 4.49967 8.00004 4.49967Z" fill="#064E3B" stroke="#064E3B" stroke-width="2" mask="url(#path-1-inside-1_1062_3211)" />
</svg>
    