<svg width="24" height="24" viewBox="0 0 24 24" fill="none" xmlns="http://www.w3.org/2000/svg">
<path d="M5.05306 10.3125C5.47771 10.4065 5.84156 9.94497 5.84156 9.36918V6.51807C5.84156 5.96578 5.50688 5.51807 5.09403 5.51807H1.1082C0.526597 5.51807 0.181033 6.36015 0.562563 6.94737C1.69753 8.69422 3.27067 9.91801 5.05306 10.3125Z" fill="#110F2A"/>
<path d="M8.51514 5.51807H22.5962C23.3786 5.51807 23.8579 6.37598 23.4478 7.04225L21.9518 9.47284C21.6659 9.93732 21.0604 10.0703 20.5322 9.93441C20.2526 9.86248 19.9595 9.82422 19.6575 9.82422C17.7245 9.82422 16.1575 11.3912 16.1575 13.3242C16.1575 14.9743 17.2993 16.3577 18.836 16.7273C19.2811 16.8343 19.6575 17.1953 19.6575 17.6531C19.6575 18.1109 19.2864 18.482 18.8286 18.482H8.4568C7.93673 18.482 7.51514 18.0604 7.51514 17.5403C7.51514 17.0202 7.94701 16.6133 8.4417 16.4528C9.64509 16.0624 10.5151 14.9321 10.5151 13.5986C10.5151 12.2857 9.67167 11.1697 8.49703 10.763C7.97514 10.5823 7.51514 10.1509 7.51514 9.59863V6.51807C7.51514 5.96578 7.96285 5.51807 8.51514 5.51807Z" fill="#110F2A"/>
</svg>
