<svg width="16" height="17" viewBox="0 0 16 17" fill="none" xmlns="http://www.w3.org/2000/svg">
    <mask id="path-1-inside-1_1224_4033" fill="white">
        <path d="M12.5667 10.9607C12.4418 10.8365 12.2728 10.7668 12.0967 10.7668C11.9205 10.7668 11.7516 10.8365 11.6267 10.9607L10.2533 12.334C10.1711 12.4169 10.1121 12.5199 10.0822 12.6327C10.0522 12.7456 10.0525 12.8643 10.0829 12.977C10.1132 13.0897 10.1727 13.1925 10.2552 13.275C10.3378 13.3576 10.4406 13.417 10.5533 13.4473L10.7267 13.494L10.1933 14.0273C10.1308 14.0893 10.0812 14.163 10.0474 14.2443C10.0136 14.3255 9.99613 14.4126 9.99613 14.5007C9.99613 14.5887 10.0136 14.6758 10.0474 14.757C10.0812 14.8383 10.1308 14.912 10.1933 14.974C10.2553 15.0365 10.329 15.0861 10.4103 15.1199C10.4915 15.1538 10.5787 15.1712 10.6667 15.1712C10.7547 15.1712 10.8418 15.1538 10.923 15.1199C11.0043 15.0861 11.078 15.0365 11.14 14.974L12.4733 13.6407C12.5602 13.5558 12.6222 13.4489 12.6528 13.3314C12.6833 13.214 12.6812 13.0904 12.6467 12.974C12.6165 12.8604 12.5568 12.7567 12.4737 12.6736C12.3906 12.5905 12.287 12.5308 12.1733 12.5007L12 12.4607L12.5533 11.9007C12.6793 11.7775 12.7514 11.6095 12.7539 11.4334C12.7564 11.2573 12.6891 11.0873 12.5667 10.9607ZM5.27333 13.494L5.44666 13.4473C5.5594 13.417 5.66219 13.3576 5.74475 13.275C5.82732 13.1925 5.88676 13.0897 5.91713 12.977C5.94751 12.8643 5.94775 12.7456 5.91783 12.6327C5.88792 12.5199 5.82889 12.4169 5.74666 12.334L4.37333 10.9607C4.24579 10.8514 4.08174 10.7944 3.91396 10.8008C3.74618 10.8073 3.58702 10.8769 3.46829 10.9956C3.34956 11.1143 3.28 11.2735 3.27352 11.4413C3.26704 11.6091 3.32411 11.7731 3.43333 11.9007L3.98666 12.4607L3.81333 12.5007C3.6997 12.5308 3.59607 12.5905 3.51295 12.6736C3.42982 12.7567 3.37015 12.8604 3.34 12.974C3.30545 13.0904 3.30334 13.214 3.33389 13.3314C3.36443 13.4489 3.42648 13.5558 3.51333 13.6407L4.84666 14.974C4.90864 15.0365 4.98237 15.0861 5.06361 15.1199C5.14485 15.1538 5.23199 15.1712 5.31999 15.1712C5.408 15.1712 5.49514 15.1538 5.57638 15.1199C5.65762 15.0861 5.73135 15.0365 5.79333 14.974C5.85581 14.912 5.90541 14.8383 5.93926 14.757C5.9731 14.6758 5.99053 14.5887 5.99053 14.5007C5.99053 14.4126 5.9731 14.3255 5.93926 14.2443C5.90541 14.163 5.85581 14.0893 5.79333 14.0273L5.27333 13.494ZM14 3.16732C13.8232 3.16732 13.6536 3.23756 13.5286 3.36258C13.4036 3.4876 13.3333 3.65717 13.3333 3.83398H11.3333C11.3333 3.30355 11.1226 2.79484 10.7475 2.41977C10.3725 2.0447 9.86376 1.83398 9.33333 1.83398H6.66666C6.13623 1.83398 5.62752 2.0447 5.25245 2.41977C4.87738 2.79484 4.66666 3.30355 4.66666 3.83398H2.66666C2.66666 3.65717 2.59642 3.4876 2.4714 3.36258C2.34638 3.23756 2.17681 3.16732 1.99999 3.16732C1.82318 3.16732 1.65361 3.23756 1.52859 3.36258C1.40357 3.4876 1.33333 3.65717 1.33333 3.83398V5.16732C1.33333 5.34413 1.40357 5.5137 1.52859 5.63872C1.65361 5.76375 1.82318 5.83398 1.99999 5.83398C2.17681 5.83398 2.34638 5.76375 2.4714 5.63872C2.59642 5.5137 2.66666 5.34413 2.66666 5.16732H4.66666V6.50065C4.66644 6.91442 4.79457 7.31807 5.03337 7.65597C5.27217 7.99388 5.60989 8.2494 6 8.38732V9.16732C6 9.52094 6.14047 9.86008 6.39052 10.1101C6.64057 10.3602 6.97971 10.5007 7.33333 10.5007V14.5007C7.33333 14.6775 7.40357 14.847 7.52859 14.9721C7.65361 15.0971 7.82318 15.1673 8 15.1673C8.17681 15.1673 8.34638 15.0971 8.4714 14.9721C8.59642 14.847 8.66666 14.6775 8.66666 14.5007V10.5007C9.02028 10.5007 9.35942 10.3602 9.60947 10.1101C9.85952 9.86008 10 9.52094 10 9.16732V8.38732C10.3901 8.2494 10.7278 7.99388 10.9666 7.65597C11.2054 7.31807 11.3335 6.91442 11.3333 6.50065V5.16732H13.3333C13.3333 5.34413 13.4036 5.5137 13.5286 5.63872C13.6536 5.76375 13.8232 5.83398 14 5.83398C14.1768 5.83398 14.3464 5.76375 14.4714 5.63872C14.5964 5.5137 14.6667 5.34413 14.6667 5.16732V3.83398C14.6667 3.65717 14.5964 3.4876 14.4714 3.36258C14.3464 3.23756 14.1768 3.16732 14 3.16732ZM10 6.50065C10 6.67746 9.92976 6.84703 9.80473 6.97206C9.67971 7.09708 9.51014 7.16732 9.33333 7.16732C9.15652 7.16732 8.98695 7.23756 8.86192 7.36258C8.7369 7.4876 8.66666 7.65717 8.66666 7.83398V9.16732H7.33333V7.83398C7.33333 7.65717 7.26309 7.4876 7.13807 7.36258C7.01304 7.23756 6.84347 7.16732 6.66666 7.16732C6.48985 7.16732 6.32028 7.09708 6.19526 6.97206C6.07023 6.84703 6 6.67746 6 6.50065V3.83398C6 3.65717 6.07023 3.4876 6.19526 3.36258C6.32028 3.23756 6.48985 3.16732 6.66666 3.16732H9.33333C9.51014 3.16732 9.67971 3.23756 9.80473 3.36258C9.92976 3.4876 10 3.65717 10 3.83398V6.50065ZM8 4.50065C7.82318 4.50065 7.65361 4.57089 7.52859 4.69591C7.40357 4.82094 7.33333 4.99051 7.33333 5.16732V5.83398C7.33333 6.0108 7.40357 6.18036 7.52859 6.30539C7.65361 6.43041 7.82318 6.50065 8 6.50065C8.17681 6.50065 8.34638 6.43041 8.4714 6.30539C8.59642 6.18036 8.66666 6.0108 8.66666 5.83398V5.16732C8.66666 4.99051 8.59642 4.82094 8.4714 4.69591C8.34638 4.57089 8.17681 4.50065 8 4.50065Z" />
    </mask>
    <path d="M12.5667 10.9607C12.4418 10.8365 12.2728 10.7668 12.0967 10.7668C11.9205 10.7668 11.7516 10.8365 11.6267 10.9607L10.2533 12.334C10.1711 12.4169 10.1121 12.5199 10.0822 12.6327C10.0522 12.7456 10.0525 12.8643 10.0829 12.977C10.1132 13.0897 10.1727 13.1925 10.2552 13.275C10.3378 13.3576 10.4406 13.417 10.5533 13.4473L10.7267 13.494L10.1933 14.0273C10.1308 14.0893 10.0812 14.163 10.0474 14.2443C10.0136 14.3255 9.99613 14.4126 9.99613 14.5007C9.99613 14.5887 10.0136 14.6758 10.0474 14.757C10.0812 14.8383 10.1308 14.912 10.1933 14.974C10.2553 15.0365 10.329 15.0861 10.4103 15.1199C10.4915 15.1538 10.5787 15.1712 10.6667 15.1712C10.7547 15.1712 10.8418 15.1538 10.923 15.1199C11.0043 15.0861 11.078 15.0365 11.14 14.974L12.4733 13.6407C12.5602 13.5558 12.6222 13.4489 12.6528 13.3314C12.6833 13.214 12.6812 13.0904 12.6467 12.974C12.6165 12.8604 12.5568 12.7567 12.4737 12.6736C12.3906 12.5905 12.287 12.5308 12.1733 12.5007L12 12.4607L12.5533 11.9007C12.6793 11.7775 12.7514 11.6095 12.7539 11.4334C12.7564 11.2573 12.6891 11.0873 12.5667 10.9607ZM5.27333 13.494L5.44666 13.4473C5.5594 13.417 5.66219 13.3576 5.74475 13.275C5.82732 13.1925 5.88676 13.0897 5.91713 12.977C5.94751 12.8643 5.94775 12.7456 5.91783 12.6327C5.88792 12.5199 5.82889 12.4169 5.74666 12.334L4.37333 10.9607C4.24579 10.8514 4.08174 10.7944 3.91396 10.8008C3.74618 10.8073 3.58702 10.8769 3.46829 10.9956C3.34956 11.1143 3.28 11.2735 3.27352 11.4413C3.26704 11.6091 3.32411 11.7731 3.43333 11.9007L3.98666 12.4607L3.81333 12.5007C3.6997 12.5308 3.59607 12.5905 3.51295 12.6736C3.42982 12.7567 3.37015 12.8604 3.34 12.974C3.30545 13.0904 3.30334 13.214 3.33389 13.3314C3.36443 13.4489 3.42648 13.5558 3.51333 13.6407L4.84666 14.974C4.90864 15.0365 4.98237 15.0861 5.06361 15.1199C5.14485 15.1538 5.23199 15.1712 5.31999 15.1712C5.408 15.1712 5.49514 15.1538 5.57638 15.1199C5.65762 15.0861 5.73135 15.0365 5.79333 14.974C5.85581 14.912 5.90541 14.8383 5.93926 14.757C5.9731 14.6758 5.99053 14.5887 5.99053 14.5007C5.99053 14.4126 5.9731 14.3255 5.93926 14.2443C5.90541 14.163 5.85581 14.0893 5.79333 14.0273L5.27333 13.494ZM14 3.16732C13.8232 3.16732 13.6536 3.23756 13.5286 3.36258C13.4036 3.4876 13.3333 3.65717 13.3333 3.83398H11.3333C11.3333 3.30355 11.1226 2.79484 10.7475 2.41977C10.3725 2.0447 9.86376 1.83398 9.33333 1.83398H6.66666C6.13623 1.83398 5.62752 2.0447 5.25245 2.41977C4.87738 2.79484 4.66666 3.30355 4.66666 3.83398H2.66666C2.66666 3.65717 2.59642 3.4876 2.4714 3.36258C2.34638 3.23756 2.17681 3.16732 1.99999 3.16732C1.82318 3.16732 1.65361 3.23756 1.52859 3.36258C1.40357 3.4876 1.33333 3.65717 1.33333 3.83398V5.16732C1.33333 5.34413 1.40357 5.5137 1.52859 5.63872C1.65361 5.76375 1.82318 5.83398 1.99999 5.83398C2.17681 5.83398 2.34638 5.76375 2.4714 5.63872C2.59642 5.5137 2.66666 5.34413 2.66666 5.16732H4.66666V6.50065C4.66644 6.91442 4.79457 7.31807 5.03337 7.65597C5.27217 7.99388 5.60989 8.2494 6 8.38732V9.16732C6 9.52094 6.14047 9.86008 6.39052 10.1101C6.64057 10.3602 6.97971 10.5007 7.33333 10.5007V14.5007C7.33333 14.6775 7.40357 14.847 7.52859 14.9721C7.65361 15.0971 7.82318 15.1673 8 15.1673C8.17681 15.1673 8.34638 15.0971 8.4714 14.9721C8.59642 14.847 8.66666 14.6775 8.66666 14.5007V10.5007C9.02028 10.5007 9.35942 10.3602 9.60947 10.1101C9.85952 9.86008 10 9.52094 10 9.16732V8.38732C10.3901 8.2494 10.7278 7.99388 10.9666 7.65597C11.2054 7.31807 11.3335 6.91442 11.3333 6.50065V5.16732H13.3333C13.3333 5.34413 13.4036 5.5137 13.5286 5.63872C13.6536 5.76375 13.8232 5.83398 14 5.83398C14.1768 5.83398 14.3464 5.76375 14.4714 5.63872C14.5964 5.5137 14.6667 5.34413 14.6667 5.16732V3.83398C14.6667 3.65717 14.5964 3.4876 14.4714 3.36258C14.3464 3.23756 14.1768 3.16732 14 3.16732ZM10 6.50065C10 6.67746 9.92976 6.84703 9.80473 6.97206C9.67971 7.09708 9.51014 7.16732 9.33333 7.16732C9.15652 7.16732 8.98695 7.23756 8.86192 7.36258C8.7369 7.4876 8.66666 7.65717 8.66666 7.83398V9.16732H7.33333V7.83398C7.33333 7.65717 7.26309 7.4876 7.13807 7.36258C7.01304 7.23756 6.84347 7.16732 6.66666 7.16732C6.48985 7.16732 6.32028 7.09708 6.19526 6.97206C6.07023 6.84703 6 6.67746 6 6.50065V3.83398C6 3.65717 6.07023 3.4876 6.19526 3.36258C6.32028 3.23756 6.48985 3.16732 6.66666 3.16732H9.33333C9.51014 3.16732 9.67971 3.23756 9.80473 3.36258C9.92976 3.4876 10 3.65717 10 3.83398V6.50065ZM8 4.50065C7.82318 4.50065 7.65361 4.57089 7.52859 4.69591C7.40357 4.82094 7.33333 4.99051 7.33333 5.16732V5.83398C7.33333 6.0108 7.40357 6.18036 7.52859 6.30539C7.65361 6.43041 7.82318 6.50065 8 6.50065C8.17681 6.50065 8.34638 6.43041 8.4714 6.30539C8.59642 6.18036 8.66666 6.0108 8.66666 5.83398V5.16732C8.66666 4.99051 8.59642 4.82094 8.4714 4.69591C8.34638 4.57089 8.17681 4.50065 8 4.50065Z" fill="#064E3B" stroke="#064E3B" stroke-width="2" mask="url(#path-1-inside-1_1224_4033)" />
</svg>
    