<svg width="25" height="24" viewBox="0 0 25 24" fill="none" xmlns="http://www.w3.org/2000/svg">
<path d="M13.2002 4.02071C11.533 3.90053 9.86997 4.3056 8.44477 5.17904C7.01957 6.05247 5.90376 7.35039 5.25405 8.8905C4.60434 10.4306 4.45336 12.1356 4.82233 13.7659C5.1913 15.3962 6.06167 16.87 7.3112 17.9803C8.56074 19.0905 10.1267 19.7815 11.7891 19.9562C13.4515 20.1309 15.1268 19.7804 16.5798 18.9541C18.0328 18.1278 19.1905 16.8671 19.8903 15.349C20.59 13.831 20.7967 12.1319 20.4813 10.4904C20.3771 9.94802 20.7323 9.42387 21.2746 9.31965C21.817 9.21543 22.3411 9.57062 22.4453 10.113C22.8396 12.1649 22.5813 14.2887 21.7066 16.1863C20.8319 18.0838 19.3848 19.6597 17.5685 20.6926C15.7523 21.7255 13.6581 22.1636 11.5801 21.9453C9.50208 21.7269 7.54467 20.8632 5.98275 19.4753C4.42083 18.0875 3.33287 16.2452 2.87166 14.2073C2.41045 12.1694 2.59917 10.0383 3.41131 8.11312C4.22345 6.18798 5.61822 4.56559 7.39971 3.47379C9.18121 2.382 11.2599 1.87566 13.344 2.02589C13.8948 2.06559 14.3092 2.54434 14.2695 3.09519C14.2298 3.64605 13.751 4.06042 13.2002 4.02071Z" fill="#110F2A"/>
<path d="M15.6251 12C15.6251 13.6569 14.2819 15 12.6251 15C10.9682 15 9.62506 13.6569 9.62506 12C9.62506 10.3431 10.9682 9 12.6251 9C14.2819 9 15.6251 10.3431 15.6251 12Z" fill="#110F2A"/>
<path d="M18.6251 7C19.7296 7 20.6251 6.10457 20.6251 5C20.6251 3.89543 19.7296 3 18.6251 3C17.5205 3 16.6251 3.89543 16.6251 5C16.6251 6.10457 17.5205 7 18.6251 7Z" fill="#110F2A"/>
</svg>
