<svg width="205" height="105" viewBox="0 0 205 105" fill="none" xmlns="http://www.w3.org/2000/svg">
<ellipse cx="182.735" cy="24.5166" rx="20.9106" ry="20.9106" transform="rotate(2.46332 182.735 24.5166)" stroke="#01501F" stroke-width="1.68987"/>
<ellipse cx="182.735" cy="24.5165" rx="16.131" ry="16.131" transform="rotate(2.46332 182.735 24.5165)" fill="#01501F" fill-opacity="0.2"/>
<path d="M183.331 27.4762C183.124 27.4762 178.209 27.4332 174.45 23.6741C174.371 23.5945 174.293 23.515 174.217 23.434C173.43 22.6028 173.056 21.6153 173.136 20.5778C173.206 19.6629 173.627 18.7754 174.323 18.0795C175.019 17.3836 175.905 16.9624 176.821 16.8927C177.78 16.8195 178.696 17.1336 179.486 17.8027C179.571 16.7716 179.997 15.9017 180.726 15.2755C181.423 14.6776 182.348 14.3486 183.331 14.3486C184.315 14.3486 185.241 14.6776 185.937 15.2755C186.666 15.9017 187.092 16.7716 187.178 17.8027C187.967 17.1336 188.884 16.8195 189.842 16.8927C190.757 16.9624 191.645 17.3836 192.34 18.0795C193.036 18.7754 193.457 19.6622 193.527 20.5778C193.606 21.6153 193.232 22.6028 192.446 23.434C192.369 23.5142 192.291 23.5945 192.212 23.6741C188.453 27.4332 183.538 27.4762 183.331 27.4762ZM177.092 17.664C176.239 17.664 175.439 18.0598 174.87 18.6289C173.847 19.6523 173.382 21.4259 174.78 22.9029C174.851 22.9782 174.924 23.0529 174.998 23.1276C178.533 26.662 183.283 26.7028 183.331 26.7028C183.379 26.7028 188.138 26.6528 191.664 23.1276C191.739 23.0529 191.812 22.9782 191.883 22.9029C193.28 21.4266 192.815 19.6523 191.792 18.6296C190.768 17.6062 188.995 17.1421 187.519 18.5388C187.443 18.6099 187.369 18.6825 187.294 18.7571C187.236 18.8149 187.181 18.8733 187.126 18.9318L186.388 19.7101L186.417 18.6409C186.419 18.5599 186.422 18.4782 186.422 18.3958C186.422 18.2908 186.421 18.1866 186.418 18.0824C186.361 16.0503 184.779 15.1241 183.332 15.1241C181.885 15.1241 180.302 16.0496 180.246 18.0824C180.243 18.1859 180.242 18.2901 180.242 18.3958C180.242 18.4761 180.244 18.5557 180.246 18.6346L180.274 19.7101L179.539 18.9339C179.483 18.8747 179.427 18.8156 179.369 18.7571C179.295 18.6825 179.22 18.6099 179.145 18.5388C178.488 17.9168 177.773 17.664 177.092 17.664Z" fill="#01501F"/>
<path d="M193.397 33.181C192.012 33.8178 190.429 33.984 188.932 33.6473C187.479 33.3205 186.206 32.564 185.227 31.4533C185.323 31.5195 185.422 31.5836 185.523 31.6449C186.36 32.1492 187.29 32.4027 188.219 32.4027C189.046 32.4027 189.873 32.2027 190.635 31.7998C190.689 31.7716 190.742 31.7421 190.796 31.7118L190.413 31.0384C190.366 31.0652 190.32 31.0905 190.273 31.1152C188.896 31.8428 187.27 31.7935 185.923 30.9821C184.545 30.1517 183.722 28.6986 183.722 27.0955V26.7969H183.714H182.947H182.94V27.0955C182.94 28.6986 182.116 30.1517 180.738 30.9821C179.391 31.7935 177.766 31.8435 176.389 31.1152C176.341 31.0905 176.295 31.0652 176.248 31.0384L175.865 31.7118C175.919 31.7421 175.972 31.7716 176.027 31.7998C176.789 32.2027 177.615 32.4027 178.442 32.4027C179.372 32.4027 180.301 32.1492 181.138 31.6449C181.239 31.5843 181.338 31.5202 181.434 31.4533C180.455 32.564 179.182 33.3205 177.73 33.6473C176.232 33.9847 174.65 33.8185 173.264 33.181L172.875 33.8558C173.91 34.3432 175.047 34.5925 176.189 34.5925C176.762 34.5925 177.336 34.5299 177.899 34.4031C179.636 34.0122 181.144 33.0683 182.259 31.6752C182.519 31.3497 182.746 31.0004 182.939 30.6348V34.5925H183.714V30.6215C183.909 30.9919 184.138 31.3462 184.401 31.6752C185.516 33.0683 187.024 34.0115 188.76 34.4031C189.324 34.5299 189.898 34.5925 190.471 34.5925C191.613 34.5925 192.75 34.3432 193.785 33.8558L193.397 33.181Z" fill="#01501F"/>
<path d="M182.827 23.3756H182.264C182.264 22.5367 181.447 21.8535 180.444 21.8535C179.44 21.8535 178.624 22.536 178.624 23.3756H178.06C178.06 22.2261 179.129 21.29 180.444 21.29C181.758 21.29 182.827 22.2254 182.827 23.3756Z" fill="#01501F"/>
<path d="M181.092 23.3865C181.539 23.3865 181.902 23.0236 181.902 22.5758C181.902 22.1281 181.539 21.7651 181.092 21.7651C180.644 21.7651 180.281 22.1281 180.281 22.5758C180.281 23.0236 180.644 23.3865 181.092 23.3865Z" fill="#01501F"/>
<path d="M188.607 23.3756H188.043C188.043 22.5367 187.227 21.8535 186.223 21.8535C185.22 21.8535 184.403 22.536 184.403 23.3756H183.84C183.84 22.2261 184.909 21.29 186.223 21.29C187.538 21.29 188.607 22.2254 188.607 23.3756Z" fill="#01501F"/>
<path d="M186.872 23.3865C187.32 23.3865 187.683 23.0236 187.683 22.5758C187.683 22.1281 187.32 21.7651 186.872 21.7651C186.424 21.7651 186.061 22.1281 186.061 22.5758C186.061 23.0236 186.424 23.3865 186.872 23.3865Z" fill="#01501F"/>
<path d="M183.321 25.4456C182.657 25.4456 182.042 25.104 181.754 24.5764L182.249 24.3066C182.44 24.656 182.861 24.8821 183.322 24.8821C183.783 24.8821 184.204 24.656 184.395 24.3066L184.889 24.5764C184.601 25.104 183.986 25.4456 183.321 25.4456Z" fill="#01501F"/>
<ellipse cx="22.6019" cy="49.8711" rx="20.9106" ry="20.9106" transform="rotate(2.46332 22.6019 49.8711)" stroke="#0284C7" stroke-width="1.68987"/>
<ellipse cx="22.6019" cy="49.8695" rx="16.131" ry="16.131" transform="rotate(2.46332 22.6019 49.8695)" fill="#BAE6FD"/>
<path d="M27.7083 46.7674V56.787H18.1242V46.7674C18.1242 44.1208 20.2697 41.9754 22.9162 41.9754C25.5628 41.9754 27.7083 44.1208 27.7083 46.7674Z" fill="#0284C7" stroke="#0284C7" stroke-width="2.61383"/>
<g filter="url(#filter0_dd_3540_41149)">
<rect x="39.3829" y="7.98291" width="128.44" height="52.5607" rx="12.3741" transform="rotate(2.46332 39.3829 7.98291)" fill="white" fill-opacity="0.8"/>
<ellipse cx="20.9106" cy="20.9103" rx="20.9106" ry="20.9103" transform="matrix(0.999076 0.0429792 -0.0429803 0.999076 82.4213 15.2104)" stroke="#C026D3" stroke-width="1.68985"/>
<ellipse cx="16.131" cy="16.1308" rx="16.131" ry="16.1308" transform="matrix(0.999076 0.0429792 -0.0429803 0.999076 86.9912 20.187)" fill="#FAE8FF"/>
<path fill-rule="evenodd" clip-rule="evenodd" d="M93.7856 27.4225C93.8309 27.4269 93.8759 27.4348 93.9202 27.4463L106.539 30.4922C106.869 30.5718 107.123 30.8356 107.189 31.1683L108.194 36.1915C108.507 36.0686 108.876 36.1335 109.129 36.3864L111.743 39.0002C112.083 39.3404 112.083 39.8921 111.743 40.2323L105.644 46.3312C105.304 46.6715 104.752 46.6715 104.412 46.3312L101.798 43.7174C101.545 43.4646 101.48 43.095 101.603 42.7821L96.58 41.7775C96.2473 41.711 95.9835 41.4574 95.9039 41.1276L92.8584 28.5104C92.7829 28.221 92.8585 27.9004 93.0853 27.6737C93.2363 27.5226 93.4291 27.4386 93.6265 27.4217C93.6791 27.4171 93.7323 27.4174 93.7856 27.4225ZM99.1837 35.0043L95.2749 31.0955L97.4672 40.1779L102.999 41.2843L106.696 37.5873L105.59 32.0556L96.507 29.8633L100.416 33.7721C100.757 33.6088 101.139 33.5174 101.543 33.5174C102.986 33.5174 104.157 34.6876 104.157 36.1312C104.157 37.5747 102.986 38.745 101.543 38.745C100.099 38.745 98.929 37.5747 98.929 36.1312C98.929 35.7276 99.0204 35.3455 99.1837 35.0043ZM100.916 35.526C100.765 35.6827 100.672 35.8961 100.672 36.1312C100.672 36.6124 101.062 37.0024 101.543 37.0024C102.024 37.0024 102.414 36.6124 102.414 36.1312C102.414 35.65 102.024 35.2599 101.543 35.2599C101.308 35.2599 101.094 35.353 100.938 35.5044C100.934 35.508 100.93 35.5117 100.927 35.5153C100.923 35.5189 100.92 35.5224 100.916 35.526ZM108.26 38.4873L108.258 38.4898L104.339 42.4088C105.653 42.0634 107.06 41.2268 108.334 40.4695C108.857 40.1586 109.358 39.861 109.82 39.6164C109.86 39.5953 109.882 39.5984 109.888 39.6228L109.895 39.6162L108.513 38.2346L108.26 38.4873Z" fill="#C026D3"/>
</g>
<defs>
<filter id="filter0_dd_3540_41149" x="13.9224" y="0.249086" width="176.983" height="104.435" filterUnits="userSpaceOnUse" color-interpolation-filters="sRGB">
<feFlood flood-opacity="0" result="BackgroundImageFix"/>
<feColorMatrix in="SourceAlpha" type="matrix" values="0 0 0 0 0 0 0 0 0 0 0 0 0 0 0 0 0 0 127 0" result="hardAlpha"/>
<feOffset dy="6.18706"/>
<feGaussianBlur stdDeviation="4.64029"/>
<feColorMatrix type="matrix" values="0 0 0 0 0 0 0 0 0 0 0 0 0 0 0 0 0 0 0.05 0"/>
<feBlend mode="normal" in2="BackgroundImageFix" result="effect1_dropShadow_3540_41149"/>
<feColorMatrix in="SourceAlpha" type="matrix" values="0 0 0 0 0 0 0 0 0 0 0 0 0 0 0 0 0 0 127 0" result="hardAlpha"/>
<feOffset dy="15.4676"/>
<feGaussianBlur stdDeviation="11.6007"/>
<feColorMatrix type="matrix" values="0 0 0 0 0 0 0 0 0 0 0 0 0 0 0 0 0 0 0.1 0"/>
<feBlend mode="normal" in2="effect1_dropShadow_3540_41149" result="effect2_dropShadow_3540_41149"/>
<feBlend mode="normal" in="SourceGraphic" in2="effect2_dropShadow_3540_41149" result="shape"/>
</filter>
</defs>
</svg>
