<svg width="16" height="16" viewBox="0 0 16 16" fill="none" xmlns="http://www.w3.org/2000/svg">
    <path fill-rule="evenodd" clip-rule="evenodd"
        d="M4.82675 2L11.1734 2C11.5455 2.0002 11.9105 2.10419 12.2267 2.30028C12.5427 2.4962 12.7977 2.77629 12.9633 3.10912C12.9635 3.10941 12.9636 3.10971 12.9638 3.11L15.2629 7.70151C15.3093 7.79417 15.3334 7.89637 15.3334 8V12C15.3334 12.5304 15.1227 13.0391 14.7476 13.4142C14.3726 13.7893 13.8638 14 13.3334 14H2.66675C2.13631 14 1.62761 13.7893 1.25253 13.4142C0.877462 13.0391 0.666748 12.5304 0.666748 12V8C0.666748 7.89637 0.690906 7.79417 0.737303 7.70151L3.03639 3.11C3.03656 3.10968 3.03672 3.10935 3.03688 3.10903C3.20247 2.77624 3.45753 2.49618 3.77344 2.30028C4.08966 2.10419 4.45466 2.0002 4.82675 2ZM4.82697 3.33333C4.70299 3.33342 4.58149 3.36808 4.47612 3.43343C4.37071 3.49879 4.28563 3.59226 4.23043 3.70333L4.22953 3.70516L2.4128 7.33333H5.33341C5.55632 7.33333 5.76447 7.44473 5.88811 7.6302L7.02354 9.33333H8.97662L10.112 7.6302C10.2357 7.44473 10.4438 7.33333 10.6667 7.33333H13.5874L11.7706 3.70516L11.7697 3.70333C11.7145 3.59226 11.6295 3.49879 11.524 3.43343C11.4187 3.36809 11.2972 3.33342 11.1732 3.33333H4.82697ZM14.0001 8.66667H11.0235L9.88811 10.3698C9.76447 10.5553 9.55632 10.6667 9.33341 10.6667H6.66675C6.44385 10.6667 6.23569 10.5553 6.11205 10.3698L4.97663 8.66667H2.00008V12C2.00008 12.1768 2.07032 12.3464 2.19534 12.4714C2.32037 12.5964 2.48994 12.6667 2.66675 12.6667H13.3334C13.5102 12.6667 13.6798 12.5964 13.8048 12.4714C13.9298 12.3464 14.0001 12.1768 14.0001 12V8.66667Z"
        fill="#ECFDF5" />
</svg>
    