<svg width="11" height="10" viewBox="0 0 11 10" fill="none" xmlns="http://www.w3.org/2000/svg">
    <path d="M10.223 6.37371V6.88905C10.223 6.91864 10.2049 6.94495 10.1786 6.95645C10.0175 7.0255 9.46598 7.27865 9.23666 7.59755C8.65145 8.41208 8.20432 9.57675 7.20486 9.57675H3.03524C1.55741 9.57675 0.359863 8.3751 0.359863 6.89234V6.84466C0.359863 6.80521 0.391917 6.77316 0.431383 6.77316H2.75577C2.8018 6.77316 2.83551 6.8159 2.8314 6.86111C2.81496 7.01234 2.8429 7.16687 2.91441 7.30742C3.0525 7.58768 3.33853 7.76276 3.64758 7.76276H4.79826V6.8644H3.66072C3.60237 6.8644 3.56785 6.797 3.60155 6.74932C3.61387 6.73042 3.62785 6.71069 3.64264 6.6885C3.75032 6.53563 3.90401 6.29808 4.05689 6.02767C4.16127 5.84521 4.26237 5.6504 4.34374 5.4548C4.36018 5.41945 4.37334 5.38329 4.38648 5.34793C4.40868 5.28548 4.43169 5.22712 4.44813 5.16877C4.46456 5.11945 4.47771 5.06767 4.49087 5.01917C4.5295 4.85314 4.54594 4.67725 4.54594 4.49478C4.54594 4.42328 4.54265 4.34848 4.53608 4.27696C4.53279 4.19888 4.52292 4.1208 4.51305 4.04272C4.50648 3.97368 4.49416 3.90546 4.481 3.83396C4.46456 3.72957 4.44155 3.62601 4.41524 3.52162L4.40621 3.48217C4.38648 3.41067 4.37005 3.34244 4.34703 3.27094C4.2821 3.04655 4.20729 2.82792 4.1284 2.62326C4.09963 2.54189 4.06674 2.46381 4.03387 2.38573C3.98537 2.26818 3.93606 2.16134 3.89087 2.06024C3.86785 2.01421 3.84811 1.97229 3.8284 1.92955C3.80621 1.88105 3.78319 1.83257 3.76018 1.78653C3.74374 1.75119 3.72482 1.71832 3.71169 1.68544L3.57113 1.42571C3.5514 1.39037 3.58429 1.34845 3.6229 1.35913L4.50237 1.5975H4.50484C4.50648 1.5975 4.50731 1.59832 4.50813 1.59832L4.62402 1.63037L4.75142 1.66653L4.79826 1.67968V1.15695C4.79826 0.904609 5.00047 0.699951 5.25033 0.699951C5.37526 0.699951 5.48868 0.750902 5.57005 0.833924C5.65142 0.916947 5.70239 1.03037 5.70239 1.15695V1.93284L5.79608 1.95913C5.80349 1.9616 5.81089 1.96489 5.81746 1.96982C5.84047 1.98708 5.87334 2.01257 5.91526 2.04379C5.94815 2.0701 5.98349 2.10216 6.02623 2.13503C6.11089 2.20326 6.21197 2.2912 6.32294 2.39229C6.35252 2.41778 6.3813 2.44408 6.4076 2.47039C6.55062 2.60352 6.71089 2.7597 6.86377 2.93231C6.90651 2.98079 6.94843 3.0301 6.99117 3.08189C7.03391 3.13449 7.07912 3.18628 7.11857 3.23807C7.17035 3.3071 7.22623 3.3786 7.27473 3.45341C7.29775 3.48875 7.32404 3.52491 7.34625 3.56025C7.4087 3.65478 7.46377 3.75259 7.51638 3.85039C7.53857 3.8956 7.56159 3.94491 7.5813 3.99341C7.63967 4.12409 7.68569 4.25725 7.71528 4.3904C7.72432 4.41917 7.7309 4.4504 7.73419 4.47835V4.48491C7.74404 4.52438 7.74733 4.5663 7.75062 4.60904C7.76377 4.74546 7.7572 4.88191 7.72761 5.01917C7.71528 5.07753 7.69885 5.13259 7.67912 5.19096C7.65938 5.24685 7.63967 5.3052 7.61419 5.36027C7.56488 5.47451 7.50651 5.58877 7.43746 5.69561C7.41528 5.73506 7.38898 5.77698 7.36267 5.81643C7.33391 5.85835 7.30433 5.89782 7.27801 5.93645C7.24185 5.98576 7.20322 6.03753 7.16377 6.08356C7.12843 6.13206 7.09225 6.18056 7.0528 6.22329C6.99775 6.28822 6.94514 6.34987 6.89007 6.40905C6.8572 6.44768 6.82185 6.48713 6.78568 6.52248C6.75033 6.56192 6.71417 6.59727 6.6813 6.63014C6.62623 6.68521 6.5802 6.72795 6.54157 6.76329L6.45115 6.84632C6.43801 6.85782 6.42075 6.8644 6.40267 6.8644H5.70239V7.76276H6.58349C6.78075 7.76276 6.96815 7.69289 7.11938 7.56468C7.17117 7.51947 7.3972 7.32384 7.66433 7.02879C7.67336 7.01892 7.68488 7.01152 7.69801 7.00824L10.1317 6.30466C10.1769 6.29151 10.223 6.32603 10.223 6.37371Z" fill="currentColor" />
</svg>
    