<svg width="16" height="16" viewBox="0 0 16 16" fill="none" xmlns="http://www.w3.org/2000/svg">
    <path fill-rule="evenodd" clip-rule="evenodd"
        d="M4 4.00001V3.00001C4 2.07954 4.7462 1.33334 5.66667 1.33334H10.3333C11.2538 1.33334 12 2.07954 12 3.00001V4.00001H13.3333C14.4379 4.00001 15.3333 4.89544 15.3333 6.00001V12.3378C15.3333 13.4423 14.4379 14.3378 13.3333 14.3378H2.66667C1.5621 14.3378 0.666672 13.4423 0.666672 12.3378V6.00001C0.666672 4.89544 1.5621 4.00001 2.66667 4.00001H4ZM5.66667 2.66668H10.3333C10.5174 2.66668 10.6667 2.81592 10.6667 3.00001V4.00001H5.33334V3.00001C5.33334 2.81592 5.48258 2.66668 5.66667 2.66668ZM2.00001 8.00001V12.3378C2.00001 12.7059 2.29848 13.0044 2.66667 13.0044H8.21711C10.7112 11.9816 12.3316 10.3246 13.3883 8.00001H2.00001Z"
        fill="currentColor" />
</svg>
    