<svg width="17" height="17" viewBox="0 0 17 17" fill="none" xmlns="http://www.w3.org/2000/svg">
    <path
        d="M15.2725 7.60254H9.27246V1.60254C9.27246 1.33732 9.1671 1.08297 8.97957 0.895432C8.79203 0.707896 8.53768 0.602539 8.27246 0.602539C8.00724 0.602539 7.75289 0.707896 7.56535 0.895432C7.37782 1.08297 7.27246 1.33732 7.27246 1.60254V7.60254H1.27246C1.00724 7.60254 0.752891 7.7079 0.565354 7.89543C0.377818 8.08297 0.272461 8.33732 0.272461 8.60254C0.272461 8.86776 0.377818 9.12211 0.565354 9.30965C0.752891 9.49718 1.00724 9.60254 1.27246 9.60254H7.27246V15.6025C7.27246 15.8678 7.37782 16.1221 7.56535 16.3096C7.75289 16.4972 8.00724 16.6025 8.27246 16.6025C8.53768 16.6025 8.79203 16.4972 8.97957 16.3096C9.1671 16.1221 9.27246 15.8678 9.27246 15.6025V9.60254H15.2725C15.5377 9.60254 15.792 9.49718 15.9796 9.30965C16.1671 9.12211 16.2725 8.86776 16.2725 8.60254C16.2725 8.33732 16.1671 8.08297 15.9796 7.89543C15.792 7.7079 15.5377 7.60254 15.2725 7.60254Z"
        fill="currentColor" />
</svg>
    