<svg width="12" height="12" viewBox="0 0 12 12" fill="none" xmlns="http://www.w3.org/2000/svg">
<path d="M6.00166 5.33317V5.99817H6.66666H10.6667C10.6671 5.99817 10.6675 5.99835 10.6678 5.99866C10.6682 5.99897 10.6683 5.99939 10.6683 5.99984C10.6683 6.00028 10.6682 6.0007 10.6678 6.00101C10.6675 6.00133 10.6671 6.0015 10.6667 6.0015H6.66666H6.00166V6.6665V10.6665C6.00166 10.6669 6.00149 10.6674 6.00118 10.6677C6.00086 10.668 6.00044 10.6682 6 10.6682C5.99955 10.6682 5.99913 10.668 5.99882 10.6677C5.99851 10.6674 5.99833 10.6669 5.99833 10.6665V6.6665V6.0015H5.33333H1.33333C1.33289 6.0015 1.33246 6.00133 1.33215 6.00102C1.33184 6.0007 1.33166 6.00028 1.33166 5.99984C1.33166 5.9994 1.33184 5.99897 1.33215 5.99866C1.33246 5.99835 1.33289 5.99817 1.33333 5.99817H5.33333H5.99833V5.33317V1.33317C5.99833 1.33273 5.99851 1.3323 5.99882 1.33199C5.99913 1.33168 5.99956 1.3315 6 1.3315C6.00044 1.3315 6.00086 1.33168 6.00117 1.33199C6.00149 1.3323 6.00166 1.33273 6.00166 1.33317V5.33317Z" fill="#110F2A" stroke="#110F2A" stroke-width="1.33"/>
</svg>
