<svg width="24" height="24" viewBox="0 0 24 24" fill="none" xmlns="http://www.w3.org/2000/svg">
<path d="M12 21C13.5905 21 15.1526 20.5785 16.5272 19.7785C17.9018 18.9784 19.0398 17.8284 19.8254 16.4455C20.6111 15.0626 21.0162 13.4962 20.9995 11.9058C20.9829 10.3154 20.545 8.75781 19.7307 7.39165C18.9163 6.02549 17.7544 4.89954 16.3633 4.12845C14.9723 3.35736 13.4017 2.96867 11.8116 3.00197C10.2214 3.03527 8.66854 3.48936 7.31097 4.31801C5.95341 5.14665 4.83969 6.32025 4.0832 7.71931" stroke="#110F2A" stroke-width="2" stroke-linecap="round"/>
<path d="M3 8.26147V4.26144L7 8.26147H3Z" fill="#110F2A"/>
<path d="M3 4.26144L3.53033 3.73111C3.31583 3.51661 2.99325 3.45245 2.71299 3.56853C2.43273 3.68462 2.25 3.9581 2.25 4.26144H3ZM3 8.26147H2.25C2.25 8.67569 2.58579 9.01147 3 9.01147V8.26147ZM7 8.26147V9.01147C7.30335 9.01147 7.57682 8.82874 7.69291 8.54849C7.809 8.26823 7.74483 7.94564 7.53033 7.73115L7 8.26147ZM2.25 4.26144V8.26147H3.75V4.26144H2.25ZM3 9.01147H7V7.51147H3V9.01147ZM2.46967 4.79177L6.46967 8.7918L7.53033 7.73115L3.53033 3.73111L2.46967 4.79177Z" fill="#110F2A"/>
<path d="M12 8V12H15" stroke="#110F2A" stroke-width="2" stroke-linecap="round" stroke-linejoin="round"/>
</svg>
