<svg width="16" height="16" viewBox="0 0 16 16" fill="none" xmlns="http://www.w3.org/2000/svg">
    <path d="M7.62654 1.3335C5.91747 1.33837 4.27554 1.99944 3.03988 3.18016V2.00016C3.03988 1.82335 2.96964 1.65378 2.84461 1.52876C2.71959 1.40373 2.55002 1.3335 2.37321 1.3335C2.1964 1.3335 2.02683 1.40373 1.90181 1.52876C1.77678 1.65378 1.70654 1.82335 1.70654 2.00016V5.00016C1.70654 5.17697 1.77678 5.34654 1.90181 5.47157C2.02683 5.59659 2.1964 5.66683 2.37321 5.66683H5.37321C5.55002 5.66683 5.71959 5.59659 5.84461 5.47157C5.96964 5.34654 6.03988 5.17697 6.03988 5.00016C6.03988 4.82335 5.96964 4.65378 5.84461 4.52876C5.71959 4.40373 5.55002 4.3335 5.37321 4.3335H3.77321C4.38102 3.6915 5.13888 3.21067 5.97863 2.93426C6.81838 2.65784 7.71367 2.59451 8.58397 2.74996C9.45426 2.90542 10.2723 3.27478 10.9644 3.82482C11.6565 4.37487 12.2011 5.08833 12.549 5.90105C12.897 6.71376 13.0375 7.60023 12.9578 8.48071C12.8782 9.36119 12.5809 10.2081 12.0927 10.9451C11.6045 11.6822 10.9408 12.2864 10.1612 12.7033C9.38162 13.1202 8.51061 13.3367 7.62654 13.3335C7.44973 13.3335 7.28016 13.4037 7.15514 13.5288C7.03011 13.6538 6.95988 13.8234 6.95988 14.0002C6.95988 14.177 7.03011 14.3465 7.15514 14.4716C7.28016 14.5966 7.44973 14.6668 7.62654 14.6668C9.39465 14.6668 11.0903 13.9645 12.3406 12.7142C13.5908 11.464 14.2932 9.76827 14.2932 8.00016C14.2932 6.23205 13.5908 4.53636 12.3406 3.28612C11.0903 2.03588 9.39465 1.3335 7.62654 1.3335ZM7.62654 5.3335C7.44973 5.3335 7.28016 5.40373 7.15514 5.52876C7.03011 5.65378 6.95988 5.82335 6.95988 6.00016V8.00016C6.95988 8.17697 7.03011 8.34654 7.15514 8.47157C7.28016 8.59659 7.44973 8.66683 7.62654 8.66683H8.95988C9.13669 8.66683 9.30626 8.59659 9.43128 8.47157C9.55631 8.34654 9.62654 8.17697 9.62654 8.00016C9.62654 7.82335 9.55631 7.65378 9.43128 7.52876C9.30626 7.40373 9.13669 7.3335 8.95988 7.3335H8.29321V6.00016C8.29321 5.82335 8.22297 5.65378 8.09795 5.52876C7.97292 5.40373 7.80335 5.3335 7.62654 5.3335Z" fill="#646B8B" />
</svg>
    