<svg width="17" height="17" viewBox="0 0 17 17" fill="none" xmlns="http://www.w3.org/2000/svg">
<path d="M5.83332 14.5H3.16666C2.98985 14.5 2.82028 14.4298 2.69525 14.3047C2.57023 14.1797 2.49999 14.0101 2.49999 13.8333V11.1667C2.49999 10.9899 2.42975 10.8203 2.30473 10.6953C2.1797 10.5702 2.01013 10.5 1.83332 10.5C1.65651 10.5 1.48694 10.5702 1.36192 10.6953C1.23689 10.8203 1.16666 10.9899 1.16666 11.1667V13.8333C1.16666 14.3638 1.37737 14.8725 1.75244 15.2476C2.12752 15.6226 2.63622 15.8333 3.16666 15.8333H5.83332C6.01013 15.8333 6.1797 15.7631 6.30473 15.6381C6.42975 15.5131 6.49999 15.3435 6.49999 15.1667C6.49999 14.9899 6.42975 14.8203 6.30473 14.6953C6.1797 14.5702 6.01013 14.5 5.83332 14.5ZM15.1667 10.5C14.9898 10.5 14.8203 10.5702 14.6953 10.6953C14.5702 10.8203 14.5 10.9899 14.5 11.1667V13.8333C14.5 14.0101 14.4298 14.1797 14.3047 14.3047C14.1797 14.4298 14.0101 14.5 13.8333 14.5H11.1667C10.9898 14.5 10.8203 14.5702 10.6953 14.6953C10.5702 14.8203 10.5 14.9899 10.5 15.1667C10.5 15.3435 10.5702 15.5131 10.6953 15.6381C10.8203 15.7631 10.9898 15.8333 11.1667 15.8333H13.8333C14.3638 15.8333 14.8725 15.6226 15.2475 15.2476C15.6226 14.8725 15.8333 14.3638 15.8333 13.8333V11.1667C15.8333 10.9899 15.7631 10.8203 15.6381 10.6953C15.513 10.5702 15.3435 10.5 15.1667 10.5ZM13.8333 1.16667H11.1667C10.9898 1.16667 10.8203 1.23691 10.6953 1.36193C10.5702 1.48696 10.5 1.65653 10.5 1.83334C10.5 2.01015 10.5702 2.17972 10.6953 2.30474C10.8203 2.42977 10.9898 2.50001 11.1667 2.50001H13.8333C14.0101 2.50001 14.1797 2.57024 14.3047 2.69527C14.4298 2.82029 14.5 2.98986 14.5 3.16667V5.83334C14.5 6.01015 14.5702 6.17972 14.6953 6.30474C14.8203 6.42977 14.9898 6.5 15.1667 6.5C15.3435 6.5 15.513 6.42977 15.6381 6.30474C15.7631 6.17972 15.8333 6.01015 15.8333 5.83334V3.16667C15.8333 2.63624 15.6226 2.12753 15.2475 1.75246C14.8725 1.37739 14.3638 1.16667 13.8333 1.16667ZM1.83332 6.5C2.01013 6.5 2.1797 6.42977 2.30473 6.30474C2.42975 6.17972 2.49999 6.01015 2.49999 5.83334V3.16667C2.49999 2.98986 2.57023 2.82029 2.69525 2.69527C2.82028 2.57024 2.98985 2.50001 3.16666 2.50001H5.83332C6.01013 2.50001 6.1797 2.42977 6.30473 2.30474C6.42975 2.17972 6.49999 2.01015 6.49999 1.83334C6.49999 1.65653 6.42975 1.48696 6.30473 1.36193C6.1797 1.23691 6.01013 1.16667 5.83332 1.16667H3.16666C2.63622 1.16667 2.12752 1.37739 1.75244 1.75246C1.37737 2.12753 1.16666 2.63624 1.16666 3.16667V5.83334C1.16666 6.01015 1.23689 6.17972 1.36192 6.30474C1.48694 6.42977 1.65651 6.5 1.83332 6.5ZM7.16666 3.83334H4.49999C4.32318 3.83334 4.15361 3.90358 4.02859 4.0286C3.90356 4.15362 3.83332 4.32319 3.83332 4.5V7.16667C3.83332 7.34348 3.90356 7.51305 4.02859 7.63808C4.15361 7.7631 4.32318 7.83334 4.49999 7.83334H7.16666C7.34347 7.83334 7.51304 7.7631 7.63806 7.63808C7.76308 7.51305 7.83332 7.34348 7.83332 7.16667V4.5C7.83332 4.32319 7.76308 4.15362 7.63806 4.0286C7.51304 3.90358 7.34347 3.83334 7.16666 3.83334ZM6.49999 6.5H5.16666V5.16667H6.49999V6.5ZM9.83332 7.83334H12.5C12.6768 7.83334 12.8464 7.7631 12.9714 7.63808C13.0964 7.51305 13.1667 7.34348 13.1667 7.16667V4.5C13.1667 4.32319 13.0964 4.15362 12.9714 4.0286C12.8464 3.90358 12.6768 3.83334 12.5 3.83334H9.83332C9.65651 3.83334 9.48694 3.90358 9.36192 4.0286C9.23689 4.15362 9.16666 4.32319 9.16666 4.5V7.16667C9.16666 7.34348 9.23689 7.51305 9.36192 7.63808C9.48694 7.7631 9.65651 7.83334 9.83332 7.83334ZM10.5 5.16667H11.8333V6.5H10.5V5.16667ZM7.16666 9.16667H4.49999C4.32318 9.16667 4.15361 9.23691 4.02859 9.36193C3.90356 9.48696 3.83332 9.65653 3.83332 9.83334V12.5C3.83332 12.6768 3.90356 12.8464 4.02859 12.9714C4.15361 13.0964 4.32318 13.1667 4.49999 13.1667H7.16666C7.34347 13.1667 7.51304 13.0964 7.63806 12.9714C7.76308 12.8464 7.83332 12.6768 7.83332 12.5V9.83334C7.83332 9.65653 7.76308 9.48696 7.63806 9.36193C7.51304 9.23691 7.34347 9.16667 7.16666 9.16667ZM6.49999 11.8333H5.16666V10.5H6.49999V11.8333ZM9.83332 11.1667C10.0101 11.1667 10.1797 11.0964 10.3047 10.9714C10.4298 10.8464 10.5 10.6768 10.5 10.5C10.6768 10.5 10.8464 10.4298 10.9714 10.3047C11.0964 10.1797 11.1667 10.0101 11.1667 9.83334C11.1667 9.65653 11.0964 9.48696 10.9714 9.36193C10.8464 9.23691 10.6768 9.16667 10.5 9.16667H9.83332C9.65651 9.16667 9.48694 9.23691 9.36192 9.36193C9.23689 9.48696 9.16666 9.65653 9.16666 9.83334V10.5C9.16666 10.6768 9.23689 10.8464 9.36192 10.9714C9.48694 11.0964 9.65651 11.1667 9.83332 11.1667ZM12.5 9.16667C12.3232 9.16667 12.1536 9.23691 12.0286 9.36193C11.9036 9.48696 11.8333 9.65653 11.8333 9.83334V11.8333C11.6565 11.8333 11.4869 11.9036 11.3619 12.0286C11.2369 12.1536 11.1667 12.3232 11.1667 12.5C11.1667 12.6768 11.2369 12.8464 11.3619 12.9714C11.4869 13.0964 11.6565 13.1667 11.8333 13.1667H12.5C12.6768 13.1667 12.8464 13.0964 12.9714 12.9714C13.0964 12.8464 13.1667 12.6768 13.1667 12.5V9.83334C13.1667 9.65653 13.0964 9.48696 12.9714 9.36193C12.8464 9.23691 12.6768 9.16667 12.5 9.16667ZM9.83332 11.8333C9.70147 11.8333 9.57257 11.8724 9.46294 11.9457C9.35331 12.0189 9.26786 12.1231 9.2174 12.2449C9.16694 12.3667 9.15374 12.5007 9.17947 12.6301C9.20519 12.7594 9.26868 12.8782 9.36192 12.9714C9.45515 13.0646 9.57394 13.1281 9.70326 13.1539C9.83258 13.1796 9.96663 13.1664 10.0884 13.1159C10.2103 13.0655 10.3144 12.98 10.3876 12.8704C10.4609 12.7608 10.5 12.6319 10.5 12.5C10.5 12.3232 10.4298 12.1536 10.3047 12.0286C10.1797 11.9036 10.0101 11.8333 9.83332 11.8333Z" fill="#F8F9FC"/>
</svg>
