<svg width="25" height="24" viewBox="0 0 25 24" fill="none" xmlns="http://www.w3.org/2000/svg">
<g clip-path="url(#clip0_2913_1421)">
<path fill-rule="evenodd" clip-rule="evenodd" d="M9 2C6.23858 2 4 4.23858 4 7C4 9.76142 6.23858 12 9 12C11.7614 12 14 9.76142 14 7C14 4.23858 11.7614 2 9 2ZM1.96447 15.4645C2.90215 14.5268 4.17392 14 5.5 14H12.5C13.8261 14 15.0979 14.5268 16.0355 15.4645C16.9732 16.4021 17.5 17.6739 17.5 19V21C17.5 21.5523 17.0523 22 16.5 22C15.9477 22 15.5 21.5523 15.5 21V19C15.5 18.2043 15.1839 17.4413 14.6213 16.8787C14.0587 16.3161 13.2956 16 12.5 16H5.5C4.70435 16 3.94129 16.3161 3.37868 16.8787C2.81607 17.4413 2.5 18.2044 2.5 19V21C2.5 21.5523 2.05228 22 1.5 22C0.947715 22 0.5 21.5523 0.5 21V19C0.5 17.6739 1.02678 16.4021 1.96447 15.4645ZM20.5 7C21.0523 7 21.5 7.44772 21.5 8V10H23.5C24.0523 10 24.5 10.4477 24.5 11C24.5 11.5523 24.0523 12 23.5 12H21.5V14C21.5 14.5523 21.0523 15 20.5 15C19.9477 15 19.5 14.5523 19.5 14V12H17.5C16.9477 12 16.5 11.5523 16.5 11C16.5 10.4477 16.9477 10 17.5 10H19.5V8C19.5 7.44772 19.9477 7 20.5 7Z" fill="#110F2A"/>
</g>
<defs>
<clipPath id="clip0_2913_1421">
<rect width="24" height="24" fill="white" transform="translate(0.5)"/>
</clipPath>
</defs>
</svg>
