<svg width="16" height="16" viewBox="0 0 16 16" fill="none" xmlns="http://www.w3.org/2000/svg">
    <path d="M9.33317 9.50117V14.6665H2.6665C2.6663 13.8524 2.85245 13.0491 3.2107 12.3181C3.56895 11.5871 4.0898 10.9478 4.73332 10.4492C5.37684 9.95059 6.12595 9.60593 6.92327 9.4416C7.72059 9.27727 8.54494 9.29765 9.33317 9.50117ZM7.99984 8.6665C5.78984 8.6665 3.99984 6.8765 3.99984 4.6665C3.99984 2.4565 5.78984 0.666504 7.99984 0.666504C10.2098 0.666504 11.9998 2.4565 11.9998 4.6665C11.9998 6.8765 10.2098 8.6665 7.99984 8.6665ZM11.9998 11.3332V9.33317H13.3332V11.3332H15.3332V12.6665H13.3332V14.6665H11.9998V12.6665H9.99984V11.3332H11.9998Z" fill="#4338CA" />
</svg>
    