<svg width="17" height="17" viewBox="0 0 17 17" fill="none" xmlns="http://www.w3.org/2000/svg">
<path fill-rule="evenodd" clip-rule="evenodd" d="M9.73461 1.91602C9.77131 1.62235 9.61003 1.33964 9.33855 1.2218C9.06707 1.10395 8.7504 1.17918 8.56094 1.40654L1.89427 9.40654C1.72867 9.60526 1.69297 9.88184 1.80269 10.1161C1.91241 10.3504 2.14774 10.5 2.40642 10.5H7.65123L7.07824 15.084C7.04153 15.3776 7.20282 15.6604 7.47429 15.7782C7.74577 15.896 8.06244 15.8208 8.2519 15.5935L14.9186 7.59345C15.0842 7.39473 15.1199 7.11815 15.0101 6.88389C14.9004 6.64964 14.6651 6.5 14.4064 6.5H9.16161L9.73461 1.91602ZM8.40642 9.16666H3.82978L8.12953 4.00697L7.7449 7.08397C7.72118 7.27372 7.78009 7.46451 7.90664 7.60787C8.03319 7.75122 8.2152 7.83333 8.40642 7.83333H12.6601C11.2919 9.29826 9.74779 10.4448 8.93132 11.009L9.06794 9.91602C9.09166 9.72628 9.03276 9.53548 8.90621 9.39213C8.77966 9.24877 8.59764 9.16666 8.40642 9.16666Z" fill="#ECFDF5"/>
</svg>
