<svg width="24" height="24" viewBox="0 0 24 24" fill="none" xmlns="http://www.w3.org/2000/svg">
<path fill-rule="evenodd" clip-rule="evenodd" d="M18.5093 4.01311C19.4608 3.53739 20.6173 3.9377 21.0711 4.8998L23.5541 10.1643C23.9697 11.0454 23.6496 12.0981 22.8138 12.5987L21.333 13.4857L21.3191 13.5026L20.4032 15.4293C20.3302 15.5827 20.2195 15.715 20.0813 15.8137L14.0659 20.1104C13.1282 20.7802 11.8677 20.7769 10.9336 20.1022L2.91454 14.3107C2.80442 14.2311 2.71477 14.1327 2.64737 14.0227L1.15699 13.13C0.321242 12.6294 0.00113963 11.5767 0.416723 10.6956L2.89976 5.43105C3.35353 4.46895 4.51008 4.06864 5.46152 4.54436L7.106 5.36661L9.67189 4.26694C10.1245 4.07298 10.6217 4.00722 11.1091 4.07685L16.7657 4.88493L18.5093 4.01311ZM12.9397 6.35867L10.8263 6.05675C10.702 6.03899 10.5752 6.05576 10.4597 6.10523L7.73064 7.27484L4.77458 13.187L12.1046 18.4809C12.3428 18.6529 12.6643 18.6538 12.9034 18.4829L17.8017 14.9842L15.6246 12.8879L14.8817 13.6028C13.4098 15.0191 11.1007 15.0789 9.55748 13.7406L7.84485 12.2555C7.62534 12.0651 7.49947 11.7887 7.5 11.4982C7.50053 11.2076 7.6274 10.9317 7.8476 10.7421L12.9397 6.35867ZM18.4264 10.5825L19.3701 12.7242L18.9143 13.279L16.3185 10.7796C15.9313 10.4069 15.3188 10.4068 14.9315 10.7794L13.4949 12.1616C12.7687 12.8605 11.6292 12.89 10.8678 12.2296L10.0296 11.5028L14.5895 7.57745L16.4942 7.14158L18.4264 10.5825Z" fill="#047857"/>
</svg>
