<svg width="24" height="25" viewBox="0 0 24 25" fill="none" xmlns="http://www.w3.org/2000/svg">
<path d="M23 20.5V14.5H17" stroke="#110F2A" stroke-width="2" stroke-linecap="round" stroke-linejoin="round"/>
<path d="M1 4.5V10.5H7" stroke="#110F2A" stroke-width="2" stroke-linecap="round" stroke-linejoin="round"/>
<path d="M20.49 9.50008C19.9828 8.06686 19.1209 6.78548 17.9845 5.77549C16.8482 4.76551 15.4745 4.05984 13.9917 3.72433C12.5089 3.38883 10.9652 3.43442 9.50481 3.85685C8.04437 4.27928 6.71475 5.06479 5.64 6.14008L1 10.5001M23 14.5001L18.36 18.8601C17.2853 19.9354 15.9556 20.7209 14.4952 21.1433C13.0348 21.5657 11.4911 21.6113 10.0083 21.2758C8.52547 20.9403 7.1518 20.2346 6.01547 19.2247C4.87913 18.2147 4.01717 16.9333 3.51 15.5001" stroke="#110F2A" stroke-width="2" stroke-linecap="round" stroke-linejoin="round"/>
</svg>
