<svg width="16" height="17" viewBox="0 0 16 17" fill="none" xmlns="http://www.w3.org/2000/svg">
    <path
        d="M9.64115 2.16208C10.167 1.94418 10.7307 1.83203 11.2999 1.83203C11.8691 1.83203 12.4328 1.94418 12.9587 2.16208C13.4845 2.37994 13.9622 2.69923 14.3645 3.10173C14.767 3.5041 15.0866 3.98204 15.3044 4.50782C15.5223 5.03369 15.6345 5.59735 15.6345 6.16658C15.6345 6.73582 15.5223 7.29947 15.3044 7.82535C15.0865 8.35117 14.7672 8.82893 14.3647 9.23132L8.47132 15.1247C8.21097 15.385 7.78886 15.385 7.52851 15.1247L1.63518 9.23132C0.82236 8.4185 0.365723 7.31608 0.365723 6.16658C0.365723 5.01708 0.82236 3.91466 1.63518 3.10184C2.448 2.28902 3.55042 1.83239 4.69992 1.83239C5.84942 1.83239 6.95184 2.28902 7.76465 3.10184L7.99992 3.33711L8.23507 3.10195C8.63746 2.6994 9.11532 2.37996 9.64115 2.16208Z"
        fill="#110F2A" />
</svg>
    