<svg width="24" height="24" viewBox="0 0 24 24" fill="none" xmlns="http://www.w3.org/2000/svg">
<path fill-rule="evenodd" clip-rule="evenodd" d="M10.75 1C5.36522 1 1 5.36522 1 10.75C1 16.1348 5.36522 20.5 10.75 20.5C13.0822 20.5 15.2232 19.6811 16.901 18.3153L21.2928 22.707C21.6833 23.0975 22.3165 23.0975 22.707 22.707C23.0975 22.3164 23.0975 21.6833 22.707 21.2928L18.3153 16.901C19.6811 15.2232 20.5 13.0822 20.5 10.75C20.5 5.36522 16.1348 1 10.75 1ZM3 10.75C3 6.46979 6.46979 3 10.75 3C15.0302 3 18.5 6.46979 18.5 10.75C18.5 13.9855 16.5173 16.7579 13.7006 17.9185C13.8534 17.3765 13.9352 16.8046 13.9352 16.2137C13.9352 12.7506 11.1277 9.94312 7.66459 9.94312C5.85963 9.94312 4.23279 10.7057 3.0887 11.9263C3.03029 11.5427 3 11.1499 3 10.75Z" fill="#110F2A"/>
</svg>
