<svg width="24" height="24" viewBox="0 0 24 24" fill="none" xmlns="http://www.w3.org/2000/svg">
    <path d="M21.7099 20.29L17.9999 16.61C19.44 14.8144 20.1374 12.5353 19.9487 10.2413C19.76 7.9473 18.6996 5.81278 16.9854 4.27664C15.2713 2.7405 13.0337 1.91951 10.7328 1.98247C8.43194 2.04543 6.24263 2.98756 4.61505 4.61514C2.98747 6.24272 2.04534 8.43203 1.98237 10.7329C1.91941 13.0338 2.74041 15.2714 4.27655 16.9855C5.81269 18.6997 7.94721 19.7601 10.2412 19.9488C12.5352 20.1375 14.8143 19.4401 16.6099 18L20.2899 21.68C20.3829 21.7737 20.4935 21.8481 20.6153 21.8989C20.7372 21.9497 20.8679 21.9758 20.9999 21.9758C21.1319 21.9758 21.2626 21.9497 21.3845 21.8989C21.5063 21.8481 21.6169 21.7737 21.7099 21.68C21.8901 21.4935 21.9909 21.2443 21.9909 20.985C21.9909 20.7257 21.8901 20.4765 21.7099 20.29ZM10.9999 18C9.61544 18 8.26206 17.5895 7.11091 16.8203C5.95977 16.0511 5.06256 14.9579 4.53275 13.6788C4.00293 12.3997 3.86431 10.9922 4.13441 9.63436C4.4045 8.2765 5.07119 7.02922 6.05016 6.05025C7.02912 5.07128 8.27641 4.4046 9.63427 4.1345C10.9921 3.8644 12.3996 4.00303 13.6787 4.53284C14.9578 5.06265 16.051 5.95986 16.8202 7.111C17.5894 8.26215 17.9999 9.61553 17.9999 11C17.9999 12.8565 17.2624 14.637 15.9497 15.9497C14.6369 17.2625 12.8564 18 10.9999 18Z" fill="#110F2A" />
</svg>
    