<svg width="16" height="17" viewBox="0 0 16 17" fill="none" xmlns="http://www.w3.org/2000/svg">
    <path fill-rule="evenodd" clip-rule="evenodd"
        d="M7.16669 1.16675C3.57684 1.16675 0.666687 4.0769 0.666687 7.66675C0.666687 11.2566 3.57684 14.1667 7.16669 14.1667C8.72149 14.1667 10.1488 13.6208 11.2674 12.7103L14.1952 15.6381C14.4556 15.8984 14.8777 15.8984 15.138 15.6381C15.3984 15.3777 15.3984 14.9556 15.138 14.6952L12.2102 11.7674C13.1208 10.6489 13.6667 9.22155 13.6667 7.66675C13.6667 4.0769 10.7565 1.16675 7.16669 1.16675ZM2.00002 7.66675C2.00002 4.81328 4.31322 2.50008 7.16669 2.50008C10.0202 2.50008 12.3334 4.81328 12.3334 7.66675C12.3334 9.82374 11.0116 11.672 9.13378 12.4458C9.23564 12.0844 9.29014 11.7032 9.29014 11.3092C9.29014 9.00045 7.41852 7.12882 5.10975 7.12882C3.90644 7.12882 2.82188 7.63723 2.05915 8.45096C2.02021 8.19523 2.00002 7.93335 2.00002 7.66675Z"
        fill="#F8F9FC" />
</svg>
    