<svg width="16" height="16" viewBox="0 0 16 16" fill="none" xmlns="http://www.w3.org/2000/svg">
    <path
        d="M3 1.5C3.36819 1.5 3.66666 1.79848 3.66666 2.16667L3.66666 8C3.66666 8.36819 3.36819 8.66667 3 8.66667C2.63181 8.66667 2.33333 8.36819 2.33333 8L2.33333 2.16667C2.33333 1.79848 2.63181 1.5 3 1.5Z"
        fill="currentColor" />
    <path
        d="M8 14.5C7.63181 14.5 7.33333 14.2015 7.33333 13.8333L7.33333 8C7.33333 7.63181 7.63181 7.33333 8 7.33333C8.36819 7.33333 8.66666 7.63181 8.66666 8L8.66666 13.8333C8.66666 14.2015 8.36819 14.5 8 14.5Z"
        fill="currentColor" />
    <path
        d="M13.6667 2.16667C13.6667 1.79848 13.3682 1.5 13 1.5C12.6318 1.5 12.3333 1.79848 12.3333 2.16667L12.3333 8C12.3333 8.36819 12.6318 8.66667 13 8.66667C13.3682 8.66667 13.6667 8.36819 13.6667 8L13.6667 2.16667Z"
        fill="currentColor" />
    <path
        d="M3.66666 12H4.66666C5.03485 12 5.33333 11.7015 5.33333 11.3333C5.33333 10.9651 5.03485 10.6667 4.66666 10.6667H1.33333C0.965141 10.6667 0.666664 10.9651 0.666664 11.3333C0.666664 11.7015 0.965141 12 1.33333 12H2.33333L2.33333 13.8333C2.33333 14.2015 2.63181 14.5 3 14.5C3.36819 14.5 3.66666 14.2015 3.66666 13.8333V12Z"
        fill="currentColor" />
    <path
        d="M5.66666 4.66667C5.66666 4.29848 5.96514 4 6.33333 4H7.33333V2.16667C7.33333 1.79848 7.63181 1.5 8 1.5C8.36819 1.5 8.66666 1.79848 8.66666 2.16667V4H9.66666C10.0349 4 10.3333 4.29848 10.3333 4.66667C10.3333 5.03486 10.0349 5.33333 9.66666 5.33333H6.33333C5.96514 5.33333 5.66666 5.03486 5.66666 4.66667Z"
        fill="currentColor" />
    <path
        d="M11.3333 10.6667C10.9651 10.6667 10.6667 10.9651 10.6667 11.3333C10.6667 11.7015 10.9651 12 11.3333 12H12.3333V13.8333C12.3333 14.2015 12.6318 14.5 13 14.5C13.3682 14.5 13.6667 14.2015 13.6667 13.8333V12H14.6667C15.0349 12 15.3333 11.7015 15.3333 11.3333C15.3333 10.9651 15.0349 10.6667 14.6667 10.6667H11.3333Z"
        fill="currentColor" />
</svg>