<svg width="16" height="17" viewBox="0 0 16 17" fill="none" xmlns="http://www.w3.org/2000/svg">
    <path fill-rule="evenodd" clip-rule="evenodd" d="M2.66667 7.83301C3.03486 7.83301 3.33333 8.13148 3.33333 8.49967V13.833C3.33333 14.0098 3.40357 14.1794 3.5286 14.3044C3.65362 14.4294 3.82319 14.4997 4 14.4997H12C12.1768 14.4997 12.3464 14.4294 12.4714 14.3044C12.5964 14.1794 12.6667 14.0098 12.6667 13.833V8.49967C12.6667 8.13148 12.9651 7.83301 13.3333 7.83301C13.7015 7.83301 14 8.13148 14 8.49967V13.833C14 14.3634 13.7893 14.8721 13.4142 15.2472C13.0391 15.6223 12.5304 15.833 12 15.833H4C3.46957 15.833 2.96086 15.6223 2.58579 15.2472C2.21071 14.8721 2 14.3634 2 13.833V8.49967C2 8.13148 2.29848 7.83301 2.66667 7.83301Z" fill="black" />
    <path fill-rule="evenodd" clip-rule="evenodd" d="M7.52868 1.36225C7.78903 1.1019 8.21114 1.1019 8.47149 1.36225L11.1382 4.02892C11.3985 4.28927 11.3985 4.71138 11.1382 4.97173C10.8778 5.23208 10.4557 5.23208 10.1953 4.97173L8.00008 2.77647L5.80482 4.97173C5.54447 5.23208 5.12236 5.23208 4.86201 4.97173C4.60166 4.71138 4.60166 4.28927 4.86201 4.02892L7.52868 1.36225Z" fill="black" />
    <path fill-rule="evenodd" clip-rule="evenodd" d="M7.99992 1.16699C8.36811 1.16699 8.66659 1.46547 8.66659 1.83366V10.5003C8.66659 10.8685 8.36811 11.167 7.99992 11.167C7.63173 11.167 7.33325 10.8685 7.33325 10.5003V1.83366C7.33325 1.46547 7.63173 1.16699 7.99992 1.16699Z" fill="black" />
</svg>
    