<svg xmlns="http://www.w3.org/2000/svg" width="343" height="248" fill="none" viewBox="0 0 343 248">
    <g filter="url(#a)">
        <rect width="298" height="203.5" x="22.5" y="15" fill="#fff" rx="10.4" />
        <g clip-path="url(#b)">
            <path fill="#110F2A" d="M44.5 44.4h-.3l.6 4.1c1 .4 2.5.6 4 .6a6 6 0 0 0 4-1.3c1-.7 1.4-1.7 1.4-2.8 0-2.2-1.8-3.2-3.7-4.1-1-.5-2-1-2.7-1.7-.6-.6-.8-1.1-.8-2 0-1.5 1.2-2.4 2.2-2.6.8.1 1.6.7 2.5 1.5a10 10 0 0 1 1.9 2.6h.3l-.4-4a12 12 0 0 0-4-.6c-1.4 0-2.6.4-3.5 1.1-1 .7-1.5 1.8-1.5 3.1 0 1.2.6 2 1.2 2.8a11 11 0 0 0 3 1.9 9 9 0 0 1 2.6 1.9c.3.3.4.6.4 1.1 0 1.4-1 2.3-2.4 2.6-.8-.1-1.7-.5-2.8-1.5a8 8 0 0 1-2-2.7ZM57 37.7h.2l1.2-.6c.4-.3.9-.7.9-1.3a1 1 0 0 0-1.2-1c-1 0-1.5.7-1.5 1.4 0 .6.2 1.1.4 1.5Zm-1.7 11v.2h5.4v-.2c-.6-.2-1-.5-1.2-1A6 6 0 0 1 59 45v-1l.1-3.3v-1.4L59 39c-.3 0-1.3.6-2 1l-1.7.9v.2h.5c.4 0 .7.2.9.7a11.6 11.6 0 0 1-.3 6.2c-.2.4-.6.6-1 .7Zm10 5a9 9 0 0 0 4.1-1c1-.5 1.6-1.2 1.6-2 0-.9-.3-1.5-1-2s-2-.8-3.6-1l-1.3-.2 1.2-.6 2.2-1.4a3.4 3.4 0 0 0-.8-5.6l2.6.2c.5 0 1-.3 1-.8 0-.8-.5-1.4-1.3-1.4s-1.4 1.3-2.7 1.7c-.3-.1-.8-.3-1.3-.3-1.1 0-2.2.5-3 1.2-.7.7-1.2 1.6-1.2 2.7a3 3 0 0 0 1.2 2.3 7 7 0 0 0 2.6 1.3l-3.2 1.7v.2l1.8.3c-1.7.5-3.3 1.3-3.3 2.5 0 .6.4 1.1 1 1.5.9.4 2 .7 3.4.7Zm.7-7.2a3.9 3.9 0 0 1-1.8-3.5c0-1.8.7-2.8 1.5-3.3.7.4 1.6 1.4 1.6 3.3 0 1.7-.5 2.8-1.3 3.5Zm-.4 6.7c-1.6-.1-2.6-.9-2.6-1.9 0-1 .7-1.7 1.8-2.2h.4c1.4.3 2.2.5 2.8.9.4.3.6.7.6 1.1 0 1.3-1.3 2-3 2.1Zm6-4.5v.2H77v-.2c-.8-.2-1.1-.8-1.3-1.4-.2-.6-.3-1.8-.3-3.5v-2.3c.6-.4 1.1-.6 1.6-.6.8 0 1.5.2 1.8 1 .2.8.2 1.8.2 2.7 0 1 0 2-.2 2.9a2 2 0 0 1-1.2 1.2v.2H83v-.2c-.5-.1-.8-.3-1.1-.7-.3-.4-.4-.8-.4-1.4l-.2-2.7-.1-2.5c-.2-1.4-.9-2-2.2-2-1.1 0-2.3.7-3.6 1.7v-2h-.2c-.3 0-1.2.4-1.6.7l-2 1v.3h.4c.4 0 .7.2.9.6.2.6.3 1.5.3 2.7l-.1 1.9c0 .4-.1 1-.4 1.6-.2.5-.6.6-1 .8Zm16.5-4.4a5 5 0 0 0 1.5 3.6 4.7 4.7 0 0 0 5.7.5 5 5 0 0 0 2.4-4.2 4.8 4.8 0 0 0-4.6-4.9 5 5 0 0 0-5 5Zm7 .3c0 2-.8 3.9-1.9 4-1.5-.3-2.5-2.3-2.5-4.8 0-2 .6-3.8 1.9-4 1.4 0 2.4 2.2 2.4 4.8Zm3.7 4v.3h5.4v-.2c-.8-.2-1.2-.8-1.3-1.4-.2-.6-.3-1.8-.3-3.5v-2.3c.5-.4 1-.6 1.6-.6.8 0 1.5.2 1.7 1 .3.8.3 1.8.3 2.7 0 1 0 2-.3 2.9-.2.7-.6 1-1.1 1.2v.2h5.4v-.2c-.5-.1-.8-.3-1-.7a3 3 0 0 1-.5-1.4l-.1-2.7-.1-2.5c-.2-1.4-1-2-2.2-2-1.1 0-2.3.7-3.6 1.7v-2h-.3c-.2 0-1.2.4-1.6.7l-2 1v.3h.5c.4 0 .7.2.8.6.3.6.3 1.5.3 2.7v1.9c0 .4-.1 1-.4 1.6-.2.5-.6.6-1.1.8Zm20.9-2.2-.3-.2c-.6 1-1.6 1.6-2.7 1.6-.8 0-1.6-.3-2-1-.7-.6-1-1.5-1-2.8 0-2.3.5-3.9 1.6-4.3.5 0 .9.5 1.2 1.1.6 1.2 1 1.6 1.6 1.6.6 0 1.2-.6 1.2-1.3 0-.6-.7-1-1.5-1.4-.7-.3-1.5-.4-2.3-.4-2.6 0-4.4 2.3-4.4 5 0 1.6.5 2.8 1.4 3.6.8.8 1.9 1.2 3.1 1.2 2 0 3.4-1.6 4-2.7Zm3.9-2.4v-.4l5.6-.1V43c-.3-1.8-1.5-3.7-3.8-3.7-2.6 0-4.4 2.4-4.4 4.8 0 2.1.7 3.5 2 4.4.7.4 1.6.6 2.5.6 2 0 3.4-1.7 4-2.6l-.2-.1c-.8.9-1.6 1.4-2.7 1.4-1.7 0-3-1.3-3-3.8Zm1.6-4.3c1 0 1.5 1.8 1.6 3.3l-3.2.2c.1-2 .6-3.1 1.6-3.5Zm12.6 9.4c1.1 0 2-.7 2.8-1.4.2.8.8 1.4 1.1 1.4.3 0 .8-.3 1.2-.6l1.3-1v-.2h-.4a.9.9 0 0 1-.8-.5c-.2-.4-.3-1-.3-1.9v-3c0-.6-.1-1.2-.4-1.6a2 2 0 0 0-1.8-1c-.8 0-1.3.3-2 .8l-1 .7c-1 .6-1.8 1.2-1.8 1.7 0 .6.6 1 1.3 1 .4 0 .7-.2.8-.6v-2h.7c1 0 1.6.5 1.8 1.4l.2 1.4v.6c-1.9.5-4.3 1-5 1.4l-.2 1c0 1.4 1 2.4 2.5 2.4Zm1.5-1.3c-.8 0-1.6-.5-1.6-1.5 0-.7.5-1 2.2-1.5l.6-.1v2.7a2 2 0 0 1-1.2.4Zm5.3.9v.2h5.4v-.2c-.8-.2-1.2-.8-1.4-1.4l-.2-3.5v-2.3c.5-.4 1-.6 1.6-.6.8 0 1.5.2 1.7 1 .3.8.3 1.8.3 2.7 0 1 0 2-.3 2.9-.2.7-.6 1-1.1 1.2v.2h5.4v-.2c-.5-.1-.8-.3-1-.7a3 3 0 0 1-.5-1.4l-.1-2.7c0-1 0-1.9-.2-2.5-.1-1.4-.8-2-2.1-2-1.1 0-2.3.7-3.6 1.7v-2h-.3c-.2 0-1.2.4-1.6.7l-2 1v.3h.5c.4 0 .7.2.8.6.3.6.3 1.5.3 2.7v1.9c0 .4-.1 1-.4 1.6-.2.5-.6.6-1.1.8Zm19 .3.3.1c.4 0 1.2-.4 1.6-.7l1.7-.8v-.3h-.3c-.3 0-.6 0-.8-.4-.3-.4-.4-1.5-.4-2.8v-.6a1321.3 1321.3 0 0 1-.1-11h-.2c-.3 0-1.2.4-1.8.9l-2.1 1v.2c.6 0 1 .2 1.3.6.3.3.4.9.5 2.3v2.3c-.5-.3-1-.5-1.8-.5a5 5 0 0 0-4.6 5.1 5 5 0 0 0 .9 3.2c.7 1 1.7 1.5 2.8 1.5 1 0 2.1-.8 2.8-1.5.1 1 .2 1.3.3 1.4Zm-.2-8.4v6.5c-.5.5-1 .6-1.4.6-.7 0-1.4-.4-1.8-1-.5-.7-.7-1.6-.7-2.7 0-2.5.8-3.8 1.8-4.3h.4c.6 0 1.3.4 1.7.9Zm8.3 8v.3h5.9v-.2c-1-.2-1.6-.7-1.8-1.2-.3-.7-.3-2-.3-3v-.7c0-1.1.4-1.8.7-2h.3l2 .2c.5 0 .8-.3.8-.8 0-.9-.5-2-1.3-2-.4 0-.7.2-1.1.7l-1.4 2.2v-3h-.2c-.3 0-1.3.5-2 .9l-1.7.9v.2h.5c.4 0 .7.2.9.7.1.4.2 1.2.2 3.1 0 1.7-.1 2.6-.5 3-.2.4-.6.7-1 .8Zm11.4-4.6v-.4l5.6-.1.1-.3V43c-.4-1.8-1.6-3.7-3.8-3.7-2.6 0-4.5 2.4-4.5 4.8 0 2.1.8 3.5 2.1 4.4.7.4 1.6.6 2.5.6 2 0 3.3-1.7 4-2.6l-.2-.1c-.8.9-1.7 1.4-2.8 1.4-1.7 0-3-1.3-3-3.8Zm1.7-4.3c1 0 1.5 1.8 1.6 3.3l-3.2.2c0-2 .6-3.1 1.6-3.5Zm5.2 9v.2h5.3v-.2c-.7-.2-1.1-.8-1.3-1.4-.2-.6-.2-1.8-.2-3.5V34l-.1-1.5-.2-.2c-.3 0-1.2.5-1.6.8-.7.5-1.7.9-2.2 1.1v.3h.4c.4 0 .8.2 1 .6a101 101 0 0 1 .4 6.5v4.6l-.4 1.6c-.3.5-.7.6-1.1.8Zm8.9.4c1 0 2-.7 2.8-1.4.2.8.8 1.4 1.1 1.4.3 0 .8-.3 1.2-.6l1.3-1v-.2h-.4a.9.9 0 0 1-.8-.5c-.2-.4-.3-1-.3-1.9v-3c0-.6-.1-1.2-.4-1.6a2 2 0 0 0-1.8-1c-.8 0-1.3.3-2 .8l-1 .7c-1 .6-1.8 1.2-1.8 1.7 0 .6.6 1 1.3 1 .4 0 .7-.2.8-.6v-2h.7c1 0 1.6.5 1.8 1.4l.2 1.4v.6c-1.9.5-4.3 1-5 1.4-.2.2-.2.6-.2 1 0 1.4 1 2.4 2.5 2.4Zm1.4-1.3c-.8 0-1.5-.5-1.5-1.5 0-.7.5-1 2.2-1.5l.6-.1v2.7a2 2 0 0 1-1.3.4Zm5 .9v.2h4.3v-.2c-.5-.2-1-.6-1-1.2 0-.7.6-1.7 1.4-2.6l.5.7 1.3 2.2c0 .5-.5.8-1 1v.1a137.3 137.3 0 0 1 5.4 0v-.2a2 2 0 0 1-1-.6l-1.7-1.9-1.7-2.3a59.6 59.6 0 0 1 4.2-4.2v-.2h-4.2v.2c.5.2 1 .6 1 1.2 0 .8-.5 1.7-1.3 2.6l-1.3-1.8-.3-.8c0-.5.3-1 .9-1.2v-.2a69.8 69.8 0 0 1-5.3 0v.2l1.1.8 1.3 1.6 1.8 2.4-2.6 2.9c-.6.6-1.2 1-1.7 1.3Z" />
            <path fill="#474A69" d="M44.3 73.9V65h1.4v7.7h4v1.2h-5.4Zm9.6 0c-.6 0-1.2 0-1.6-.3-.5-.3-.9-.7-1.1-1.2a4 4 0 0 1-.4-1.8c0-.7.1-1.3.4-1.8.2-.5.6-1 1-1.2a3.3 3.3 0 0 1 2.7-.3 2.6 2.6 0 0 1 1.6 1.6c.2.5.3 1 .3 1.6v.4h-5.3v-1h4c0-.3 0-.6-.2-.8a1.6 1.6 0 0 0-1.4-.9c-.4 0-.7 0-1 .3-.3.1-.5.4-.6.7a2 2 0 0 0-.2.9v.7c0 .5 0 .9.2 1.2l.7.7 1 .2h.6l.5-.4.4-.5 1.2.2c0 .4-.3.7-.5 1l-1 .6-1.3.2Zm7.4-6.7v1h-3.6v-1h3.6Zm-2.6-1.6H60v6.9l.4.2h.8l.2 1.1h-.3a2.5 2.5 0 0 1-1.4 0l-.8-.6-.2-1v-6.6Zm11.5 5.5v-3.9h1.3V74h-1.3v-1.2a2 2 0 0 1-.8.9c-.3.2-.8.3-1.3.3-.4 0-.8 0-1-.2a2 2 0 0 1-.9-.9 3 3 0 0 1-.2-1.4v-4.2h1.3v4c0 .5 0 .9.3 1.2.3.2.6.4 1 .4A1.6 1.6 0 0 0 70 72c.2-.2.3-.5.3-.9Zm8-2.3L77 69l-.2-.4-.5-.3-.6-.1c-.4 0-.7 0-1 .2l-.3.6c0 .2 0 .4.2.6l.8.3 1 .2c.7.2 1.2.4 1.5.7.3.3.4.7.4 1.1 0 .4-.1.8-.3 1.1l-1 .7c-.4.2-.9.3-1.4.3a3 3 0 0 1-1.8-.5 2 2 0 0 1-.9-1.4l1.3-.1c0 .3.2.5.4.7.3.2.6.2 1 .2s.7 0 1-.2c.3-.2.4-.4.4-.7 0-.2-.1-.4-.3-.5l-.7-.3-1-.3c-.7-.1-1.2-.3-1.5-.6-.3-.3-.4-.7-.4-1.2 0-.4.1-.7.3-1 .3-.3.6-.6 1-.7a3.1 3.1 0 0 1 3 .2c.4.3.6.7.8 1.2Zm4.7 5v-6.6h1.3v1l.7-.8a2 2 0 0 1 1-.3 5.5 5.5 0 0 1 .6 0v1.3h-.7l-.8.1a1.4 1.4 0 0 0-.8 1.3v4H83Zm7.3.2c-.6 0-1.2-.2-1.7-.4a3 3 0 0 1-1-1.2 4 4 0 0 1-.4-1.8c0-.7.1-1.3.4-1.8.2-.5.6-1 1-1.2a3.3 3.3 0 0 1 2.7-.3 2.6 2.6 0 0 1 1.6 1.6c.2.5.3 1 .3 1.6v.4h-5.3v-1h4c0-.3 0-.6-.2-.8a1.6 1.6 0 0 0-1.4-.9c-.4 0-.7 0-1 .3-.3.1-.5.4-.6.7a2 2 0 0 0-.2.9v.7c0 .5 0 .9.2 1.2l.7.7 1 .2h.6l.5-.4.4-.5 1.2.2-.5 1-1 .6-1.3.2Zm4.3-.1v-6.7h1.3v1.1c.2-.4.4-.7.7-.9a2 2 0 0 1 1.1-.3c.5 0 .9.1 1.2.3.3.2.5.5.6.9l.8-.9c.4-.2.8-.3 1.3-.3.6 0 1 .2 1.5.6.3.4.5 1 .5 1.7v4.5h-1.3v-4.4c0-.4 0-.8-.3-1-.3-.2-.6-.3-1-.3-.3 0-.7.2-.9.4-.2.3-.3.6-.3 1V74h-1.3v-4.5a1 1 0 0 0-.4-.8c-.2-.2-.5-.4-.8-.4l-.7.2c-.2.2-.4.3-.5.6l-.2.8v4h-1.3Zm13.6 0c-.6 0-1.2 0-1.7-.3a3 3 0 0 1-1-1.2 4 4 0 0 1-.4-1.8c0-.7 0-1.3.3-1.8s.7-1 1.1-1.2a3.3 3.3 0 0 1 2.7-.3 2.6 2.6 0 0 1 1.6 1.6c.2.5.3 1 .3 1.6v.4h-5.3v-1h4c0-.3 0-.6-.2-.8a1.6 1.6 0 0 0-1.5-.9c-.3 0-.6 0-1 .3-.2.1-.4.4-.5.7a2 2 0 0 0-.2.9v.7c0 .5 0 .9.2 1.2.1.3.4.5.6.7l1 .2h.7l.5-.4.4-.5 1.2.2-.5 1-1 .6-1.3.2Zm4.3 0v-6.7h1.2v1.1h.1c.2-.4.4-.7.7-.9a2 2 0 0 1 1.1-.3c.5 0 .8.1 1.1.3.3.2.6.5.7.9.2-.4.5-.6.8-.9.4-.2.8-.3 1.3-.3.6 0 1 .2 1.4.6.4.4.6 1 .6 1.7v4.5h-1.3v-4.4c0-.4 0-.8-.3-1-.3-.2-.6-.3-1-.3-.3 0-.7.2-.9.4-.2.3-.3.6-.3 1V74h-1.3v-4.5a1 1 0 0 0-.4-.8c-.2-.2-.5-.4-.8-.4l-.7.2c-.2.2-.4.3-.5.6l-.2.8v4h-1.3Zm10.9 0V65h1.2v3.3h.1l.3-.5.6-.5a2 2 0 0 1 1-.2 2.6 2.6 0 0 1 2.5 1.6c.2.5.3 1.1.3 1.8a5 5 0 0 1-.3 1.9 4 4 0 0 1-1 1.2c-.4.2-1 .4-1.5.4-.4 0-.7 0-1-.2l-.5-.5-.4-.5v1h-1.3Zm1.2-3.4c0 .5 0 1 .2 1.3l.6.8c.3.2.6.3 1 .3a2 2 0 0 0 1-.3c.2-.2.4-.5.5-.9l.2-1.2c0-.4 0-.8-.2-1.1-.1-.4-.3-.7-.6-.9-.2-.2-.6-.3-1-.3l-.9.3c-.3.2-.5.5-.6.8l-.2 1.2Zm9.1 3.5c-.6 0-1.2-.2-1.7-.4a3 3 0 0 1-1-1.2 4 4 0 0 1-.4-1.8c0-.7 0-1.3.3-1.8s.7-1 1.1-1.2a3.2 3.2 0 0 1 2.7-.3 2.6 2.6 0 0 1 1.6 1.6c.2.5.3 1 .3 1.6v.4h-5.3v-1h4c0-.3 0-.6-.2-.8a1.6 1.6 0 0 0-1.5-.9c-.3 0-.6 0-1 .3-.2.1-.4.4-.5.7a2 2 0 0 0-.2.9v.7c0 .5 0 .9.2 1.2.1.3.4.5.6.7l1 .2h.7l.5-.4.4-.5 1.2.2-.5 1-1 .6-1.3.2Zm4.3-.1v-6.7h1.3v1c.1-.3.4-.6.7-.8.3-.2.6-.3 1-.3a5.5 5.5 0 0 1 .6 0v1.3h-.7l-.8.1a1.4 1.4 0 0 0-.8 1.3v4h-1.3Zm8.7 2.4a2.7 2.7 0 0 1-.9-.1l.3-1h.7c.2 0 .3 0 .5-.2l.3-.6.2-.5-2.4-6.7h1.3l1.7 5.2h.1l1.7-5.2h1.4l-2.8 7.5a3 3 0 0 1-.5 1c-.1.2-.4.3-.7.5l-.9.1Zm8.6-2.3a2.9 2.9 0 0 1-2.7-1.6 4 4 0 0 1-.3-1.8c0-.7 0-1.3.3-1.8a2.9 2.9 0 0 1 2.7-1.7 2.9 2.9 0 0 1 2.7 1.6c.3.6.4 1.2.4 1.9a4 4 0 0 1-.3 1.8 2.9 2.9 0 0 1-2.8 1.6Zm0-1.1c.5 0 .8-.1 1-.3.3-.2.5-.5.6-.9.2-.3.2-.7.2-1.1 0-.5 0-.9-.2-1.2 0-.4-.3-.7-.5-.9-.3-.2-.6-.3-1-.3-.5 0-.8.1-1 .3a2 2 0 0 0-.7.9l-.1 1.2c0 .4 0 .8.2 1.1 0 .4.3.7.5.9.3.2.6.3 1 .3Zm8.8-1.8v-3.9h1.3V74H164v-1.2a2 2 0 0 1-.8.9c-.3.2-.7.3-1.2.3s-.8 0-1.2-.2a2 2 0 0 1-.7-.9 3 3 0 0 1-.3-1.4v-4.2h1.3v4c0 .5.1.9.3 1.2.3.2.6.4 1 .4a1.6 1.6 0 0 0 1.3-.8c.2-.2.3-.5.3-.9Zm8.2 2.9c-.5 0-.8 0-1.2-.2a2 2 0 0 1-.8-.7 2 2 0 0 1-.3-1.1l.2-1 .6-.5c.3-.2.5-.3.8-.3l1-.2 1-.1.5-.2.1-.3c0-.4 0-.7-.3-1l-1-.2c-.4 0-.7 0-1 .3l-.5.6-1.2-.3a2.3 2.3 0 0 1 1.6-1.5 3.8 3.8 0 0 1 2 0c.3 0 .6.1.8.3.3.1.5.4.7.7.2.3.2.7.2 1.1V74h-1.2v-1l-.4.5a2 2 0 0 1-.7.4l-1 .2Zm.2-1c.4 0 .7-.1 1-.3a1.5 1.5 0 0 0 .7-1.2v-.9l-.2.1a4.2 4.2 0 0 1-1 .2 50.2 50.2 0 0 0-1 .2c-.2 0-.4.2-.5.3-.2.2-.2.4-.2.6 0 .3.1.6.3.7.3.2.6.3 1 .3Zm6-3v3.9h-1.2v-6.7h1.2v1.1c.2-.4.5-.6.8-.9.3-.2.7-.3 1.2-.3s.9.1 1.2.3c.4.2.6.5.8.9.2.3.3.8.3 1.3V74h-1.3v-4.1c0-.5-.1-.9-.4-1.1-.2-.3-.6-.5-1-.5l-.8.2-.5.6c-.2.3-.2.6-.2 1Zm8.5 4a2.6 2.6 0 0 1-2.4-1.6c-.2-.5-.4-1.1-.4-1.9 0-.7.2-1.3.4-1.8s.6-.9 1-1.2c.4-.2.9-.4 1.4-.4l1 .2.6.5.3.5h.1V65h1.3v9h-1.3v-1l-.4.4a1.9 1.9 0 0 1-1.6.7Zm.3-1.1c.4 0 .7-.1 1-.3l.5-.8c.2-.4.2-.8.2-1.3 0-.4 0-.8-.2-1.2-.1-.3-.3-.6-.6-.8-.2-.2-.5-.3-.9-.3s-.7.1-1 .3l-.6.9-.2 1.1.2 1.2.6.9c.3.2.6.3 1 .3Zm13-4-1.1.1-.3-.4-.4-.3-.7-.1c-.3 0-.6 0-.9.2l-.3.6c0 .2 0 .4.2.6l.8.3 1 .2a3 3 0 0 1 1.4.7c.3.3.5.7.5 1.1 0 .4-.2.8-.4 1.1-.2.3-.5.5-1 .7-.3.2-.8.3-1.3.3-.8 0-1.4-.2-1.9-.5a2 2 0 0 1-.8-1.4l1.2-.1c0 .3.3.5.5.7.2.2.6.2 1 .2s.7 0 1-.2c.2-.2.3-.4.3-.7 0-.2 0-.4-.2-.5l-.7-.3-1.1-.3c-.6-.1-1.1-.3-1.4-.6-.3-.3-.4-.7-.4-1.2 0-.4 0-.7.3-1 .2-.3.5-.6.9-.7.4-.2.8-.3 1.3-.3.7 0 1.3.2 1.7.5.4.3.7.7.8 1.2Zm2.8 2.7V70h.2l2.6-2.8h1.6l-3 3.2h-.2l-1.2 1.2Zm-1.2 2.3V65h1.3v9h-1.3Zm4.2 0-2.4-3.2.9-.9 3 4H206Zm2.6 0v-6.7h1.2V74h-1.2Zm.6-7.7c-.2 0-.4 0-.6-.2a.7.7 0 0 1-.2-.6c0-.2 0-.4.2-.5.2-.2.4-.2.6-.2.2 0 .4 0 .6.2l.2.5c0 .2 0 .4-.2.6l-.6.2Zm2.4 10.1v-9h1.2v1h.2l.3-.5.6-.5a2 2 0 0 1 1-.2 2.6 2.6 0 0 1 2.4 1.6c.2.5.3 1.1.3 1.8 0 .8 0 1.4-.3 1.9s-.6.9-1 1.2c-.4.2-.9.4-1.4.4-.4 0-.8 0-1-.2l-.6-.5c-.2-.2-.3-.3-.3-.5h-.1v3.5h-1.3Zm1.2-5.8c0 .5.1 1 .3 1.3 0 .3.3.6.5.8.3.2.6.3 1 .3s.7-.1 1-.3c.2-.2.4-.5.5-.9.2-.3.2-.7.2-1.2 0-.4 0-.8-.2-1.1 0-.4-.3-.7-.5-.9-.3-.2-.6-.3-1-.3s-.7.1-1 .3l-.6.8-.2 1.2Zm14.5-1.7-1.2.2-.2-.4-.4-.3-.7-.1c-.4 0-.7 0-1 .2l-.3.6c0 .2 0 .4.2.6l.8.3 1.1.2 1.4.7c.3.3.4.7.4 1.1 0 .4-.1.8-.3 1.1l-1 .7c-.4.2-.9.3-1.4.3-.7 0-1.4-.2-1.8-.5a2 2 0 0 1-.9-1.4l1.3-.1c0 .3.2.5.4.7.3.2.6.2 1 .2s.8 0 1-.2c.3-.2.4-.4.4-.7 0-.2 0-.4-.2-.5l-.8-.3-1-.3c-.7-.1-1.2-.3-1.4-.6-.3-.3-.5-.7-.5-1.2 0-.4.1-.7.3-1 .3-.3.6-.6 1-.7.3-.2.8-.3 1.3-.3.7 0 1.3.2 1.7.5.4.3.6.7.8 1.2Zm1.5 5v-6.6h1.3V74h-1.3Zm.7-7.6c-.2 0-.4 0-.6-.2a.7.7 0 0 1-.2-.6c0-.2 0-.4.2-.5.2-.2.4-.2.6-.2.2 0 .4 0 .6.2l.2.5c0 .2 0 .4-.2.6l-.6.2Zm5.1 10.3c-.5 0-1 0-1.3-.2l-1-.6-.5-.7 1.1-.5.3.4.6.4.9.1a2 2 0 0 0 1.2-.3c.3-.3.4-.6.4-1.2v-1.3l-.4.5-.6.5-1 .2c-.5 0-1-.2-1.4-.4-.4-.3-.7-.6-1-1.1a4 4 0 0 1-.3-1.8c0-.7 0-1.3.3-1.8s.6-.9 1-1.2c.4-.2 1-.4 1.5-.4l1 .2.5.5.4.5v-1h1.3V74c0 .6-.1 1-.4 1.4-.2.4-.6.6-1 .8-.5.2-1 .3-1.6.3Zm0-3.8c.4 0 .7-.1 1-.3l.6-.7.2-1.2-.2-1.2-.6-.8c-.3-.2-.6-.3-1-.3s-.7.1-1 .3l-.5.8c-.2.4-.2.8-.2 1.2 0 .4 0 .8.2 1.1.1.4.3.6.6.8.2.2.5.3 1 .3Zm6-2.8v4h-1.2v-6.7h1.2v1.1c.2-.4.5-.6.8-.9.3-.2.7-.3 1.2-.3s.9.1 1.2.3c.4.2.6.5.8.9.2.3.3.8.3 1.3V74h-1.3v-4.1c0-.5-.1-.9-.4-1.1-.2-.3-.6-.5-1-.5l-.8.2-.5.6c-.2.3-.2.6-.2 1Zm6 4v-6.7h1.3V74h-1.3Zm.7-7.7c-.2 0-.4 0-.6-.2a.7.7 0 0 1-.2-.6c0-.2 0-.4.2-.5.2-.2.4-.2.6-.2.2 0 .4 0 .6.2l.2.5c0 .2 0 .4-.2.6l-.6.2Zm3.7 3.7v4h-1.3v-6.7h1.2v1.1c.2-.4.5-.6.8-.9.3-.2.7-.3 1.2-.3s.9.1 1.2.3c.4.2.6.5.8.9.2.3.3.8.3 1.3V74h-1.3v-4.1c0-.5-.1-.9-.4-1.1-.2-.3-.6-.5-1-.5l-.8.2-.5.6c-.2.3-.2.6-.2 1Zm8.7 6.6c-.5 0-1 0-1.3-.2l-1-.6-.5-.7 1.1-.5.3.4c.1.2.3.3.6.4l.8.1a2 2 0 0 0 1.2-.3c.4-.3.5-.6.5-1.2v-1.3l-.4.5-.6.5-1 .2c-.5 0-1-.2-1.4-.4-.4-.3-.7-.6-1-1.1a4 4 0 0 1-.4-1.8c0-.7.2-1.3.4-1.8s.6-.9 1-1.2c.4-.2.9-.4 1.4-.4l1 .2.6.5.3.5h.1v-1h1.3V74c0 .6-.1 1-.4 1.4-.3.4-.6.6-1 .8-.5.2-1 .3-1.6.3Zm0-3.8c.4 0 .7-.1 1-.3l.5-.7c.2-.4.2-.8.2-1.2 0-.5 0-.8-.2-1.2l-.5-.8c-.3-.2-.6-.3-1-.3s-.7.1-1 .3l-.6.8-.2 1.2.2 1.1.6.8c.3.2.6.3 1 .3ZM47.1 92c-.7 0-1.2-.2-1.7-.4-.5-.3-.8-.7-1.1-1.2a4 4 0 0 1-.4-1.8c0-.7.1-1.3.4-1.8.3-.5.6-1 1-1.2a3.3 3.3 0 0 1 2.7-.3 2.6 2.6 0 0 1 1.7 1.6l.2 1.6v.4h-5.2v-1h4l-.2-.8a1.6 1.6 0 0 0-1.5-.9c-.4 0-.7 0-1 .3l-.6.7a2 2 0 0 0-.2.9v.7c0 .5 0 .9.2 1.2l.7.7 1 .2h.7l.5-.4.3-.5 1.2.2c0 .4-.2.7-.5 1l-1 .6-1.2.2Zm9.7-6.8L54.4 92h-1.3l-2.5-6.7H52l1.7 5.1 1.8-5h1.3Zm3.9 6.8c-.7 0-1.2-.2-1.7-.4-.5-.3-.8-.7-1-1.2a4 4 0 0 1-.5-1.8c0-.7.2-1.3.4-1.8.3-.5.6-1 1-1.2a3.3 3.3 0 0 1 2.7-.3 2.6 2.6 0 0 1 1.7 1.6c.2.5.2 1 .2 1.6v.4h-5.2v-1h4l-.2-.8a1.6 1.6 0 0 0-1.5-.9c-.4 0-.7 0-1 .3l-.6.7a2 2 0 0 0-.2.9v.7c0 .5.1.9.3 1.2.1.3.3.5.6.7l1 .2h.7l.5-.4c.1-.1.3-.3.3-.5l1.3.2a2 2 0 0 1-.6 1l-1 .6-1.2.2Zm4.3-.1v-6.7h1.2v1l.7-.8a2 2 0 0 1 1-.3 5.5 5.5 0 0 1 .6 0v1.3h-.7l-.8.1a1.4 1.4 0 0 0-.7 1.3v4H65Zm5.7 2.4a2.7 2.7 0 0 1-1-.1l.4-1h.6c.2 0 .4 0 .5-.2l.4-.6.1-.5-2.4-6.7h1.4l1.7 5.2 1.7-5.2h1.4l-2.7 7.5a3 3 0 0 1-.5 1l-.7.5-1 .1Zm9.1-9v1h-3.6v-1h3.6Zm-2.6-1.7h1.3v6.9l.4.2h.8l.2 1.1h-.3a2.5 2.5 0 0 1-1.4 0l-.8-.6-.2-1v-6.6Zm5.5 4.3v4h-1.3V83h1.3v3.3c.2-.4.4-.6.8-.9.3-.2.7-.3 1.2-.3s.9.1 1.2.3c.4.2.6.5.8.8.2.4.3.9.3 1.4V92h-1.3v-4.1c0-.5-.1-.9-.4-1.1-.2-.3-.6-.5-1-.5l-.8.2-.6.6-.2 1Zm6 4v-6.7H90V92h-1.3Zm.7-7.7c-.3 0-.5 0-.6-.2a.7.7 0 0 1-.2-.6c0-.2 0-.4.2-.5.1-.2.3-.2.6-.2.2 0 .4 0 .5.2.2.1.3.3.3.5l-.3.6-.5.2Zm3.6 3.7v4h-1.3v-6.7H93v1.1c.2-.4.5-.6.8-.9.3-.2.7-.3 1.2-.3s.9.1 1.2.3c.4.2.6.5.8.9.2.3.3.8.3 1.3V92H96v-4.1c0-.5-.1-.9-.4-1.1-.2-.3-.6-.5-1-.5l-.8.2-.6.6-.2 1Zm8.8 6.6c-.5 0-1 0-1.4-.2l-.9-.6-.5-.7 1-.5.4.4.5.4 1 .1a2 2 0 0 0 1.1-.3c.3-.3.5-.6.5-1.2v-1.3l-.4.5-.6.5-1 .2c-.5 0-1-.2-1.4-.4-.4-.3-.8-.6-1-1.1a4 4 0 0 1-.4-1.8c0-.7.1-1.3.4-1.8a3 3 0 0 1 1-1.2c.4-.2.9-.4 1.4-.4l1 .2.6.5.3.5h.1v-1h1.3V92c0 .6-.1 1-.4 1.4-.3.4-.6.6-1 .8-.5.2-1 .3-1.6.3Zm0-3.8c.4 0 .7-.1 1-.3l.5-.7.2-1.2c0-.5 0-.8-.2-1.2-.1-.3-.3-.6-.6-.8-.2-.2-.5-.3-1-.3l-.9.3-.6.8-.2 1.2c0 .4 0 .8.2 1.1l.6.8c.3.2.6.3 1 .3Zm8.8 3.6a2.7 2.7 0 0 1-1-.1l.4-1h.6c.2 0 .4 0 .5-.2l.4-.6.1-.5-2.4-6.7h1.4l1.7 5.2 1.7-5.2h1.4l-2.7 7.5a3 3 0 0 1-.5 1l-.7.5-1 .1Zm8.6-2.3a2.9 2.9 0 0 1-2.7-1.6 4 4 0 0 1-.4-1.8c0-.7.1-1.3.4-1.8a2.9 2.9 0 0 1 2.7-1.7 2.9 2.9 0 0 1 2.7 1.6c.3.6.4 1.2.4 1.9a4 4 0 0 1-.4 1.8 2.9 2.9 0 0 1-2.7 1.6Zm0-1.1c.4 0 .7-.1 1-.3.3-.2.5-.5.6-.9l.2-1.1c0-.5 0-.9-.2-1.2-.1-.4-.3-.7-.6-.9-.3-.2-.6-.3-1-.3s-.7.1-1 .3a2 2 0 0 0-.6.9l-.2 1.2c0 .4 0 .8.2 1.1.1.4.3.7.6.9.3.2.6.3 1 .3Zm8.7-1.8v-3.9h1.3V92H128v-1.2h-.1a2 2 0 0 1-.7.9c-.4.2-.8.3-1.3.3-.4 0-.8 0-1.1-.2a2 2 0 0 1-.8-.9 3 3 0 0 1-.3-1.4v-4.2h1.3v4c0 .5.1.9.4 1.2.3.2.6.4 1 .4a1.6 1.6 0 0 0 1.3-.8c.2-.2.2-.5.2-.9Zm8.8 2.9a2.6 2.6 0 0 1-2.4-1.6c-.3-.5-.4-1.1-.4-1.9 0-.7.1-1.3.4-1.8.2-.5.5-.9 1-1.2.4-.2.8-.4 1.4-.4l1 .2.6.5.3.5V83h1.4v9h-1.3v-1h-.1l-.4.4a1.9 1.9 0 0 1-1.5.7Zm.3-1.1.9-.3c.3-.2.4-.5.6-.8l.2-1.3c0-.4 0-.8-.2-1.2-.1-.3-.3-.6-.6-.8-.3-.2-.6-.3-1-.3a2 2 0 0 0-1 .3 2 2 0 0 0-.5.9l-.2 1.1c0 .5 0 .9.2 1.2.1.4.3.7.6.9.2.2.6.3 1 .3Zm7.6 1a2.9 2.9 0 0 1-2.7-1.6 4 4 0 0 1-.4-1.7c0-.7.1-1.3.4-1.8a2.9 2.9 0 0 1 2.7-1.7 2.9 2.9 0 0 1 2.7 1.6c.3.6.4 1.2.4 1.9a4 4 0 0 1-.4 1.8 2.9 2.9 0 0 1-2.7 1.6Zm0-1c.4 0 .7-.1 1-.3.3-.2.5-.5.6-.9l.2-1.1c0-.5 0-.9-.2-1.2-.1-.4-.3-.7-.6-.9-.3-.2-.6-.3-1-.3s-.7.1-1 .3a2 2 0 0 0-.6.9l-.2 1.2c0 .4 0 .8.2 1.1.1.4.3.7.6.9.3.2.6.3 1 .3Zm10.5 1a2.9 2.9 0 0 1-2.7-1.6 4 4 0 0 1-.4-1.7c0-.7.2-1.3.4-1.8a2.9 2.9 0 0 1 2.7-1.7 2.9 2.9 0 0 1 2.7 1.6c.3.6.4 1.2.4 1.9a4 4 0 0 1-.4 1.8 2.9 2.9 0 0 1-2.7 1.6Zm0-1c.4 0 .8-.1 1-.3.3-.2.5-.5.6-.9.2-.3.2-.7.2-1.1 0-.5 0-.9-.2-1.2 0-.4-.3-.7-.6-.9-.2-.2-.6-.3-1-.3s-.7.1-1 .3a2 2 0 0 0-.6.9l-.1 1.2.1 1.1.6.9c.3.2.6.3 1 .3Zm5.9-3v4h-1.3v-6.7h1.2v1.1h.1l.7-.9c.3-.2.8-.3 1.3-.3.4 0 .8.1 1.1.3.4.2.6.5.8.9.2.3.3.8.3 1.3V92H164v-4.1c0-.5-.1-.9-.4-1.1-.2-.3-.5-.5-1-.5l-.8.2-.5.6c-.2.3-.2.6-.2 1Zm9.3-4.9h1.6l2.8 6.9h.1l2.8-6.9h1.6v9H178v-6.5h-.1l-2.6 6.4h-1l-2.7-6.4V92h-1.3v-9Zm12.7 9c-.4 0-.8 0-1.1-.2a2 2 0 0 1-.8-.7 2 2 0 0 1-.3-1.1c0-.4 0-.7.2-1 .1-.2.3-.4.6-.5.2-.2.5-.3.8-.3l1-.2.9-.1.5-.2.2-.3c0-.4-.1-.7-.3-1l-1-.2c-.4 0-.8 0-1 .3l-.5.6-1.2-.3a2.3 2.3 0 0 1 1.6-1.5 3.8 3.8 0 0 1 2 0c.3 0 .5.1.8.3.3.1.5.4.6.7.2.3.3.7.3 1.1V92H185v-1l-.4.5a2 2 0 0 1-.6.4l-1 .2Zm.3-1a2 2 0 0 0 1-.3 1.5 1.5 0 0 0 .7-1.2v-.9l-.3.1a4.2 4.2 0 0 1-1 .2 50.2 50.2 0 0 0-1 .2c-.2 0-.4.2-.5.3l-.2.6c0 .3.2.6.4.7.2.2.5.3.9.3Zm4.6.9v-1l3.6-4.5H188v-1.2h5v1l-3.4 4.5h3.6V92h-5.3Zm11-2.8v-3.9h1.3V92H199v-1.2a2 2 0 0 1-.8.9c-.3.2-.7.3-1.2.3-.4 0-.8 0-1.1-.2a2 2 0 0 1-.8-.9 3 3 0 0 1-.3-1.4v-4.2h1.3v4c0 .5.1.9.4 1.2.2.2.6.4 1 .4a1.6 1.6 0 0 0 1.3-.8l.2-.9Zm3 2.8v-6.7h1.3v1l.7-.8a2 2 0 0 1 1-.3 5.5 5.5 0 0 1 .6 0v1.3h-.7l-.8.1a1.4 1.4 0 0 0-.8 1.3v4H202Zm5.7 2.4a2.7 2.7 0 0 1-.8-.1l.3-1h.6c.2 0 .3 0 .5-.2l.4-.6.1-.5-2.4-6.7h1.4l1.7 5.2 1.7-5.2h1.4l-2.7 7.5a3 3 0 0 1-.5 1l-.7.5-1 .1Zm6.5-2.4c-.2 0-.4 0-.6-.2a.8.8 0 0 1-.2-.6c0-.3 0-.5.2-.6l.6-.3c.3 0 .5 0 .7.3l.2.6-.1.4-.3.3-.5.1Z" />
        </g>
        <g filter="url(#c)">
            <rect width="256.3" height="38.9" x="43.4" y="110.8" fill="#059669" rx="8" />
            <g clip-path="url(#d)">
                <path stroke="#F8F9FC" stroke-linecap="round" stroke-linejoin="round" stroke-width="1.2" d="m126.1 124.4-5.8 7h5.2l-.6 4.6 5.8-7h-5.2l.6-4.6Z" />
            </g>
            <path fill="#F8F9FC" d="M140.3 134.2v-8.9h3.3c.7 0 1.3.2 1.7.4.5.2.8.6 1 1 .3.4.4.9.4 1.5 0 .5 0 1-.3 1.4-.3.5-.6.8-1 1a4 4 0 0 1-1.8.3h-2.4v-1.3h2.2c.4 0 .7 0 1-.2.2 0 .4-.2.5-.4l.2-.8c0-.4 0-.6-.2-.8-.1-.3-.3-.4-.6-.6l-1-.1H142v7.5h-1.6Zm4.6-4 2.2 4h-1.8l-2.2-4h1.8Zm6 4.1c-.6 0-1.2-.1-1.6-.4-.5-.3-.9-.7-1.2-1.2a4 4 0 0 1-.3-1.8c0-.7 0-1.3.3-1.8a3 3 0 0 1 2.8-1.6c.4 0 .8 0 1.2.2.3 0 .6.3 1 .6l.6 1c.2.4.2 1 .2 1.5v.5h-5.4v-1h4c0-.4-.1-.6-.3-.9 0-.2-.3-.4-.5-.5-.2-.2-.5-.2-.8-.2-.3 0-.6 0-.8.2l-.6.6-.2.8v1c0 .3 0 .7.2 1l.6.6.9.2.6-.1c.2 0 .4-.2.5-.3l.3-.5 1.5.2a2 2 0 0 1-.6 1c-.2.3-.5.5-1 .7l-1.3.2Zm4.4-.1v-6.7h1.4v1.2h.1l.7-1a2 2 0 0 1 1.2-.2c.4 0 .8 0 1 .3.4.2.6.5.8.9.2-.4.4-.7.8-1l1.2-.2a2 2 0 0 1 1.5.5c.4.4.6 1 .6 1.7v4.5H163V130c0-.4 0-.7-.3-1l-.8-.2c-.4 0-.7 0-.9.3-.2.3-.3.6-.3 1v4h-1.5V130c0-.3-.2-.6-.4-.8a1 1 0 0 0-.8-.3l-.6.1-.4.5-.2.7v4h-1.5Zm13.8.1a3 3 0 0 1-1.7-.4c-.5-.3-.9-.7-1.1-1.2a4 4 0 0 1-.4-1.8c0-.7.1-1.3.4-1.8a3 3 0 0 1 2.7-1.6c.4 0 .8 0 1.2.2.3 0 .7.3 1 .6.2.2.5.6.6 1 .2.4.3 1 .3 1.5v.5h-5.5v-1h4l-.2-.9c-.2-.2-.3-.4-.6-.5-.2-.2-.5-.2-.8-.2-.3 0-.6 0-.8.2l-.6.6-.2.8v1l.2 1 .6.6 1 .2.5-.1c.2 0 .4-.2.5-.3.2-.1.3-.3.3-.5l1.5.2-.5 1-1 .7-1.4.2Zm4.3-.1v-6.7h1.5v1.2l.7-1a2 2 0 0 1 1.2-.2c.4 0 .8 0 1.1.3.3.2.6.5.7.9.2-.4.4-.7.8-1l1.2-.2a2 2 0 0 1 1.5.5c.4.4.6 1 .6 1.7v4.5h-1.6V130c0-.4 0-.7-.3-1l-.8-.2c-.4 0-.7 0-.9.3-.2.3-.3.6-.3 1v4h-1.5V130c0-.3-.1-.6-.3-.8a1 1 0 0 0-.8-.3l-.7.1-.4.5-.2.7v4h-1.5Zm11 0v-8.9h1.5v3.3l.4-.5.6-.4a2 2 0 0 1 1-.2 2.5 2.5 0 0 1 2.4 1.5c.2.5.3 1.1.3 1.9 0 .7 0 1.3-.3 1.8s-.6 1-1 1.2c-.4.3-.9.4-1.4.4a1.9 1.9 0 0 1-1.6-.6l-.3-.6h-.1v1h-1.5Zm1.5-3.3c0 .4 0 .8.2 1 .1.4.3.7.5.8.2.2.5.3.9.3.3 0 .6 0 .8-.3l.6-.7.1-1.1-.1-1.1c-.2-.4-.3-.6-.6-.8-.2-.2-.5-.3-.8-.3-.4 0-.7.1-.9.3l-.5.7-.2 1.2Zm9 3.4a3 3 0 0 1-1.7-.4c-.5-.3-.9-.7-1.1-1.2a4 4 0 0 1-.4-1.8c0-.7.1-1.3.4-1.8a3 3 0 0 1 2.7-1.6c.4 0 .8 0 1.2.2.3 0 .7.3 1 .6l.6 1c.2.4.2 1 .2 1.5v.5h-5.4v-1h4l-.2-.9-.6-.5c-.2-.2-.5-.2-.8-.2-.3 0-.6 0-.8.2l-.6.6-.2.8v1c0 .3 0 .7.2 1l.6.6 1 .2.5-.1c.2 0 .4-.2.5-.3.2-.1.3-.3.3-.5l1.5.2-.5 1-1 .7-1.4.2Zm4.3-.1v-6.7h1.5v1.1a1.7 1.7 0 0 1 1.7-1.2 4 4 0 0 1 .6 0v1.5h-.4a3 3 0 0 0-.4 0l-.7.1c-.3.1-.4.3-.6.5l-.2.8v3.9h-1.5Zm7.8 0v-6.7h1.5v1.2c.2-.4.4-.7.8-1a2 2 0 0 1 1.1-.2c.5 0 .8 0 1.1.3.4.2.6.5.7.9l.8-1 1.3-.2a2 2 0 0 1 1.5.5c.3.4.5 1 .5 1.7v4.5h-1.5V130c0-.4-.1-.7-.4-1l-.8-.2c-.3 0-.6 0-.8.3-.3.3-.4.6-.4 1v4H211V130c0-.3-.1-.6-.3-.8a1 1 0 0 0-.8-.3l-.6.1-.5.5-.1.7v4H207Zm13.9.1c-.7 0-1.3-.1-1.8-.4a3 3 0 0 1-1-1.2 4 4 0 0 1-.5-1.8c0-.7.2-1.3.4-1.8a3 3 0 0 1 2.8-1.6c.4 0 .8 0 1.1.2.4 0 .7.3 1 .6.3.2.5.6.7 1l.2 1.5v.5h-5.4v-1h4c0-.4-.2-.6-.3-.9l-.5-.5c-.2-.2-.5-.2-.8-.2-.3 0-.6 0-.8.2l-.6.6-.2.8v1c0 .3 0 .7.2 1l.6.6.9.2.6-.1c.2 0 .3-.2.5-.3l.3-.5 1.4.2c0 .4-.2.7-.5 1-.2.3-.6.5-1 .7l-1.3.2Z" />
        </g>
        <path fill="#949BB8" d="M56.4 163a1 1 0 0 0-.5-.9l-1.1-.2a2 2 0 0 0-.8.1l-.5.4a1 1 0 0 0-.2.6v.4l.4.4.5.2.4.1.8.2.7.3c.3 0 .5.2.7.4.3.1.4.3.6.6l.2.9c0 .4-.1.8-.4 1.1a2 2 0 0 1-1 .8c-.3.2-.8.3-1.4.3-.6 0-1.1-.1-1.5-.3-.4-.2-.8-.4-1-.8-.2-.3-.4-.7-.4-1.1h1.2c0 .2 0 .5.2.6.2.2.4.4.6.4l.9.2c.3 0 .6 0 .8-.2.3 0 .5-.2.6-.4.2-.2.2-.4.2-.7 0-.2 0-.4-.2-.5l-.5-.4a5 5 0 0 0-.7-.2l-.9-.3c-.6-.1-1-.4-1.4-.7-.4-.3-.6-.7-.6-1.3 0-.4.1-.8.4-1.1a2 2 0 0 1 1-.8l1.3-.2c.5 0 1 0 1.4.2l1 .8.3 1h-1.1Zm2.4 5.6v-5.7H60v5.7h-1.2Zm.6-6.6c-.2 0-.4 0-.5-.2a.6.6 0 0 1-.2-.5c0-.2 0-.3.2-.4.1-.2.3-.2.5-.2s.4 0 .5.2l.2.4c0 .2 0 .4-.2.5l-.5.2Zm4.4 8.8c-.4 0-.8 0-1.1-.2-.4 0-.6-.2-.8-.4a2 2 0 0 1-.5-.7l1-.4.2.4.5.3.7.1c.5 0 .8 0 1-.3.4-.2.5-.5.5-1v-1l-.4.3c0 .2-.3.3-.5.4a2 2 0 0 1-.8.2c-.5 0-.9-.1-1.2-.3-.4-.3-.7-.6-.9-1a4.1 4.1 0 0 1 0-3.1c.2-.4.5-.7.9-1 .3-.2.7-.3 1.2-.3.3 0 .6 0 .8.2.2 0 .4.2.5.4.2.1.3.3.3.4h.1v-1h1v5.9c0 .5 0 .9-.2 1.2a2 2 0 0 1-1 .7l-1.3.2Zm0-3.3c.3 0 .6 0 .8-.2.2-.1.4-.3.5-.6l.2-1c0-.4 0-.7-.2-1 0-.3-.3-.6-.5-.7-.2-.2-.5-.3-.8-.3-.3 0-.6.1-.8.3l-.5.7-.2 1c0 .3 0 .7.2 1 0 .2.3.5.5.6.2.2.5.3.8.3Zm5.2-2.3v3.4h-1.1v-5.7h1v.9h.1c.1-.3.3-.6.6-.7a2 2 0 0 1 1-.3c.5 0 .8 0 1.1.2.3.2.5.4.7.8l.2 1.1v3.7h-1V165c0-.4-.2-.8-.4-1-.2-.2-.5-.3-.9-.3l-.7.1-.4.5c-.2.2-.2.5-.2.8Zm5.1 3.4v-5.7h1.1v5.7h-1Zm.6-6.6c-.2 0-.4 0-.5-.2a.6.6 0 0 1-.2-.5c0-.2 0-.3.2-.4.1-.2.3-.2.5-.2s.3 0 .5.2l.2.4-.2.5-.5.2Zm3.1 3.2v3.4h-1.1v-5.7h1v.9h.1c.2-.3.4-.6.7-.7a2 2 0 0 1 1-.3c.4 0 .7 0 1 .2.3.2.5.4.7.8.2.3.2.7.2 1.1v3.7h-1V165c0-.4-.2-.8-.4-1-.2-.2-.5-.3-.9-.3l-.6.1-.5.5-.2.8Zm7.5 5.6c-.4 0-.8 0-1.1-.2-.4 0-.6-.2-.8-.4a2 2 0 0 1-.5-.7l1-.4.2.4.5.3.7.1c.4 0 .8 0 1-.3.3-.2.5-.5.5-1v-1c-.2 0-.3.2-.4.3l-.5.4a2 2 0 0 1-.8.2c-.5 0-.9-.1-1.3-.3l-.8-1c-.2-.4-.3-1-.3-1.5 0-.6 0-1.1.3-1.6l.8-1c.4-.2.8-.3 1.3-.3.3 0 .6 0 .8.2.2 0 .4.2.5.4.2.1.3.3.3.4h.1v-1h1v5.9c0 .5 0 .9-.3 1.2a2 2 0 0 1-.9.7l-1.3.2Zm0-3.3c.3 0 .6 0 .8-.2.2-.1.4-.3.5-.6l.2-1c0-.4 0-.7-.2-1 0-.3-.3-.6-.5-.7-.2-.2-.5-.3-.8-.3-.3 0-.6.1-.8.3l-.5.7-.2 1c0 .3 0 .7.2 1 0 .2.3.5.5.6.2.2.5.3.8.3Zm6.8 1V163h1.1v5.7h-1Zm.6-6.5c-.2 0-.4 0-.5-.2a.6.6 0 0 1-.2-.5c0-.2 0-.3.2-.4.1-.2.3-.2.5-.2s.3 0 .5.2l.2.4c0 .2 0 .4-.2.5l-.5.2Zm6.3 2.3-1 .1-.2-.3a1 1 0 0 0-.4-.3l-.6-.1c-.3 0-.5 0-.7.2-.2.1-.4.3-.4.5s.1.4.3.5l.6.3 1 .2c.5 0 .9.3 1.1.5.3.3.4.6.4 1s-.1.7-.3 1a2 2 0 0 1-.8.5 3 3 0 0 1-1.2.3c-.7 0-1.2-.2-1.6-.4-.4-.3-.6-.7-.7-1.2l1-.2c.1.3.2.5.5.7l.8.2c.3 0 .6-.1.8-.3.3-.1.4-.3.4-.5l-.2-.5-.6-.2-1-.2-1.2-.6c-.2-.3-.4-.6-.4-1s.1-.7.3-.9c.2-.3.5-.5.8-.6l1.1-.2c.6 0 1.1.1 1.5.4.3.3.6.6.7 1Zm5.7 4.4c-.3 0-.7 0-1-.2l-.6-.6c-.2-.3-.3-.6-.3-1 0-.3 0-.5.2-.7.1-.3.3-.4.5-.5.2-.2.4-.3.7-.3l.8-.2h.8l.5-.2.1-.3c0-.3 0-.6-.3-.7-.1-.2-.4-.3-.8-.3-.3 0-.6 0-.8.2-.3.2-.4.4-.5.6l-1-.3a2 2 0 0 1 1.3-1.3 3.2 3.2 0 0 1 1.7 0c.3 0 .5.1.8.3.2.1.4.3.5.6.2.2.2.6.2 1v3.8h-1v-.8l-.4.4c-.2.1-.3.3-.6.3l-.8.2Zm.3-1h.8a1.3 1.3 0 0 0 .6-1.2v-.7h-.2a3.7 3.7 0 0 1-.8.2 56.4 56.4 0 0 0-1 .2 1 1 0 0 0-.4.3l-.1.5c0 .2 0 .4.3.6l.8.2Zm5.1-2.5v3.4h-1v-5.7h1v.9c.2-.3.4-.6.7-.7a2 2 0 0 1 1-.3c.4 0 .7 0 1 .2.3.2.6.4.7.8.2.3.3.7.3 1.1v3.7h-1.2V165c0-.4 0-.8-.3-1-.2-.2-.5-.3-.9-.3l-.6.1-.5.5-.2.8Zm9.6 3.5c-.4 0-.7 0-1-.2l-.7-.6c-.2-.3-.3-.6-.3-1 0-.3 0-.5.2-.7.1-.3.3-.4.5-.5.2-.2.5-.3.7-.3l.8-.2h.8c.3 0 .4-.1.5-.2l.1-.3c0-.3 0-.6-.2-.7-.2-.2-.5-.3-.8-.3-.4 0-.7 0-1 .2l-.4.6-1-.3a2 2 0 0 1 1.4-1.3 3.2 3.2 0 0 1 1.7 0c.2 0 .5.1.7.3.2.1.4.3.5.6.2.2.3.6.3 1v3.8h-1.1v-.8l-.4.4c-.1.1-.3.3-.5.3l-.8.2Zm.2-1h.8a1.3 1.3 0 0 0 .7-1.2v-.7h-.3a3.7 3.7 0 0 1-.8.2h-.3l-.6.2a1 1 0 0 0-.4.3l-.2.5.3.6.8.2Zm7.6-1.5v-3.3h1.1v5.7h-1v-1h-.1c-.1.3-.3.5-.6.7a2 2 0 0 1-1.1.3 1.7 1.7 0 0 1-1.6-1c-.2-.3-.3-.6-.3-1.1v-3.6h1.1v3.5c0 .3.1.6.4.9.2.2.5.3.8.3a1.4 1.4 0 0 0 1.3-1.4Zm5.3-3.3v.9h-3.1v-1h3Zm-2.3-1.4h1.1v5.4l.1.5.3.2h.7l.2 1h-.3a2.2 2.2 0 0 1-1.2-.1l-.7-.5-.2-.9v-5.6Zm4.7 3.7v3.4h-1V161h1v2.8h.1c.1-.3.3-.6.6-.7a2 2 0 0 1 1-.3c.5 0 .8 0 1.1.2.3.2.5.4.7.8l.2 1.1v3.7h-1V165c0-.4-.2-.8-.4-1-.2-.2-.5-.3-.9-.3l-.7.1-.5.5-.2.8Zm7.7 3.5c-.6 0-1-.2-1.5-.4-.4-.2-.7-.6-1-1l-.2-1.6c0-.5 0-1 .3-1.5.2-.4.5-.8.9-1 .4-.3.9-.4 1.4-.4.3 0 .6 0 1 .2a2.3 2.3 0 0 1 1.3 1.3l.2 1.4v.3h-4.5v-.8h3.4c0-.3 0-.5-.2-.8a1.3 1.3 0 0 0-1.2-.7c-.3 0-.6 0-.8.2l-.6.6-.1.8v.7c0 .3 0 .7.2 1 0 .2.3.4.5.5.3.2.5.3.9.3l.5-.1.5-.3.3-.5 1 .2c0 .3-.2.6-.4.8-.2.3-.5.5-.8.6a3 3 0 0 1-1.1.2Zm4.7-3.5v3.4h-1v-5.7h1v.9c.2-.3.4-.6.7-.7a2 2 0 0 1 1-.3c.4 0 .8 0 1 .2.3.2.6.4.7.8.2.3.3.7.3 1.1v3.7h-1.1V165c0-.4-.1-.8-.4-1-.2-.2-.5-.3-.8-.3l-.7.1-.5.5-.2.8Zm7.8-2.3v.9h-3v-1h3Zm-2.3-1.4h1.1v5.4l.1.5.3.2h.7l.2 1h-.3a2.2 2.2 0 0 1-1.2-.1 1 1 0 0 1-.6-.5c-.2-.3-.3-.5-.3-.9v-5.6Zm3.5 7V163h1.1v5.7h-1Zm.6-6.5c-.2 0-.4 0-.5-.2a.6.6 0 0 1-.2-.5c0-.2 0-.3.2-.4.1-.2.3-.2.5-.2s.4 0 .5.2l.2.4c0 .2 0 .4-.2.5l-.5.2Zm4.4 6.7c-.5 0-1-.2-1.4-.4l-1-1-.2-1.6c0-.5 0-1 .3-1.5a2 2 0 0 1 1-1c.3-.3.8-.4 1.3-.4.4 0 .8 0 1.2.2l.8.7.4 1h-1.1c0-.3-.2-.5-.4-.7-.2-.2-.5-.3-.9-.3-.3 0-.5.1-.8.3-.2.1-.4.4-.5.7l-.2 1c0 .4 0 .8.2 1 .1.4.3.6.5.8l.8.2h.6l.4-.4.3-.5h1c0 .3 0 .6-.3 1a2 2 0 0 1-.8.6c-.3.2-.7.3-1.2.3Zm5.2 0c-.4 0-.7 0-1-.2l-.7-.6-.2-1c0-.3 0-.5.2-.7 0-.3.3-.4.5-.5.2-.2.4-.3.7-.3l.8-.2h.8l.5-.2.1-.3c0-.3 0-.6-.3-.7-.2-.2-.4-.3-.8-.3s-.6 0-.9.2l-.4.6-1-.3a2 2 0 0 1 1.3-1.3 3.2 3.2 0 0 1 1.7 0c.3 0 .5.1.7.3.3.1.5.3.6.6l.2 1v3.8h-1v-.8h-.1l-.3.4-.6.3-.8.2Zm.2-1h.8a1.3 1.3 0 0 0 .7-1.2v-.7h-.2a3.8 3.8 0 0 1-.8.2h-.4l-.6.2a1 1 0 0 0-.4.3l-.1.5c0 .2 0 .4.3.6l.7.2Zm6.7-4.8v.9h-3v-1h3Zm-2.2-1.4h1v5.4l.2.5.2.2h.7l.2 1h-.2a2.2 2.2 0 0 1-1.3-.1l-.6-.5c-.2-.3-.2-.5-.2-.9v-5.6Zm3.5 7V163h1v5.7h-1Zm.5-6.5c-.2 0-.3 0-.5-.2a.6.6 0 0 1-.2-.5c0-.2 0-.3.2-.4.2-.2.3-.2.5-.2s.4 0 .5.2c.2 0 .2.2.2.4s0 .4-.2.5l-.5.2Zm4.5 6.7c-.6 0-1-.2-1.4-.4-.4-.2-.7-.6-1-1a4.1 4.1 0 0 1 0-3.1 2.5 2.5 0 0 1 2.4-1.4c.5 0 1 .1 1.3.4.4.2.8.5 1 1a4.1 4.1 0 0 1 0 3.1 2.5 2.5 0 0 1-2.3 1.4Zm0-1c.3 0 .6 0 .8-.2l.5-.8.2-1c0-.3 0-.7-.2-1 0-.3-.3-.5-.5-.7-.2-.2-.5-.3-.8-.3-.4 0-.7.1-1 .3l-.4.7a3 3 0 0 0-.2 1c0 .4 0 .7.2 1 0 .3.3.6.5.8l.9.2Zm5-2.5v3.4h-1.2v-5.7h1.1v.9c.2-.3.4-.6.7-.7a2 2 0 0 1 1-.3c.4 0 .8 0 1 .2.4.2.6.4.7.8.2.3.3.7.3 1.1v3.7h-1.1V165c0-.4-.1-.8-.3-1-.3-.2-.6-.3-1-.3l-.6.1-.5.5-.2.8Zm7.8 3.4v-5.7h1v.9h.2c0-.3.3-.6.5-.7.3-.2.6-.3 1-.3s.7 0 1 .3c.2.1.4.4.5.7h.1c.1-.3.4-.6.6-.7a2 2 0 0 1 1.1-.3c.5 0 1 .2 1.3.5.3.3.5.8.5 1.4v3.9h-1.1v-3.8c0-.3-.2-.6-.4-.8a1 1 0 0 0-.7-.3 1 1 0 0 0-.9.4c-.2.2-.3.5-.3.8v3.7h-1v-3.8a1 1 0 0 0-.3-.8 1 1 0 0 0-.8-.3 1 1 0 0 0-.6.2l-.4.5-.2.6v3.6h-1Zm11.7 0c-.6 0-1 0-1.5-.3-.4-.2-.7-.6-.9-1-.2-.4-.3-1-.3-1.6l.3-1.5a2 2 0 0 1 1-1c.3-.3.8-.4 1.3-.4.3 0 .7 0 1 .2a2.3 2.3 0 0 1 1.3 1.3c.2.4.2.8.2 1.4v.3h-4.5v-.8h3.5l-.2-.8-.5-.5-.8-.2c-.3 0-.6 0-.8.2l-.5.6-.2.8v.7c0 .3 0 .7.2 1 .1.2.3.4.6.5.2.2.5.3.8.3l.6-.1.4-.3c.2-.1.3-.3.3-.5l1 .2c0 .3-.2.6-.4.8-.2.3-.5.5-.8.6a3 3 0 0 1-1.1.2Zm6.3-5.7v.9h-3v-1h3Zm-2.3-1.4h1.2v5.9l.3.2h.7l.2 1h-.3a2.2 2.2 0 0 1-1.2-.1 1 1 0 0 1-.6-.5c-.2-.3-.3-.5-.3-.9v-5.6Zm4.8 3.7v3.4h-1.1V161h1v2.8h.1l.6-.7a2 2 0 0 1 1.1-.3c.4 0 .7 0 1 .2.3.2.6.4.7.8.2.3.3.7.3 1.1v3.7h-1.1V165c0-.4-.2-.8-.4-1-.2-.2-.5-.3-.9-.3l-.7.1-.5.5-.1.8Zm7.5 3.5c-.5 0-1-.2-1.4-.4-.4-.2-.7-.6-.9-1-.2-.5-.3-1-.3-1.6 0-.6 0-1 .3-1.5a2.5 2.5 0 0 1 2.3-1.4c.6 0 1 .1 1.4.4.4.2.7.5 1 1a4.1 4.1 0 0 1 0 3.1 2.5 2.5 0 0 1-2.4 1.4Zm0-1c.4 0 .7 0 .9-.2l.5-.8.2-1c0-.3 0-.7-.2-1l-.5-.7c-.2-.2-.5-.3-.9-.3-.3 0-.6.1-.8.3-.3.2-.4.4-.5.7a3 3 0 0 0-.2 1c0 .4 0 .7.2 1 0 .3.2.6.5.8l.8.2Zm6 1a2.2 2.2 0 0 1-2-1.4c-.2-.4-.3-1-.3-1.6 0-.6 0-1.1.3-1.6l.8-1c.4-.2.8-.3 1.3-.3.3 0 .6 0 .8.2.2 0 .4.2.5.4l.3.4V161h1.2v7.6h-1.1v-1h-.1c0 .2-.2.3-.3.5a1.6 1.6 0 0 1-1.4.6Zm.3-1c.3 0 .6 0 .8-.2l.5-.7.2-1c0-.5 0-.8-.2-1.1-.1-.3-.3-.6-.5-.7-.2-.2-.5-.3-.8-.3-.3 0-.6.1-.8.3-.3.2-.4.4-.5.7-.2.3-.2.6-.2 1s0 .7.2 1c0 .3.2.6.5.8l.8.2Zm8.6 1c-.4 0-.7 0-1-.2l-.7-.6c-.2-.3-.3-.6-.3-1l.2-.7c.1-.3.3-.4.5-.5.2-.2.5-.3.7-.3l.8-.2h.8c.3 0 .4-.1.5-.2.1 0 .2-.1.2-.3 0-.3-.1-.6-.3-.7-.2-.2-.5-.3-.8-.3-.4 0-.7 0-1 .2l-.3.6-1-.3a2 2 0 0 1 1.3-1.3 3.2 3.2 0 0 1 1.7 0c.2 0 .5.1.7.3l.6.6.2 1v3.8h-1.1v-.8l-.4.4c-.1.1-.3.3-.5.3l-.8.2Zm.2-1h.8a1.3 1.3 0 0 0 .7-1.2v-.7h-.3a3.6 3.6 0 0 1-.8.2h-.3l-.6.2a1 1 0 0 0-.4.3l-.2.5.3.6.8.2Zm5.1-2.5v3.4h-1v-5.7h1v.9c.2-.3.4-.6.7-.7a2 2 0 0 1 1-.3c.4 0 .8 0 1 .2.4.2.6.4.7.8.2.3.3.7.3 1.1v3.7h-1.1V165c0-.4-.1-.8-.3-1-.3-.2-.6-.3-1-.3l-.6.1-.5.5-.2.8Zm7.3 3.5a2.2 2.2 0 0 1-2-1.4c-.3-.4-.4-1-.4-1.6 0-.6.1-1.1.3-1.6.2-.4.5-.7.9-1 .3-.2.8-.3 1.2-.3.4 0 .6 0 .9.2.2 0 .3.2.5.4l.2.4h.1V161h1.1v7.6h-1v-1h-.2l-.2.5a1.6 1.6 0 0 1-1.4.6Zm.2-1c.4 0 .6 0 .9-.2l.5-.7.1-1-.1-1.1c-.2-.3-.3-.6-.5-.7-.3-.2-.5-.3-.9-.3-.3 0-.6.1-.8.3l-.5.7-.2 1 .2 1 .5.8.8.2Zm9 1a2.2 2.2 0 0 1-2-1.4c-.2-.4-.3-1-.3-1.6 0-.6.1-1.1.3-1.6.2-.4.5-.7.9-1 .3-.2.7-.3 1.2-.3.3 0 .6 0 .8.2.3 0 .4.2.5.4.2.1.3.3.3.4h.1V161h1.1v7.6h-1v-1h-.2c0 .2-.1.3-.3.5a1.6 1.6 0 0 1-1.3.6Zm.3-1c.3 0 .6 0 .8-.2.3-.2.4-.4.5-.7.2-.3.2-.7.2-1 0-.5 0-.8-.2-1.1 0-.3-.2-.6-.5-.7-.2-.2-.4-.3-.8-.3-.3 0-.6.1-.8.3l-.5.7-.2 1c0 .4 0 .7.2 1l.5.8.8.2Zm6.6 1c-.6 0-1-.2-1.4-.4-.4-.2-.7-.6-1-1-.2-.5-.3-1-.3-1.6 0-.6.1-1 .4-1.5a2.5 2.5 0 0 1 2.3-1.4c.5 0 1 .1 1.4.4.4.2.7.5.9 1 .2.4.3 1 .3 1.5 0 .6 0 1.1-.3 1.6a2.5 2.5 0 0 1-2.3 1.4Zm0-1c.3 0 .6 0 .8-.2.3-.2.4-.5.5-.8.2-.3.2-.6.2-1 0-.3 0-.7-.2-1 0-.3-.2-.5-.5-.7-.2-.2-.5-.3-.8-.3-.4 0-.7.1-.9.3l-.5.7a3 3 0 0 0-.2 1l.2 1 .5.8.9.2Zm6.3 1c-.5 0-1-.2-1.4-.4-.4-.2-.7-.6-1-1-.2-.4-.3-1-.3-1.6l.3-1.5c.3-.4.6-.8 1-1 .3-.3.8-.4 1.3-.4.4 0 .7 0 1 .2a2.3 2.3 0 0 1 1.3 1.3c.2.4.3.8.3 1.4v.3h-4.6v-.8h3.5c0-.3 0-.5-.2-.8l-.5-.5-.8-.2c-.3 0-.5 0-.8.2l-.5.6-.2.8v.7c0 .3 0 .7.2 1 .1.2.3.4.6.5.2.2.5.3.8.3l.6-.1.4-.3c.2-.1.3-.3.3-.5l1 .2c0 .3-.1.6-.4.8-.2.3-.5.5-.8.6a3 3 0 0 1-1 .2Zm8-4.4-1 .1-.3-.3a1 1 0 0 0-.3-.3l-.6-.1c-.3 0-.6 0-.8.2-.2.1-.3.3-.3.5s0 .4.2.5l.7.3.9.2c.5 0 1 .3 1.2.5.2.3.4.6.4 1s-.1.7-.3 1a2 2 0 0 1-.9.5 3 3 0 0 1-1.2.3c-.6 0-1.1-.2-1.5-.4a2 2 0 0 1-.8-1.2l1.1-.2c0 .3.2.5.4.7l.8.2c.4 0 .7-.1.9-.3.2-.1.3-.3.3-.5s0-.3-.2-.5l-.6-.2-1-.2-1.1-.6c-.3-.3-.4-.6-.4-1s0-.7.3-.9c.2-.3.4-.5.8-.6l1-.2c.7 0 1.2.1 1.5.4.4.3.6.6.7 1Zm2.4.9v3.4H280v-5.7h1v.9h.1c.1-.3.3-.6.6-.7a2 2 0 0 1 1-.3c.5 0 .8 0 1.1.2.3.2.5.4.7.8l.2 1.1v3.7h-1V165c0-.4-.2-.8-.4-1-.2-.2-.5-.3-.9-.3l-.7.1-.4.5c-.2.2-.2.5-.2.8Zm6-4.2v2.7h-1V161h1Zm4 1.9v.9h-3v-1h3Zm-2.2-1.4h1v5.4c0 .2 0 .4.2.5l.2.2h.7l.2 1h-.2a2.2 2.2 0 0 1-1.3-.1 1 1 0 0 1-.6-.5c-.2-.3-.2-.5-.2-.9v-5.6Zm-237 23.2c-.4 0-.7 0-1-.2l-.7-.6c-.2-.3-.3-.6-.3-1l.2-.7c.1-.3.3-.4.5-.5.2-.2.5-.3.7-.3l.8-.2h.8c.3 0 .4-.1.5-.2.1 0 .2-.1.2-.3 0-.3-.1-.6-.3-.7-.2-.2-.5-.3-.8-.3-.4 0-.7 0-1 .2l-.3.6-1-.3a2 2 0 0 1 1.3-1.3 3.2 3.2 0 0 1 1.7 0c.2 0 .5.1.7.3l.6.6.2 1v3.8h-1.1v-.8l-.4.4c-.1.1-.3.3-.5.3l-.8.2Zm.2-1h.8a1.3 1.3 0 0 0 .7-1.2v-.7h-.3a3.7 3.7 0 0 1-.8.2h-.3l-.6.2a1 1 0 0 0-.4.3l-.2.5.3.6.8.2Zm7.6-1.5v-3.3H61v5.7h-1.1v-1l-.7.7a2 2 0 0 1-2 0c-.3 0-.6-.3-.7-.6-.2-.4-.3-.7-.3-1.2v-3.6h1.1v3.5c0 .3.2.6.4.9.2.2.5.3.8.3a1.4 1.4 0 0 0 1.3-1.4Zm5.3-3.3v.9h-3.1v-1H65Zm-2.3-1.4h1.1v5.4l.1.5.3.2h.7l.2 1h-.3a2.2 2.2 0 0 1-1.2-.1 1 1 0 0 1-.6-.5c-.2-.3-.3-.5-.3-.9v-5.6Zm4.8 3.7v3.4h-1.2V177h1.1v2.8h.1c.1-.3.3-.6.6-.7a2 2 0 0 1 1-.3c.5 0 .8 0 1.1.2.3.2.5.4.7.8.2.3.2.7.2 1.1v3.7h-1V181c0-.4-.2-.8-.4-1-.2-.2-.5-.3-.9-.3l-.7.1-.5.5-.1.8Zm7.5 3.5c-.5 0-1-.2-1.4-.4-.4-.2-.7-.6-1-1l-.2-1.6c0-.6 0-1 .3-1.5a2.5 2.5 0 0 1 2.3-1.4c.5 0 1 .1 1.4.4.4.2.7.5 1 1 .2.4.3 1 .3 1.5a3 3 0 0 1-.4 1.6 2.5 2.5 0 0 1-2.3 1.4Zm0-1c.4 0 .6 0 .9-.2l.5-.8.1-1-.1-1-.5-.7c-.3-.2-.5-.3-.9-.3l-.9.3-.5.7a3 3 0 0 0-.1 1l.1 1 .5.8 1 .2Zm3.9.9v-5.7h1v.9h.1c.1-.3.3-.6.6-.8l.9-.2a4.6 4.6 0 0 1 .4 0v1h-.5c-.3 0-.5 0-.7.2a1.2 1.2 0 0 0-.7 1v3.6h-1.1Zm4 0v-5.7H84v5.7h-1Zm.6-6.6c-.2 0-.4 0-.5-.2a.6.6 0 0 1-.2-.5c0-.2 0-.3.2-.4.1-.2.3-.2.5-.2.1 0 .3 0 .4.2.2 0 .3.2.3.4s-.1.4-.3.5l-.4.2Zm1.9 6.6v-.8l3-4h-3v-1h4.4v.9l-3 3.8H90v1h-4.5Zm8.1 0c-.5 0-1 0-1.4-.3-.4-.2-.7-.6-1-1-.2-.4-.3-1-.3-1.6 0-.5.1-1 .4-1.5.2-.4.5-.8.9-1 .4-.3.8-.4 1.4-.4.3 0 .6 0 .9.2a2.3 2.3 0 0 1 1.4 1.3l.2 1.4v.3h-4.5v-.8h3.4c0-.3 0-.5-.2-.8a1.3 1.3 0 0 0-1.2-.7c-.3 0-.6 0-.8.2l-.6.6-.2.8v.7l.2 1 .6.5c.2.2.5.3.8.3l.6-.1.5-.3.3-.5 1 .2c0 .3-.2.6-.4.8-.3.3-.5.5-.9.6a3 3 0 0 1-1 .2Zm10-2.4v-3.3h1.2v5.7h-1.1v-1l-.7.7c-.3.2-.6.3-1 .3a1.7 1.7 0 0 1-1.6-1c-.3-.3-.3-.6-.3-1.1v-3.6h1v3.5c0 .3.2.6.4.9.2.2.5.3.8.3a1.4 1.4 0 0 0 1.4-1.4Zm7-2-1 .2-.3-.3a1 1 0 0 0-.3-.3l-.6-.1c-.3 0-.6 0-.8.2-.2.1-.3.3-.3.5s0 .4.2.5l.7.3.9.2c.5 0 .9.3 1.2.5.2.3.3.6.3 1s0 .7-.3 1a2 2 0 0 1-.8.5 3 3 0 0 1-1.2.3c-.6 0-1.1-.2-1.5-.4-.5-.3-.7-.7-.8-1.2l1-.2.5.7.8.2c.4 0 .7-.1.9-.3.2-.1.3-.3.3-.5s0-.3-.2-.5l-.6-.2-1-.2-1.1-.6c-.3-.3-.4-.6-.4-1s0-.7.3-.9c.1-.3.4-.5.7-.6l1.2-.2c.6 0 1 .1 1.4.4.4.3.6.6.7 1Zm6.7-1.3v.9H114v-1h3Zm-2.3-1.4h1.1v5.4l.1.5.2.2h.8l.2 1h-.3a2.2 2.2 0 0 1-1.3-.1l-.6-.5-.2-.9v-5.6Zm5.8 7.2c-.5 0-1-.2-1.4-.4-.4-.2-.7-.6-.9-1-.2-.5-.3-1-.3-1.6 0-.6 0-1 .3-1.5a2.5 2.5 0 0 1 2.3-1.4c.6 0 1 .1 1.4.4.4.2.7.5 1 1 .2.4.3 1 .3 1.5a3 3 0 0 1-.4 1.6 2.5 2.5 0 0 1-2.3 1.4Zm0-1c.4 0 .7 0 .9-.2l.5-.8.2-1-.2-1-.5-.7c-.2-.2-.5-.3-.9-.3-.3 0-.6.1-.8.3-.3.2-.4.4-.5.7a3 3 0 0 0-.2 1c0 .4 0 .7.2 1 0 .3.2.6.5.8l.8.2Zm8.3 1c-.3 0-.7 0-1-.2l-.6-.6c-.2-.3-.3-.6-.3-1 0-.3 0-.5.2-.7.1-.3.3-.4.5-.5.2-.2.4-.3.7-.3l.8-.2h.8l.5-.2.1-.3c0-.3 0-.6-.3-.7-.1-.2-.4-.3-.8-.3-.3 0-.6 0-.8.2-.3.2-.4.4-.5.6l-1-.3a2 2 0 0 1 1.3-1.3 3.2 3.2 0 0 1 1.7 0c.3 0 .5.1.8.3.2.1.4.3.5.6.2.2.2.6.2 1v3.8h-1v-.8l-.4.4c-.2.1-.3.3-.6.3l-.8.2Zm.3-1h.8a1.3 1.3 0 0 0 .6-1.2v-.7h-.2a3.6 3.6 0 0 1-.8.2h-.3l-.6.2a1 1 0 0 0-.5.3l-.1.5c0 .2 0 .4.3.6l.8.2Zm6.4 1c-.5 0-1-.2-1.4-.4l-1-1c-.1-.5-.3-1-.3-1.6 0-.5.2-1 .4-1.5.2-.4.5-.8.9-1 .4-.3.9-.4 1.4-.4.4 0 .8 0 1.1.2a2 2 0 0 1 1.2 1.7h-1l-.4-.7c-.3-.2-.5-.3-.9-.3-.3 0-.6.1-.8.3-.2.1-.4.4-.5.7-.2.3-.2.6-.2 1s0 .8.2 1c0 .4.3.6.5.8l.8.2h.6l.4-.4.3-.5h1a2 2 0 0 1-1.1 1.6l-1.2.3Zm6 0c-.6 0-1.1-.2-1.5-.4l-1-1-.2-1.6c0-.5 0-1 .3-1.5a2 2 0 0 1 1-1c.3-.3.8-.4 1.3-.4.4 0 .8 0 1.2.2l.8.7.4 1h-1.1c0-.3-.2-.5-.4-.7-.2-.2-.5-.3-.9-.3-.3 0-.6.1-.8.3-.2.1-.4.4-.5.7-.2.3-.2.6-.2 1s0 .8.2 1c.1.4.3.6.5.8l.8.2h.6l.4-.4.3-.5h1l-.3 1a2 2 0 0 1-.8.6c-.3.2-.7.3-1.2.3Zm5.9 0c-.6 0-1-.2-1.5-.4-.4-.2-.7-.6-.9-1-.2-.4-.3-1-.3-1.6 0-.5 0-1 .3-1.5a2 2 0 0 1 1-1c.3-.3.8-.4 1.3-.4.3 0 .6 0 1 .2a2.3 2.3 0 0 1 1.3 1.3c.2.4.2.8.2 1.4v.3h-4.5v-.8h3.4l-.1-.8a1.3 1.3 0 0 0-1.3-.7c-.3 0-.6 0-.8.2l-.5.6c-.2.3-.2.5-.2.8v.7c0 .3 0 .7.2 1 .1.2.3.4.6.5.2.2.5.3.8.3l.6-.1.4-.3.3-.5 1 .2c0 .3-.2.6-.4.8-.2.3-.5.5-.8.6a3 3 0 0 1-1.1.2Zm8-4.4-1 .1-.3-.3a1 1 0 0 0-.3-.3l-.6-.1c-.3 0-.6 0-.8.2-.2.1-.3.3-.3.5s0 .4.2.5l.7.3.9.2c.5 0 .9.3 1.1.5.3.3.4.6.4 1s0 .7-.3 1a2 2 0 0 1-.8.5 3 3 0 0 1-1.2.3c-.6 0-1.2-.2-1.6-.4-.4-.3-.6-.7-.7-1.2l1-.2.5.7.8.2c.4 0 .6-.1.9-.3.2-.1.3-.3.3-.5s0-.3-.2-.5l-.6-.2-1-.2-1.2-.6c-.2-.3-.3-.6-.3-1s0-.7.3-.9c.1-.3.4-.5.7-.6l1.2-.2c.6 0 1 .1 1.4.4.4.3.6.6.7 1Zm5.5 0-1 .1-.2-.3a1 1 0 0 0-.4-.3l-.5-.1c-.3 0-.6 0-.8.2-.2.1-.3.3-.3.5s0 .4.2.5l.7.3.9.2c.5 0 .9.3 1.1.5.3.3.4.6.4 1s0 .7-.3 1a2 2 0 0 1-.8.5 3 3 0 0 1-1.2.3c-.6 0-1.2-.2-1.6-.4-.4-.3-.6-.7-.7-1.2l1-.2.5.7.8.2.9-.3c.2-.1.3-.3.3-.5s0-.3-.2-.5l-.6-.2-1-.2-1.2-.6c-.2-.3-.3-.6-.3-1s0-.7.2-.9c.2-.3.5-.5.8-.6l1.2-.2c.6 0 1 .1 1.4.4.4.3.6.6.7 1Zm4.8 6.4a2.3 2.3 0 0 1-.8-.1l.3-1 .5.1.5-.1.3-.6.1-.4-2-5.7h1.1l1.5 4.4 1.5-4.4h1.2l-2.4 6.4c0 .3-.2.6-.4.8l-.6.4a2 2 0 0 1-.8.2Zm7.4-2c-.5 0-1-.2-1.4-.4-.4-.2-.7-.6-1-1-.1-.5-.3-1-.3-1.6 0-.6.2-1 .4-1.5a2.5 2.5 0 0 1 2.3-1.4c.5 0 1 .1 1.4.4.4.2.7.5 1 1l.3 1.5c0 .6-.2 1.1-.4 1.6a2.5 2.5 0 0 1-2.3 1.4Zm0-1c.3 0 .6 0 .9-.2l.5-.8.1-1-.1-1-.5-.7c-.3-.2-.5-.3-.9-.3l-.9.3-.5.7a3 3 0 0 0-.1 1l.1 1 .5.8.9.2Zm7.5-1.5v-3.3h1.1v5.7h-1v-1h-.1l-.7.7c-.3.2-.6.3-1 .3a1.7 1.7 0 0 1-1.6-1c-.2-.3-.3-.6-.3-1.1v-3.6h1v3.5c0 .3.2.6.4.9.2.2.5.3.9.3a1.4 1.4 0 0 0 1.3-1.4Zm2.6 2.4v-5.7h1v.9h.1c.1-.3.3-.6.6-.8l.9-.2a4.6 4.6 0 0 1 .4 0v1h-.5c-.3 0-.5 0-.7.2a1.2 1.2 0 0 0-.7 1v3.6h-1.1Zm9.5-5.7v.9h-3.3v-1h3.3Zm-2.4 5.7v-6.4l.3-.9c.1-.2.3-.4.6-.5l.8-.2a2.5 2.5 0 0 1 1 .2l-.3.9h-.2l-.3-.1c-.3 0-.5 0-.6.2l-.2.6v6.2h-1Zm7.1-2.4v-3.3h1.1v5.7h-1v-1h-.1l-.7.7c-.3.2-.6.3-1 .3a1.7 1.7 0 0 1-1.6-1c-.2-.3-.3-.6-.3-1.1v-3.6h1.1v3.5l.3.9c.2.2.5.3.9.3a1.4 1.4 0 0 0 1-.6c.2-.2.3-.5.3-.8Zm3.7-1v3.4h-1.1v-5.7h1v.9h.1l.6-.7a2 2 0 0 1 1.1-.3c.4 0 .7 0 1 .2.3.2.5.4.7.8.2.3.2.7.2 1.1v3.7h-1V181c0-.4-.2-.8-.4-1-.2-.2-.5-.3-.9-.3l-.7.1-.4.5-.2.8Zm7.3 3.5a2.2 2.2 0 0 1-2.1-1.4c-.2-.4-.3-1-.3-1.6 0-.6 0-1.1.3-1.6l.8-1c.4-.2.8-.3 1.3-.3.3 0 .6 0 .8.2.2 0 .4.2.5.4l.3.4V177h1.2v7.6h-1.1v-1h-.1c0 .2-.2.3-.3.5a1.6 1.6 0 0 1-1.3.6Zm.2-1c.3 0 .6 0 .8-.2l.5-.7.2-1c0-.5 0-.8-.2-1.1-.1-.3-.3-.6-.5-.7-.2-.2-.5-.3-.8-.3-.3 0-.6.1-.8.3-.3.2-.4.4-.5.7l-.2 1c0 .4 0 .7.2 1 0 .3.3.6.5.8l.8.2Zm8.4-3.4-1 .1-.2-.3a1 1 0 0 0-.4-.3l-.5-.1c-.3 0-.6 0-.8.2-.2.1-.3.3-.3.5s0 .4.2.5l.7.3.9.2c.5 0 .9.3 1.1.5.3.3.4.6.4 1s0 .7-.3 1a2 2 0 0 1-.8.5 3 3 0 0 1-1.2.3c-.6 0-1.2-.2-1.6-.4-.4-.3-.6-.7-.7-1.2l1-.2.5.7.8.2c.4 0 .6-.1.9-.3.2-.1.3-.3.3-.5s0-.3-.2-.5l-.6-.2-1-.2-1.2-.6c-.2-.3-.3-.6-.3-1s0-.7.3-.9c.1-.3.4-.5.7-.6l1.2-.2c.6 0 1 .1 1.4.4.4.3.6.6.7 1Zm6.5 4.4c-.5 0-1-.2-1.4-.4-.4-.2-.7-.6-1-1-.1-.5-.3-1-.3-1.6 0-.6.2-1 .4-1.5a2.5 2.5 0 0 1 2.3-1.4c.5 0 1 .1 1.4.4.4.2.7.5 1 1l.2 1.5c0 .6 0 1.1-.3 1.6a2.5 2.5 0 0 1-2.3 1.4Zm0-1c.3 0 .6 0 .9-.2l.5-.8.1-1-.1-1-.5-.7-.9-.3-.9.3-.5.7a3 3 0 0 0-.1 1l.1 1 .5.8.9.2Zm3.9.9v-5.7h1v.9h.1c.1-.3.3-.6.6-.8l.9-.2a4.6 4.6 0 0 1 .4 0v1h-.5c-.3 0-.5 0-.7.2a1.2 1.2 0 0 0-.7 1v3.6h-1.1Zm9.1 0c-.5 0-1 0-1.4-.3-.4-.3-.7-.6-.9-1-.2-.5-.3-1-.3-1.6l.3-1.5a2 2 0 0 1 1-1c.3-.3.8-.4 1.3-.4s.8 0 1.2.2l.8.7.4 1H238c0-.3-.2-.5-.4-.7-.2-.2-.5-.3-.9-.3-.3 0-.5.1-.8.3-.2.1-.4.4-.5.7l-.2 1c0 .4 0 .8.2 1 .1.4.3.6.5.8l.8.2h.6l.5-.4.2-.5h1c0 .3 0 .6-.3 1a2 2 0 0 1-.8.6c-.3.2-.7.3-1.2.3Zm6 0c-.6 0-1 0-1.4-.3-.4-.2-.7-.6-1-1a4.1 4.1 0 0 1 0-3.1 2.5 2.5 0 0 1 2.4-1.4c.5 0 1 .1 1.4.4.3.2.7.5.9 1a4.1 4.1 0 0 1 0 3.1 2.5 2.5 0 0 1-2.3 1.4Zm0-.9c.3 0 .6 0 .8-.2l.5-.8.2-1c0-.3 0-.7-.2-1 0-.3-.3-.5-.5-.7-.2-.2-.5-.3-.8-.3-.4 0-.7.1-1 .3l-.4.7a3 3 0 0 0-.2 1c0 .4 0 .7.2 1l.5.8.9.2Zm5-2.5v3.4h-1.2v-5.7h1.1v.9c.2-.3.4-.6.7-.7a2 2 0 0 1 1-.3c.4 0 .8 0 1 .2.4.2.6.4.7.8.2.3.3.7.3 1.1v3.7h-1.1V181c0-.4-.1-.8-.3-1-.3-.2-.6-.3-1-.3l-.6.1-.5.5-.2.8Zm7.7-2.3v.9h-3v-1h3Zm-2.2-1.4h1v5.4c0 .2 0 .4.2.5l.2.2h.7l.2 1h-.2a2.2 2.2 0 0 1-1.3-.1 1 1 0 0 1-.6-.5c-.2-.3-.2-.5-.2-.9v-5.6Zm3.5 7V179h1v.9l.6-.8 1-.2a4.6 4.6 0 0 1 .4 0v1h-.6c-.2 0-.5 0-.7.2a1.2 1.2 0 0 0-.6 1v3.6h-1.1Zm6.1.2c-.5 0-1-.2-1.4-.4a3 3 0 0 1-.9-1 4.1 4.1 0 0 1 0-3.1 2.5 2.5 0 0 1 2.3-1.4c.6 0 1 .1 1.4.4.4.2.7.5 1 1a4.1 4.1 0 0 1 0 3.1 2.5 2.5 0 0 1-2.4 1.4Zm0-1c.4 0 .7 0 1-.2l.4-.8.2-1c0-.3 0-.7-.2-1l-.5-.7c-.2-.2-.5-.3-.9-.3-.3 0-.6.1-.8.3l-.5.7a3 3 0 0 0-.2 1c0 .4 0 .7.2 1 0 .3.3.6.5.8l.8.2Zm5-6.7v7.6h-1V177h1Zm5 9.7a2.3 2.3 0 0 1-.8-.1l.3-1 .5.1.5-.1.3-.6.1-.4-2-5.7h1.1l1.5 4.4 1.5-4.4h1.2l-2.4 6.4-.4.8-.6.4a2 2 0 0 1-.8.2Zm7.4-2c-.5 0-1-.2-1.4-.4-.4-.2-.7-.6-1-1-.1-.5-.3-1-.3-1.6 0-.6.2-1 .4-1.5a2.5 2.5 0 0 1 2.3-1.4c.5 0 1 .1 1.4.4.4.2.7.5 1 1l.2 1.5c0 .6 0 1.1-.3 1.6a2.5 2.5 0 0 1-2.3 1.4Zm0-1c.3 0 .6 0 .9-.2l.5-.8.1-1-.1-1-.5-.7-.9-.3-.9.3-.5.7a3 3 0 0 0-.1 1l.1 1 .5.8.9.2Zm7.5-1.5v-3.3h1v5.7h-1v-1l-.7.7c-.3.2-.6.3-1 .3a1.7 1.7 0 0 1-1.6-1c-.2-.3-.3-.6-.3-1.1v-3.6h1v3.5c0 .3.2.6.4.9.2.2.5.3.8.3a1.4 1.4 0 0 0 1.4-1.4Zm2.6 2.4v-5.7h1v.9h.1c.1-.3.3-.6.6-.8l.9-.2a4.6 4.6 0 0 1 .4 0v1h-.6c-.2 0-.4 0-.7.2a1.2 1.2 0 0 0-.6 1v3.6h-1.1Zm-137 16v-5.7h1.2v5.7h-1.1Zm.6-6.6c-.2 0-.3 0-.5-.2a.6.6 0 0 1-.2-.5l.2-.4c.2-.2.3-.2.5-.2s.4 0 .5.2c.2 0 .2.2.2.4s0 .4-.2.5l-.5.2Zm4.2 6.7a2.2 2.2 0 0 1-2-1.4c-.3-.4-.4-1-.4-1.6 0-.6.1-1.1.3-1.6.2-.4.5-.7.9-1 .3-.2.8-.3 1.2-.3.4 0 .6 0 .9.2.2 0 .3.2.5.4l.2.4h.1V193h1.1v7.6h-1v-1h-.2l-.2.5-.6.4-.8.2Zm.2-1c.4 0 .6 0 .9-.2l.5-.7.1-1-.1-1.1c-.2-.3-.3-.6-.5-.7-.3-.2-.5-.3-.9-.3-.3 0-.6.1-.8.3l-.5.7-.2 1 .2 1 .5.8.8.2Zm6.7 1c-.6 0-1-.2-1.5-.4-.4-.2-.7-.6-1-1-.1-.4-.3-1-.3-1.6 0-.5.2-1 .4-1.5.2-.4.5-.8.9-1 .4-.3.8-.4 1.4-.4.3 0 .6 0 1 .2a2.3 2.3 0 0 1 1.3 1.3l.2 1.4v.3h-4.5v-.8h3.4c0-.3 0-.5-.2-.8a1.3 1.3 0 0 0-1.2-.7c-.3 0-.6 0-.8.2l-.6.6-.2.8v.7l.2 1 .6.5c.3.2.5.3.9.3l.5-.1.5-.3.3-.5 1 .2c0 .3-.2.6-.4.8-.2.3-.5.5-.8.6a3 3 0 0 1-1.1.2Zm4.7-3.5v3.4h-1v-5.7h1v.9c.2-.3.4-.6.7-.7a2 2 0 0 1 1-.3c.4 0 .8 0 1 .2.3.2.6.4.7.8.2.3.3.7.3 1.1v3.7h-1.1V197c0-.4-.1-.8-.4-1-.2-.2-.5-.3-.8-.3l-.7.1-.5.5-.2.8Zm7.8-2.3v.9h-3.1v-1h3.1Zm-2.3-1.4h1.1v5.4l.1.5.3.2h.7l.2 1h-.3a2.2 2.2 0 0 1-1.2-.1 1 1 0 0 1-.6-.5c-.2-.3-.3-.5-.3-.9v-5.6Zm3.5 7V195h1.1v5.7h-1Zm.6-6.5c-.2 0-.4 0-.5-.2a.6.6 0 0 1-.2-.5c0-.2 0-.3.2-.4.1-.2.3-.2.5-.2s.3 0 .5.2l.2.4c0 .2 0 .4-.2.5l-.5.2Zm4.7.9v.9h-3.1v-1h3Zm-2.3-1.4h1.1v5.4l.1.5.3.2h.7l.2 1h-.3a2.2 2.2 0 0 1-1.2-.1l-.7-.5-.2-.9v-5.6Zm4.2 9.2a2.3 2.3 0 0 1-.8-.1l.3-1 .6.1.4-.1.3-.6.1-.4-2-5.7h1.1l1.5 4.4 1.5-4.4h1.2l-2.4 6.4c0 .3-.2.6-.4.8l-.6.4a2 2 0 0 1-.8.2Z" />
    </g>
    <defs>
        <clipPath id="b">
            <path fill="#fff" d="M0 0h256.3v68H0z" transform="translate(43.4 28.9)" />
        </clipPath>
        <clipPath id="d">
            <path fill="#fff" d="M0 0h13.9v13.9H0z" transform="translate(118.6 123.2)" />
        </clipPath>
        <filter id="a" width="341.4" height="246.9" x=".8" y=".7" color-interpolation-filters="sRGB" filterUnits="userSpaceOnUse">
            <feFlood flood-opacity="0" result="BackgroundImageFix" />
            <feColorMatrix in="SourceAlpha" result="hardAlpha" values="0 0 0 0 0 0 0 0 0 0 0 0 0 0 0 0 0 0 127 0" />
            <feOffset dy="5.7" />
            <feGaussianBlur stdDeviation="4.3" />
            <feColorMatrix values="0 0 0 0 0 0 0 0 0 0 0 0 0 0 0 0 0 0 0.04 0" />
            <feBlend in2="BackgroundImageFix" result="effect1_dropShadow_903_838" />
            <feColorMatrix in="SourceAlpha" result="hardAlpha" values="0 0 0 0 0 0 0 0 0 0 0 0 0 0 0 0 0 0 127 0" />
            <feOffset dy="7.4" />
            <feGaussianBlur stdDeviation="10.9" />
            <feColorMatrix values="0 0 0 0 0 0 0 0 0 0 0 0 0 0 0 0 0 0 0.1 0" />
            <feBlend in2="effect1_dropShadow_903_838" result="effect2_dropShadow_903_838" />
            <feBlend in="SourceGraphic" in2="effect2_dropShadow_903_838" result="shape" />
        </filter>
        <filter id="c" width="262.3" height="44.9" x="40.4" y="108.8" color-interpolation-filters="sRGB" filterUnits="userSpaceOnUse">
            <feFlood flood-opacity="0" result="BackgroundImageFix" />
            <feColorMatrix in="SourceAlpha" result="hardAlpha" values="0 0 0 0 0 0 0 0 0 0 0 0 0 0 0 0 0 0 127 0" />
            <feOffset dy="1" />
            <feGaussianBlur stdDeviation="1.5" />
            <feColorMatrix values="0 0 0 0 0 0 0 0 0 0 0 0 0 0 0 0 0 0 0.1 0" />
            <feBlend in2="BackgroundImageFix" result="effect1_dropShadow_903_838" />
            <feColorMatrix in="SourceAlpha" result="hardAlpha" values="0 0 0 0 0 0 0 0 0 0 0 0 0 0 0 0 0 0 127 0" />
            <feOffset dy="1" />
            <feGaussianBlur stdDeviation="1" />
            <feColorMatrix values="0 0 0 0 0 0 0 0 0 0 0 0 0 0 0 0 0 0 0.06 0" />
            <feBlend in2="effect1_dropShadow_903_838" result="effect2_dropShadow_903_838" />
            <feBlend in="SourceGraphic" in2="effect2_dropShadow_903_838" result="shape" />
        </filter>
    </defs>
</svg>