<svg width="24" height="24" viewBox="0 0 24 24" fill="none" xmlns="http://www.w3.org/2000/svg">
<path d="M4 5C4 4.44772 4.44772 4 5 4H9C9.55228 4 10 3.55228 10 3C10 2.44772 9.55228 2 9 2H5C3.34315 2 2 3.34315 2 5V19C2 20.6569 3.34315 22 5 22H9C9.55228 22 10 21.5523 10 21C10 20.4477 9.55228 20 9 20H5C4.44772 20 4 19.5523 4 19V5Z" fill="#110F2A"/>
<path d="M14.9498 5.63615C15.3403 5.24563 15.9734 5.24563 16.364 5.63615L22.0208 11.293C22.4113 11.6835 22.4113 12.3167 22.0208 12.7072L16.364 18.3641C15.9734 18.7546 15.3403 18.7546 14.9498 18.3641C14.5592 17.9736 14.5592 17.3404 14.9498 16.9499L18.8996 13L10 13C9.44772 13 9 12.5523 9 12C9 11.4477 9.44772 11 10 11L18.8994 11L14.9498 7.05037C14.5592 6.65984 14.5592 6.02668 14.9498 5.63615Z" fill="#110F2A"/>
</svg>
