<svg width="251" height="250" viewBox="0 0 251 250" fill="none" xmlns="http://www.w3.org/2000/svg">
<rect x="1.53333" y="1.03333" width="247.933" height="247.933" rx="123.967" fill="#FAFAFA"/>
<path fill-rule="evenodd" clip-rule="evenodd" d="M121.453 88.6308V65.646H129.547V88.6308C134.36 89.0449 139.09 90.1961 143.568 92.051C143.742 92.1231 143.915 92.1962 144.088 92.2703L155.09 73.2154L162.099 77.2623L151.232 96.0853C153.985 97.8753 156.551 99.9521 158.885 102.286C163.269 106.67 166.747 111.875 169.12 117.603C171.492 123.331 172.714 129.47 172.714 135.671H164.62C164.62 130.533 163.608 125.446 161.642 120.7C159.676 115.954 156.794 111.641 153.162 108.009C149.529 104.376 145.217 101.495 140.47 99.5287C135.724 97.5627 130.637 96.5508 125.5 96.5508C120.363 96.5508 115.276 97.5627 110.529 99.5287C105.783 101.495 101.471 104.376 97.8381 108.009C94.2055 111.641 91.324 115.954 89.358 120.7C87.3921 125.446 86.3802 130.533 86.3802 135.671H78.2864C78.2864 129.47 79.5077 123.331 81.8804 117.603C84.2531 111.875 87.7308 106.67 92.115 102.286C94.4485 99.9521 97.0146 97.8753 99.7683 96.0853L88.9008 77.2623L95.9102 73.2154L106.912 92.2703C107.085 92.1962 107.258 92.1231 107.432 92.051C111.91 90.1961 116.64 89.0449 121.453 88.6308ZM125.5 110.462C112.371 110.462 101.728 121.105 101.728 134.234C101.728 147.362 112.371 158.005 125.5 158.005C138.629 158.005 149.272 147.362 149.272 134.234C149.272 121.105 138.629 110.462 125.5 110.462ZM93.6346 134.234C93.6346 116.635 107.901 102.368 125.5 102.368C143.099 102.368 157.365 116.635 157.365 134.234C157.365 150.461 145.235 163.856 129.547 165.844L129.547 186.99L121.453 186.99L121.453 165.844C105.765 163.856 93.6346 150.461 93.6346 134.234Z" fill="#110F2A"/>
<rect x="1.53333" y="1.03333" width="247.933" height="247.933" rx="123.967" stroke="#8B5DF5" stroke-width="2.06667"/>
</svg>
