<svg width="24" height="24" viewBox="0 0 24 24" fill="none" xmlns="http://www.w3.org/2000/svg">
<path d="M4.5 2.25C5.05228 2.25 5.5 2.69772 5.5 3.25L5.5 12C5.5 12.5523 5.05229 13 4.5 13C3.94772 13 3.5 12.5523 3.5 12L3.5 3.25C3.5 2.69772 3.94772 2.25 4.5 2.25Z" fill="#110F2A"/>
<path d="M12 21.75C11.4477 21.75 11 21.3023 11 20.75L11 12C11 11.4477 11.4477 11 12 11C12.5523 11 13 11.4477 13 12L13 20.75C13 21.3023 12.5523 21.75 12 21.75Z" fill="#110F2A"/>
<path d="M20.5 3.25C20.5 2.69772 20.0523 2.25 19.5 2.25C18.9477 2.25 18.5 2.69772 18.5 3.25L18.5 12C18.5 12.5523 18.9477 13 19.5 13C20.0523 13 20.5 12.5523 20.5 12L20.5 3.25Z" fill="#110F2A"/>
<path d="M5.5 18H7C7.55229 18 8 17.5523 8 17C8 16.4477 7.55229 16 7 16H2C1.44772 16 1 16.4477 1 17C1 17.5523 1.44772 18 2 18H3.5L3.5 20.75C3.5 21.3023 3.94772 21.75 4.5 21.75C5.05229 21.75 5.5 21.3023 5.5 20.75V18Z" fill="#110F2A"/>
<path d="M8.5 7C8.5 6.44772 8.94772 6 9.5 6H11V3.25C11 2.69772 11.4477 2.25 12 2.25C12.5523 2.25 13 2.69772 13 3.25V6H14.5C15.0523 6 15.5 6.44772 15.5 7C15.5 7.55228 15.0523 8 14.5 8H9.5C8.94772 8 8.5 7.55228 8.5 7Z" fill="#110F2A"/>
<path d="M17 16C16.4477 16 16 16.4477 16 17C16 17.5523 16.4477 18 17 18H18.5V20.75C18.5 21.3023 18.9477 21.75 19.5 21.75C20.0523 21.75 20.5 21.3023 20.5 20.75V18H22C22.5523 18 23 17.5523 23 17C23 16.4477 22.5523 16 22 16H17Z" fill="#110F2A"/>
</svg>
