<svg width="17" height="17" viewBox="0 0 17 17" fill="none" xmlns="http://www.w3.org/2000/svg">
    <g clip-path="url(#clip0_741_19098)">
        <path fill-rule="evenodd" clip-rule="evenodd"
            d="M8.74156 1.16602C8.9953 1.16602 9.22705 1.31006 9.33936 1.5376L11.2444 5.39699L15.5046 6.01969C15.7557 6.05639 15.9641 6.23239 16.0424 6.47373C16.1206 6.71507 16.0551 6.9799 15.8734 7.15692L12.7912 10.1589L13.5186 14.4C13.5615 14.6501 13.4587 14.9029 13.2534 15.0521C13.0481 15.2012 12.7759 15.2209 12.5513 15.1027L8.74156 13.0992L4.93186 15.1027C4.70725 15.2209 4.43505 15.2012 4.22973 15.0521C4.02441 14.9029 3.92158 14.6501 3.96448 14.4L4.69187 10.1589L1.60973 7.15692C1.42799 6.9799 1.36247 6.71507 1.44073 6.47373C1.51898 6.23239 1.72743 6.05639 1.97847 6.01969L6.23871 5.39699L8.14375 1.5376C8.25607 1.31006 8.48781 1.16602 8.74156 1.16602ZM8.74156 3.33885L7.27936 6.3011C7.18233 6.49766 6.99488 6.63397 6.77797 6.66567L3.50716 7.14375L5.87338 9.44844C6.03063 9.6016 6.1024 9.82236 6.0653 10.0387L5.50701 13.2938L8.43126 11.756C8.62551 11.6538 8.8576 11.6538 9.05186 11.756L11.9761 13.2938L11.4178 10.0387C11.3807 9.82236 11.4525 9.6016 11.6097 9.44844L13.9759 7.14375L10.7051 6.66567C10.4882 6.63397 10.3008 6.49766 10.2038 6.3011L8.74156 3.33885Z"
            fill="black" />
    </g>
    <defs>
        <clipPath id="clip0_741_19098">
            <rect width="16" height="16" fill="white" transform="translate(0.742188 0.5)" />
        </clipPath>
    </defs>
</svg>
    