<svg width="62" height="61" viewBox="0 0 62 61" fill="none" xmlns="http://www.w3.org/2000/svg">
    <path fill-rule="evenodd" clip-rule="evenodd"
        d="M32.907 1.44973C31.9561 0.0336816 29.873 0.033683 28.9221 1.44974L25.9536 5.87021C25.2846 6.86659 23.9823 7.21553 22.9047 6.68718L18.1237 4.34314C16.5922 3.59226 14.7881 4.63381 14.6727 6.3356L14.3122 11.648C14.2309 12.8455 13.2776 13.7988 12.0802 13.8801L6.76772 14.2405C5.06594 14.356 4.02439 16.16 4.77527 17.6916L7.11931 22.4725C7.64766 23.5502 7.29872 24.8524 6.30234 25.5215L1.88186 28.4899C0.465811 29.4408 0.465812 31.5239 1.88186 32.4748L6.30234 35.4432C7.29872 36.1123 7.64766 37.4146 7.11931 38.4922L4.77527 43.2732C4.02439 44.8047 5.06594 46.6087 6.76773 46.7242L12.0802 47.0847C13.2776 47.1659 14.2309 48.1193 14.3122 49.3167L14.6727 54.6292C14.7881 56.3309 16.5922 57.3725 18.1237 56.6216L22.9047 54.2776C23.9823 53.7492 25.2846 54.0982 25.9536 55.0945L28.9221 59.515C29.873 60.9311 31.9561 60.9311 32.907 59.515L35.8754 55.0945C36.5445 54.0982 37.8467 53.7492 38.9244 54.2776L43.7053 56.6216C45.2368 57.3725 47.0409 56.3309 47.1563 54.6292L47.5168 49.3167C47.5981 48.1193 48.5514 47.1659 49.7488 47.0847L55.0613 46.7242C56.7631 46.6087 57.8046 44.8047 57.0537 43.2732L54.7097 38.4922C54.1813 37.4146 54.5303 36.1123 55.5267 35.4432L59.9471 32.4748C61.3632 31.5239 61.3632 29.4408 59.9471 28.4899L55.5267 25.5215C54.5303 24.8524 54.1813 23.5502 54.7097 22.4725L57.0537 17.6916C57.8046 16.16 56.7631 14.356 55.0613 14.2405L49.7488 13.8801C48.5514 13.7988 47.5981 12.8455 47.5168 11.648L47.1563 6.3356C47.0409 4.63381 45.2368 3.59226 43.7053 4.34315L38.9244 6.68718C37.8467 7.21553 36.5445 6.86659 35.8754 5.87021L32.907 1.44973ZM45.2646 24.367C46.306 23.3256 46.306 21.6371 45.2646 20.5957C44.2232 19.5543 42.5347 19.5543 41.4933 20.5957L27.379 34.7101L20.3349 27.666C19.2935 26.6246 17.605 26.6246 16.5637 27.666C15.5223 28.7074 15.5223 30.3959 16.5637 31.4373L25.4933 40.367C26.5347 41.4084 28.2232 41.4084 29.2646 40.367L45.2646 24.367Z"
        fill="#14532D" />
</svg>
    