<svg width="24" height="24" viewBox="0 0 24 24" fill="none" xmlns="http://www.w3.org/2000/svg">
<path fill-rule="evenodd" clip-rule="evenodd" d="M10.0862 1.59386C10.2467 1.23273 10.6048 1 11 1C12.0609 1 13.0783 1.42143 13.8284 2.17157C14.5786 2.92172 15 3.93913 15 5V8H19.6549C20.0876 7.996 20.5162 8.08567 20.911 8.26289C21.3078 8.44096 21.6611 8.70317 21.9465 9.03134C22.2318 9.35951 22.4424 9.7458 22.5637 10.1634C22.6849 10.5811 22.7139 11.0201 22.6487 11.4501L21.2687 20.4499C21.1601 21.165 20.7966 21.8175 20.2456 22.2859C19.6958 22.7532 18.9961 23.0067 18.2748 23H7H4C3.20435 23 2.44129 22.6839 1.87868 22.1213C1.80835 22.051 1.74188 21.9775 1.67939 21.9013C1.24199 21.3674 1 20.6962 1 20V13C1 12.2044 1.31607 11.4413 1.87868 10.8787C2.44129 10.3161 3.20435 10 4 10H6.35013L10.0862 1.59386ZM8 11.2122V21H18.2913C18.5325 21.0027 18.7665 20.9183 18.9503 20.7621C19.134 20.6059 19.2551 20.3885 19.2913 20.1501L20.6713 11.1499C20.693 11.0067 20.6834 10.8601 20.643 10.7211C20.6026 10.5818 20.5324 10.4531 20.4373 10.3437C20.3421 10.2343 20.2244 10.1469 20.0921 10.0875C19.9599 10.0282 19.8163 9.99829 19.6713 9.99994L19.66 10.0001L14 10C13.4477 10 13 9.55228 13 9V5C13 4.46957 12.7893 3.96086 12.4142 3.58579C12.1864 3.35794 11.9092 3.19075 11.6078 3.0946L8 11.2122Z" fill="#110F2A"/>
</svg>
