<svg width="16" height="16" viewBox="0 0 16 16" fill="none" xmlns="http://www.w3.org/2000/svg">
<path d="M4.66671 14.6667H2.66671C2.31309 14.6667 1.97395 14.5262 1.7239 14.2762C1.47385 14.0261 1.33337 13.687 1.33337 13.3334V8.66671C1.33337 8.31309 1.47385 7.97395 1.7239 7.7239C1.97395 7.47385 2.31309 7.33337 2.66671 7.33337H4.66671M9.33337 6.00004V3.33337C9.33337 2.80294 9.12266 2.29423 8.74759 1.91916C8.37252 1.54409 7.86381 1.33337 7.33337 1.33337L4.66671 7.33337V14.6667H12.1867C12.5083 14.6703 12.8203 14.5576 13.0653 14.3494C13.3103 14.1411 13.4718 13.8513 13.52 13.5334L14.44 7.53337C14.469 7.34228 14.4562 7.14716 14.4023 6.96154C14.3484 6.77592 14.2548 6.60424 14.1279 6.45838C14.0011 6.31253 13.8441 6.196 13.6678 6.11685C13.4914 6.03771 13.3 5.99785 13.1067 6.00004H9.33337Z" stroke="#EC4899" stroke-width="1.33" stroke-linecap="round" stroke-linejoin="round"/>
</svg>
