<svg width="17" height="16" viewBox="0 0 17 16" fill="none" xmlns="http://www.w3.org/2000/svg">
    <g clip-path="url(#clip0_405_25706)">
        <path
            d="M9.59253 4.33317C9.59253 3.96498 9.29405 3.6665 8.92586 3.6665C8.55767 3.6665 8.2592 3.96498 8.2592 4.33317V7.49225L6.55635 9.1951C6.296 9.45545 6.296 9.87756 6.55635 10.1379C6.8167 10.3983 7.23881 10.3983 7.49915 10.1379L9.39727 8.2398C9.52229 8.11477 9.59253 7.9452 9.59253 7.76839V4.33317Z"
            fill="currentColor" />
        <path fill-rule="evenodd" clip-rule="evenodd"
            d="M8.92586 0.666504C4.87577 0.666504 1.59253 3.94975 1.59253 7.99984C1.59253 12.0499 4.87577 15.3332 8.92586 15.3332C12.976 15.3332 16.2592 12.0499 16.2592 7.99984C16.2592 3.94975 12.976 0.666504 8.92586 0.666504ZM2.92586 7.99984C2.92586 4.68613 5.61215 1.99984 8.92586 1.99984C12.2396 1.99984 14.9259 4.68613 14.9259 7.99984C14.9259 11.3135 12.2396 13.9998 8.92586 13.9998C5.61215 13.9998 2.92586 11.3135 2.92586 7.99984Z"
            fill="currentColor" />
    </g>
    <defs>
        <clipPath id="clip0_405_25706">
            <rect width="16" height="16" fill="white" transform="translate(0.925781)" />
        </clipPath>
    </defs>
</svg>
    