<svg width="16" height="16" viewBox="0 0 16 16" fill="none" xmlns="http://www.w3.org/2000/svg">
    <g clip-path="url(#clip0_1060_6598)">
        <path d="M8.66666 4.33268C8.66666 3.96449 8.36818 3.66602 7.99999 3.66602C7.6318 3.66602 7.33332 3.96449 7.33332 4.33268V7.49176L5.63047 9.19461C5.37012 9.45496 5.37012 9.87707 5.63047 10.1374C5.89082 10.3978 6.31293 10.3978 6.57328 10.1374L8.47139 8.23931C8.59642 8.11428 8.66666 7.94471 8.66666 7.7679V4.33268Z" fill="#949BB8" />
        <path fill-rule="evenodd" clip-rule="evenodd" d="M7.99999 0.666016C3.9499 0.666016 0.666656 3.94926 0.666656 7.99935C0.666656 12.0494 3.9499 15.3327 7.99999 15.3327C12.0501 15.3327 15.3333 12.0494 15.3333 7.99935C15.3333 3.94926 12.0501 0.666016 7.99999 0.666016ZM1.99999 7.99935C1.99999 4.68564 4.68628 1.99935 7.99999 1.99935C11.3137 1.99935 14 4.68564 14 7.99935C14 11.3131 11.3137 13.9993 7.99999 13.9993C4.68628 13.9993 1.99999 11.3131 1.99999 7.99935Z" fill="#949BB8" />
    </g>
    <defs>
        <clipPath id="clip0_1060_6598">
            <rect width="16" height="16" fill="white" />
        </clipPath>
    </defs>
</svg>
    