<svg width="17" height="16" viewBox="0 0 17 16" fill="none" xmlns="http://www.w3.org/2000/svg">
<path d="M9.07324 4.33366C9.07324 3.96547 8.77476 3.66699 8.40658 3.66699C8.03839 3.66699 7.73991 3.96547 7.73991 4.33366V7.49274L6.03706 9.19559C5.77671 9.45594 5.77671 9.87805 6.03706 10.1384C6.29741 10.3987 6.71952 10.3987 6.97987 10.1384L8.87798 8.24028C9.003 8.11526 9.07324 7.94569 9.07324 7.76888V4.33366Z" fill="#949BB8"/>
<path fill-rule="evenodd" clip-rule="evenodd" d="M8.40658 0.666992C4.35649 0.666992 1.07324 3.95024 1.07324 8.00033C1.07324 12.0504 4.35649 15.3337 8.40658 15.3337C12.4567 15.3337 15.7399 12.0504 15.7399 8.00033C15.7399 3.95024 12.4567 0.666992 8.40658 0.666992ZM2.40658 8.00033C2.40658 4.68662 5.09287 2.00033 8.40658 2.00033C11.7203 2.00033 14.4066 4.68662 14.4066 8.00033C14.4066 11.314 11.7203 14.0003 8.40658 14.0003C5.09287 14.0003 2.40658 11.314 2.40658 8.00033Z" fill="#949BB8"/>
</svg>
