<svg width="24" height="24" viewBox="0 0 24 24" fill="none" xmlns="http://www.w3.org/2000/svg">
<path d="M9.0456 10.7947C9.51027 10.7599 9.9154 11.1048 9.95048 11.5649L10.4323 17.884C10.4674 18.3441 10.1191 18.7452 9.65447 18.78C9.1898 18.8147 8.78468 18.4699 8.7496 18.0098L8.26777 11.6906C8.23269 11.2306 8.58094 10.8294 9.0456 10.7947Z" fill="#110F2A"/>
<path d="M14.9546 10.7947C15.4192 10.8294 15.7675 11.2306 15.7324 11.6906L15.2506 18.0098C15.2155 18.4699 14.8104 18.8147 14.3457 18.78C13.881 18.7452 13.5328 18.3441 13.5679 17.884L14.0497 11.5649C14.0848 11.1048 14.4899 10.7599 14.9546 10.7947Z" fill="#110F2A"/>
<path d="M12.8438 11.6277C12.8438 11.1663 12.466 10.7923 12 10.7923C11.534 10.7923 11.1562 11.1663 11.1562 11.6277V17.9272C11.1562 18.3886 11.534 18.7627 12 18.7627C12.466 18.7627 12.8438 18.3886 12.8438 17.9272V11.6277Z" fill="#110F2A"/>
<path fill-rule="evenodd" clip-rule="evenodd" d="M7.5 6.56963V3.78481C7.5 2.2468 8.7592 1 10.3125 1H13.6875C15.2408 1 16.5 2.2468 16.5 3.78481V6.56963H20.1562C20.6222 6.56963 21 6.94367 21 7.40507C21 7.86648 20.6222 8.24052 20.1562 8.24052H19.5328L18.6627 19.6523C18.5187 21.5406 16.9294 23 15.0168 23H8.98317C7.07065 23 5.48128 21.5406 5.33729 19.6523L4.46716 8.24052H3.84375C3.37776 8.24052 3 7.86648 3 7.40507C3 6.94367 3.37776 6.56963 3.84375 6.56963H7.5ZM10.3125 2.67089H13.6875C14.3088 2.67089 14.8125 3.16961 14.8125 3.78481V6.56963H9.1875V3.78481C9.1875 3.16961 9.69118 2.67089 10.3125 2.67089ZM6.15986 8.24569L7.02 19.5265C7.09753 20.5433 7.95335 21.3291 8.98317 21.3291H15.0168C16.0467 21.3291 16.9025 20.5433 16.98 19.5265L17.8401 8.24569H6.15986Z" fill="#110F2A"/>
</svg>
