<svg width="16" height="17" viewBox="0 0 16 17" fill="none" xmlns="http://www.w3.org/2000/svg">
    <path d="M10.0017 4.49998V5.16498H10.6667H13.3333C13.3338 5.16498 13.3342 5.16516 13.3345 5.16547C13.3348 5.16578 13.335 5.1662 13.335 5.16665C13.335 5.16709 13.3348 5.16751 13.3345 5.16782C13.3342 5.16814 13.3338 5.16831 13.3333 5.16831H12.6667H12.0017V5.83331V13.1666C12.0017 13.5207 11.861 13.8603 11.6107 14.1106C11.3603 14.361 11.0207 14.5016 10.6667 14.5016H5.33333C4.97927 14.5016 4.63971 14.361 4.38935 14.1106L3.91912 14.5809L4.38935 14.1106C4.13898 13.8603 3.99833 13.5207 3.99833 13.1666V5.83331V5.16831H3.33333H2.66667C2.66622 5.16831 2.6658 5.16814 2.66549 5.16782C2.66518 5.16751 2.665 5.16709 2.665 5.16665C2.665 5.1662 2.66518 5.16578 2.66549 5.16547C2.6658 5.16516 2.66623 5.16498 2.66667 5.16498H5.33333H5.99833V4.49998V3.83331C5.99833 3.47925 6.13898 3.13969 6.38935 2.88933C6.63971 2.63896 6.97927 2.49831 7.33333 2.49831H8.66667C9.02073 2.49831 9.36029 2.63896 9.61065 2.88933C9.86102 3.13969 10.0017 3.47925 10.0017 3.83331V4.49998ZM9.33333 5.16498H9.99833V4.49998V3.83331C9.99833 3.48013 9.85803 3.14142 9.6083 2.89168C9.35856 2.64195 9.01985 2.50165 8.66667 2.50165H7.33333C6.98015 2.50165 6.64144 2.64195 6.3917 2.89168C6.14197 3.14142 6.00167 3.48013 6.00167 3.83331V4.49998V5.16498H6.66667H9.33333ZM4.3917 14.1083L4.86193 13.6381L4.3917 14.1083C4.64144 14.358 4.98016 14.4983 5.33333 14.4983H10.6667C11.0198 14.4983 11.3586 14.358 11.6083 14.1083L11.1381 13.6381L11.6083 14.1083C11.858 13.8585 11.9983 13.5198 11.9983 13.1666V5.83331V5.16831H11.3333H4.66667H4.00167V5.83331V13.1666C4.00167 13.5198 4.14197 13.8585 4.3917 14.1083ZM6.66784 11.8345C6.66753 11.8348 6.66711 11.835 6.66667 11.835C6.66647 11.835 6.66628 11.8349 6.6661 11.8349C6.66587 11.8348 6.66566 11.8347 6.66549 11.8345L6.22661 12.2734L6.66549 11.8345C6.66536 11.8344 6.66525 11.8342 6.66517 11.834C6.66506 11.8338 6.665 11.8336 6.665 11.8333V7.83331C6.665 7.83287 6.66517 7.83245 6.66549 7.83213C6.6658 7.83182 6.66623 7.83165 6.66667 7.83165C6.66687 7.83165 6.66708 7.83169 6.66727 7.83176C6.66748 7.83184 6.66768 7.83197 6.66785 7.83213C6.66816 7.83245 6.66833 7.83287 6.66833 7.83331V11.8333C6.66833 11.8338 6.66816 11.8342 6.66785 11.8345L7.13807 12.3047L6.66784 11.8345ZM9.33451 11.8345C9.3342 11.8348 9.33378 11.835 9.33333 11.835C9.33289 11.835 9.33247 11.8348 9.33216 11.8345C9.33184 11.8342 9.33167 11.8338 9.33167 11.8333V7.83331C9.33167 7.83287 9.33184 7.83245 9.33215 7.83213C9.33247 7.83182 9.33289 7.83165 9.33333 7.83165C9.33356 7.83165 9.33378 7.83169 9.33398 7.83178C9.33418 7.83186 9.33436 7.83198 9.33451 7.83213C9.33464 7.83226 9.33474 7.8324 9.33482 7.83256C9.33494 7.83279 9.335 7.83305 9.335 7.83331V11.8333C9.335 11.8335 9.33497 11.8337 9.3349 11.8339C9.33482 11.8341 9.33469 11.8343 9.33451 11.8345L9.77339 12.2734L9.33451 11.8345Z" fill="#DC2626" stroke="#DC2626" stroke-width="1.33" />
</svg>
    