<svg width="24" height="25" viewBox="0 0 24 25" fill="none" xmlns="http://www.w3.org/2000/svg">
<path d="M3.60405 6.36127C4.54741 7.33187 5.64626 8.14203 6.85761 8.75703C8.39657 9.53835 10.0827 9.98717 11.8064 10.0744L12.6949 10.1193L12.4865 9.25441C12.3083 8.51495 12.3805 7.73726 12.692 7.0433C13.0034 6.34934 13.5363 5.77837 14.2072 5.41993C14.878 5.06149 15.6489 4.93586 16.3989 5.06274C17.1488 5.18962 17.8355 5.56184 18.3511 6.12102L18.6035 6.39471L18.9687 6.32263C19.1765 6.28163 19.3824 6.23326 19.5862 6.17768C19.4941 6.24603 19.3982 6.31002 19.2989 6.36932L19.7198 7.6004C19.8171 7.58864 19.9142 7.57531 20.011 7.56044C19.8787 7.67376 19.7424 7.78273 19.6024 7.88712L19.335 8.08658V8.42021V8.42126V8.42232V8.42337V8.42443V8.42548V8.42654V8.42759V8.42865V8.4297V8.43076V8.43181V8.43287V8.43392V8.43497V8.43603V8.43708V8.43814V8.43919V8.44025V8.4413V8.44236V8.44341V8.44447V8.44552V8.44658V8.44763V8.44868V8.44974V8.45079V8.45185V8.4529V8.45396V8.45501V8.45607V8.45712V8.45817V8.45923V8.46028V8.46134V8.46239V8.46345V8.4645V8.46556V8.46661V8.46766V8.46872V8.46977V8.47083V8.47188V8.47293V8.47399V8.47504V8.4761V8.47715V8.4782V8.47926V8.48031V8.48137V8.48242V8.48347V8.48453V8.48558V8.48664V8.48769V8.48874V8.4898V8.49085V8.4919V8.49296V8.49401V8.49507V8.49612V8.49717V8.49823V8.49928V8.50033V8.50139V8.50244V8.50349V8.50455V8.5056V8.50665V8.50771V8.50876V8.50981V8.51087V8.51192V8.51297V8.51402V8.51508V8.51613V8.51718V8.51824V8.51929V8.52034V8.52139V8.52245V8.5235V8.52455V8.5256V8.52666V8.52771V8.52876V8.52981V8.53087V8.53192V8.53297V8.53402V8.53507V8.53613V8.53718V8.53823V8.53928V8.54033V8.54139V8.54244V8.54349V8.54454V8.54559V8.54664V8.54769V8.54875V8.5498V8.55085V8.5519V8.55295V8.554V8.55505V8.5561V8.55716V8.55821V8.55926V8.56031V8.56136V8.56241V8.56346V8.56451V8.56556V8.56661V8.56766V8.56871V8.56976V8.57081V8.57186V8.57291V8.57396V8.57501V8.57606V8.57711V8.57816V8.57921V8.58026V8.58131V8.58236V8.58341V8.58446V8.58551V8.58656V8.5876V8.58865V8.5897V8.59075V8.5918V8.59285V8.5939V8.59495V8.59599V8.59704V8.59809V8.59914V8.60019V8.60124V8.60228V8.60333V8.60438V8.60543V8.60648V8.60752V8.60857V8.60962V8.61067V8.61171V8.61276V8.61381V8.61485V8.6159V8.61695V8.618V8.61904V8.62009V8.62114V8.62218V8.62323V8.62427V8.62532V8.62637V8.62741V8.62846V8.6295V8.63055V8.6316V8.63264V8.63369V8.63473V8.63578V8.63682V8.63787V8.63891V8.63996V8.641V8.64205V8.64309V8.64414V8.64518V8.64623V8.64727V8.64831V8.64936V8.6504V8.65145V8.65249V8.65353V8.65458V8.65562V8.65667V8.65771V8.65875V8.65979V8.66084V8.66188V8.66292V8.66397V8.66501V8.66605V8.66709V8.66814V8.66918V8.67022V8.67126V8.6723V8.67335V8.67439V8.67543V8.67647V8.67751V8.67855V8.67959V8.68064V8.68168V8.68272V8.68376V8.6848V8.68584V8.68688V8.68792V8.68896V8.69V8.69104V8.69208V8.69312V8.69416V8.6952V8.69624V8.69728V8.69831V8.69935V8.70039V8.70143V8.70247V8.70351V8.70455V8.70559V8.70662V8.70766V8.7087V8.70974V8.71077V8.71181V8.71285V8.71389V8.71492V8.71596V8.717V8.71803V8.71907V8.72011V8.72114V8.72218V8.72322V8.72425V8.72529V8.72632V8.72736V8.72839V8.72943V8.73046V8.7315V8.73253V8.73357V8.7346V8.73564V8.73667V8.73771V8.73874V8.73977V8.74081V8.74184V8.74288V8.74391V8.74494V8.74598V8.74701V8.74804V8.74907V8.75011V8.75114V8.75217V8.7532V8.75424V8.75527V8.7563V8.75733V8.75836V8.75939V8.76043V8.76146V8.76249V8.76352V8.76455V8.76558V8.76661V8.76764V8.76867V8.7697V8.77073V8.77176V8.77279V8.77382V8.77485V8.77587V8.7769V8.77793V8.77896V8.77999V8.78102V8.78204V8.78307V8.7841V8.78513V8.78616V8.78718V8.78821V8.78924V8.79026V8.79129V8.79232V8.79334V8.79437V8.79539V8.79642V8.79745V8.79847V8.7995V8.80052V8.80155V8.80257V8.8036V8.80462V8.80565V8.80667V8.80769V8.80872V8.80974V8.81076V8.81179V8.81281V8.81383V8.81486V8.81588V8.8169V8.81792V8.81895V8.81997V8.82099V8.82201V8.82303V8.82405V8.82508V8.8261V8.82712V8.82814V8.82916V8.83018V8.8312V8.83222V8.83324V8.83426V8.83528V8.8363V8.83732V8.83833V8.83935V8.84037V8.84139V8.84241V8.84343V8.84444V8.84546V8.84648V8.8475V8.84851V8.84953V8.85055V8.85156V8.85258V8.8536V8.85461V8.85563V8.85664V8.85766V8.85867V8.85969V8.8607V8.86172V8.86273V8.86375V8.86476V8.86577V8.86679V8.8678V8.86881V8.86983V8.87084V8.87185V8.87287V8.87388V8.87489V8.8759V8.87691V8.87792V8.87894V8.87995V8.88096V8.88197V8.88298V8.88399V8.885V8.88601V8.88702V8.88803V8.88904V8.89005V8.89106V8.89207V8.89307V8.89408V8.89509V8.8961V8.89711V8.89811V8.89912V8.90013V8.90113V8.90214V8.90315V8.90415V8.90516V8.90617V8.90717V8.90818V8.90918V8.91019V8.91119V8.9122V8.9132V8.91421V8.91521V8.91621V8.91722V8.91822V8.91922V8.92023V8.92123V8.92223V8.92323V8.92423V8.92524V8.92624V8.92724V8.92824V8.92924V8.93024V8.93124V8.93224V8.93324V8.93424V8.93524V8.93624V8.93724V8.93824V8.93924V8.94024V8.94124V8.94223V8.94323V8.94423V8.94523V8.94622V8.94722V8.94822V8.94921L19.335 8.95021L19.335 8.95541C19.3464 10.4068 19.0684 11.8459 18.5173 13.1886C17.9663 14.5314 17.1532 15.7509 16.1256 16.7759C15.098 17.8009 13.8764 18.6108 12.5322 19.1584C11.1881 19.706 9.74825 19.9803 8.29691 19.9652L8.29691 19.9652L8.28919 19.9652C7.04447 19.9667 5.81521 19.7552 4.65284 19.3458C6.03878 19.0796 7.34963 18.4853 8.47122 17.6028L9.93483 16.4512L8.0728 16.4153C7.35662 16.4015 6.66255 16.1649 6.08717 15.7382C5.7923 15.5196 5.53613 15.2566 5.32665 14.9605C5.65433 14.9339 5.97852 14.8723 6.29361 14.7764L6.22975 13.488C5.45332 13.3335 4.75407 12.9156 4.25028 12.305C3.96077 11.9541 3.74603 11.5519 3.61495 11.123C3.94981 11.2076 4.29416 11.2555 4.64191 11.265L6.94857 11.3277L5.02908 10.047C4.55931 9.7336 4.17433 9.30887 3.90842 8.81065C3.64252 8.31244 3.50393 7.7562 3.505 7.19147L3.505 7.18977C3.50481 6.90945 3.53834 6.63136 3.60405 6.36127Z" fill="white" stroke="#F8F9FC" stroke-width="1.33"/>
</svg>
