<svg width="14" height="11" viewBox="0 0 14 11" fill="none" xmlns="http://www.w3.org/2000/svg">
    <path d="M13.6666 0.172482C13.0862 0.574021 12.4436 0.881134 11.7636 1.08199C11.3985 0.670342 10.9135 0.378573 10.3739 0.24615C9.8343 0.113726 9.26628 0.147036 8.74663 0.341576C8.22699 0.536115 7.78079 0.882496 7.46839 1.33387C7.15599 1.78525 6.99246 2.31984 6.99992 2.86535V3.4598C5.93485 3.48689 4.87948 3.2552 3.9278 2.78537C2.97613 2.31553 2.15769 1.62213 1.54537 0.766934C1.54537 0.766934 -0.878869 6.11701 4.57568 8.49482C3.32751 9.32584 1.84062 9.74253 0.333252 9.68372C5.7878 12.656 12.4545 9.68372 12.4545 2.84752C12.4539 2.68194 12.4377 2.51676 12.406 2.35412C13.0245 1.7558 13.461 1.00038 13.6666 0.172482Z" fill="#F8F9FC" />
</svg>
    