<svg width="17" height="17" viewBox="0 0 17 17" fill="none" xmlns="http://www.w3.org/2000/svg">
    <path d="M15.1666 3.17248C14.5862 3.57402 13.9436 3.88113 13.2636 4.08199C12.8986 3.67034 12.4135 3.37857 11.8739 3.24615C11.3343 3.11373 10.7663 3.14704 10.2466 3.34158C9.72699 3.53611 9.28079 3.8825 8.96839 4.33387C8.65599 4.78525 8.49246 5.31984 8.49992 5.86535V6.4598C7.43485 6.48689 6.37948 6.2552 5.4278 5.78537C4.47613 5.31553 3.65769 4.62213 3.04537 3.76693C3.04537 3.76693 0.621131 9.11701 6.07568 11.4948C4.82751 12.3258 3.34062 12.7425 1.83325 12.6837C7.2878 15.656 13.9545 12.6837 13.9545 5.84752C13.9539 5.68194 13.9377 5.51676 13.906 5.35412C14.5245 4.7558 14.961 4.00038 15.1666 3.17248Z" fill="#110F2A" />
</svg>
    