<svg width="151" height="151" fill="none" xmlns="http://www.w3.org/2000/svg">
    <path d="M82.5 10.16a8.65 8.65 0 0 0-14 0 8.65 8.65 0 0 1-11.53 2.3 8.65 8.65 0 0 0-12.94 5.36 8.65 8.65 0 0 1-9.78 6.53 8.65 8.65 0 0 0-9.9 9.9 8.65 8.65 0 0 1-6.53 9.78 8.65 8.65 0 0 0-5.36 12.94 8.65 8.65 0 0 1-2.3 11.53 8.65 8.65 0 0 0 0 14 8.65 8.65 0 0 1 2.3 11.53 8.65 8.65 0 0 0 5.36 12.94 8.65 8.65 0 0 1 6.53 9.78 8.65 8.65 0 0 0 9.9 9.9 8.65 8.65 0 0 1 9.78 6.53 8.65 8.65 0 0 0 12.94 5.36 8.65 8.65 0 0 1 11.53 2.3c.22.3.67.13.67-.24V63.5l-8.74 9.7a6.46 6.46 0 1 1-9.6-8.65l20-22.22a6.46 6.46 0 0 1 9.6 0L98.9 62.84a6.46 6.46 0 1 1-9.6 8.65l-7.2-8v77.2c0 .23.28.33.41.15a8.65 8.65 0 0 1 11.53-2.3 8.65 8.65 0 0 0 12.94-5.36 8.65 8.65 0 0 1 9.78-6.53 8.65 8.65 0 0 0 9.9-9.9 8.65 8.65 0 0 1 6.53-9.78 8.65 8.65 0 0 0 5.36-12.94 8.65 8.65 0 0 1 2.3-11.53 8.65 8.65 0 0 0 0-14 8.65 8.65 0 0 1-2.3-11.53 8.65 8.65 0 0 0-5.36-12.94 8.65 8.65 0 0 1-6.53-9.78 8.65 8.65 0 0 0-9.9-9.9 8.65 8.65 0 0 1-9.78-6.53 8.65 8.65 0 0 0-12.94-5.36 8.65 8.65 0 0 1-11.53-2.3Z" fill="#21CBAC" />
    <path d="M82.5 10.16a8.65 8.65 0 0 0-14 0 8.65 8.65 0 0 1-11.53 2.3 8.65 8.65 0 0 0-12.94 5.36 8.65 8.65 0 0 1-9.78 6.53 8.65 8.65 0 0 0-9.9 9.9 8.65 8.65 0 0 1-6.53 9.78 8.65 8.65 0 0 0-5.36 12.94 8.65 8.65 0 0 1-2.3 11.53 8.65 8.65 0 0 0 0 14 8.65 8.65 0 0 1 2.3 11.53 8.65 8.65 0 0 0 5.36 12.94 8.65 8.65 0 0 1 6.53 9.78 8.65 8.65 0 0 0 9.9 9.9 8.65 8.65 0 0 1 9.78 6.53 8.65 8.65 0 0 0 12.94 5.36 8.65 8.65 0 0 1 11.53 2.3c.22.3.67.13.67-.24V63.5l-8.74 9.7a6.46 6.46 0 1 1-9.6-8.65l20-22.22a6.46 6.46 0 0 1 9.6 0L98.9 62.84a6.46 6.46 0 1 1-9.6 8.65l-7.2-8v77.2c0 .23.28.33.41.15a8.65 8.65 0 0 1 11.53-2.3 8.65 8.65 0 0 0 12.94-5.36 8.65 8.65 0 0 1 9.78-6.53 8.65 8.65 0 0 0 9.9-9.9 8.65 8.65 0 0 1 6.53-9.78 8.65 8.65 0 0 0 5.36-12.94 8.65 8.65 0 0 1 2.3-11.53 8.65 8.65 0 0 0 0-14 8.65 8.65 0 0 1-2.3-11.53 8.65 8.65 0 0 0-5.36-12.94 8.65 8.65 0 0 1-6.53-9.78 8.65 8.65 0 0 0-9.9-9.9 8.65 8.65 0 0 1-9.78-6.53 8.65 8.65 0 0 0-12.94-5.36 8.65 8.65 0 0 1-11.53-2.3Z" fill="url(#a)" />
    <path d="M82.5 10.16a8.65 8.65 0 0 0-14 0 8.65 8.65 0 0 1-11.53 2.3 8.65 8.65 0 0 0-12.94 5.36 8.65 8.65 0 0 1-9.78 6.53 8.65 8.65 0 0 0-9.9 9.9 8.65 8.65 0 0 1-6.53 9.78 8.65 8.65 0 0 0-5.36 12.94 8.65 8.65 0 0 1-2.3 11.53 8.65 8.65 0 0 0 0 14 8.65 8.65 0 0 1 2.3 11.53 8.65 8.65 0 0 0 5.36 12.94 8.65 8.65 0 0 1 6.53 9.78 8.65 8.65 0 0 0 9.9 9.9 8.65 8.65 0 0 1 9.78 6.53 8.65 8.65 0 0 0 12.94 5.36 8.65 8.65 0 0 1 11.53 2.3c.22.3.67.13.67-.24V63.5l-8.74 9.7a6.46 6.46 0 1 1-9.6-8.65l20-22.22a6.46 6.46 0 0 1 9.6 0L98.9 62.84a6.46 6.46 0 1 1-9.6 8.65l-7.2-8v77.2c0 .23.28.33.41.15a8.65 8.65 0 0 1 11.53-2.3 8.65 8.65 0 0 0 12.94-5.36 8.65 8.65 0 0 1 9.78-6.53 8.65 8.65 0 0 0 9.9-9.9 8.65 8.65 0 0 1 6.53-9.78 8.65 8.65 0 0 0 5.36-12.94 8.65 8.65 0 0 1 2.3-11.53 8.65 8.65 0 0 0 0-14 8.65 8.65 0 0 1-2.3-11.53 8.65 8.65 0 0 0-5.36-12.94 8.65 8.65 0 0 1-6.53-9.78 8.65 8.65 0 0 0-9.9-9.9 8.65 8.65 0 0 1-9.78-6.53 8.65 8.65 0 0 0-12.94-5.36 8.65 8.65 0 0 1-11.53-2.3Z" fill="url(#b)" />
    <path d="M82.5 10.16a8.65 8.65 0 0 0-14 0 8.65 8.65 0 0 1-11.53 2.3 8.65 8.65 0 0 0-12.94 5.36 8.65 8.65 0 0 1-9.78 6.53 8.65 8.65 0 0 0-9.9 9.9 8.65 8.65 0 0 1-6.53 9.78 8.65 8.65 0 0 0-5.36 12.94 8.65 8.65 0 0 1-2.3 11.53 8.65 8.65 0 0 0 0 14 8.65 8.65 0 0 1 2.3 11.53 8.65 8.65 0 0 0 5.36 12.94 8.65 8.65 0 0 1 6.53 9.78 8.65 8.65 0 0 0 9.9 9.9 8.65 8.65 0 0 1 9.78 6.53 8.65 8.65 0 0 0 12.94 5.36 8.65 8.65 0 0 1 11.53 2.3c.22.3.67.13.67-.24V63.5l-8.74 9.7a6.46 6.46 0 1 1-9.6-8.65l20-22.22a6.46 6.46 0 0 1 9.6 0L98.9 62.84a6.46 6.46 0 1 1-9.6 8.65l-7.2-8v77.2c0 .23.28.33.41.15a8.65 8.65 0 0 1 11.53-2.3 8.65 8.65 0 0 0 12.94-5.36 8.65 8.65 0 0 1 9.78-6.53 8.65 8.65 0 0 0 9.9-9.9 8.65 8.65 0 0 1 6.53-9.78 8.65 8.65 0 0 0 5.36-12.94 8.65 8.65 0 0 1 2.3-11.53 8.65 8.65 0 0 0 0-14 8.65 8.65 0 0 1-2.3-11.53 8.65 8.65 0 0 0-5.36-12.94 8.65 8.65 0 0 1-6.53-9.78 8.65 8.65 0 0 0-9.9-9.9 8.65 8.65 0 0 1-9.78-6.53 8.65 8.65 0 0 0-12.94-5.36 8.65 8.65 0 0 1-11.53-2.3Z" fill="url(#c)" />
    <path d="M82.5 10.16a8.65 8.65 0 0 0-14 0 8.65 8.65 0 0 1-11.53 2.3 8.65 8.65 0 0 0-12.94 5.36 8.65 8.65 0 0 1-9.78 6.53 8.65 8.65 0 0 0-9.9 9.9 8.65 8.65 0 0 1-6.53 9.78 8.65 8.65 0 0 0-5.36 12.94 8.65 8.65 0 0 1-2.3 11.53 8.65 8.65 0 0 0 0 14 8.65 8.65 0 0 1 2.3 11.53 8.65 8.65 0 0 0 5.36 12.94 8.65 8.65 0 0 1 6.53 9.78 8.65 8.65 0 0 0 9.9 9.9 8.65 8.65 0 0 1 9.78 6.53 8.65 8.65 0 0 0 12.94 5.36 8.65 8.65 0 0 1 11.53 2.3c.22.3.67.13.67-.24V63.5l-8.74 9.7a6.46 6.46 0 1 1-9.6-8.65l20-22.22a6.46 6.46 0 0 1 9.6 0L98.9 62.84a6.46 6.46 0 1 1-9.6 8.65l-7.2-8v77.2c0 .23.28.33.41.15a8.65 8.65 0 0 1 11.53-2.3 8.65 8.65 0 0 0 12.94-5.36 8.65 8.65 0 0 1 9.78-6.53 8.65 8.65 0 0 0 9.9-9.9 8.65 8.65 0 0 1 6.53-9.78 8.65 8.65 0 0 0 5.36-12.94 8.65 8.65 0 0 1 2.3-11.53 8.65 8.65 0 0 0 0-14 8.65 8.65 0 0 1-2.3-11.53 8.65 8.65 0 0 0-5.36-12.94 8.65 8.65 0 0 1-6.53-9.78 8.65 8.65 0 0 0-9.9-9.9 8.65 8.65 0 0 1-9.78-6.53 8.65 8.65 0 0 0-12.94-5.36 8.65 8.65 0 0 1-11.53-2.3Z" fill="url(#d)" />
    <defs>
        <radialGradient id="a" cx="0" cy="0" r="1" gradientUnits="userSpaceOnUse" gradientTransform="matrix(-20.4255 128.61723 -118.92765 -18.88672 92.1 11.03)">
            <stop stop-color="#5CFF6D" />
            <stop offset="1" stop-color="#3CF06E" stop-opacity="0" />
        </radialGradient>
        <radialGradient id="b" cx="0" cy="0" r="1" gradientUnits="userSpaceOnUse" gradientTransform="rotate(-59.33 125.37 38.9) scale(59.7422 65.4112)">
            <stop stop-color="#5CFF9D" />
            <stop offset="1" stop-color="#3CF04E" stop-opacity="0" />
        </radialGradient>
        <radialGradient id="c" cx="0" cy="0" r="1" gradientUnits="userSpaceOnUse" gradientTransform="rotate(91.15 34.55 26.54) scale(95.7638 89.8995)">
            <stop stop-color="#D5FF5C" />
            <stop offset="1" stop-color="#F0D33C" stop-opacity="0" />
        </radialGradient>
        <radialGradient id="d" cx="0" cy="0" r="1" gradientUnits="userSpaceOnUse" gradientTransform="matrix(-55.21253 -72.7662 99.01143 -75.12653 127.52 154.33)">
            <stop stop-color="#5CFFFF" />
            <stop offset="1" stop-color="#3CF0D0" stop-opacity="0" />
        </radialGradient>
    </defs>
</svg>