<svg width="16" height="16" viewBox="0 0 16 16" fill="none" xmlns="http://www.w3.org/2000/svg">
    <path
        d="M8 1.3335C6.15905 1.3335 4.66667 2.82588 4.66667 4.66683C4.66667 6.50778 6.15905 8.00016 8 8.00016C9.84095 8.00016 11.3333 6.50778 11.3333 4.66683C11.3333 2.82588 9.84095 1.3335 8 1.3335Z"
        fill="#F8F9FC" />
    <path
        d="M5.33333 9.3335C4.44928 9.3335 3.60143 9.68469 2.97631 10.3098C2.35119 10.9349 2 11.7828 2 12.6668V14.0002C2 14.3684 2.29848 14.6668 2.66667 14.6668C3.03486 14.6668 3.33333 14.3684 3.33333 14.0002V12.6668C3.33333 12.1364 3.54405 11.6277 3.91912 11.2526C4.29419 10.8775 4.8029 10.6668 5.33333 10.6668H10.6667C11.1971 10.6668 11.7058 10.8775 12.0809 11.2526C12.456 11.6277 12.6667 12.1364 12.6667 12.6668V14.0002C12.6667 14.3684 12.9651 14.6668 13.3333 14.6668C13.7015 14.6668 14 14.3684 14 14.0002V12.6668C14 11.7828 13.6488 10.9349 13.0237 10.3098C12.3986 9.68469 11.5507 9.3335 10.6667 9.3335H5.33333Z"
        fill="#F8F9FC" />
</svg>
    