<svg width="17" height="17" viewBox="0 0 17 17" fill="none" xmlns="http://www.w3.org/2000/svg">
<path d="M13.1667 5.16667H12.5V4.5C12.5 3.96957 12.2893 3.46086 11.9142 3.08579C11.5392 2.71071 11.0304 2.5 10.5 2.5H3.83334C3.30291 2.5 2.7942 2.71071 2.41913 3.08579C2.04406 3.46086 1.83334 3.96957 1.83334 4.5V12.5C1.83334 13.0304 2.04406 13.5391 2.41913 13.9142C2.7942 14.2893 3.30291 14.5 3.83334 14.5H13.1667C13.6971 14.5 14.2058 14.2893 14.5809 13.9142C14.956 13.5391 15.1667 13.0304 15.1667 12.5V7.16667C15.1667 6.63623 14.956 6.12753 14.5809 5.75245C14.2058 5.37738 13.6971 5.16667 13.1667 5.16667ZM3.83334 3.83333H10.5C10.6768 3.83333 10.8464 3.90357 10.9714 4.0286C11.0964 4.15362 11.1667 4.32319 11.1667 4.5V5.16667H3.83334C3.65653 5.16667 3.48696 5.09643 3.36194 4.9714C3.23691 4.84638 3.16668 4.67681 3.16668 4.5C3.16668 4.32319 3.23691 4.15362 3.36194 4.0286C3.48696 3.90357 3.65653 3.83333 3.83334 3.83333ZM13.8333 10.5H13.1667C12.9899 10.5 12.8203 10.4298 12.6953 10.3047C12.5702 10.1797 12.5 10.0101 12.5 9.83333C12.5 9.65652 12.5702 9.48695 12.6953 9.36193C12.8203 9.23691 12.9899 9.16667 13.1667 9.16667H13.8333V10.5ZM13.8333 7.83333H13.1667C12.6362 7.83333 12.1275 8.04405 11.7525 8.41912C11.3774 8.79419 11.1667 9.3029 11.1667 9.83333C11.1667 10.3638 11.3774 10.8725 11.7525 11.2475C12.1275 11.6226 12.6362 11.8333 13.1667 11.8333H13.8333V12.5C13.8333 12.6768 13.7631 12.8464 13.6381 12.9714C13.5131 13.0964 13.3435 13.1667 13.1667 13.1667H3.83334C3.65653 13.1667 3.48696 13.0964 3.36194 12.9714C3.23691 12.8464 3.16668 12.6768 3.16668 12.5V6.38667C3.38086 6.46201 3.6063 6.50034 3.83334 6.5H13.1667C13.3435 6.5 13.5131 6.57024 13.6381 6.69526C13.7631 6.82029 13.8333 6.98986 13.8333 7.16667V7.83333Z" fill="white"/>
</svg>
