<svg width="16" height="17" viewBox="0 0 16 17" fill="none" xmlns="http://www.w3.org/2000/svg">
    <path fill-rule="evenodd" clip-rule="evenodd" d="M1.39773 1.16963C1.43239 1.17297 1.46684 1.17903 1.50074 1.18779L11.1564 3.51846C11.4087 3.57937 11.6028 3.78122 11.6537 4.03577L12.4224 7.87935C12.6618 7.78529 12.9446 7.83499 13.138 8.02845L15.138 10.0285C15.3984 10.2888 15.3984 10.7109 15.138 10.9713L10.4714 15.6379C10.211 15.8983 9.7889 15.8983 9.52855 15.6379L7.52855 13.6379C7.33508 13.4445 7.28538 13.1617 7.37946 12.9223L3.5359 12.1536C3.28135 12.1027 3.0795 11.9086 3.01858 11.6563L0.688248 2.00202C0.630516 1.7806 0.688396 1.53528 0.861888 1.36179C0.977471 1.2462 1.12494 1.18193 1.27598 1.16898C1.31625 1.1655 1.357 1.16567 1.39773 1.16963ZM5.52821 6.97091L2.53732 3.98003L4.21481 10.9296L8.44752 11.7762L11.2763 8.9474L10.4297 4.71469L3.4801 3.03719L6.47101 6.0281C6.7321 5.90316 7.02453 5.83319 7.33329 5.83319C8.43786 5.83319 9.33329 6.72862 9.33329 7.83319C9.33329 8.93776 8.43786 9.83319 7.33329 9.83319C6.22872 9.83319 5.33329 8.93776 5.33329 7.83319C5.33329 7.52443 5.40326 7.232 5.52821 6.97091ZM6.8537 7.37011C6.73788 7.49004 6.66663 7.6533 6.66663 7.83319C6.66663 8.20138 6.9651 8.49986 7.33329 8.49986C7.70148 8.49986 7.99996 8.20138 7.99996 7.83319C7.99996 7.465 7.70148 7.16652 7.33329 7.16652C7.1534 7.16652 6.99014 7.23778 6.87021 7.3536C6.86752 7.3564 6.86479 7.35917 6.86203 7.36193C6.85927 7.36469 6.8565 7.36741 6.8537 7.37011ZM12.4733 9.63602L12.4714 9.63792L9.47265 12.6366C10.4781 12.3723 11.555 11.7322 12.5297 11.1527C12.9299 10.9148 13.3129 10.6871 13.6666 10.4999C13.697 10.4838 13.7139 10.4862 13.7188 10.5049L13.7238 10.4999L12.6666 9.44267L12.4733 9.63602Z" fill="#F8F9FC" />
</svg>
    