<svg width="16" height="17" viewBox="0 0 16 17" fill="none" xmlns="http://www.w3.org/2000/svg">
    <path fill-rule="evenodd" clip-rule="evenodd"
        d="M1.39785 1.17012C1.43252 1.17346 1.46697 1.17951 1.50086 1.18827L11.1565 3.51895C11.4089 3.57986 11.6029 3.78171 11.6538 4.03626L12.4225 7.87984C12.6619 7.78577 12.9447 7.83547 13.1382 8.02894L15.1382 10.0289C15.3985 10.2893 15.3985 10.7114 15.1382 10.9718L10.4715 15.6384C10.2111 15.8988 9.78903 15.8988 9.52868 15.6384L7.52868 13.6384C7.3352 13.4449 7.28551 13.1621 7.37958 12.9228L3.53602 12.1541C3.28147 12.1031 3.07962 11.9091 3.01871 11.6568L0.68837 2.00251C0.630638 1.78109 0.688518 1.53577 0.86201 1.36227C0.977593 1.24669 1.12506 1.18242 1.2761 1.16947C1.31637 1.16599 1.35712 1.16616 1.39785 1.17012ZM5.52833 6.9714L2.53745 3.98052L4.21493 10.9301L8.44764 11.7766L11.2764 8.94789L10.4299 4.71518L3.48022 3.03768L6.47114 6.02859C6.73223 5.90365 7.02465 5.83368 7.33341 5.83368C8.43798 5.83368 9.33341 6.72911 9.33341 7.83368C9.33341 8.93825 8.43798 9.83368 7.33341 9.83368C6.22884 9.83368 5.33341 8.93825 5.33341 7.83368C5.33341 7.52491 5.40338 7.23249 5.52833 6.9714ZM6.85383 7.3706C6.738 7.49053 6.66675 7.65378 6.66675 7.83368C6.66675 8.20187 6.96522 8.50035 7.33341 8.50035C7.7016 8.50035 8.00008 8.20187 8.00008 7.83368C8.00008 7.46549 7.7016 7.16701 7.33341 7.16701C7.15352 7.16701 6.99027 7.23827 6.87034 7.35409C6.86764 7.35688 6.86491 7.35966 6.86215 7.36242C6.8594 7.36517 6.85662 7.3679 6.85383 7.3706ZM12.4734 9.63651L12.4715 9.63841L9.47278 12.6371C10.4782 12.3728 11.5551 11.7327 12.5298 11.1532C12.93 10.9153 13.313 10.6876 13.6667 10.5004C13.6971 10.4843 13.7141 10.4867 13.7189 10.5054L13.7239 10.5003L12.6667 9.44316L12.4734 9.63651Z"
        fill="#949BB8" />
</svg>
    