<svg width="24" height="24" viewBox="0 0 24 24" fill="none" xmlns="http://www.w3.org/2000/svg">
<path d="M19.1595 6.43148C19.5988 5.99214 19.5988 5.27983 19.1595 4.84049C18.7201 4.40115 18.0078 4.40115 17.5685 4.84049L11.9999 10.409L6.43148 4.84055C5.99214 4.40121 5.27983 4.40121 4.84049 4.84055C4.40115 5.27989 4.40115 5.9922 4.84049 6.43154L10.409 12L4.84054 17.5684C4.4012 18.0078 4.4012 18.7201 4.84054 19.1594C5.27988 19.5987 5.99219 19.5987 6.43153 19.1594L11.9999 13.591L17.5684 19.1595C18.0078 19.5988 18.7201 19.5988 19.1594 19.1595C19.5987 18.7201 19.5987 18.0078 19.1594 17.5685L13.5909 12L19.1595 6.43148Z" fill="#110F2A"/>
</svg>
