<svg version="1.0" xmlns="http://www.w3.org/2000/svg"
 width="1080.000000pt" height="1080.000000pt" viewBox="0 0 1080.000000 1080.000000"
 preserveAspectRatio="xMidYMid meet">

<g transform="translate(0.000000,1080.000000) scale(0.100000,-0.100000)"
fill="#000000" stroke="none">
<path d="M5055 10789 c-1047 -67 -2045 -435 -2890 -1066 -390 -291 -797 -698
-1088 -1088 -525 -702 -869 -1511 -1006 -2365 -274 -1698 263 -3403 1459
-4634 1231 -1267 2990 -1847 4740 -1565 1473 237 2794 1089 3627 2339 501 752
800 1608 885 2535 16 182 16 728 0 910 -130 1410 -765 2671 -1812 3596 -1073
947 -2482 1429 -3915 1338z m667 -349 c877 -59 1707 -335 2433 -808 185 -120
493 -352 468 -352 -933 -17 -1210 -27 -1483 -56 -480 -50 -1038 -145 -1345
-229 -288 -79 -844 -274 -1115 -392 -69 -30 -201 -94 -295 -143 -288 -149
-619 -269 -900 -327 -168 -34 -430 -39 -534 -10 -236 65 -423 258 -486 502
-21 83 -19 225 4 317 69 270 295 544 698 847 239 179 477 315 753 428 244 100
719 193 1130 222 181 12 495 13 672 1z m3133 -1517 l168 -6 67 -71 c98 -103
218 -244 319 -376 91 -118 233 -321 229 -326 -2 -1 -60 6 -130 16 -393 58
-918 57 -1498 -1 -779 -78 -1345 -226 -1975 -516 -413 -190 -690 -366 -1230
-782 -535 -411 -753 -555 -1080 -712 -560 -269 -1140 -321 -1656 -149 -205 68
-315 135 -445 272 -255 269 -389 677 -371 1133 11 281 61 482 177 715 82 164
225 362 384 535 l56 60 -49 -105 c-99 -214 -141 -377 -141 -547 0 -196 60
-342 195 -478 116 -117 248 -197 435 -263 318 -111 617 -118 934 -21 252 78
698 298 1116 552 459 279 718 409 1178 591 824 327 1362 427 2562 479 144 7
597 7 755 0z m-7665 -760 c-10 -27 -60 -146 -110 -267 -118 -284 -184 -483
-220 -665 -187 -943 15 -1622 585 -1963 224 -134 522 -227 834 -259 493 -51
1136 115 1677 432 295 173 515 346 1044 819 535 479 807 689 1205 927 635 381
1173 550 2065 650 122 14 244 18 570 18 443 0 577 -8 825 -51 213 -36 188 -19
267 -177 70 -140 163 -357 217 -506 l31 -84 -83 7 c-538 42 -980 44 -1337 5
-403 -43 -991 -193 -1315 -335 -128 -56 -325 -173 -469 -278 -567 -414 -924
-949 -1100 -1651 -49 -196 -61 -265 -106 -619 -120 -933 -204 -1188 -472
-1442 -93 -88 -147 -125 -252 -175 -119 -55 -199 -72 -336 -71 -224 1 -472 92
-690 253 -86 63 -247 230 -336 349 -39 52 -144 202 -232 333 -183 271 -265
374 -370 463 -158 135 -368 252 -532 296 -120 32 -311 32 -423 0 -267 -76
-501 -284 -607 -538 -99 -237 -97 -550 4 -901 116 -403 278 -689 659 -1163 78
-96 132 -168 121 -160 -10 8 -68 55 -129 106 -389 321 -731 705 -1007 1129
-450 690 -717 1462 -800 2310 -16 169 -16 721 0 890 80 823 332 1567 760 2248
40 64 75 117 78 117 2 0 -5 -21 -16 -47z m8745 -1469 c99 -8 220 -20 270 -27
l90 -12 27 -120 c31 -134 83 -433 93 -539 l8 -68 -49 6 c-322 42 -783 56
-1010 32 -456 -49 -995 -200 -1268 -356 -190 -109 -456 -343 -619 -545 -115
-142 -248 -349 -322 -500 -134 -273 -240 -663 -290 -1075 -23 -180 -31 -670
-16 -867 19 -242 34 -325 117 -670 35 -146 43 -340 20 -445 -33 -147 -110
-272 -270 -437 -336 -346 -811 -576 -1356 -655 -169 -25 -387 -39 -505 -33
-125 6 -400 51 -591 96 -440 104 -584 174 -951 463 -410 322 -458 363 -617
518 -287 282 -430 461 -539 680 -115 229 -153 372 -145 541 4 85 9 107 37 164
78 159 243 265 412 267 204 1 368 -104 833 -536 188 -174 257 -231 402 -326
453 -299 968 -374 1450 -211 316 106 552 335 751 726 145 286 199 498 248 975
64 621 140 1030 236 1274 153 385 446 790 744 1026 326 259 828 494 1225 573
479 97 1049 126 1585 81z m130 -1059 c88 -10 210 -25 270 -34 l110 -16 3 -145
c4 -179 -13 -476 -38 -675 -172 -1348 -874 -2563 -1959 -3389 -213 -162 -510
-350 -717 -454 l-81 -41 29 80 c57 162 72 264 73 489 0 282 -21 373 -170 720
-176 411 -233 662 -242 1073 -6 264 4 416 43 623 104 569 444 1119 863 1395
260 172 658 321 996 373 55 9 111 18 125 20 58 10 545 -3 695 -19z"/>
</g>
</svg>
