<svg width="24" height="24" viewBox="0 0 24 24" fill="none" xmlns="http://www.w3.org/2000/svg">
<path d="M3.00024 4C3.00024 3.44772 3.44796 3 4.00024 3H9C9.55229 3 10 3.44772 10 4C10 4.55229 9.55229 5 9 5L4.00024 5C3.44796 5 3.00024 4.55228 3.00024 4Z" fill="#110F2A"/>
<path d="M5 9C4.44772 9 4 9.44772 4 10C4 10.5523 4.44772 11 5 11H6.9999C7.55219 11 7.9999 10.5523 7.9999 10C7.9999 9.44772 7.55219 9 6.9999 9H5Z" fill="#110F2A"/>
<path d="M12 19C14.2091 19 16 17.2091 16 15C16 12.7909 14.2091 11 12 11C9.79086 11 8 12.7909 8 15C8 17.2091 9.79086 19 12 19Z" fill="#110F2A"/>
<path fill-rule="evenodd" clip-rule="evenodd" d="M1 9C1 7.34315 2.34315 6 4 6H20C21.6569 6 23 7.34315 23 9V20C23 21.6569 21.6569 23 20 23H4C2.34315 23 1 21.6569 1 20V9ZM4 8C3.44772 8 3 8.44772 3 9V20C3 20.5523 3.44772 21 4 21H10.977C16.3735 19.2473 19.3479 15.8159 21 10.5867V9C21 8.44772 20.5523 8 20 8H4Z" fill="#110F2A"/>
</svg>
