<svg width="19" height="21" viewBox="0 0 19 21" fill="none" xmlns="http://www.w3.org/2000/svg">
<path d="M8.50003 2.126V0H10.5V2.126C11.1857 2.30347 11.812 2.65973 12.3149 3.1584C12.8179 3.65707 13.1795 4.28028 13.3628 4.9644C13.5462 5.64852 13.5447 6.36905 13.3585 7.05239C13.1723 7.73574 12.8081 8.35744 12.303 8.854L18.366 19.356L16.634 20.356L10.571 9.855C9.87028 10.0495 9.12978 10.0495 8.42903 9.855L2.36603 20.356L0.634033 19.356L6.69703 8.854C6.192 8.35744 5.82779 7.73574 5.6416 7.05239C5.45541 6.36905 5.4539 5.64852 5.63724 4.9644C5.82057 4.28028 6.18218 3.65707 6.68513 3.1584C7.18808 2.65973 7.81437 2.30347 8.50003 2.126ZM9.50003 8C10.0305 8 10.5392 7.78929 10.9142 7.41421C11.2893 7.03914 11.5 6.53043 11.5 6C11.5 5.46957 11.2893 4.96086 10.9142 4.58579C10.5392 4.21071 10.0305 4 9.50003 4C8.9696 4 8.46089 4.21071 8.08582 4.58579C7.71075 4.96086 7.50003 5.46957 7.50003 6C7.50003 6.53043 7.71075 7.03914 8.08582 7.41421C8.46089 7.78929 8.9696 8 9.50003 8Z" fill="#646B8B"/>
</svg>
