<svg width="24" height="24" viewBox="0 0 24 24" fill="none" xmlns="http://www.w3.org/2000/svg">
<path fill-rule="evenodd" clip-rule="evenodd" d="M6 6V4.5C6 3.11929 7.11929 2 8.5 2H15.5C16.8807 2 18 3.11929 18 4.5V6H20C21.6569 6 23 7.34315 23 9V18.5066C23 20.1635 21.6569 21.5066 20 21.5066H4C2.34315 21.5066 1 20.1635 1 18.5066V9C1 7.34314 2.34315 6 4 6H6ZM8.5 4H15.5C15.7761 4 16 4.22386 16 4.5V6H8V4.5C8 4.22386 8.22386 4 8.5 4ZM3 12V18.5066C3 19.0589 3.44772 19.5066 4 19.5066H12.3257C16.0667 17.9724 18.4974 15.4869 20.0824 12H3Z" fill="#110F2A"/>
</svg>
