<svg width="24" height="24" viewBox="0 0 24 24" fill="none" xmlns="http://www.w3.org/2000/svg">
<path fill-rule="evenodd" clip-rule="evenodd" d="M7.93688 2.72079C6.9803 3.27308 6.65255 4.49626 7.20483 5.45284L7.24371 5.52018C6.30199 5.88724 5.43501 6.43867 4.6872 7.14431C3.81565 7.96672 3.12685 8.97874 2.6647 10.107C2.2026 11.2352 1.97704 12.4553 2.00185 13.6826C2.02159 14.6596 2.19967 15.6249 2.52755 16.5362C2.18862 17.2879 2 18.1219 2 19C2 20.0271 2.2589 20.9967 2.7158 21.8441C3.15251 22.6541 3.99802 23 4.74896 23L21 23C21.5523 23 22 22.5523 22 22C22 21.4477 21.5523 21 21 21L13.6583 21C13.8796 20.3741 14 19.7007 14 19C14 18.9257 13.9986 18.8517 13.996 18.778L21.5614 14.4102C21.9689 14.1749 22.0755 13.5964 21.7993 13.1181C21.5232 12.6398 20.9689 12.4428 20.5614 12.6781L13.5533 16.7242C12.6569 14.539 10.5082 13 8 13C6.49543 13 5.12021 13.5538 4.06705 14.4687C4.02906 14.1958 4.00705 13.9197 4.00144 13.6422C3.9821 12.6854 4.15819 11.7374 4.51547 10.8651C4.8727 9.99294 5.40122 9.2204 6.05981 8.59894C6.70197 7.99299 7.4525 7.54493 8.25957 7.27971L10.4435 11.0624C10.9958 12.019 12.219 12.3468 13.1756 11.7945L13.712 11.4848L14.5098 12.8668C14.6479 13.1059 14.9537 13.1878 15.1929 13.0498L16.1416 12.502C16.3807 12.364 16.4627 12.0582 16.3246 11.819L15.5267 10.4371L16.0631 10.1274C17.0197 9.57512 17.3474 8.35194 16.7951 7.39535L13.5564 1.78575C13.0041 0.829164 11.781 0.501414 10.8244 1.0537L7.93688 2.72079ZM11.4654 20.9995C10.5117 20.9706 6.24038 19.7972 4.88075 16.4957C5.61389 15.5837 6.73878 15 8 15C10.2091 15 12 16.7909 12 19C12 19.7294 11.8055 20.4116 11.4654 20.9995Z" fill="#110F2A"/>
</svg>
