<svg width="24" height="24" viewBox="0 0 24 24" fill="none" xmlns="http://www.w3.org/2000/svg">
<path fill-rule="evenodd" clip-rule="evenodd" d="M2 1C2.55228 1 3 1.44772 3 2V20C3 20.5523 3.44772 21 4 21H22C22.5523 21 23 21.4477 23 22C23 22.5523 22.5523 23 22 23H4C2.34315 23 1 21.6569 1 20V2C1 1.44772 1.44772 1 2 1Z" fill="#110F2A"/>
<path fill-rule="evenodd" clip-rule="evenodd" d="M21.8839 7.11612C22.372 7.60427 22.372 8.39573 21.8839 8.88388L15.8839 14.8839C15.3957 15.372 14.6043 15.372 14.1161 14.8839L11 11.7678L6.88388 15.8839C6.39573 16.372 5.60427 16.372 5.11612 15.8839C4.62796 15.3957 4.62796 14.6043 5.11612 14.1161L10.1161 9.11612C10.6043 8.62796 11.3957 8.62796 11.8839 9.11612L15 12.2322L20.1161 7.11612C20.6043 6.62796 21.3957 6.62796 21.8839 7.11612Z" fill="#110F2A"/>
</svg>
