<svg width="21" height="20" viewBox="0 0 21 20" fill="none" xmlns="http://www.w3.org/2000/svg">
<path d="M3.42901 17.071C2.49904 16.1434 1.76154 15.0413 1.25889 13.8278C0.756234 12.6143 0.498334 11.3135 0.500008 10C0.500008 4.477 4.97701 0 10.5 0C16.023 0 20.5 4.477 20.5 10C20.5 15.523 16.023 20 10.5 20H0.500008L3.42901 17.071ZM6.50001 11C6.50001 12.0609 6.92144 13.0783 7.67158 13.8284C8.42173 14.5786 9.43914 15 10.5 15C11.5609 15 12.5783 14.5786 13.3284 13.8284C14.0786 13.0783 14.5 12.0609 14.5 11H6.50001Z" fill="#4C1D95"/>
</svg>
