<svg width="24" height="24" viewBox="0 0 24 24" fill="none" xmlns="http://www.w3.org/2000/svg">
<path d="M16.6954 13.5307C17.0274 12.7292 16.2966 12 15.4291 12H10.5707C9.70317 12 8.9724 12.7292 9.30438 13.5307C9.5054 14.016 9.80004 14.457 10.1715 14.8284C10.5429 15.1999 10.9839 15.4945 11.4692 15.6955C11.9545 15.8965 12.4746 16 12.9999 16C13.5252 16 14.0453 15.8965 14.5306 15.6955C15.0159 15.4945 15.4569 15.1999 15.8283 14.8284C16.1998 14.457 16.4944 14.016 16.6954 13.5307Z" fill="#881337"/>
<path fill-rule="evenodd" clip-rule="evenodd" d="M13.9956 1.04967C11.6484 0.814825 9.29379 1.41729 7.34784 2.75058C5.40189 4.08387 3.98992 6.06215 3.36146 8.33579C2.76698 10.4865 2.9098 12.7706 3.76068 14.8255L2.04009 20.7198C1.93634 21.0752 2.03746 21.4589 2.30291 21.717C2.56835 21.9751 2.95469 22.0654 3.30705 21.9517L8.9345 20.1363C10.9557 21.0357 13.2225 21.2411 15.3789 20.7129C17.6701 20.1518 19.6891 18.7987 21.0792 16.8929C22.4693 14.9872 23.1409 12.6513 22.9754 10.2982C22.8098 7.94515 21.8178 5.72634 20.1746 4.03394C18.5314 2.34154 16.3428 1.28451 13.9956 1.04967ZM8.47828 4.40046C10.035 3.33383 11.9187 2.85186 13.7965 3.03973C15.6742 3.22761 17.4251 4.07323 18.7397 5.42715C20.0542 6.78107 20.8479 8.55612 20.9803 10.4386C21.1127 12.321 20.5754 14.1897 19.4634 15.7144C18.3513 17.239 16.7361 18.3214 14.9031 18.7703C13.0702 19.2192 11.1375 19.0058 9.44679 18.1676C9.21323 18.0518 8.9437 18.0318 8.69561 18.1118L4.48867 19.469L5.78207 15.0381C5.84955 14.8069 5.83134 14.5592 5.73079 14.3404C4.94283 12.6256 4.78641 10.6875 5.28918 8.86863C5.79194 7.04972 6.92152 5.46709 8.47828 4.40046Z" fill="#881337"/>
</svg>
