<svg width="21" height="20" viewBox="0 0 21 20" fill="none" xmlns="http://www.w3.org/2000/svg">
<path d="M3.42899 17.071C2.49903 16.1434 1.76153 15.0413 1.25887 13.8278C0.756219 12.6143 0.498318 11.3135 0.499993 10C0.499993 4.477 4.97699 0 10.5 0C16.023 0 20.5 4.477 20.5 10C20.5 15.523 16.023 20 10.5 20H0.499993L3.42899 17.071ZM6.49999 11C6.49999 12.0609 6.92142 13.0783 7.67157 13.8284C8.42171 14.5786 9.43913 15 10.5 15C11.5609 15 12.5783 14.5786 13.3284 13.8284C14.0786 13.0783 14.5 12.0609 14.5 11H6.49999Z" fill="#881337"/>
</svg>
