<svg width="21" height="19" viewBox="0 0 21 19" fill="none" xmlns="http://www.w3.org/2000/svg">
<path d="M0.166766 4C0.166766 3.448 0.621766 3 1.15877 3H19.1748C19.7228 3 20.1668 3.445 20.1668 4V18C20.1668 18.552 19.7118 19 19.1748 19H1.15877C1.02789 18.9997 0.898362 18.9736 0.777603 18.9232C0.656844 18.8727 0.547235 18.7989 0.455067 18.706C0.362899 18.6131 0.289985 18.5029 0.240511 18.3818C0.191037 18.2606 0.165976 18.1309 0.166766 18V4ZM12.1668 16C13.4928 16 14.7646 15.4732 15.7023 14.5355C16.64 13.5979 17.1668 12.3261 17.1668 11C17.1668 9.67392 16.64 8.40215 15.7023 7.46447C14.7646 6.52678 13.4928 6 12.1668 6C10.8407 6 9.56891 6.52678 8.63123 7.46447C7.69355 8.40215 7.16677 9.67392 7.16677 11C7.16677 12.3261 7.69355 13.5979 8.63123 14.5355C9.56891 15.4732 10.8407 16 12.1668 16ZM2.16677 5V7H5.16677V5H2.16677ZM2.16677 0H8.16677V2H2.16677V0Z" fill="#4C1D95"/>
</svg>
