<svg width="24" height="24" viewBox="0 0 24 24" fill="none" xmlns="http://www.w3.org/2000/svg">
<path fill-rule="evenodd" clip-rule="evenodd" d="M1.51538 21.2013C1.38112 21.5671 1.47152 21.9775 1.74702 22.253C2.02253 22.5285 2.43297 22.6189 2.79873 22.4847L8.07474 20.5479C8.41526 20.4229 8.7245 20.2253 8.98099 19.9688L22.2531 6.69667C23.62 5.32984 23.62 3.11376 22.2531 1.74693C20.8863 0.38009 18.6702 0.380096 17.3034 1.74693L4.03124 15.0191C3.77475 15.2756 3.57714 15.5848 3.45214 15.9253L1.51538 21.2013ZM10.3092 15.8122L20.8389 5.28246C21.4247 4.69667 21.4247 3.74693 20.8389 3.16114C20.2531 2.57536 19.3034 2.57536 18.7176 3.16114L6.07442 15.8043C7.46209 16.564 8.72429 16.392 10.3092 15.8122Z" fill="#78350F"/>
</svg>
