<svg width="24" height="24" viewBox="0 0 24 24" fill="none" xmlns="http://www.w3.org/2000/svg">
<path fill-rule="evenodd" clip-rule="evenodd" d="M1 5C1 3.34315 2.34315 2 4 2H20C21.6569 2 23 3.34315 23 5V16C23 17.6569 21.6569 19 20 19H13V21H17C17.5523 21 18 21.4477 18 22C18 22.5523 17.5523 23 17 23H7C6.44772 23 6 22.5523 6 22C6 21.4477 6.44772 21 7 21H11V19H4C2.34315 19 1 17.6569 1 16V5ZM4 4C3.44772 4 3 4.44772 3 5V16C3 16.5523 3.44772 17 4 17H10.977C16.3735 15.2473 19.3479 11.8159 21 6.58674V5C21 4.44772 20.5523 4 20 4H4Z" fill="#365314"/>
</svg>
