<svg width="21" height="20" viewBox="0 0 21 20" fill="none" xmlns="http://www.w3.org/2000/svg">
<path d="M5.8335 4V1C5.8335 0.734784 5.93885 0.48043 6.12639 0.292893C6.31393 0.105357 6.56828 0 6.8335 0H14.8335C15.0987 0 15.3531 0.105357 15.5406 0.292893C15.7281 0.48043 15.8335 0.734784 15.8335 1V4H19.8335C20.0987 4 20.3531 4.10536 20.5406 4.29289C20.7281 4.48043 20.8335 4.73478 20.8335 5V19C20.8335 19.2652 20.7281 19.5196 20.5406 19.7071C20.3531 19.8946 20.0987 20 19.8335 20H1.8335C1.56828 20 1.31393 19.8946 1.12639 19.7071C0.938853 19.5196 0.833496 19.2652 0.833496 19V5C0.833496 4.73478 0.938853 4.48043 1.12639 4.29289C1.31393 4.10536 1.56828 4 1.8335 4H5.8335ZM2.8335 14V18H18.8335V14H2.8335ZM9.8335 10V12H11.8335V10H9.8335ZM7.8335 2V4H13.8335V2H7.8335Z" fill="#0C4A6E"/>
</svg>
