<svg width="19" height="21" viewBox="0 0 19 21" fill="none" xmlns="http://www.w3.org/2000/svg">
<path d="M10.696 1.26784L13.946 6.89784C14.222 7.37484 14.058 7.98684 13.58 8.26284L12.28 9.01284L13.281 10.7448L11.549 11.7448L10.549 10.0118L9.25 10.7628C8.772 11.0388 8.16 10.8748 7.884 10.3968L6.046 7.21484C3.994 7.83684 2.5 9.74484 2.5 11.9998C2.5 12.6248 2.615 13.2238 2.824 13.7758C3.6 13.2838 4.516 12.9998 5.5 12.9998C7.184 12.9998 8.674 13.8328 9.58 15.1088L17.268 10.6698L18.268 12.4018L10.39 16.9508C10.462 17.2888 10.5 17.6408 10.5 17.9998C10.5 18.3428 10.466 18.6768 10.4 18.9998H18.5V20.9998L1.5 21.0008C0.872 20.1648 0.5 19.1258 0.5 17.9998C0.5 16.9928 0.798 16.0548 1.31 15.2698C0.793 14.2948 0.5 13.1818 0.5 11.9998C0.5 9.00484 2.381 6.44884 5.027 5.44984L4.634 4.76784C4.082 3.81084 4.409 2.58784 5.366 2.03584L7.964 0.535838C8.921 -0.0161618 10.144 0.310838 10.696 1.26784Z" fill="#831843"/>
</svg>
